<svg width="21" height="21" viewBox="0 0 21 21" fill="none" xmlns="http://www.w3.org/2000/svg">
<path fill-rule="evenodd" clip-rule="evenodd" d="M11.0263 6.38827C11.0843 6.33006 11.1533 6.28388 11.2292 6.25238C11.3052 6.22087 11.3866 6.20465 11.4688 6.20465C11.551 6.20465 11.6324 6.22087 11.7083 6.25238C11.7842 6.28388 11.8532 6.33006 11.9113 6.38827L15.6613 10.1383C15.7195 10.1963 15.7657 10.2653 15.7972 10.3412C15.8287 10.4172 15.8449 10.4986 15.8449 10.5808C15.8449 10.663 15.8287 10.7444 15.7972 10.8203C15.7657 10.8962 15.7195 10.9652 15.6613 11.0233L11.9113 14.7733C11.7939 14.8906 11.6347 14.9566 11.4688 14.9566C11.3028 14.9566 11.1436 14.8906 11.0263 14.7733C10.9089 14.6559 10.843 14.4967 10.843 14.3308C10.843 14.1648 10.9089 14.0056 11.0263 13.8883L14.335 10.5808L11.0263 7.27327C10.9681 7.21521 10.9219 7.14624 10.8904 7.07031C10.8589 6.99438 10.8427 6.91298 10.8427 6.83077C10.8427 6.74856 10.8589 6.66716 10.8904 6.59123C10.9219 6.51529 10.9681 6.44632 11.0263 6.38827Z" fill="black"/>
<path fill-rule="evenodd" clip-rule="evenodd" d="M5.84375 10.5807C5.84375 10.415 5.9096 10.256 6.02681 10.1388C6.14402 10.0216 6.30299 9.95575 6.46875 9.95575H14.5938C14.7595 9.95575 14.9185 10.0216 15.0357 10.1388C15.1529 10.256 15.2188 10.415 15.2188 10.5807C15.2188 10.7465 15.1529 10.9055 15.0357 11.0227C14.9185 11.1399 14.7595 11.2057 14.5938 11.2057H6.46875C6.30299 11.2057 6.14402 11.1399 6.02681 11.0227C5.9096 10.9055 5.84375 10.7465 5.84375 10.5807Z" fill="black"/>
</svg>
