<svg width="195" height="173" viewBox="0 0 195 173" fill="none" xmlns="http://www.w3.org/2000/svg">
<path d="M109.737 0.46283H16.8704V113.471H109.737V0.46283Z" fill="#E6E6E6"/>
<path d="M183.588 7.46051H121.156V67.7416H183.588V7.46051Z" fill="#E6E6E6"/>
<path d="M194.695 77.8503H150.192V101.014H194.695V77.8503Z" fill="#E6E6E6"/>
<path opacity="0.08" d="M94.9738 61.3826C94.9738 61.3826 90.2049 60.0984 89.0127 63.6007C87.8205 67.103 76.7528 62.5431 75.4215 72.9402C74.6797 78.7362 64.0624 89.1745 50.2527 92.3609C36.4429 95.5474 35.5156 113.478 35.5156 113.478H73.0504L97.9609 75.6047L94.9738 61.3826Z" fill="black"/>
<path opacity="0.45" d="M102.537 172.138C143.569 172.138 176.831 164.375 176.831 154.798C176.831 145.222 143.569 137.458 102.537 137.458C61.5052 137.458 28.2424 145.222 28.2424 154.798C28.2424 164.375 61.5052 172.138 102.537 172.138Z" fill="#E6E6E6"/>
<path d="M91.1913 76.9782C91.1913 76.9782 58.6903 73.4072 59.9156 91.2347C61.141 109.062 79.3619 147.025 79.3619 147.025H119.281C119.281 147.025 149.576 98.8505 134.839 83.3579C120.102 67.8653 116.731 81.1672 91.1913 76.9782Z" fill="#2945FF"/>
<path d="M79.3024 152.821L103.597 159.619L125.149 148.274L128.421 142.231H106.697H72.1359L79.3024 152.821Z" fill="#24285B"/>
<path d="M75.514 96.2822C78.5541 85.7272 72.805 74.197 61.9294 82.6438C54.4715 88.4329 45.6293 106.899 45.1723 123.978C44.1125 163.252 90.5756 121.004 96.3512 98.5141L90.6352 95.0117C90.6352 95.0117 80.9982 113.849 70.5001 117.928C62.9229 120.874 71.0167 111.878 75.514 96.2822Z" fill="#68E1FD"/>
<path opacity="0.46" d="M75.514 96.2822C78.5541 85.7272 72.805 74.197 61.9294 82.6438C54.4715 88.4329 45.6293 106.899 45.1723 123.978C44.1125 163.252 90.5756 121.004 96.3512 98.5141L90.6352 95.0117C90.6352 95.0117 80.9982 113.849 70.5001 117.928C62.9229 120.874 71.0167 111.878 75.514 96.2822Z" fill="#2945FF"/>
<path d="M91.1913 76.9782C91.1913 76.9782 86.1907 85.1366 91.092 88.0552C95.9933 90.9738 97.563 87.6431 97.563 87.6431C97.563 87.6431 101.213 92.1069 104.478 88.6457C107.743 85.1846 107.28 78.2899 103.955 75.1103C100.63 71.9307 91.1913 76.9782 91.1913 76.9782Z" fill="white"/>
<path d="M92.3305 77.2254C92.5664 78.7351 92.719 80.2575 92.7875 81.7853C92.8538 83.8455 93.4962 86.9701 96.6754 87.5744C101.57 88.5152 102.868 80.4942 102.868 80.4942C102.868 80.4942 105.948 72.9402 100.649 71.9444C95.8541 70.983 91.3569 70.3238 92.3305 77.2254Z" fill="#F4A28C"/>
<path opacity="0.08" d="M111.194 88.5427C111.194 88.5427 108.161 95.1491 115.831 108.698C120.222 116.458 106.691 129.403 106.691 129.403L73.0239 132.899L79.3625 147.025H119.282C119.282 147.025 136.82 117.44 138.172 102.222C139.523 87.0044 111.194 88.5427 111.194 88.5427Z" fill="#2945FF"/>
<path d="M102.538 80.7895C102.538 80.7895 102.816 78.3516 104.863 78.4546C106.909 78.5576 106.108 83.1106 102.538 80.7895Z" fill="#F4A28C"/>
<path d="M93.5094 79.4298C93.5094 79.4298 94.2247 77.0949 92.3238 76.3052C90.4229 75.5155 89.33 80.0135 93.5094 79.4298Z" fill="#F4A28C"/>
<path d="M161.141 95.7259C164.495 95.7259 167.214 92.9065 167.214 89.4286C167.214 85.9507 164.495 83.1313 161.141 83.1313C157.786 83.1313 155.067 85.9507 155.067 89.4286C155.067 92.9065 157.786 95.7259 161.141 95.7259Z" fill="#C9C9C9"/>
<path d="M80.8855 140.082L78.0706 113.478H121.156L116.857 141.442L117.473 145.026L80.4285 145.328L80.8855 140.082Z" fill="#FFD200"/>
<path opacity="0.08" d="M157.359 90.4037C157.359 90.4037 168.956 91.8321 171.268 101.014H163.412L157.359 90.4037Z" fill="black"/>
<path d="M98.2256 152.821C98.2256 152.821 106.405 155.787 103.597 159.619C100.789 163.451 96.3512 157.085 96.3512 157.085L98.2256 152.821Z" fill="#68E1FD"/>
<path opacity="0.08" d="M121.155 113.478L112.618 125.152C107.633 131.976 100.899 137.211 93.1847 140.26L80.4281 145.308L114.592 145.026H117.473L116.857 141.442L121.155 113.478Z" fill="black"/>
<path d="M92.3308 77.2254C92.3308 77.2254 84.3828 76.0442 87.9461 70.001C91.5095 63.9578 92.2712 68.4833 93.9469 63.8204C95.6226 59.1576 97.1328 58.2305 99.5834 60.2289C102.034 62.2272 99.6629 66.4094 103.372 65.2488C107.081 64.0883 109.624 62.9689 110.327 66.1553C111.029 69.3418 110.327 70.8732 107.936 71.9651C105.544 73.057 109.3 77.349 103.299 79.1002C97.2983 80.8513 94.1655 74.0458 94.1655 74.0458L92.3308 77.2254Z" fill="#24285B"/>
<path d="M98.4775 151.344C98.4775 151.344 65.4334 133.853 62.6185 143.158C59.8035 152.463 82.5747 157.868 97.272 158.431L98.4775 151.344Z" fill="#24285B"/>
<path d="M100.04 131.628C102.078 131.628 103.73 129.916 103.73 127.803C103.73 125.691 102.078 123.978 100.04 123.978C98.0029 123.978 96.3512 125.691 96.3512 127.803C96.3512 129.916 98.0029 131.628 100.04 131.628Z" fill="white"/>
<path d="M106.511 152.711C106.511 152.711 132.866 125.633 138.304 133.613C143.742 141.593 123.6 153.919 109.764 159.084L106.511 152.711Z" fill="#24285B"/>
<path d="M107.545 154.757C107.545 154.757 99.7359 161.968 104.233 164.09C108.731 166.212 109.717 159.083 109.717 159.083L107.545 154.757Z" fill="#68E1FD"/>
<path d="M111.194 88.5427C110.901 85.4994 111.781 82.4595 113.643 80.0869C115.504 77.7143 118.195 76.2017 121.129 75.8794C127.09 75.1927 134.919 75.6253 141.88 80.144C155.392 88.9273 170.36 95.9388 166.645 111.843C162.929 127.748 136.177 134.444 136.177 134.444L132.601 128.4C132.601 128.4 156.233 120.16 151.934 107.174C148.04 95.5199 113.737 115.002 111.194 88.5427Z" fill="#68E1FD"/>
<path opacity="0.46" d="M111.194 88.5427C110.901 85.4994 111.781 82.4595 113.643 80.0869C115.504 77.7143 118.195 76.2017 121.129 75.8794C127.09 75.1927 134.919 75.6253 141.88 80.144C155.392 88.9273 170.36 95.9388 166.645 111.843C162.929 127.748 136.177 134.444 136.177 134.444L132.601 128.4C132.601 128.4 156.233 120.16 151.934 107.174C148.04 95.5199 113.737 115.002 111.194 88.5427Z" fill="#2945FF"/>
<path d="M133.19 129.403C133.19 129.403 125.732 134.629 128.441 136.071C131.15 137.513 135.727 133.681 135.727 133.681L133.19 129.403Z" fill="#F4A28C"/>
<path d="M91.6353 95.6229C91.6353 95.6229 94.2846 88.838 97.9606 89.3874C101.637 89.9367 95.914 98.2462 95.914 98.2462L91.6353 95.6229Z" fill="#F4A28C"/>
<path d="M54.2259 13.9433H27.2754V52.2491H54.2259V13.9433Z" fill="#C9C9C9"/>
<path d="M148.993 14.836H128.15V34.8267H148.993V14.836Z" fill="#C9C9C9"/>
<path opacity="0.44" d="M148.993 40.4099H128.15V60.4005H148.993V40.4099Z" fill="#C9C9C9"/>
<path opacity="0.44" d="M176.666 40.4099H155.822V60.4005H176.666V40.4099Z" fill="#C9C9C9"/>
<path opacity="0.63" d="M129.707 31.0635L133.78 24.5395L138.576 30.3561L143.152 22.0055L147.438 31.1871V33.4945H129.707V31.0635Z" fill="white"/>
<path d="M138.41 23.3722C139.558 23.3722 140.489 22.4067 140.489 21.2158C140.489 20.0249 139.558 19.0595 138.41 19.0595C137.261 19.0595 136.33 20.0249 136.33 21.2158C136.33 22.4067 137.261 23.3722 138.41 23.3722Z" fill="white"/>
<path d="M176.832 14.836H155.988V34.8267H176.832V14.836Z" fill="#C9C9C9"/>
<path opacity="0.63" d="M157.544 31.0635L161.618 24.5395L166.407 30.3561L170.99 22.0055L175.275 31.1871V33.4945H157.544V31.0635Z" fill="white"/>
<path d="M166.241 23.3722C167.39 23.3722 168.321 22.4067 168.321 21.2158C168.321 20.0249 167.39 19.0595 166.241 19.0595C165.092 19.0595 164.161 20.0249 164.161 21.2158C164.161 22.4067 165.092 23.3722 166.241 23.3722Z" fill="white"/>
<path d="M41.1057 65.8876H0.908325V89.8064H41.1057V65.8876Z" fill="#FFD200"/>
<path d="M15.6057 83.7356C15.3982 83.7398 15.1961 83.6667 15.0361 83.5296L9.07504 78.6401C8.96632 78.5519 8.87826 78.4394 8.81746 78.311C8.75667 78.1825 8.72472 78.0415 8.724 77.8984C8.72435 77.755 8.75543 77.6134 8.815 77.484C8.87456 77.3545 8.96112 77.2404 9.06841 77.1499L15.0295 72.1711C15.2201 72.0126 15.4636 71.9392 15.7064 71.9668C15.9492 71.9945 16.1715 72.1211 16.3243 72.3187C16.4772 72.5163 16.548 72.7688 16.5213 73.0206C16.4946 73.2724 16.3725 73.5028 16.1819 73.6613L11.115 77.8847L16.1753 82.005C16.3251 82.128 16.4343 82.2962 16.4878 82.4863C16.5413 82.6765 16.5364 82.8792 16.4738 83.0663C16.4112 83.2535 16.2941 83.4158 16.1385 83.5308C15.9829 83.6458 15.7967 83.7078 15.6057 83.7081V83.7356Z" fill="#24285B"/>
<path d="M26.4018 83.7356C26.2626 83.7364 26.1251 83.704 25.9999 83.6409C25.8747 83.5778 25.7652 83.4857 25.6799 83.3716C25.5291 83.173 25.4604 82.9205 25.489 82.6694C25.5176 82.4184 25.641 82.1893 25.8322 82.0325L30.8925 77.9121L25.8256 73.6888C25.6315 73.5303 25.5061 73.2984 25.4769 73.044C25.4477 72.7897 25.5171 72.5337 25.67 72.3325C25.8228 72.1312 26.0465 72.0011 26.2918 71.9709C26.5371 71.9406 26.784 72.0126 26.9781 72.1711L32.9391 77.1499C33.0464 77.2404 33.133 77.3545 33.1925 77.484C33.2521 77.6134 33.2832 77.755 33.2835 77.8984C33.2828 78.0415 33.2509 78.1825 33.1901 78.311C33.1293 78.4394 33.0412 78.5519 32.9325 78.6401L26.9715 83.5296C26.8109 83.6656 26.6092 83.7386 26.4018 83.7356Z" fill="#24285B"/>
<path d="M18.5001 83.7356C18.3681 83.7347 18.2375 83.7067 18.116 83.6532C17.8945 83.5458 17.7229 83.352 17.6386 83.1141C17.5542 82.8761 17.5639 82.6133 17.6656 82.3827L22.0105 72.5213C22.0585 72.404 22.1286 72.2979 22.2168 72.2091C22.305 72.1204 22.4094 72.0509 22.5239 72.0046C22.6384 71.9584 22.7606 71.9364 22.8834 71.9399C23.0063 71.9434 23.1272 71.9724 23.239 72.0251C23.3509 72.0778 23.4514 72.1532 23.5347 72.2468C23.6181 72.3405 23.6825 72.4504 23.7241 72.5703C23.7658 72.6901 23.7839 72.8174 23.7774 72.9446C23.7709 73.0719 23.7399 73.1964 23.6862 73.311L19.3413 83.1587C19.2697 83.3288 19.1522 83.4737 19.003 83.5761C18.8537 83.6785 18.6791 83.7338 18.5001 83.7356Z" fill="#24285B"/>
<path d="M40.7611 26.7921C42.8205 26.7921 44.49 25.0611 44.49 22.9258C44.49 20.7905 42.8205 19.0595 40.7611 19.0595C38.7016 19.0595 37.0321 20.7905 37.0321 22.9258C37.0321 25.0611 38.7016 26.7921 40.7611 26.7921Z" fill="white"/>
<path opacity="0.56" d="M48.7027 31.6609H33.29V34.8268H48.7027V31.6609Z" fill="white"/>
<path opacity="0.19" d="M48.7027 38.8235H33.29V41.9893H48.7027V38.8235Z" fill="white"/>
<path opacity="0.46" d="M101.815 13.9433H63.3003V37.6011H101.815V13.9433Z" fill="white"/>
<path d="M101.815 44.3586H63.3003V52.2491H101.815V44.3586Z" fill="white"/>
<path d="M101.816 44.3586H90.6353V52.2491H101.816V44.3586Z" fill="#C9C9C9"/>
<path d="M186.727 85.425H171.824V88.2268H186.727V85.425Z" fill="#C9C9C9"/>
<path opacity="0.45" d="M186.727 90.6304H171.824V93.4322H186.727V90.6304Z" fill="#C9C9C9"/>
</svg>
