<svg width="190" height="171" viewBox="0 0 190 171" fill="none" xmlns="http://www.w3.org/2000/svg">
<path d="M159.582 124.371C159.582 124.371 182.488 62.3556 170.621 52.8981C158.754 43.4406 108.985 47.2597 106.259 50.6384C103.532 54.0171 87.478 128.666 87.478 128.666L159.582 124.371Z" fill="#231F20"/>
<path d="M87.4438 129.042C87.394 129.041 87.3448 129.03 87.2993 129.009C87.2538 128.988 87.213 128.957 87.1795 128.919C87.1448 128.877 87.1204 128.827 87.1083 128.773C87.0962 128.719 87.0967 128.662 87.1099 128.609C87.7638 125.555 103.241 53.8293 105.995 50.4217C107.504 48.5519 120.79 46.812 135.008 46.6171C143.355 46.5016 163.589 46.8553 170.837 52.6237C175.88 56.6377 175.56 69.9504 169.891 92.273C165.718 108.784 159.965 124.342 159.91 124.493C159.886 124.559 159.845 124.616 159.79 124.657C159.736 124.698 159.671 124.722 159.604 124.724L87.4647 129.056L87.4438 129.042ZM137.637 47.3174H135.022C120.414 47.5195 107.72 49.3894 106.503 50.8693C104.416 53.4756 93.4537 102.366 87.8612 128.284L159.318 124.01C160.786 119.974 181.577 62.0812 170.392 53.1796C165.683 49.4327 153.809 47.3174 137.637 47.3174Z" fill="#231F20"/>
<path d="M66.5766 70.7878L56.2542 106.748C56.2542 106.748 77.546 109.6 77.546 108.784C77.546 107.968 81.7195 69.214 81.7195 69.214L66.5766 70.7878Z" fill="white"/>
<path d="M76.4744 109.253C72.8782 109.253 62.674 107.968 56.212 107.087C56.1622 107.08 56.1144 107.062 56.0718 107.034C56.0293 107.006 55.993 106.969 55.9654 106.925C55.9377 106.881 55.9194 106.832 55.9116 106.78C55.9037 106.728 55.9066 106.676 55.9199 106.625L66.2424 70.6651C66.2615 70.5958 66.3002 70.5339 66.3535 70.4876C66.4068 70.4412 66.4723 70.4126 66.5414 70.4052L81.6913 68.8314C81.7425 68.8265 81.7942 68.8337 81.8423 68.8524C81.8905 68.8712 81.934 68.901 81.9695 68.9397C82.0068 68.9762 82.0352 69.0215 82.0521 69.0717C82.0691 69.122 82.0741 69.1758 82.0669 69.2285C80.627 82.5845 77.8934 108.033 77.8934 108.762C77.887 108.88 77.8372 108.992 77.7543 109.073C77.3464 109.233 76.9087 109.295 76.4744 109.253ZM56.6781 106.445C64.0791 107.427 75.5701 108.791 77.1839 108.553C77.4482 105.434 80.8357 73.9572 81.3017 69.6183L66.8197 71.1272L56.6781 106.445Z" fill="#231F20"/>
<path d="M47.0095 61.8574C47.0999 61.9585 50.7657 60.9405 52.6577 63.3013C54.5496 65.6621 52.0942 67.7701 46.1192 66.55C40.1441 65.33 47.0095 61.8574 47.0095 61.8574Z" fill="white"/>
<path d="M49.2705 67.2648C48.1886 67.2536 47.1102 67.1351 46.0499 66.911C44.3249 66.5573 43.4345 65.9797 43.3302 65.1351C43.1285 63.5035 46.2308 61.8502 46.8568 61.5253C46.929 61.5 47.0072 61.5 47.0794 61.5253H47.3089C48.2828 61.4026 51.2459 61.0127 52.9293 63.1064C53.6805 64.0305 53.8405 64.9762 53.3953 65.7704C52.818 66.7161 51.3225 67.2648 49.2705 67.2648ZM47.0864 62.2112C45.73 62.9331 43.9423 64.2037 44.0397 65.0051C44.0397 65.2722 44.4014 65.7776 46.1891 66.1458C50.2304 66.9688 52.2615 66.2035 52.7762 65.3011C52.8992 64.9948 52.927 64.6564 52.856 64.3329C52.7849 64.0094 52.6184 63.7169 52.3797 63.4962C50.9468 61.7203 48.3662 62.0523 47.3994 62.1823C47.2672 62.2112 47.1698 62.2112 47.0864 62.2112Z" fill="#231F20"/>
<path d="M37.8208 54.313C37.8208 54.313 37.0696 53.4178 37.5426 52.7897C37.649 52.6622 37.7831 52.5628 37.9339 52.4999C38.0847 52.4369 38.2478 52.4122 38.4096 52.4277C38.5715 52.4433 38.7274 52.4986 38.8645 52.5892C39.0016 52.6797 39.116 52.8029 39.198 52.9485C39.198 52.9485 38.0155 53.3889 37.8208 54.313Z" fill="white"/>
<path d="M37.8214 54.6812C37.7704 54.6818 37.7198 54.6711 37.6731 54.65C37.6263 54.6288 37.5844 54.5977 37.5501 54.5585C37.2023 54.1398 36.7432 53.2446 37.2649 52.5659C37.3815 52.4068 37.532 52.2778 37.7045 52.1889C37.877 52.1 38.067 52.0536 38.2596 52.0533C38.4967 52.0575 38.7295 52.1191 38.9397 52.2332C39.1498 52.3472 39.3313 52.5106 39.4699 52.7103C39.508 52.7563 39.5344 52.8114 39.5465 52.8707C39.5587 52.93 39.5562 52.9916 39.5395 53.0496C39.5248 53.1073 39.497 53.1604 39.4582 53.2045C39.4194 53.2485 39.3709 53.2821 39.3169 53.3023C39.0386 53.4034 38.2944 53.8077 38.1692 54.3924C38.1558 54.4596 38.1246 54.5215 38.0791 54.5713C38.0336 54.621 37.9757 54.6566 37.9118 54.674L37.8214 54.6812ZM38.2735 52.7969C38.189 52.7983 38.1059 52.819 38.0301 52.8577C37.9543 52.8964 37.8878 52.9521 37.8353 53.0207C37.7956 53.0999 37.775 53.1878 37.775 53.277C37.775 53.3663 37.7956 53.4542 37.8353 53.5333C38.0448 53.2665 38.2993 53.0414 38.5865 52.8691C38.4904 52.8254 38.3844 52.8104 38.2804 52.8258L38.2735 52.7969Z" fill="#231F20"/>
<path d="M39.4628 52.9125C39.0491 52.9474 38.6581 53.1236 38.351 53.4135C38.0439 53.7035 37.8381 54.0909 37.7656 54.5152L52.6859 74.6647C52.7779 73.6991 53.1797 72.7936 53.8267 72.0932C54.4737 71.3929 55.3286 70.9383 56.2542 70.8023L39.4628 52.9125Z" fill="white"/>
<path d="M52.6785 75.0329C52.6246 75.0323 52.5715 75.0191 52.5233 74.994C52.4751 74.969 52.433 74.9329 52.4003 74.8885L37.48 54.739C37.4463 54.6934 37.4232 54.6404 37.4123 54.5841C37.4014 54.5278 37.4032 54.4696 37.4174 54.4141C37.5156 53.9132 37.7683 53.459 38.1373 53.1204C38.5062 52.7817 38.9714 52.577 39.4624 52.537C39.5106 52.5376 39.5581 52.548 39.6023 52.5679C39.6465 52.5877 39.6864 52.6165 39.7198 52.6526L56.5112 70.5424C56.5578 70.5904 56.5904 70.6511 56.6052 70.7176C56.62 70.784 56.6163 70.8534 56.5946 70.9178C56.5751 70.9824 56.5388 71.0402 56.4897 71.0847C56.4406 71.1293 56.3807 71.159 56.3164 71.1705C55.4685 71.2908 54.6844 71.7037 54.0901 72.3428C53.4958 72.9819 53.126 73.8099 53.0402 74.6936C53.0344 74.7685 53.0066 74.8398 52.9606 74.8979C52.9146 74.956 52.8526 74.9981 52.7828 75.0185L52.6785 75.0329ZM38.1617 54.443L52.4976 73.7984C52.6995 73.0366 53.0862 72.3412 53.6208 71.7788C54.1554 71.2163 54.8201 70.8056 55.5513 70.5857L39.3302 53.3023C39.0528 53.3616 38.7967 53.4996 38.5904 53.701C38.3841 53.9024 38.2357 54.1592 38.1617 54.443Z" fill="#231F20"/>
<path d="M52.6858 74.6647L57.7775 77.4081L58.4105 76.7944L56.2542 70.8023C56.2542 70.8023 52.2893 70.3908 52.6858 74.6647Z" fill="white"/>
<path d="M57.777 77.7763C57.7187 77.7772 57.6611 77.7623 57.6101 77.733L52.5184 74.9896C52.4644 74.9615 52.4181 74.9196 52.384 74.8678C52.3499 74.816 52.3292 74.756 52.3237 74.6936C52.2268 74.1191 52.2573 73.5294 52.4128 72.969C52.5683 72.4086 52.8446 71.8923 53.221 71.4593C53.6407 71.0846 54.1281 70.8004 54.6548 70.6231C55.1814 70.4459 55.7368 70.3792 56.2885 70.4269C56.3567 70.4335 56.4216 70.4601 56.4758 70.5036C56.53 70.547 56.5712 70.6055 56.5946 70.6723L58.7439 76.6645C58.7697 76.7335 58.7749 76.809 58.7588 76.8811C58.7427 76.9532 58.706 77.0186 58.6535 77.0688L58.0205 77.6824C57.953 77.7433 57.8665 77.7767 57.777 77.7763ZM53.0262 74.4264L57.7144 76.9533L57.9927 76.6934L56.0033 71.1632C55.1714 71.1387 54.3597 71.4315 53.7218 71.9863C53.4424 72.3164 53.2355 72.7056 53.1154 73.127C52.9953 73.5483 52.9649 73.9917 53.0262 74.4264Z" fill="#231F20"/>
<path d="M57.7776 77.408L58.7514 78.491L59.2105 77.9495L58.4106 76.7944L57.7776 77.408Z" fill="white"/>
<path d="M58.7513 78.8665C58.7024 78.8669 58.6539 78.8561 58.6095 78.8349C58.565 78.8136 58.5255 78.7825 58.4939 78.7437L57.5132 77.6608C57.4499 77.5874 57.4152 77.4922 57.4158 77.3937C57.4212 77.2944 57.4636 77.2012 57.534 77.1338L58.167 76.5202C58.2047 76.4848 58.2491 76.458 58.2973 76.4416C58.3456 76.4252 58.3967 76.4195 58.4472 76.425C58.4978 76.4304 58.5466 76.4469 58.5906 76.4732C58.6346 76.4996 58.6728 76.5352 58.7026 76.5779L59.5025 77.733C59.5533 77.7985 59.581 77.88 59.581 77.9641C59.581 78.0481 59.5533 78.1296 59.5025 78.1951L59.0434 78.7365C59.0114 78.7772 58.9711 78.8099 58.9254 78.8324C58.8797 78.8549 58.8297 78.8665 58.7791 78.8665H58.7513ZM58.2853 77.4226L58.7443 77.9352L58.3479 77.3648L58.2853 77.4226Z" fill="#231F20"/>
<path d="M47.9555 76.2458C48.7763 74.5203 50.8352 70.86 51.3082 69.2718C52.6159 64.9401 44.9575 60.8828 42.4813 60.8828C40.005 60.8828 34.8298 69.8638 34.8298 74.6647C34.8298 79.4656 51.976 116.227 51.976 116.227L68.4265 108.416L47.9555 76.2458Z" fill="white"/>
<path d="M51.9969 116.603C51.9299 116.603 51.8644 116.583 51.8077 116.546C51.7511 116.509 51.7057 116.456 51.6769 116.393C50.9813 114.892 34.489 79.4873 34.489 74.6647C34.489 69.8421 39.7198 60.5073 42.4813 60.5073C44.3872 60.5073 48.818 62.6154 50.8283 65.4166C51.2733 65.9551 51.584 66.5988 51.7332 67.2912C51.8824 67.9835 51.8654 68.7033 51.6838 69.3873C51.0206 71.0895 50.2444 72.7419 49.3606 74.3326C48.9919 75.0545 48.665 75.7043 48.4007 76.2169L68.7743 108.199C68.8028 108.244 68.8218 108.296 68.8302 108.349C68.8386 108.402 68.8361 108.457 68.823 108.51C68.8081 108.56 68.783 108.607 68.7494 108.647C68.7159 108.686 68.6746 108.718 68.6282 108.741L52.1707 116.566C52.1185 116.599 52.0571 116.612 51.9969 116.603ZM42.4813 61.2509C40.3041 61.2509 35.2124 69.9143 35.2124 74.6647C35.2124 79.083 50.4666 112.069 52.1638 115.743L67.9188 108.25L47.6564 76.484C47.626 76.4265 47.61 76.3619 47.61 76.2963C47.61 76.2307 47.626 76.1661 47.6564 76.1086C47.9207 75.5599 48.3033 74.8163 48.7206 74.0077C49.5809 72.4578 50.3385 70.849 50.9882 69.1923C51.135 68.6201 51.1439 68.0192 51.0141 67.4426C50.8843 66.866 50.6198 66.3313 50.244 65.8858C48.3033 63.1496 44.0811 61.2509 42.4813 61.2509Z" fill="#231F20"/>
<path d="M135.48 83.523L155.757 78.159C155.061 77.141 146.881 50.1908 138.256 45.7797C130.709 40.5817 112.811 37.1163 97.0007 38.2931C97.0007 38.2931 92.8272 38.1343 85.5097 41.1448C67.6889 48.4942 64.2527 74.0872 64.2527 74.0872L78.1644 79.0758C78.1644 79.0758 75.5072 112.177 72.9962 129.482C72.9962 129.482 103.755 135.727 148.537 128.038C148.571 128.024 135.564 88.4178 135.48 83.523Z" fill="#2945FF"/>
<path d="M133.811 46.5233C131.126 49.4111 129.033 52.8764 126.07 55.5981C119.684 61.4603 111.33 66.1025 102.573 65.5393C92.2502 64.8751 83.3259 57.5546 81.0861 46.8915C79.695 40.2062 81.1418 33.9975 86.1222 29.276C89.5653 26.0128 93.9753 24.0202 98.4827 22.7785C110.454 19.4503 123.885 21.2191 134.104 28.5107C135.773 29.5773 137.182 31.0302 138.221 32.7558C140.774 37.5567 137.839 42.4948 134.528 45.7941C134.305 46.0179 134.069 46.2706 133.811 46.5233Z" fill="#2945FF"/>
<path d="M98.5939 54.0893C98.4896 54.0893 96.5698 56.515 96.4724 56.5511C97.5645 60.825 98.7191 66.3912 103.38 66.9399C112.833 68.0589 114.265 54.9773 116.046 48.8046C109.501 50.7106 104.882 51.4758 98.5939 54.0893Z" fill="#231F20"/>
<path d="M104.486 67.3731C104.105 67.37 103.724 67.3459 103.345 67.3009C98.6917 66.7522 97.377 61.5253 96.3128 57.3453L96.1319 56.6233C96.1151 56.5524 96.1194 56.4779 96.1442 56.4096C96.1691 56.3413 96.2133 56.2824 96.271 56.2407C96.3823 56.1324 96.8901 55.5188 97.2588 55.0711C98.3369 53.7861 98.3508 53.7789 98.4621 53.7283C102.312 52.1834 106.264 50.9264 110.287 49.967C112.061 49.5049 113.89 49.0285 115.921 48.4365C115.981 48.4191 116.044 48.4187 116.104 48.4352C116.164 48.4517 116.219 48.4846 116.262 48.5303C116.304 48.5771 116.333 48.6341 116.348 48.696C116.363 48.7579 116.362 48.8226 116.346 48.8841C116.081 49.8009 115.824 50.8839 115.546 52.0318C114.106 58.2116 111.901 67.3659 104.486 67.3731ZM96.8344 56.6666L96.9597 57.1648C98.0239 61.3521 99.2203 66.0953 103.401 66.5501C111.143 67.467 113.306 58.4354 114.892 51.8368C115.107 50.9344 115.316 50.0681 115.525 49.2884C113.723 49.8009 112.047 50.2341 110.468 50.6528C106.481 51.5921 102.567 52.8323 98.7543 54.3636C98.6151 54.508 98.1282 55.0856 97.7665 55.526C97.2796 56.1757 97.0083 56.4934 96.8553 56.6666H96.8344Z" fill="#231F20"/>
<path d="M107.748 3.73349C106.357 3.67574 105.466 4.30383 104.27 4.75144C101.94 5.60333 100.855 3.58188 98.8512 2.50618C95.6972 0.804312 92.0729 0.287879 88.5937 1.04457C85.1145 1.80127 81.9948 3.78445 79.7644 6.65737C78.3765 8.36349 77.4776 10.4395 77.1699 12.6495C76.8778 15.1475 77.5525 17.7032 77.1351 20.1722C76.88 21.5902 76.2813 22.9175 75.3954 24.029C74.5095 25.1405 73.3655 25.9996 72.0713 26.5253C74.2982 26.7037 76.538 26.484 78.6932 25.8756C78.0737 26.6398 77.3038 27.2575 76.4351 27.6871C75.5665 28.1167 74.6193 28.3483 73.6572 28.3663C75.8754 30.1366 78.601 31.0846 81.3991 31.0592L76.4952 32.2504C80.6687 35.0299 85.7534 35.8601 90.6712 35.6291C100.465 35.1021 116.867 30.9436 116.582 17.7753C116.422 12.7289 113.751 4.02227 107.748 3.73349Z" fill="white"/>
<path d="M88.9883 36.055C85.2391 36.055 80.4396 35.3331 76.28 32.5752C76.223 32.5358 76.1781 32.48 76.151 32.4147C76.1238 32.3493 76.1155 32.2772 76.127 32.2071C76.1413 32.1384 76.1735 32.0751 76.2201 32.0242C76.2667 31.9732 76.326 31.9366 76.3913 31.9183L79.118 31.2613C77.0424 30.8943 75.0845 30.0071 73.4142 28.6767C73.3558 28.6313 73.3127 28.5679 73.2909 28.4956C73.2692 28.4233 73.2699 28.3457 73.293 28.2738C73.316 28.2019 73.3603 28.1394 73.4195 28.0951C73.4788 28.0508 73.5499 28.027 73.6229 28.027C75.0511 28.0027 76.4301 27.4815 77.539 26.547C75.7238 26.9377 73.8643 27.0592 72.0161 26.908C71.9378 26.9006 71.8642 26.8658 71.8074 26.8095C71.7505 26.7531 71.7138 26.6784 71.7031 26.5975C71.6904 26.5158 71.7057 26.432 71.7463 26.3608C71.787 26.2895 71.8505 26.2354 71.9257 26.2077C73.1691 25.7111 74.2694 24.8925 75.1217 23.8297C75.974 22.7669 76.55 21.4954 76.7948 20.1361C76.9621 18.8384 76.9761 17.5244 76.8365 16.2232C76.7278 15.0226 76.7278 13.814 76.8365 12.6134C77.1529 10.3349 78.0782 8.19396 79.5075 6.43358C81.7884 3.49579 84.979 1.46835 88.5372 0.695798C92.0953 -0.0767517 95.8014 0.453258 99.0256 2.19575C99.6182 2.53162 100.181 2.92054 100.709 3.35809C101.836 4.24608 102.726 4.94637 104.187 4.41935C104.5 4.30384 104.792 4.17389 105.077 4.05116C105.926 3.60367 106.866 3.37346 107.818 3.37975C113.842 3.65409 116.86 12.1297 116.958 17.7754C117.083 23.7603 113.932 28.4746 107.588 31.7739C101.245 35.0732 93.6766 35.8385 90.7203 35.9973C90.1361 36.0406 89.5726 36.055 88.9883 36.055ZM77.3721 32.4453C81.8656 35.1526 87.0198 35.5136 90.6299 35.3331C93.5235 35.1743 100.925 34.4595 107.22 31.1819C113.306 28.0198 116.325 23.5365 116.207 17.8475C116.088 12.4763 113.313 4.41213 107.734 4.13057C106.886 4.13672 106.05 4.34676 105.293 4.74423C104.994 4.87418 104.688 5.01135 104.361 5.12686C102.559 5.78383 101.432 4.89583 100.243 3.9573C99.7486 3.54628 99.2202 3.18148 98.6639 2.86716C95.5828 1.19881 92.0398 0.690592 88.6382 1.42907C85.2366 2.16756 82.1869 4.10707 80.0084 6.91728C78.6662 8.5617 77.7919 10.5616 77.4834 12.6929C77.3791 13.843 77.3791 15.0008 77.4834 16.151C77.6248 17.5103 77.6061 18.8825 77.4277 20.2372C77.208 21.4739 76.7362 22.6476 76.0441 23.6798C75.3519 24.7119 74.4553 25.5787 73.4142 26.2221C75.1487 26.2198 76.8751 25.977 78.5476 25.5002C78.6196 25.4785 78.6964 25.4816 78.7666 25.5089C78.8368 25.5362 78.8966 25.5863 78.9372 25.6518C78.9797 25.714 79.0025 25.7885 79.0025 25.8648C79.0025 25.9411 78.9797 26.0155 78.9372 26.0777C77.8362 27.4371 76.3003 28.3393 74.6106 28.619C76.6224 29.9804 78.9772 30.6938 81.3787 30.6693C81.4645 30.667 81.5481 30.6985 81.6125 30.7574C81.677 30.8163 81.7177 30.8983 81.7264 30.987C81.7374 31.0753 81.7164 31.1648 81.6676 31.2381C81.6188 31.3114 81.5456 31.3634 81.4621 31.384L77.3721 32.4453Z" fill="#231F20"/>
<path d="M95.7774 44.1192L96.473 56.5511C96.473 56.5511 101.947 63.0486 108.993 59.0562C116.04 55.0639 115.768 48.7324 115.768 48.7324L111.143 25.3919C111.143 25.3919 104.75 23.8614 103.123 10.7941C97.6697 15.2754 91.1525 18.1462 84.2585 19.1037C84.2585 19.1037 84.3837 33.7231 86.867 39.5348C89.3502 45.3465 95.7774 44.1192 95.7774 44.1192Z" fill="white"/>
<path d="M104.367 60.7095C99.5813 60.7095 96.2494 56.847 96.2077 56.7893C96.1561 56.7296 96.1265 56.6529 96.1242 56.5727L95.4287 44.5234C93.961 44.675 88.7302 44.8194 86.5252 39.6575C84.042 33.8819 83.8959 19.6813 83.8889 19.082C83.8895 18.9949 83.9199 18.9107 83.9747 18.8446C84.0295 18.7785 84.1051 18.7347 84.188 18.7211C91.009 17.7558 97.4584 14.9198 102.871 10.5053C102.919 10.4619 102.977 10.4329 103.04 10.4214C103.103 10.41 103.167 10.4165 103.226 10.4403C103.284 10.4638 103.336 10.5029 103.375 10.5536C103.414 10.6043 103.439 10.6649 103.449 10.7291C104.27 17.3421 106.342 20.8725 107.935 22.6773C108.796 23.7554 109.928 24.5651 111.204 25.0164C111.268 25.0338 111.326 25.0694 111.372 25.1192C111.417 25.1689 111.448 25.2309 111.462 25.298L116.094 48.6602C116.094 48.7829 116.303 55.3165 109.139 59.3739C107.683 60.2315 106.041 60.6911 104.367 60.7095ZM96.8059 56.3778C97.5015 57.1647 102.482 62.3194 108.833 58.7169C115.594 54.8761 115.427 48.7757 115.427 48.7179L110.843 25.6157C109.688 25.2186 104.457 22.8217 102.864 11.415C97.5173 15.607 91.2412 18.3377 84.6123 19.3564C84.6123 21.5222 84.9601 34.1274 87.179 39.3326C89.5231 44.805 95.4634 43.7726 95.7138 43.7293C95.762 43.7195 95.8116 43.7203 95.8595 43.7315C95.9074 43.7427 95.9526 43.764 95.9921 43.7943C96.03 43.8275 96.0612 43.8682 96.0839 43.9141C96.1066 43.9599 96.1203 44.01 96.1242 44.0614L96.8059 56.3778Z" fill="#231F20"/>
<path d="M108.534 31.9327C110.168 32.1882 111.833 31.7626 113.166 30.7487C114.067 30.0089 114.768 29.0413 115.204 27.9389C115.64 26.8365 115.796 25.6362 115.657 24.4534C115.614 23.5693 115.376 22.7072 114.961 21.9338C114.758 21.547 114.477 21.2101 114.137 20.946C113.798 20.6819 113.407 20.4968 112.993 20.4033C111.965 20.337 110.945 20.6181 110.085 21.2046C108.736 21.9266 108.694 22.7279 107.957 23.9119C108.04 23.8036 108.103 23.5004 108.186 23.3921" fill="white"/>
<path d="M109.466 32.3732C109.136 32.3719 108.805 32.3453 108.479 32.2938C108.387 32.2778 108.304 32.2249 108.25 32.1466C108.195 32.0682 108.172 31.9707 108.186 31.875C108.193 31.8283 108.209 31.7834 108.233 31.7431C108.256 31.7028 108.287 31.6678 108.324 31.6402C108.361 31.6126 108.403 31.593 108.448 31.5825C108.492 31.572 108.538 31.5708 108.583 31.579C110.124 31.8144 111.692 31.4069 112.944 30.4456C113.796 29.7418 114.46 28.8222 114.87 27.7753C115.281 26.7283 115.425 25.5893 115.288 24.4679C115.26 23.6396 115.049 22.8292 114.669 22.0999C114.49 21.7619 114.243 21.4674 113.946 21.2359C113.648 21.0044 113.307 20.8412 112.944 20.7571C112.082 20.5982 111.219 21.0097 110.259 21.5223C109.6 21.8553 109.084 22.4321 108.812 23.1395C108.666 23.4138 108.506 23.7243 108.291 24.0636C108.276 24.0929 108.257 24.1197 108.235 24.143C108.179 24.2148 108.098 24.261 108.01 24.2718C107.922 24.2826 107.833 24.2571 107.762 24.2007C107.689 24.1469 107.639 24.0651 107.623 23.9731C107.607 23.8812 107.627 23.7865 107.679 23.7098C107.679 23.7098 107.679 23.616 107.727 23.5654C107.768 23.4347 107.827 23.3108 107.901 23.1972C107.937 23.1535 107.982 23.1189 108.033 23.0962L108.166 22.8363C108.509 21.9988 109.131 21.3173 109.918 20.9159C110.739 20.4755 111.873 19.8691 113.035 20.0784C113.507 20.1757 113.953 20.3785 114.342 20.6727C114.731 20.9669 115.054 21.3455 115.288 21.7822C115.715 22.6079 115.953 23.5243 115.984 24.4606C116.131 25.7035 115.966 26.9647 115.505 28.1221C115.045 29.2794 114.304 30.2936 113.355 31.0664C112.225 31.9198 110.863 32.3775 109.466 32.3732Z" fill="#231F20"/>
<path d="M96.139 50.66C97.5089 50.5577 98.834 50.1096 99.999 49.3547C101.164 48.5998 102.134 47.5608 102.824 46.3283C105.279 42.076 104.298 39.3543 104.298 39.3543C104.298 39.3543 100.987 43.7365 95.7773 44.0903L96.139 50.66Z" fill="#231F20"/>
<path d="M96.1386 51.0138C96.0506 51.0138 95.9659 50.9786 95.9024 50.9153C95.8389 50.8521 95.8014 50.7658 95.7978 50.6745L95.4291 44.1769C95.4263 44.1295 95.4325 44.082 95.4474 44.0371C95.4624 43.9921 95.4857 43.9507 95.516 43.9152C95.5464 43.8796 95.5832 43.8506 95.6244 43.8299C95.6656 43.8092 95.7103 43.7971 95.756 43.7943C100.743 43.4622 103.992 39.246 104.027 39.2027C104.064 39.1517 104.115 39.1121 104.172 39.088C104.229 39.0638 104.292 39.0561 104.353 39.0656C104.414 39.0764 104.471 39.1033 104.519 39.1438C104.566 39.1843 104.603 39.237 104.625 39.2966C104.666 39.4121 105.633 42.2277 103.115 46.581C102.399 47.8614 101.389 48.939 100.176 49.7184C98.9627 50.4978 97.5833 50.9551 96.1595 51.0499L96.1386 51.0138ZM96.1386 44.4441L96.4655 50.2702C97.7079 50.1113 98.8987 49.6591 99.9466 48.9482C100.994 48.2374 101.871 47.2868 102.51 46.1695C104.173 43.2817 104.214 41.1736 104.089 40.1629C102.006 42.5158 99.1914 44.0317 96.1386 44.4441Z" fill="#231F20"/>
<path d="M94.8588 24.3595C94.8588 24.3595 92.2503 31.4923 93.4328 32.3442C94.6153 33.1961 97.1125 31.8389 97.1125 31.8389" fill="white"/>
<path d="M94.4622 32.9868C94.027 33.0075 93.5965 32.8863 93.231 32.6402C91.9233 31.7017 93.9266 25.9695 94.5248 24.2296C94.5576 24.1409 94.6227 24.0692 94.706 24.03C94.7893 23.9909 94.8842 23.9873 94.97 24.0202C95.0131 24.037 95.0526 24.0625 95.0861 24.0953C95.1197 24.1281 95.1466 24.1674 95.1653 24.2111C95.1841 24.2547 95.1943 24.3018 95.1954 24.3496C95.1965 24.3974 95.1884 24.4449 95.1717 24.4895C93.9614 27.8032 93.0849 31.6367 93.6275 32.041C94.4552 32.633 96.3055 31.8678 96.9454 31.5212C97.0278 31.4775 97.1233 31.4689 97.2116 31.4972C97.3 31.5256 97.3742 31.5886 97.4184 31.6728C97.4597 31.7581 97.4667 31.8568 97.4381 31.9475C97.4094 32.0381 97.3473 32.1133 97.2654 32.1565C96.399 32.6382 95.443 32.9213 94.4622 32.9868Z" fill="#231F20"/>
<path d="M99.9893 24.179C100.519 24.0012 100.753 23.2266 100.511 22.4488C100.268 21.671 99.6423 21.1847 99.1123 21.3625C98.5823 21.5403 98.3489 22.3149 98.5911 23.0927C98.8333 23.8704 99.4593 24.3568 99.9893 24.179Z" fill="#231F20"/>
<path d="M90.2575 26.5407C90.8145 26.5329 91.2573 25.8639 91.2466 25.0466C91.2359 24.2293 90.7757 23.5732 90.2187 23.581C89.6617 23.5889 89.2189 24.2578 89.2296 25.0751C89.2403 25.8924 89.7005 26.5486 90.2575 26.5407Z" fill="#231F20"/>
<path d="M95.6859 41.5057C95.0179 41.5238 94.3611 41.3243 93.8078 40.9353C91.6167 39.2748 91.4568 35.6074 91.4498 35.4485C91.4479 35.3632 91.4746 35.2798 91.5253 35.2127C91.5761 35.1455 91.6477 35.0987 91.728 35.0803C100.729 33.0372 100.826 33.1094 100.986 33.2322C101.026 33.2633 101.059 33.3023 101.084 33.3469C101.109 33.3915 101.126 33.4409 101.132 33.4921C101.272 34.9476 101.079 36.4167 100.569 37.7804C100.262 38.6164 99.7769 39.3692 99.1492 39.9821C98.5214 40.5949 97.7677 41.0517 96.9449 41.318C96.5356 41.4408 96.1119 41.5039 95.6859 41.5057ZM92.1732 35.7301C92.2567 36.6036 92.6323 39.1593 94.2043 40.3433C94.5786 40.5818 94.9991 40.7313 95.4356 40.7813C95.8722 40.8312 96.3139 40.7803 96.7293 40.6321C97.4544 40.3978 98.1189 39.9962 98.6731 39.4573C99.2272 38.9184 99.6566 38.2563 99.929 37.5205C100.359 36.3725 100.54 35.1398 100.458 33.9108C99.2612 34.1346 95.039 35.0731 92.1732 35.7229V35.7301Z" fill="#231F20"/>
<path d="M100.25 37.665C98.914 41.0148 95.5682 41.8162 93.9893 40.6538C94.344 39.376 94.9909 38.0476 96.1943 37.5639C97.5146 37.0964 98.9523 37.1323 100.25 37.665Z" fill="#231F20"/>
<path d="M95.6868 41.4985C95.0196 41.5178 94.3632 41.321 93.8087 40.9354C93.7513 40.8921 93.7084 40.8312 93.6859 40.7613C93.6635 40.6914 93.6626 40.616 93.6835 40.5456C94.1565 38.784 94.9703 37.6578 96.0902 37.2174C97.4825 36.7262 98.997 36.7595 100.368 37.3113C100.412 37.3281 100.453 37.3541 100.488 37.3875C100.523 37.421 100.55 37.4614 100.57 37.5062C100.604 37.5966 100.604 37.6973 100.57 37.7877C100.261 38.6219 99.7753 39.3727 99.1477 39.9841C98.5201 40.5955 97.7673 41.0515 96.9458 41.318C96.5361 41.4381 96.1124 41.4989 95.6868 41.4985ZM94.4208 40.4806C95.144 40.8352 95.9711 40.887 96.7301 40.625C97.3963 40.4135 98.0119 40.0586 98.5369 39.5834C99.0619 39.1082 99.4844 38.5234 99.7768 37.8671C98.6614 37.4823 97.456 37.4823 96.3406 37.8671C95.485 38.2281 94.859 39.1089 94.4208 40.4806Z" fill="#231F20"/>
<path d="M83.9311 30.1207C83.4551 30.1205 82.9935 29.9515 82.6228 29.6416C82.2521 29.3317 81.9946 28.8995 81.8931 28.4169L81.1627 24.9732C81.0448 24.4122 81.1464 23.8256 81.4451 23.3423C81.7438 22.859 82.2151 22.5185 82.7556 22.3958L90.5113 20.6271C90.7795 20.5654 91.0567 20.5593 91.3271 20.6091C91.5975 20.6589 91.8558 20.7636 92.0871 20.9171C92.3184 21.0707 92.5183 21.2702 92.6752 21.5041C92.8321 21.7381 92.943 22.0018 93.0015 22.2803L93.6971 25.724C93.8097 26.2778 93.7089 26.8553 93.4164 27.3329C93.1239 27.8106 92.6629 28.1504 92.132 28.2797L84.3763 30.0412C84.2314 30.0856 84.082 30.1123 83.9311 30.1207ZM90.9635 21.3274C90.864 21.3167 90.7638 21.3167 90.6644 21.3274L82.9156 23.0889C82.5618 23.1736 82.254 23.3984 82.0577 23.7153C81.8615 24.0323 81.7924 24.4164 81.8652 24.7855L82.5956 28.2797C82.6787 28.644 82.8949 28.9605 83.1986 29.1626C83.5022 29.3646 83.8696 29.4363 84.2233 29.3626L91.979 27.5578C92.33 27.4715 92.635 27.2471 92.8296 26.9319C93.0243 26.6168 93.0934 26.2354 93.0224 25.8684L92.3268 22.4247C92.2568 22.11 92.0872 21.8288 91.8451 21.626C91.603 21.4231 91.3024 21.3103 90.9913 21.3057L90.9635 21.3274Z" fill="#231F20"/>
<path d="M97.7517 26.9801C97.3519 26.979 96.9608 26.8587 96.6249 26.6336C96.1601 26.3241 95.8324 25.836 95.7137 25.2763L95.0181 21.8326C94.8988 21.272 94.9989 20.6851 95.2963 20.201C95.4441 19.9601 95.6363 19.7518 95.8619 19.5882C96.0876 19.4247 96.3421 19.3091 96.611 19.2481L104.36 17.4865C104.628 17.4249 104.905 17.4187 105.176 17.4685C105.446 17.5183 105.704 17.623 105.936 17.7766C106.167 17.9302 106.367 18.1296 106.524 18.3636C106.681 18.5975 106.791 18.8613 106.85 19.1398L107.546 22.5834C107.667 23.1404 107.571 23.7245 107.279 24.2085C106.987 24.6925 106.523 25.0373 105.987 25.168L98.2386 26.9296C98.0783 26.9625 97.9152 26.9794 97.7517 26.9801ZM104.784 18.1724C104.683 18.1737 104.583 18.1858 104.485 18.2085L96.7362 19.9772C96.5597 20.0157 96.3925 20.0904 96.2444 20.197C96.0962 20.3037 95.9702 20.4401 95.8737 20.5981C95.6776 20.9173 95.6102 21.3035 95.6859 21.6738L96.4162 25.1175C96.4993 25.4818 96.7155 25.7983 97.0192 26.0004C97.3228 26.2024 97.6903 26.2741 98.0439 26.2004L105.8 24.4388C106.154 24.3567 106.464 24.1339 106.662 23.818C106.856 23.4978 106.921 23.1116 106.843 22.7423L106.147 19.2986C106.078 18.9778 105.905 18.6913 105.657 18.4865C105.409 18.2817 105.101 18.1709 104.784 18.1724Z" fill="#231F20"/>
<path d="M92.6463 22.7351C92.5826 22.7365 92.5199 22.7189 92.4655 22.6845C92.3844 22.6348 92.3252 22.5541 92.3005 22.4597C92.2758 22.3653 92.2876 22.2647 92.3333 22.1792C92.6602 21.5944 93.7245 20.6775 95.4704 21.4067C95.5626 21.4431 95.6372 21.516 95.6776 21.6094C95.718 21.7028 95.7211 21.8091 95.686 21.9048C95.651 22.0006 95.5807 22.0779 95.4907 22.1199C95.4007 22.1619 95.2983 22.165 95.2061 22.1286C93.648 21.4789 93.0219 22.468 92.9593 22.5835C92.9231 22.6333 92.8756 22.6732 92.821 22.6997C92.7664 22.7261 92.7065 22.7383 92.6463 22.7351Z" fill="#231F20"/>
<path d="M23.3528 118.841H166.365L189.312 162.338H0.405518L23.3528 118.841Z" fill="white"/>
<path d="M189.312 162.699H0.405412C0.345518 162.699 0.286679 162.682 0.234379 162.652C0.182079 162.622 0.138019 162.578 0.106311 162.526C0.0770861 162.47 0.0617676 162.408 0.0617676 162.345C0.0617676 162.282 0.0770861 162.22 0.106311 162.165L23.0606 118.667C23.09 118.61 23.1341 118.562 23.1881 118.529C23.2421 118.496 23.3039 118.479 23.3666 118.48H166.358C166.42 118.479 166.482 118.496 166.536 118.529C166.59 118.562 166.634 118.61 166.664 118.667L189.618 162.165C189.647 162.22 189.663 162.282 189.663 162.345C189.663 162.408 189.647 162.47 189.618 162.526C189.586 162.579 189.54 162.624 189.487 162.654C189.433 162.684 189.373 162.7 189.312 162.699ZM0.996657 161.977H188.721L166.156 119.202H23.5614L0.996657 161.977Z" fill="#D1D3D4"/>
<path d="M25.5715 90.7786L25.8776 89.4069C26.5732 88.0352 27.3453 87.1111 29.1399 87.1111H97.2166C98.0396 87.1125 98.84 87.3903 99.4982 87.903C100.156 88.4158 100.637 89.1358 100.868 89.9555L111.935 129.417C112.221 130.263 112.185 131.191 111.834 132.01C111.484 132.83 110.846 133.48 110.05 133.828L108.847 134.124L25.5715 90.7786Z" fill="white"/>
<path d="M108.846 134.485C108.794 134.483 108.742 134.471 108.693 134.449L25.4182 91.0889C25.348 91.0533 25.2917 90.9937 25.2587 90.9201C25.2258 90.8465 25.2183 90.7633 25.2374 90.6846L25.5434 89.3129C25.5404 89.2817 25.5404 89.2503 25.5434 89.2191C26.239 87.9124 27.0389 86.7356 29.1118 86.7356H97.1885C98.0862 86.7393 98.9588 87.0434 99.6768 87.6026C100.395 88.1618 100.92 88.9464 101.174 89.84L112.248 129.352C112.559 130.285 112.516 131.305 112.129 132.206C111.741 133.107 111.038 133.821 110.161 134.204L108.916 134.514L108.846 134.485ZM25.9956 90.5836L108.916 133.742L109.994 133.482C111.671 132.803 112.018 130.948 111.622 129.518L100.555 90.0566C100.343 89.313 99.9057 88.6601 99.3081 88.1946C98.7105 87.7291 97.9844 87.4757 97.2372 87.472H29.1396C27.6024 87.472 26.9416 88.1939 26.2042 89.5368L25.9956 90.5836Z" fill="#231F20"/>
<path d="M108.847 134.124H39.3788C38.9068 134.119 38.449 133.956 38.0732 133.659C37.6974 133.363 37.4235 132.949 37.2921 132.478L25.5993 90.7786C25.5552 90.6186 25.5475 90.4502 25.5767 90.2866C25.6059 90.123 25.6713 89.9686 25.7677 89.8357C25.8641 89.7027 25.9889 89.5948 26.1323 89.5204C26.2756 89.446 26.4337 89.4071 26.594 89.4069H97.9191L110.001 132.529C110.055 132.715 110.065 132.911 110.032 133.102C109.999 133.293 109.923 133.473 109.811 133.628C109.699 133.783 109.553 133.909 109.386 133.995C109.218 134.081 109.034 134.125 108.847 134.124Z" fill="#231F20"/>
<path d="M108.847 134.485H39.3789C38.8278 134.482 38.292 134.296 37.8511 133.952C37.4101 133.609 37.0873 133.128 36.9305 132.579L25.2377 90.8796C25.1813 90.6664 25.1727 90.4425 25.2128 90.2254C25.2529 90.0082 25.3405 89.8034 25.4689 89.6269C25.5972 89.4505 25.7629 89.3069 25.9532 89.2074C26.1435 89.1079 26.3533 89.0551 26.5663 89.0531H97.9192C97.993 89.0518 98.065 89.0759 98.1242 89.1216C98.1833 89.1673 98.2262 89.2321 98.2462 89.3058L110.335 132.428C110.402 132.667 110.414 132.92 110.371 133.165C110.328 133.411 110.23 133.642 110.086 133.842C109.941 134.041 109.754 134.203 109.539 134.315C109.324 134.427 109.087 134.485 108.847 134.485ZM26.5663 89.7678C26.4605 89.7695 26.3564 89.7963 26.262 89.8461C26.1676 89.8958 26.0855 89.9673 26.0217 90.055C25.958 90.1428 25.9144 90.2444 25.8943 90.3523C25.8741 90.4602 25.878 90.5714 25.9055 90.6775L37.5913 132.377C37.7063 132.777 37.9423 133.127 38.2643 133.377C38.5862 133.627 38.9771 133.762 39.3789 133.763H108.847C108.981 133.764 109.114 133.733 109.235 133.671C109.355 133.61 109.461 133.52 109.542 133.409C109.621 133.299 109.674 133.171 109.697 133.036C109.72 132.9 109.712 132.761 109.675 132.63L97.641 89.7678H26.5663Z" fill="#231F20"/>
<path d="M97.1963 116.357L92.9741 134.991C92.7506 135.988 92.208 136.877 91.4349 137.513C90.6617 138.149 89.7036 138.494 88.7171 138.492H44.7771C44.1175 138.492 43.4666 138.337 42.8729 138.038C42.2793 137.74 41.7583 137.306 41.3489 136.77C40.9395 136.233 40.6523 135.607 40.5088 134.939C40.3652 134.271 40.3691 133.578 40.5201 132.911L44.2415 116.357H40.6036L37.0422 132.059C36.7734 133.269 36.7708 134.525 37.0345 135.735C37.2983 136.946 37.8217 138.079 38.5657 139.05C39.3097 140.021 40.2552 140.806 41.3318 141.346C42.4085 141.885 43.5885 142.166 44.784 142.167H88.7519C90.5335 142.165 92.2628 141.542 93.661 140.395C95.0592 139.249 96.0448 137.648 96.4589 135.85L100.869 116.357H97.1963Z" fill="white"/>
<path d="M88.7169 142.578H44.7769C43.5259 142.578 42.2911 142.284 41.165 141.718C40.0389 141.153 39.0506 140.33 38.2739 139.313C37.4972 138.295 36.9524 137.108 36.68 135.84C36.4076 134.573 36.4149 133.258 36.7012 131.994L40.2556 116.285C40.2744 116.206 40.3182 116.136 40.3801 116.086C40.4419 116.036 40.5181 116.01 40.5964 116.011H44.2691C44.3212 116.011 44.3726 116.024 44.4195 116.048C44.4664 116.071 44.5077 116.106 44.5404 116.148C44.5723 116.19 44.5945 116.239 44.6054 116.292C44.6162 116.344 44.6154 116.399 44.603 116.451L40.8538 133.005C40.7155 133.619 40.7126 134.257 40.8453 134.873C40.9779 135.488 41.2427 136.064 41.6199 136.558C41.997 137.052 42.4768 137.452 43.0235 137.727C43.5701 138.001 44.1695 138.145 44.7769 138.145H88.7447C89.6538 138.147 90.5367 137.829 91.2492 137.243C91.9617 136.657 92.4617 135.837 92.6678 134.918L96.89 116.285C96.9073 116.207 96.9499 116.137 97.0106 116.087C97.0712 116.037 97.1465 116.01 97.2239 116.011H100.897C100.948 116.012 100.999 116.025 101.046 116.048C101.093 116.072 101.134 116.106 101.166 116.148C101.199 116.19 101.222 116.239 101.234 116.291C101.246 116.344 101.248 116.398 101.237 116.451L96.8204 135.944C96.3957 137.84 95.3621 139.53 93.8894 140.735C92.4167 141.941 90.5926 142.591 88.7169 142.578ZM40.8399 116.733L37.362 132.161C37.0981 133.32 37.0909 134.526 37.3408 135.689C37.5907 136.852 38.0913 137.941 38.8049 138.874C39.5186 139.807 40.4267 140.56 41.461 141.077C42.4953 141.593 43.629 141.86 44.7769 141.856H88.7447C90.46 141.861 92.1262 141.262 93.4706 140.157C94.8151 139.051 95.7582 137.505 96.1457 135.77L100.458 116.733H97.5021L93.3286 135.084C93.09 136.163 92.5048 137.125 91.6691 137.813C90.8335 138.501 89.7972 138.872 88.7308 138.867H44.7769C44.0643 138.868 43.3609 138.7 42.7194 138.378C42.0779 138.056 41.5149 137.588 41.0726 137.008C40.6303 136.428 40.3202 135.752 40.1654 135.03C40.0107 134.308 40.0153 133.559 40.1791 132.839L43.8239 116.733H40.8399Z" fill="#231F20"/>
<path d="M153.858 78.3611C153.858 78.3611 160.076 107.022 154.985 114.343C149.893 121.663 114.335 120.508 114.335 120.508C114.335 120.508 108.569 127.692 103.56 127.215C98.5521 126.739 101.474 116.906 107.365 112.812L106.551 109.398L137.901 104.178L133.728 83.5808" fill="white"/>
<path d="M104.019 127.598C103.848 127.598 103.674 127.598 103.498 127.598C102.849 127.564 102.23 127.309 101.737 126.871C101.244 126.433 100.904 125.839 100.771 125.179C99.9848 121.981 102.503 115.881 106.934 112.675L106.182 109.506C106.17 109.458 106.168 109.409 106.175 109.361C106.182 109.312 106.199 109.266 106.224 109.224C106.25 109.182 106.285 109.146 106.326 109.118C106.367 109.091 106.413 109.073 106.461 109.065L137.449 103.904L133.345 83.6891C133.336 83.6426 133.336 83.5947 133.344 83.5482C133.353 83.5016 133.37 83.4573 133.396 83.4178C133.421 83.3782 133.453 83.3442 133.491 83.3177C133.529 83.2911 133.572 83.2726 133.616 83.2631C133.661 83.2525 133.707 83.2513 133.751 83.2594C133.796 83.2675 133.839 83.2849 133.877 83.3105C133.915 83.336 133.948 83.3693 133.974 83.4083C134 83.4473 134.018 83.4912 134.027 83.5374L138.2 104.135C138.21 104.183 138.211 104.233 138.201 104.281C138.192 104.33 138.172 104.376 138.145 104.416C138.118 104.456 138.084 104.491 138.045 104.517C138.005 104.543 137.961 104.56 137.915 104.568L106.941 109.73L107.636 112.762C107.654 112.833 107.65 112.908 107.625 112.976C107.6 113.045 107.556 113.103 107.497 113.144C103.24 116.104 100.687 122.06 101.418 125.02C101.511 125.531 101.769 125.993 102.147 126.333C102.526 126.672 103.004 126.869 103.504 126.89C108.269 127.352 113.938 120.393 113.98 120.313C114.014 120.271 114.056 120.238 114.105 120.215C114.153 120.193 114.205 120.182 114.258 120.183C114.613 120.183 149.733 121.245 154.644 114.162C159.555 107.08 153.531 78.787 153.468 78.4766C153.458 78.4292 153.457 78.3802 153.465 78.3324C153.474 78.2846 153.491 78.239 153.516 78.1981C153.541 78.1572 153.574 78.1219 153.612 78.0941C153.651 78.0663 153.694 78.0466 153.74 78.0362C153.785 78.0258 153.832 78.0248 153.878 78.0333C153.924 78.0418 153.968 78.0596 154.008 78.0858C154.047 78.1119 154.081 78.1459 154.108 78.1857C154.135 78.2255 154.154 78.2704 154.164 78.3178C154.421 79.4945 160.355 107.196 155.228 114.588C150.22 121.808 117.395 120.999 114.425 120.905C113.639 121.858 108.68 127.598 104.019 127.598Z" fill="#231F20"/>
<path d="M116.554 64.1676C116.5 64.1668 116.448 64.1519 116.401 64.1243C116.358 64.1042 116.32 64.0754 116.288 64.0396C116.257 64.0037 116.232 63.9616 116.217 63.9158C116.201 63.8699 116.195 63.8213 116.197 63.7728C116.2 63.7242 116.213 63.6768 116.234 63.6334C121.284 52.8042 134.249 45.5198 134.382 45.4476C134.423 45.4238 134.468 45.4089 134.514 45.4037C134.561 45.3985 134.608 45.4031 134.653 45.4173C134.698 45.4314 134.739 45.4548 134.775 45.4861C134.811 45.5174 134.84 45.5558 134.862 45.5992C134.885 45.6422 134.899 45.6895 134.904 45.7384C134.909 45.7873 134.905 45.8368 134.891 45.8839C134.878 45.931 134.855 45.9748 134.825 46.0127C134.795 46.0506 134.758 46.0818 134.716 46.1046C134.59 46.1767 121.826 53.324 116.881 63.9583C116.85 64.021 116.803 64.0737 116.746 64.1106C116.688 64.1476 116.622 64.1673 116.554 64.1676Z" fill="#231F20"/>
<path d="M95.1161 63.655C95.0657 63.6659 95.0136 63.6659 94.9631 63.655C82.846 57.8795 81.3784 45.1876 81.3644 45.0649C81.3547 44.9664 81.3828 44.8678 81.4428 44.7908C81.5027 44.7137 81.5896 44.6643 81.6844 44.6534C81.731 44.6474 81.7784 44.651 81.8236 44.6641C81.8689 44.6772 81.9112 44.6996 81.9481 44.7298C81.985 44.76 82.0157 44.7975 82.0385 44.8402C82.0613 44.8829 82.0757 44.9298 82.0809 44.9783C82.0809 45.101 83.5277 57.3813 95.297 62.9114C95.383 62.9524 95.4502 63.0268 95.484 63.1186C95.5178 63.2103 95.5156 63.3122 95.4778 63.4023C95.4513 63.4789 95.4019 63.5447 95.3368 63.5901C95.2718 63.6356 95.1945 63.6583 95.1161 63.655Z" fill="#231F20"/>
<path d="M39.9081 80.0215C39.8325 79.9991 39.766 79.9517 39.7187 79.8866C39.6714 79.8215 39.6458 79.7421 39.6458 79.6605C39.6458 79.5789 39.6714 79.4996 39.7187 79.4344C39.766 79.3693 39.8325 79.322 39.9081 79.2996C45.1528 79.1335 47.6986 76.058 47.7265 76.0291C47.7561 75.9916 47.7925 75.9604 47.8338 75.9376C47.875 75.9147 47.9202 75.9005 47.9667 75.8958C48.0133 75.8911 48.0603 75.896 48.105 75.9102C48.1497 75.9244 48.1913 75.9477 48.2273 75.9786C48.3008 76.042 48.3473 76.1329 48.3564 76.2317C48.3655 76.3304 48.3366 76.4289 48.276 76.5056C48.1647 76.6428 45.4936 79.8699 39.929 80.0432L39.9081 80.0215Z" fill="#231F20"/>
<path d="M133.686 83.9489C133.606 83.9496 133.528 83.9222 133.465 83.8711C133.402 83.8199 133.357 83.7481 133.338 83.6674C133.338 83.5374 130.062 70.2319 129.61 62.2544C129.607 62.2061 129.614 62.1576 129.629 62.1118C129.644 62.066 129.668 62.0238 129.699 61.9876C129.73 61.9513 129.768 61.9218 129.81 61.9007C129.852 61.8796 129.897 61.8673 129.944 61.8646C130.039 61.8586 130.132 61.8916 130.204 61.9565C130.275 62.0213 130.319 62.1128 130.326 62.2111C130.779 70.1164 134.006 83.3497 134.034 83.4869C134.057 83.5826 134.043 83.684 133.995 83.7691C133.947 83.8542 133.868 83.9162 133.777 83.9417L133.686 83.9489Z" fill="#231F20"/>
<path d="M77.6219 86.3241C77.5746 86.3213 77.5284 86.3088 77.4859 86.2873C77.4434 86.2657 77.4054 86.2355 77.3743 86.1986C77.3432 86.1616 77.3196 86.1185 77.3047 86.0718C77.2899 86.0252 77.2842 85.976 77.288 85.927L79.013 57.8794C79.0157 57.8304 79.0277 57.7824 79.0485 57.7382C79.0693 57.6941 79.0983 57.6548 79.134 57.6225C79.1696 57.5902 79.2111 57.5656 79.2561 57.5502C79.301 57.5348 79.3485 57.5289 79.3956 57.5329C79.4425 57.5346 79.4886 57.5463 79.5311 57.5671C79.5736 57.5878 79.6116 57.6173 79.6428 57.6538C79.674 57.6902 79.6977 57.7328 79.7127 57.779C79.7276 57.8253 79.7333 57.8741 79.7295 57.9227L77.9766 85.9703C77.973 86.0654 77.9341 86.1554 77.8679 86.2214C77.8018 86.2873 77.7136 86.3241 77.6219 86.3241Z" fill="#231F20"/>
<path d="M139.209 70.6363C139.145 70.6371 139.081 70.6193 139.026 70.5848C138.971 70.5504 138.926 70.5007 138.896 70.4413L135.529 63.9438C135.492 63.849 135.492 63.7426 135.529 63.6478C135.562 63.5508 135.629 63.4706 135.717 63.424L146.151 58.3054C146.193 58.2834 146.239 58.2705 146.287 58.2673C146.334 58.2641 146.381 58.2708 146.426 58.287C146.471 58.3031 146.512 58.3284 146.547 58.3613C146.582 58.3943 146.611 58.4342 146.631 58.4787C146.672 58.5678 146.677 58.6701 146.646 58.7633C146.615 58.8565 146.549 58.9332 146.464 58.9768L136.35 63.9294L139.397 69.7916L149.643 66.5428C149.688 66.5286 149.736 66.5239 149.784 66.5289C149.831 66.5339 149.877 66.5485 149.919 66.572C149.961 66.5954 149.998 66.6272 150.028 66.6656C150.059 66.704 150.081 66.7481 150.095 66.7955C150.109 66.8429 150.113 66.8926 150.108 66.9419C150.103 66.9911 150.089 67.0389 150.067 67.0825C150.044 67.126 150.014 67.1646 149.977 67.1958C149.94 67.2271 149.897 67.2505 149.851 67.2648L139.313 70.6435L139.209 70.6363Z" fill="#231F20"/>
<path d="M148.245 153.018C157.73 153.018 165.419 150.616 165.419 147.653C165.419 144.691 157.73 142.289 148.245 142.289C138.76 142.289 131.071 144.691 131.071 147.653C131.071 150.616 138.76 153.018 148.245 153.018Z" fill="white"/>
<path d="M148.245 153.378C138.423 153.378 130.723 150.866 130.723 147.653C130.723 144.441 138.423 141.928 148.245 141.928C158.067 141.928 165.767 144.441 165.767 147.653C165.767 150.866 158.067 153.378 148.245 153.378ZM148.245 142.65C138.18 142.65 131.419 145.235 131.419 147.653C131.419 150.072 138.18 152.657 148.245 152.657C158.31 152.657 165.071 150.072 165.071 147.653C165.071 145.235 158.31 142.65 148.245 142.65Z" fill="#D1D3D4"/>
<path d="M135.3 132.334L134.889 132.413C133.648 132.605 132.519 133.266 131.718 134.269C131.268 134.981 131.021 135.81 131.002 136.661C130.984 137.512 131.195 138.351 131.613 139.084C133.436 142.492 137.873 143.416 141.296 143.769C141.78 143.851 142.276 143.812 142.743 143.654C142.973 143.572 143.173 143.419 143.316 143.215C143.459 143.011 143.538 142.766 143.542 142.513C143.513 142.306 143.434 142.109 143.312 141.941C143.191 141.773 143.031 141.64 142.847 141.553C142.488 141.381 142.106 141.268 141.713 141.221C139.585 140.86 137.345 140.593 135.397 139.575C134.263 138.976 132.677 137.611 133.505 136.138C133.795 135.672 134.211 135.305 134.702 135.084C136.656 134.117 138.513 134.853 140.44 135.445C140.58 135.499 140.73 135.521 140.878 135.51C141.063 135.458 141.222 135.337 141.326 135.17C141.429 135.004 141.471 134.804 141.442 134.608C141.379 133.734 140.538 133.164 139.745 132.839C138.329 132.281 136.799 132.107 135.3 132.334Z" fill="white"/>
<path d="M141.873 144.167C141.671 144.166 141.469 144.154 141.268 144.13C136.044 143.618 132.788 142.03 131.307 139.257C130.856 138.464 130.629 137.556 130.652 136.635C130.675 135.714 130.948 134.819 131.439 134.052C132.292 132.98 133.495 132.271 134.82 132.06L135.251 131.98C136.818 131.737 138.418 131.919 139.897 132.507C140.593 132.774 141.727 133.402 141.817 134.579C141.852 134.867 141.784 135.158 141.624 135.397C141.465 135.635 141.227 135.804 140.955 135.871C140.757 135.885 140.558 135.858 140.37 135.792L139.87 135.633C138.158 135.092 136.545 134.586 134.882 135.409C134.451 135.599 134.085 135.918 133.832 136.326C133.741 136.475 133.683 136.642 133.66 136.817C133.637 136.991 133.651 137.169 133.7 137.337C134.081 138.19 134.749 138.87 135.578 139.25C137.305 140.03 139.137 140.532 141.01 140.737L141.796 140.867C142.228 140.917 142.649 141.041 143.041 141.235C143.321 141.344 143.559 141.544 143.721 141.804C143.883 142.065 143.96 142.372 143.94 142.681C143.921 142.991 143.806 143.285 143.613 143.521C143.42 143.758 143.158 143.923 142.867 143.993C142.549 144.113 142.212 144.172 141.873 144.167ZM135.355 132.695L134.959 132.767C133.804 132.945 132.751 133.554 131.996 134.478C131.585 135.136 131.36 135.9 131.347 136.683C131.333 137.467 131.532 138.238 131.919 138.911C133.275 141.452 136.357 142.925 141.33 143.409C141.758 143.482 142.195 143.452 142.61 143.322C142.771 143.265 142.913 143.16 143.017 143.02C143.121 142.88 143.183 142.711 143.194 142.535C143.172 142.391 143.116 142.256 143.031 142.14C142.946 142.024 142.835 141.932 142.708 141.871C142.384 141.717 142.039 141.62 141.685 141.582L140.899 141.452C138.955 141.237 137.054 140.711 135.265 139.893C134.263 139.429 133.466 138.592 133.032 137.546C132.956 137.282 132.934 137.004 132.969 136.73C133.004 136.456 133.094 136.193 133.234 135.958C133.556 135.426 134.027 135.008 134.583 134.76C136.489 133.814 138.311 134.384 140.071 134.94L140.572 135.099C140.666 135.135 140.765 135.152 140.864 135.149C141.031 135.149 141.135 134.853 141.122 134.637C141.066 133.828 140.071 133.352 139.647 133.193C138.28 132.651 136.802 132.484 135.355 132.709V132.695Z" fill="#231F20"/>
<path d="M136.907 128.681C136.907 128.681 140.12 145.329 140.385 146.332C140.649 147.336 148.245 151.458 154.296 147.408L159.59 130.392L136.907 128.681Z" fill="white"/>
<path d="M148.377 149.523C146.558 149.508 144.758 149.151 143.062 148.469C141.727 147.935 140.21 147.069 140.043 146.426C139.786 145.423 136.698 129.439 136.566 128.753C136.553 128.699 136.553 128.642 136.566 128.588C136.579 128.534 136.604 128.484 136.64 128.442C136.675 128.4 136.72 128.368 136.77 128.348C136.82 128.328 136.874 128.321 136.927 128.327L159.61 130.074C159.663 130.077 159.715 130.092 159.761 130.119C159.807 130.146 159.847 130.184 159.876 130.229C159.906 130.275 159.925 130.327 159.932 130.381C159.939 130.436 159.934 130.491 159.916 130.543L154.623 147.56C154.597 147.638 154.545 147.704 154.477 147.747C152.654 148.944 150.533 149.562 148.377 149.523ZM137.338 129.078C137.859 131.785 140.489 145.35 140.718 146.238C140.816 146.477 142.068 147.444 144.287 148.144C146.373 148.801 150.366 149.545 154.025 147.177L159.144 130.724L137.338 129.078Z" fill="#231F20"/>
<path d="M159.644 129.652C159.756 126.831 154.759 124.328 148.483 124.06C142.207 123.793 137.029 125.863 136.918 128.684C136.806 131.504 141.803 134.007 148.079 134.275C154.355 134.542 159.533 132.472 159.644 129.652Z" fill="#231F20"/>
<path d="M149.163 134.658C148.795 134.658 148.426 134.658 148.057 134.658C141.484 134.384 136.434 131.771 136.559 128.695C136.685 125.62 141.922 123.454 148.489 123.735C155.055 124.017 160.105 126.623 159.98 129.699C159.924 131.215 158.589 132.586 156.286 133.482C153.999 134.315 151.586 134.714 149.163 134.658ZM147.417 124.4C141.901 124.4 137.345 126.277 137.248 128.731C137.151 131.301 142.117 133.691 148.085 133.944C150.795 134.108 153.509 133.713 156.071 132.781C158.088 131.98 159.27 130.832 159.319 129.641C159.423 127.064 154.45 124.674 148.489 124.421L147.417 124.4Z" fill="#231F20"/>
<path d="M121.061 82.4256H84.2577C84.1655 82.4256 84.077 82.3875 84.0118 82.3198C83.9466 82.2521 83.9099 82.1603 83.9099 82.0646V70.7878C83.9117 70.6926 83.9489 70.6019 84.0138 70.5346C84.0786 70.4673 84.166 70.4287 84.2577 70.4268H121.061C121.153 70.4268 121.242 70.4648 121.307 70.5325C121.372 70.6002 121.409 70.6921 121.409 70.7878V82.0862C121.403 82.1782 121.365 82.2645 121.3 82.3276C121.235 82.3907 121.15 82.4257 121.061 82.4256ZM84.6055 81.7036H120.713V71.1488H84.6055V81.7036Z" fill="white"/>
<path d="M189.305 162.338H0.405518V169.897H189.305V162.338Z" fill="white"/>
<path d="M189.312 170.258H0.405409C0.313169 170.258 0.224706 170.22 0.159483 170.152C0.0942592 170.084 0.0576172 169.992 0.0576172 169.897V162.338C0.0593979 162.243 0.0966127 162.152 0.161454 162.085C0.226296 162.017 0.313726 161.979 0.405409 161.977H189.312C189.404 161.979 189.491 162.017 189.556 162.085C189.621 162.152 189.658 162.243 189.66 162.338V169.897C189.66 169.992 189.623 170.084 189.558 170.152C189.493 170.22 189.404 170.258 189.312 170.258ZM0.753201 169.536H188.964V162.699H0.753201V169.536Z" fill="#D1D3D4"/>
<path d="M159.583 91.746C159.491 91.7422 159.404 91.7018 159.341 91.6331C159.277 91.5645 159.242 91.473 159.242 91.3778C159.242 90.5475 159.75 70.9756 161.83 64.1965C163.909 57.4174 167.812 54.5946 167.972 54.4863C168.048 54.4327 168.142 54.4129 168.233 54.4311C168.323 54.4494 168.403 54.5043 168.455 54.5838C168.507 54.6632 168.526 54.7607 168.508 54.8548C168.491 54.9489 168.438 55.0319 168.361 55.0855C168.319 55.0855 164.514 57.8217 162.49 64.4131C160.466 71.0044 159.944 91.1901 159.938 91.3922C159.937 91.4396 159.927 91.4864 159.908 91.5298C159.89 91.5732 159.864 91.6125 159.831 91.6454C159.798 91.6782 159.759 91.704 159.716 91.7213C159.674 91.7385 159.628 91.7469 159.583 91.746Z" fill="white"/>
</svg>
