<svg width="284" height="40" viewBox="0 0 284 40" fill="none" xmlns="http://www.w3.org/2000/svg">
<g clip-path="url(#clip0_327_33390)">
<path d="M181.034 0.697709C160.837 1.32266 140.654 2.37085 120.503 3.84229C102.218 4.16634 83.9288 4.49039 65.6432 4.81443C45.5788 5.17155 25.5143 5.52535 5.4531 5.88247C3.51212 5.91553 0.50642 7.34068 0.208826 9.49328C-0.118528 11.8674 2.81774 12.2642 4.47104 12.2378C17.509 12.0063 30.5469 11.7748 43.5849 11.5434C38.1587 12.2345 32.7392 12.952 27.3197 13.7026C25.4415 13.9638 22.8194 14.8434 22.2209 16.8968C21.6852 18.7286 23.3584 20.0281 25.134 20.0612C55.244 20.577 85.3572 21.0962 115.467 21.612C121.875 21.7211 128.284 21.8335 134.692 21.9426C125.473 22.9512 116.267 24.1118 107.088 25.4245C92.6946 27.4878 78.3604 29.9347 64.0891 32.7222C62.5483 33.0231 60.3626 34.3722 60.1278 36.1015C59.8997 37.7548 61.7216 38.8361 63.1831 38.8493C97.4263 39.1469 131.67 39.4478 165.913 39.7454C175.568 39.8281 185.22 39.914 194.875 39.9967C197.087 40.0165 199.924 39.385 201.039 37.2126C202.034 35.2683 200.169 33.6513 198.268 33.6348C165.304 33.3471 132.341 33.0595 99.3772 32.7718C100.296 32.6329 101.212 32.4907 102.132 32.3551C114.588 30.5101 127.087 28.946 139.612 27.6664C164.676 25.1071 189.853 23.6819 215.046 23.4009C216.16 23.3876 217.287 23.381 218.412 23.3744C231.182 23.5926 243.949 23.8142 256.719 24.0324C258.928 24.0688 261.775 23.4075 262.882 21.2483C263.901 19.2643 261.996 17.7466 260.111 17.6705C247.08 17.1481 234.035 16.9232 220.994 16.9993C203.922 16.705 186.85 16.414 169.778 16.1197C139.668 15.6039 109.555 15.0847 79.445 14.5689C77.018 14.5259 74.5876 14.4863 72.1606 14.4433C87.9264 12.7668 103.719 11.3483 119.531 10.1943C152.495 9.60901 185.461 9.02705 218.425 8.44178C238.489 8.08467 258.554 7.73086 278.615 7.37374C280.457 7.34068 283.162 6.07756 283.714 4.17956C284.256 2.32456 282.57 1.08127 280.801 1.01514C247.559 -0.221528 214.278 -0.330646 181.034 0.697709Z" fill="#A16EDD"/>
</g>
<defs>
<clipPath id="clip0_327_33390">
<rect width="283.634" height="40" fill="white" transform="translate(0.182617)"/>
</clipPath>
</defs>
</svg>
