<svg id="clap" xmlns="http://www.w3.org/2000/svg" width="24" height="23.997" viewBox="0 0 24 23.997">
  <g id="clapping" transform="translate(2 1.959)">
    <path id="Path_13490" data-name="Path 13490" d="M0,7.333C.094,8.9.087,10.2.08,11.35c-.018,3.042-.046,5.025,2.093,7.164a5.279,5.279,0,0,0,7.458,0h0l5.8-5.8a1.758,1.758,0,0,0-.485-2.829l.961-.961a1.757,1.757,0,0,0-.546-2.856,1.757,1.757,0,0,0-.8-2.472,1.758,1.758,0,0,0-2.351-2.476A1.759,1.759,0,0,0,9.356.573c-.036.035-3.1,3.09-5.064,5.05l-.3-2.131a1.758,1.758,0,0,0-3.514,0c0,.016,0,.032,0,.049.047.8.072,1.6.079,2.5A1.74,1.74,0,0,0,0,7.333Zm14.6,4.552-5.8,5.8a4.106,4.106,0,0,1-5.8,0c-1.777-1.777-1.768-3.3-1.75-6.328.007-1.158.015-2.47-.078-4.064a.587.587,0,0,1,1-.38c.2.2.123.284.177.5v0l.47,3.326a.586.586,0,0,0,.994.332l5.832-5.83a.586.586,0,0,1,.812.844h0L7.973,8.57A.586.586,0,1,0,8.8,9.4l3.314-3.314a.586.586,0,0,1,.829.829L9.63,10.228a.586.586,0,0,0,.829.829L12.945,8.57a.586.586,0,0,1,.829.829l-2.486,2.486a.586.586,0,0,0,.829.829l1.66-1.66a.586.586,0,0,1,.826.832Zm-.353-7.1a.586.586,0,0,1,0,.829l-.132.132a1.771,1.771,0,0,0-.829-.829l.133-.132a.587.587,0,0,1,.828,0Zm.829,3.314-.133.133a1.753,1.753,0,0,0-.829-.829l.133-.133a.586.586,0,1,1,.829.829ZM13.5,2.231a.586.586,0,0,1,0,.827L11.631,4.912a1.762,1.762,0,0,0-.825-.826L12.67,2.231a.587.587,0,0,1,.829,0ZM4.291,7.28c1.75-1.75,5.851-5.836,5.893-5.878a.586.586,0,0,1,.863.791C5.568,7.661,13.624-.4,3.817,9.412l-.294-2.08a.585.585,0,0,0,.769-.052ZM1.649,3.5a.587.587,0,0,1,1-.38c.2.2.123.284.177.5L3.21,6.336a1.754,1.754,0,0,0-1.486-.765C1.713,4.842,1.688,4.171,1.649,3.5Z" transform="translate(0 -0.017)" fill="#a59fad"/>
    <path id="Path_13491" data-name="Path 13491" d="M453.778,92.042h-1.172a.586.586,0,0,0,0,1.172h1.172a.586.586,0,1,0,0-1.172Z" transform="translate(-434.363 -88.407)" fill="#a59fad"/>
    <path id="Path_13492" data-name="Path 13492" d="M422.021,2.214l1.172-1.172a.586.586,0,1,0-.829-.829l-1.172,1.172a.586.586,0,0,0,.829.829Z" transform="translate(-404.575 0)" fill="#a59fad"/>
  </g>
</svg>
