<svg id="save" xmlns="http://www.w3.org/2000/svg" width="24" height="24" viewBox="0 0 24 24">
  <g id="bookmark" fill="none" stroke-linecap="round" stroke-linejoin="round">
    <path d="M19,21l-7-5L5,21V5A2,2,0,0,1,7,3H17a2,2,0,0,1,2,2Z" stroke="none"/>
    <path d="M 17.5 18.08521461486816 L 17.5 5 C 17.5 4.724299907684326 17.27569961547852 4.5 17 4.5 L 7 4.5 C 6.724299907684326 4.5 6.5 4.724299907684326 6.5 5 L 6.5 18.08521461486816 L 11.12814044952393 14.77939987182617 C 11.64968967437744 14.40686988830566 12.35031032562256 14.40686988830566 12.87185955047607 14.77939987182617 L 17.5 18.08521461486816 M 19 21 L 12 16 L 5 21 L 5 5 C 5 3.895430088043213 5.895430088043213 3 7 3 L 17 3 C 18.10457038879395 3 19 3.895430088043213 19 5 L 19 21 Z" stroke="none" fill="#706e74"/>
  </g>
</svg>
