<svg width="631" height="656" viewBox="0 0 631 656" fill="none" xmlns="http://www.w3.org/2000/svg">
<g clip-path="url(#clip0_6_993)">
<g style="mix-blend-mode:multiply">
<path d="M102.364 202.602C102.364 202.602 53.7017 196.838 17.0869 180.248C17.0869 180.248 21.893 174.799 24.0653 166.431C24.0653 166.431 53.7192 187.746 87.531 191.945L102.364 202.602Z" fill="#473E99"/>
</g>
<g style="mix-blend-mode:multiply">
<path d="M148.941 134.213C148.941 134.213 152.457 192.762 101.085 198.573L102.364 187.588C102.364 187.588 145.49 182.928 143.242 149.782L148.941 134.213Z" fill="#473E99"/>
</g>
<path d="M219.35 434.835H71.6238C68.7214 434.835 66.368 432.481 66.368 429.579V264.573C66.368 261.67 68.7214 259.317 71.6238 259.317H219.35C222.253 259.317 224.606 261.67 224.606 264.573V429.579C224.606 432.481 222.253 434.835 219.35 434.835ZM219.35 434.835C219.35 434.835 222.253 434.835 219.35 434.835Z" stroke="white" stroke-width="2" stroke-miterlimit="10" stroke-linecap="round"/>
<path d="M372.706 378.061H308.744V398.827H372.706V378.061Z" fill="#212121"/>
<g style="mix-blend-mode:multiply" opacity="0.39">
<path d="M372.706 378.061H351.642V398.827H372.706V378.061Z" fill="#B6B5BA"/>
</g>
<path d="M511.399 139.662H180.797C171.161 139.662 163.348 147.475 163.348 157.111V365.599C163.348 375.235 171.161 383.048 180.797 383.048H314.117V394.698C300.545 394.92 289.613 405.975 289.613 419.599H402.582C402.582 405.975 391.644 394.926 378.079 394.698V383.048H511.399C521.034 383.048 528.848 375.235 528.848 365.599V157.111C528.848 147.475 521.034 139.662 511.399 139.662Z" fill="#212121"/>
<path d="M563.156 247.217H383.545C380.642 247.217 378.289 244.864 378.289 241.961V71.6179C378.289 68.7156 380.642 66.3622 383.545 66.3622H563.156C566.058 66.3622 568.411 68.7156 568.411 71.6179V241.961C568.411 244.864 566.058 247.217 563.156 247.217C563.156 247.217 566.058 247.217 563.156 247.217V247.217Z" stroke="white" stroke-width="2" stroke-miterlimit="10" stroke-linecap="round"/>
<path d="M517.781 139.662H163.675C160.53 139.662 157.981 142.211 157.981 145.356V377.355C157.981 380.499 160.53 383.048 163.675 383.048H517.781C520.926 383.048 523.475 380.499 523.475 377.355V145.356C523.475 142.211 520.926 139.662 517.781 139.662Z" fill="#212121"/>
<path d="M523.475 157.934H157.981V353.143H523.475V157.934Z" fill="#EDEDED"/>
<g style="mix-blend-mode:multiply" opacity="0.5">
<path d="M148.124 91.8349C158.442 98.4571 164.113 111.626 158.314 115.17C154.01 117.804 139.779 122.499 129.74 125.641C125.647 126.926 122.02 122.668 123.924 118.826C130.102 106.382 141.046 87.2974 148.118 91.8349H148.124ZM63.5299 105.926C67.4133 94.2992 78.7832 85.563 83.6476 90.3165C87.2566 93.8437 95.3095 106.481 100.816 115.439C103.065 119.094 99.8353 123.655 95.6365 122.75C82.0534 119.819 60.867 113.903 63.5241 105.932L63.5299 105.926ZM104.647 152.328C103.584 166.18 100.6 187.979 92.3371 186.42C80.2898 184.149 70.0937 174.069 74.1406 168.609C77.1422 164.556 88.5763 154.863 96.6993 148.188C100.016 145.461 104.974 148.048 104.647 152.328ZM57.7778 150.821C52.2769 139.866 54.1105 125.647 60.9021 125.553C65.9476 125.483 80.5877 128.695 90.8188 131.107C94.9942 132.088 95.946 137.6 92.3488 139.93C80.6928 147.487 61.5503 158.337 57.7778 150.821ZM107.03 114.423C100.881 101.961 92.3429 81.6855 100.244 78.8124C111.766 74.6253 125.676 78.1058 124.975 84.8681C124.455 89.8844 119.556 104.051 115.97 113.932C114.505 117.967 108.922 118.271 107.024 114.423H107.03ZM141.612 180.54C132.502 188.739 118.3 190.73 116.414 184.201C115.013 179.354 114.242 164.387 113.862 153.882C113.704 149.595 118.768 147.218 121.973 150.074C132.345 159.318 147.861 174.916 141.612 180.54ZM154.448 160.054C149.747 158.226 137.379 149.759 128.794 143.691C125.29 141.215 126.476 135.749 130.686 134.938C144.328 132.304 166.139 129.425 166.822 137.799C167.815 150.016 160.784 162.513 154.448 160.054Z" fill="#BDBDBD"/>
</g>
<path d="M309.165 394.675H372.297C386.061 394.675 397.215 405.835 397.215 419.593H284.247C284.247 405.829 295.406 394.675 309.165 394.675Z" fill="#212121"/>
<g style="mix-blend-mode:multiply" opacity="0.39">
<path d="M372.292 394.675H347.788C361.552 394.675 372.706 405.835 372.706 419.593H397.209C397.209 405.829 386.05 394.675 372.292 394.675Z" fill="#B6B5BA"/>
</g>
<path d="M107.45 171.815C130.475 171.815 149.14 153.15 149.14 130.126C149.14 107.101 130.475 88.4362 107.45 88.4362C84.4257 88.4362 65.7607 107.101 65.7607 130.126C65.7607 153.15 84.4257 171.815 107.45 171.815Z" fill="#5C4EA0"/>
<g style="mix-blend-mode:multiply">
<path d="M107.45 156.848C122.209 156.848 134.173 144.884 134.173 130.126C134.173 115.367 122.209 103.403 107.45 103.403C92.6918 103.403 80.7278 115.367 80.7278 130.126C80.7278 144.884 92.6918 156.848 107.45 156.848Z" fill="#473E99"/>
</g>
<path d="M107.45 57.4216C67.2965 57.4216 34.752 89.972 34.752 130.12C34.752 170.268 67.3024 202.818 107.45 202.818C147.598 202.818 180.148 170.268 180.148 130.12C180.148 89.972 147.598 57.4216 107.45 57.4216ZM144.544 88.2551C154.863 94.8773 160.533 108.046 154.734 111.591C150.43 114.224 136.199 118.919 126.161 122.061C122.067 123.346 118.44 119.089 120.344 115.246C126.523 102.802 137.466 83.7177 144.538 88.2551H144.544ZM59.9502 102.346C63.8336 90.7195 75.2034 81.9833 80.0679 86.7368C83.6768 90.264 91.7297 102.901 97.2366 111.859C99.4848 115.515 96.2555 120.076 92.0568 119.17C78.4737 116.239 57.2873 110.323 59.9443 102.352L59.9502 102.346ZM54.1923 147.242C48.6913 136.287 50.5249 122.067 57.3165 121.973C62.362 121.903 77.0021 125.115 87.2332 127.527C91.4086 128.508 92.3604 134.021 88.7632 136.351C77.1072 143.907 57.9647 154.757 54.1923 147.242ZM101.062 148.748C99.9987 162.6 97.0147 184.4 88.7515 182.84C76.7042 180.569 66.5082 170.49 70.5551 165.029C73.5566 160.977 84.9907 151.283 93.1138 144.608C96.4307 141.881 101.389 144.468 101.062 148.748ZM103.438 110.843C97.2891 98.3812 88.7515 78.1058 96.6526 75.2327C108.174 71.0456 122.084 74.526 121.384 81.2884C120.864 86.3047 115.964 100.472 112.379 110.353C110.913 114.388 105.33 114.691 103.432 110.843H103.438ZM138.021 176.96C128.911 185.159 114.709 187.15 112.823 180.621C111.421 175.774 110.65 160.807 110.271 150.302C110.113 146.015 115.176 143.639 118.382 146.494C128.753 155.739 144.269 171.336 138.021 176.96ZM150.857 156.474C146.156 154.647 133.787 146.179 125.203 140.112C121.699 137.635 122.884 132.17 127.095 131.358C140.736 128.724 162.548 125.845 163.231 134.219C164.224 146.436 157.193 158.933 150.857 156.474Z" fill="#FAB317"/>
<g style="mix-blend-mode:multiply" opacity="0.34">
<g style="mix-blend-mode:multiply">
<path d="M125.226 59.6232C151.873 70.4091 170.676 96.5125 170.676 127.025C170.676 167.178 138.126 199.723 97.9782 199.723C91.8465 199.723 85.8901 198.952 80.2022 197.527C88.6172 200.932 97.8147 202.824 107.45 202.824C147.604 202.824 180.148 170.274 180.148 130.126C180.148 96.1095 156.784 67.5535 125.226 59.6232Z" fill="#F7A81C"/>
</g>
</g>
<path d="M115.147 130.126C115.147 125.874 111.702 122.429 107.45 122.429C103.199 122.429 99.7535 125.874 99.7535 130.126C99.7535 134.377 103.199 137.822 107.45 137.822C111.702 137.822 115.147 134.377 115.147 130.126Z" fill="white"/>
<path d="M235.859 94.0656C235.859 94.0656 245.967 89.9311 246.423 80.284C246.423 80.284 248.198 90.1647 258.318 92.9152C258.318 92.9152 248.671 100.034 247.089 106.697C247.089 106.697 243.439 94.9825 235.859 94.0656Z" fill="white"/>
<path d="M82.2578 409.963C82.2578 409.963 94.7255 404.865 95.292 392.964C95.292 392.964 97.4819 405.151 109.961 408.55C109.961 408.55 98.06 417.333 96.1095 425.549C96.1095 425.549 91.6071 411.102 82.2578 409.963Z" fill="white"/>
<path d="M54.2565 478.656C54.2565 478.656 73.3873 470.83 74.2574 452.57C74.2574 452.57 77.6211 471.268 96.7694 476.483C96.7694 476.483 78.5087 489.961 75.513 502.569C75.513 502.569 68.6046 480.396 54.2565 478.656Z" fill="white"/>
<path d="M140.871 46.7175C140.871 46.7175 150.979 42.583 151.435 32.9358C151.435 32.9358 153.21 42.8166 163.33 45.5671C163.33 45.5671 153.683 52.6856 152.1 59.3487C152.1 59.3487 148.451 47.6343 140.871 46.7175Z" fill="white"/>
<path d="M248.403 66.0877C248.403 66.0877 255.597 63.1445 255.924 56.277C255.924 56.277 257.191 63.308 264.392 65.2701C264.392 65.2701 257.524 70.339 256.397 75.0808C256.397 75.0808 253.798 66.7417 248.403 66.0877Z" fill="white"/>
<path d="M541.858 286.693C541.858 286.693 550.735 283.061 551.138 274.594C551.138 274.594 552.697 283.266 561.579 285.689C561.579 285.689 553.106 291.943 551.716 297.789C551.716 297.789 548.51 287.499 541.853 286.693H541.858Z" fill="white"/>
<path d="M112.192 394.079C112.192 394.079 121.068 390.447 121.471 381.98C121.471 381.98 123.03 390.651 131.913 393.075C131.913 393.075 123.439 399.329 122.049 405.175C122.049 405.175 118.843 394.885 112.186 394.079H112.192Z" fill="white"/>
<path d="M504.531 174.653H174.858V325.884H504.531V174.653Z" fill="#5C4EA0"/>
<path d="M323.139 304.142C322.52 304.142 322.018 303.64 322.018 303.021V245.401C322.018 244.782 322.52 244.28 323.139 244.28C323.758 244.28 324.26 244.782 324.26 245.401V303.021C324.26 303.64 323.758 304.142 323.139 304.142Z" fill="#FAB317"/>
<path d="M327.986 290.057C327.367 290.057 326.865 289.555 326.865 288.936V259.492C326.865 258.873 327.367 258.371 327.986 258.371C328.605 258.371 329.107 258.873 329.107 259.492V288.936C329.107 289.555 328.605 290.057 327.986 290.057Z" fill="#FAB317"/>
<path d="M332.833 296.615C332.214 296.615 331.712 296.113 331.712 295.494V252.928C331.712 252.309 332.214 251.807 332.833 251.807C333.452 251.807 333.954 252.309 333.954 252.928V295.494C333.954 296.113 333.452 296.615 332.833 296.615Z" fill="#FAB317"/>
<path d="M342.527 288.264C341.908 288.264 341.406 287.762 341.406 287.143V261.279C341.406 260.66 341.908 260.158 342.527 260.158C343.146 260.158 343.648 260.66 343.648 261.279V287.143C343.648 287.762 343.146 288.264 342.527 288.264Z" fill="#FAB317"/>
<path d="M337.68 300.347C337.061 300.347 336.558 299.844 336.558 299.225V249.203C336.558 248.584 337.061 248.081 337.68 248.081C338.299 248.081 338.801 248.584 338.801 249.203V299.225C338.801 299.844 338.299 300.347 337.68 300.347Z" fill="#FAB317"/>
<path d="M298.536 304.142C297.917 304.142 297.415 303.64 297.415 303.021V245.401C297.415 244.782 297.917 244.28 298.536 244.28C299.155 244.28 299.658 244.782 299.658 245.401V303.021C299.658 303.64 299.155 304.142 298.536 304.142Z" fill="#FAB317"/>
<path d="M303.383 290.057C302.764 290.057 302.262 289.555 302.262 288.936V259.492C302.262 258.873 302.764 258.371 303.383 258.371C304.002 258.371 304.505 258.873 304.505 259.492V288.936C304.505 289.555 304.002 290.057 303.383 290.057Z" fill="#FAB317"/>
<path d="M308.23 296.615C307.611 296.615 307.109 296.113 307.109 295.494V252.928C307.109 252.309 307.611 251.807 308.23 251.807C308.849 251.807 309.351 252.309 309.351 252.928V295.494C309.351 296.113 308.849 296.615 308.23 296.615Z" fill="#FAB317"/>
<path d="M317.924 288.264C317.305 288.264 316.803 287.762 316.803 287.143V261.279C316.803 260.66 317.305 260.158 317.924 260.158C318.543 260.158 319.045 260.66 319.045 261.279V287.143C319.045 287.762 318.543 288.264 317.924 288.264Z" fill="#FAB317"/>
<path d="M313.077 300.347C312.458 300.347 311.956 299.844 311.956 299.225V249.203C311.956 248.584 312.458 248.081 313.077 248.081C313.696 248.081 314.198 248.584 314.198 249.203V299.225C314.198 299.844 313.696 300.347 313.077 300.347Z" fill="#FAB317"/>
<path d="M274.15 304.142C273.531 304.142 273.029 303.64 273.029 303.021V245.401C273.029 244.782 273.531 244.28 274.15 244.28C274.769 244.28 275.271 244.782 275.271 245.401V303.021C275.271 303.64 274.769 304.142 274.15 304.142Z" fill="#FAB317"/>
<path d="M278.997 290.057C278.378 290.057 277.875 289.555 277.875 288.936V259.492C277.875 258.873 278.378 258.371 278.997 258.371C279.616 258.371 280.118 258.873 280.118 259.492V288.936C280.118 289.555 279.616 290.057 278.997 290.057Z" fill="#FAB317"/>
<path d="M283.844 296.615C283.225 296.615 282.722 296.113 282.722 295.494V252.928C282.722 252.309 283.225 251.807 283.844 251.807C284.463 251.807 284.965 252.309 284.965 252.928V295.494C284.965 296.113 284.463 296.615 283.844 296.615Z" fill="#FAB317"/>
<path d="M293.537 288.264C292.918 288.264 292.416 287.762 292.416 287.143V261.279C292.416 260.66 292.918 260.158 293.537 260.158C294.156 260.158 294.659 260.66 294.659 261.279V287.143C294.659 287.762 294.156 288.264 293.537 288.264Z" fill="#FAB317"/>
<path d="M288.691 300.347C288.072 300.347 287.569 299.844 287.569 299.225V249.203C287.569 248.584 288.072 248.081 288.691 248.081C289.31 248.081 289.812 248.584 289.812 249.203V299.225C289.812 299.844 289.31 300.347 288.691 300.347Z" fill="#FAB317"/>
<path d="M249.769 304.142C249.15 304.142 248.648 303.64 248.648 303.021V245.401C248.648 244.782 249.15 244.28 249.769 244.28C250.388 244.28 250.89 244.782 250.89 245.401V303.021C250.89 303.64 250.388 304.142 249.769 304.142Z" fill="#FAB317"/>
<path d="M254.616 290.057C253.997 290.057 253.495 289.555 253.495 288.936V259.492C253.495 258.873 253.997 258.371 254.616 258.371C255.235 258.371 255.737 258.873 255.737 259.492V288.936C255.737 289.555 255.235 290.057 254.616 290.057Z" fill="#FAB317"/>
<path d="M259.463 296.615C258.844 296.615 258.342 296.113 258.342 295.494V252.928C258.342 252.309 258.844 251.807 259.463 251.807C260.082 251.807 260.584 252.309 260.584 252.928V295.494C260.584 296.113 260.082 296.615 259.463 296.615Z" fill="#FAB317"/>
<path d="M269.157 288.264C268.538 288.264 268.036 287.762 268.036 287.143V261.279C268.036 260.66 268.538 260.158 269.157 260.158C269.776 260.158 270.278 260.66 270.278 261.279V287.143C270.278 287.762 269.776 288.264 269.157 288.264Z" fill="#FAB317"/>
<path d="M264.31 300.347C263.691 300.347 263.189 299.844 263.189 299.225V249.203C263.189 248.584 263.691 248.081 264.31 248.081C264.929 248.081 265.431 248.584 265.431 249.203V299.225C265.431 299.844 264.929 300.347 264.31 300.347Z" fill="#FAB317"/>
<path d="M226.504 245.407C226.504 244.788 226.003 244.286 225.385 244.286C224.768 244.286 224.267 244.788 224.267 245.407V303.021C224.267 303.64 224.768 304.142 225.385 304.142C226.003 304.142 226.504 303.64 226.504 303.021V245.407Z" fill="#FAB317"/>
<path d="M230.235 290.057C229.616 290.057 229.114 289.555 229.114 288.936V259.492C229.114 258.873 229.616 258.371 230.235 258.371C230.854 258.371 231.357 258.873 231.357 259.492V288.936C231.357 289.555 230.854 290.057 230.235 290.057Z" fill="#FAB317"/>
<path d="M235.082 296.615C234.463 296.615 233.961 296.113 233.961 295.494V252.928C233.961 252.309 234.463 251.807 235.082 251.807C235.701 251.807 236.203 252.309 236.203 252.928V295.494C236.203 296.113 235.701 296.615 235.082 296.615Z" fill="#FAB317"/>
<path d="M244.776 288.264C244.157 288.264 243.655 287.762 243.655 287.143V261.279C243.655 260.66 244.157 260.158 244.776 260.158C245.395 260.158 245.897 260.66 245.897 261.279V287.143C245.897 287.762 245.395 288.264 244.776 288.264Z" fill="#FAB317"/>
<path d="M239.929 300.347C239.31 300.347 238.808 299.844 238.808 299.225V249.203C238.808 248.584 239.31 248.081 239.929 248.081C240.548 248.081 241.05 248.584 241.05 249.203V299.225C241.05 299.844 240.548 300.347 239.929 300.347Z" fill="#FAB317"/>
<path d="M201.002 304.142C200.383 304.142 199.881 303.64 199.881 303.021V245.401C199.881 244.782 200.383 244.28 201.002 244.28C201.621 244.28 202.123 244.782 202.123 245.401V303.021C202.123 303.64 201.621 304.142 201.002 304.142Z" fill="#FAB317"/>
<path d="M205.849 290.057C205.23 290.057 204.728 289.555 204.728 288.936V259.492C204.728 258.873 205.23 258.371 205.849 258.371C206.468 258.371 206.97 258.873 206.97 259.492V288.936C206.97 289.555 206.468 290.057 205.849 290.057Z" fill="#FAB317"/>
<path d="M210.696 296.615C210.077 296.615 209.575 296.113 209.575 295.494V252.928C209.575 252.309 210.077 251.807 210.696 251.807C211.315 251.807 211.817 252.309 211.817 252.928V295.494C211.817 296.113 211.315 296.615 210.696 296.615Z" fill="#FAB317"/>
<path d="M220.39 288.264C219.771 288.264 219.269 287.762 219.269 287.143V261.279C219.269 260.66 219.771 260.158 220.39 260.158C221.009 260.158 221.511 260.66 221.511 261.279V287.143C221.511 287.762 221.009 288.264 220.39 288.264Z" fill="#FAB317"/>
<path d="M216.664 249.203C216.664 248.583 216.163 248.081 215.546 248.081C214.928 248.081 214.427 248.583 214.427 249.203V299.22C214.427 299.839 214.928 300.341 215.546 300.341C216.163 300.341 216.664 299.839 216.664 299.22V249.203Z" fill="#FAB317"/>
<path d="M347.076 304.142C346.457 304.142 345.955 303.64 345.955 303.021V245.401C345.955 244.782 346.457 244.28 347.076 244.28C347.695 244.28 348.197 244.782 348.197 245.401V303.021C348.197 303.64 347.695 304.142 347.076 304.142Z" fill="#FAB317"/>
<path d="M351.923 290.057C351.304 290.057 350.802 289.555 350.802 288.936V259.492C350.802 258.873 351.304 258.371 351.923 258.371C352.542 258.371 353.044 258.873 353.044 259.492V288.936C353.044 289.555 352.542 290.057 351.923 290.057Z" fill="#FAB317"/>
<path d="M356.77 296.615C356.151 296.615 355.648 296.113 355.648 295.494V252.928C355.648 252.309 356.151 251.807 356.77 251.807C357.389 251.807 357.891 252.309 357.891 252.928V295.494C357.891 296.113 357.389 296.615 356.77 296.615Z" fill="#FAB317"/>
<path d="M366.464 288.264C365.845 288.264 365.342 287.762 365.342 287.143V261.279C365.342 260.66 365.845 260.158 366.464 260.158C367.083 260.158 367.585 260.66 367.585 261.279V287.143C367.585 287.762 367.083 288.264 366.464 288.264Z" fill="#FAB317"/>
<path d="M361.617 300.347C360.998 300.347 360.495 299.844 360.495 299.225V249.203C360.495 248.584 360.998 248.081 361.617 248.081C362.236 248.081 362.738 248.584 362.738 249.203V299.225C362.738 299.844 362.236 300.347 361.617 300.347Z" fill="#FAB317"/>
<path d="M371.013 304.142C370.394 304.142 369.891 303.64 369.891 303.021V245.401C369.891 244.782 370.394 244.28 371.013 244.28C371.632 244.28 372.134 244.782 372.134 245.401V303.021C372.134 303.64 371.632 304.142 371.013 304.142Z" fill="#FAB317"/>
<path d="M375.86 290.057C375.241 290.057 374.738 289.555 374.738 288.936V259.492C374.738 258.873 375.241 258.371 375.86 258.371C376.479 258.371 376.981 258.873 376.981 259.492V288.936C376.981 289.555 376.479 290.057 375.86 290.057Z" fill="#FAB317"/>
<path d="M380.707 296.615C380.088 296.615 379.585 296.113 379.585 295.494V252.928C379.585 252.309 380.088 251.807 380.707 251.807C381.326 251.807 381.828 252.309 381.828 252.928V295.494C381.828 296.113 381.326 296.615 380.707 296.615Z" fill="#FAB317"/>
<path d="M390.401 288.264C389.782 288.264 389.279 287.762 389.279 287.143V261.279C389.279 260.66 389.782 260.158 390.401 260.158C391.02 260.158 391.522 260.66 391.522 261.279V287.143C391.522 287.762 391.02 288.264 390.401 288.264Z" fill="#FAB317"/>
<path d="M385.553 300.347C384.934 300.347 384.432 299.844 384.432 299.225V249.203C384.432 248.584 384.934 248.081 385.553 248.081C386.172 248.081 386.675 248.584 386.675 249.203V299.225C386.675 299.844 386.172 300.347 385.553 300.347Z" fill="#FAB317"/>
<path d="M396.065 245.407C396.065 244.788 395.564 244.286 394.947 244.286C394.329 244.286 393.828 244.788 393.828 245.407V303.021C393.828 303.64 394.329 304.142 394.947 304.142C395.564 304.142 396.065 303.64 396.065 303.021V245.407Z" fill="#FAB317"/>
<path d="M399.791 290.057C399.172 290.057 398.669 289.555 398.669 288.936V259.492C398.669 258.873 399.172 258.371 399.791 258.371C400.41 258.371 400.912 258.873 400.912 259.492V288.936C400.912 289.555 400.41 290.057 399.791 290.057Z" fill="#FAB317"/>
<path d="M404.638 296.615C404.019 296.615 403.516 296.113 403.516 295.494V252.928C403.516 252.309 404.019 251.807 404.638 251.807C405.257 251.807 405.759 252.309 405.759 252.928V295.494C405.759 296.113 405.257 296.615 404.638 296.615Z" fill="#FAB317"/>
<path d="M414.332 288.264C413.713 288.264 413.21 287.762 413.21 287.143V261.279C413.21 260.66 413.713 260.158 414.332 260.158C414.951 260.158 415.453 260.66 415.453 261.279V287.143C415.453 287.762 414.951 288.264 414.332 288.264Z" fill="#FAB317"/>
<path d="M409.485 300.347C408.866 300.347 408.363 299.844 408.363 299.225V249.203C408.363 248.584 408.866 248.081 409.485 248.081C410.104 248.081 410.606 248.584 410.606 249.203V299.225C410.606 299.844 410.104 300.347 409.485 300.347Z" fill="#FAB317"/>
<path d="M418.88 304.142C418.261 304.142 417.759 303.64 417.759 303.021V245.401C417.759 244.782 418.261 244.28 418.88 244.28C419.499 244.28 420.002 244.782 420.002 245.401V303.021C420.002 303.64 419.499 304.142 418.88 304.142Z" fill="#FAB317"/>
<path d="M423.727 290.057C423.108 290.057 422.606 289.555 422.606 288.936V259.492C422.606 258.873 423.108 258.371 423.727 258.371C424.346 258.371 424.849 258.873 424.849 259.492V288.936C424.849 289.555 424.346 290.057 423.727 290.057Z" fill="#FAB317"/>
<path d="M428.574 296.615C427.955 296.615 427.453 296.113 427.453 295.494V252.928C427.453 252.309 427.955 251.807 428.574 251.807C429.193 251.807 429.696 252.309 429.696 252.928V295.494C429.696 296.113 429.193 296.615 428.574 296.615Z" fill="#FAB317"/>
<path d="M438.268 288.264C437.649 288.264 437.147 287.762 437.147 287.143V261.279C437.147 260.66 437.649 260.158 438.268 260.158C438.887 260.158 439.39 260.66 439.39 261.279V287.143C439.39 287.762 438.887 288.264 438.268 288.264Z" fill="#FAB317"/>
<path d="M434.543 249.203C434.543 248.583 434.042 248.081 433.424 248.081C432.807 248.081 432.306 248.583 432.306 249.203V299.22C432.306 299.839 432.807 300.341 433.424 300.341C434.042 300.341 434.543 299.839 434.543 299.22V249.203Z" fill="#FAB317"/>
<path d="M442.817 304.142C442.198 304.142 441.696 303.64 441.696 303.021V245.401C441.696 244.782 442.198 244.28 442.817 244.28C443.436 244.28 443.939 244.782 443.939 245.401V303.021C443.939 303.64 443.436 304.142 442.817 304.142Z" fill="#FAB317"/>
<path d="M447.664 290.057C447.045 290.057 446.543 289.555 446.543 288.936V259.492C446.543 258.873 447.045 258.371 447.664 258.371C448.283 258.371 448.786 258.873 448.786 259.492V288.936C448.786 289.555 448.283 290.057 447.664 290.057Z" fill="#FAB317"/>
<path d="M452.511 296.615C451.892 296.615 451.39 296.113 451.39 295.494V252.928C451.39 252.309 451.892 251.807 452.511 251.807C453.13 251.807 453.632 252.309 453.632 252.928V295.494C453.632 296.113 453.13 296.615 452.511 296.615Z" fill="#FAB317"/>
<path d="M462.205 288.264C461.586 288.264 461.084 287.762 461.084 287.143V261.279C461.084 260.66 461.586 260.158 462.205 260.158C462.824 260.158 463.326 260.66 463.326 261.279V287.143C463.326 287.762 462.824 288.264 462.205 288.264Z" fill="#FAB317"/>
<path d="M457.358 300.347C456.739 300.347 456.237 299.844 456.237 299.225V249.203C456.237 248.584 456.739 248.081 457.358 248.081C457.977 248.081 458.479 248.584 458.479 249.203V299.225C458.479 299.844 457.977 300.347 457.358 300.347Z" fill="#FAB317"/>
<path d="M466.754 304.142C466.135 304.142 465.633 303.64 465.633 303.021V245.401C465.633 244.782 466.135 244.28 466.754 244.28C467.373 244.28 467.876 244.782 467.876 245.401V303.021C467.876 303.64 467.373 304.142 466.754 304.142Z" fill="#FAB317"/>
<path d="M471.601 290.057C470.982 290.057 470.48 289.555 470.48 288.936V259.492C470.48 258.873 470.982 258.371 471.601 258.371C472.22 258.371 472.722 258.873 472.722 259.492V288.936C472.722 289.555 472.22 290.057 471.601 290.057Z" fill="#FAB317"/>
<path d="M476.448 296.615C475.829 296.615 475.327 296.113 475.327 295.494V252.928C475.327 252.309 475.829 251.807 476.448 251.807C477.067 251.807 477.569 252.309 477.569 252.928V295.494C477.569 296.113 477.067 296.615 476.448 296.615Z" fill="#FAB317"/>
<path d="M486.136 288.264C485.517 288.264 485.015 287.762 485.015 287.143V261.279C485.015 260.66 485.517 260.158 486.136 260.158C486.755 260.158 487.257 260.66 487.257 261.279V287.143C487.257 287.762 486.755 288.264 486.136 288.264Z" fill="#FAB317"/>
<path d="M481.295 300.347C480.676 300.347 480.174 299.844 480.174 299.225V249.203C480.174 248.584 480.676 248.081 481.295 248.081C481.914 248.081 482.416 248.584 482.416 249.203V299.225C482.416 299.844 481.914 300.347 481.295 300.347Z" fill="#FAB317"/>
<path d="M486.364 315.787H199.437C198.941 315.787 198.543 315.384 198.543 314.893C198.543 314.403 198.946 314 199.437 314H486.358C486.854 314 487.252 314.403 487.252 314.893C487.252 315.384 486.849 315.787 486.358 315.787H486.364Z" fill="#FAB317"/>
<g style="mix-blend-mode:multiply" opacity="0.5">
<path d="M298.834 155.943H207.828C203.77 155.943 200.476 159.236 200.476 163.295V281.811C200.476 285.87 203.77 289.164 207.828 289.164H278.027L306.186 257.489V163.295C306.186 159.236 302.893 155.943 298.834 155.943Z" fill="#BDBDBD"/>
</g>
<path d="M301.76 157.403C301.76 153.344 298.466 150.051 294.408 150.051H203.402C199.344 150.051 196.05 153.344 196.05 157.403V275.919C196.05 279.978 199.344 283.271 203.402 283.271H273.601L301.76 251.597V157.403Z" fill="#F4F3F2"/>
<path d="M301.76 251.591H280.953C276.894 251.591 273.601 254.885 273.601 258.943V283.271L301.76 251.597V251.591Z" fill="#DCDBDB"/>
<path d="M286.162 175.05H211.619C210.48 175.05 209.551 174.128 209.551 172.983C209.551 171.844 210.474 170.916 211.619 170.916H286.162C287.301 170.916 288.229 171.839 288.229 172.983C288.229 174.122 287.307 175.05 286.162 175.05Z" fill="#B6B5BA"/>
<path d="M286.162 206.322H211.619C210.48 206.322 209.551 205.399 209.551 204.255C209.551 203.116 210.474 202.187 211.619 202.187H286.162C287.301 202.187 288.229 203.11 288.229 204.255C288.229 205.393 287.307 206.322 286.162 206.322Z" fill="#B6B5BA"/>
<path d="M286.162 190.683H211.619C210.48 190.683 209.551 189.761 209.551 188.616C209.551 187.477 210.474 186.549 211.619 186.549H286.162C287.301 186.549 288.229 187.471 288.229 188.616C288.229 189.755 287.307 190.683 286.162 190.683Z" fill="#B6B5BA"/>
<path d="M286.162 219.701H211.619C210.48 219.701 209.551 218.778 209.551 217.633C209.551 216.495 210.474 215.566 211.619 215.566H286.162C287.301 215.566 288.229 216.489 288.229 217.633C288.229 218.772 287.307 219.701 286.162 219.701Z" fill="#B6B5BA"/>
<path d="M271.954 233.079H225.821C224.682 233.079 223.753 232.157 223.753 231.012C223.753 229.873 224.676 228.945 225.821 228.945H271.954C273.093 228.945 274.021 229.867 274.021 231.012C274.021 232.151 273.099 233.079 271.954 233.079Z" fill="#B6B5BA"/>
<g style="mix-blend-mode:multiply" opacity="0.5">
<path d="M492.133 168.457H368.262C366.946 168.457 365.88 169.524 365.88 170.84V246.259C365.88 247.575 366.946 248.642 368.262 248.642H492.133C493.449 248.642 494.516 247.575 494.516 246.259V170.84C494.516 169.524 493.449 168.457 492.133 168.457Z" fill="#BDBDBD"/>
</g>
<path d="M488.554 164.878H364.682C363.367 164.878 362.3 165.944 362.3 167.26V242.68C362.3 243.996 363.367 245.062 364.682 245.062H488.554C489.87 245.062 490.936 243.996 490.936 242.68V167.26C490.936 165.944 489.87 164.878 488.554 164.878Z" fill="#FAB317"/>
<g style="mix-blend-mode:multiply" opacity="0.5">
<path d="M624.163 406.553L502.213 316.774L489.085 334.608L610.352 423.885L474.34 359.351L471.099 366.183L431.348 449.965C429.012 454.894 431.109 460.78 436.038 463.116L555.015 519.568C559.944 521.904 565.83 519.808 568.166 514.879L601.669 444.277L611.164 424.271L611.14 424.259L624.175 406.559L624.163 406.553Z" fill="#BDBDBD"/>
</g>
<path d="M426.618 235.287C443.363 235.287 456.938 221.712 456.938 204.967C456.938 188.222 443.363 174.647 426.618 174.647C409.873 174.647 396.298 188.222 396.298 204.967C396.298 221.712 409.873 235.287 426.618 235.287Z" fill="#EE9421"/>
<path d="M417.508 194.718V215.216C417.508 217.376 419.967 218.62 421.707 217.341L434.653 207.817C436.026 206.807 436.096 204.78 434.794 203.682L421.847 192.71C420.136 191.255 417.502 192.476 417.502 194.724L417.508 194.718Z" fill="white"/>
<path d="M504.531 333.744H174.858V339.128H504.531V333.744Z" fill="#B6B5BA"/>
<path d="M301.182 333.744H174.858V339.128H301.182V333.744Z" fill="#F7A81C"/>
<path d="M467.548 360.792L604.367 425.7L561.769 515.493C561.005 517.102 559.084 517.787 557.475 517.024L426.475 454.877C424.866 454.113 424.181 452.192 424.945 450.583L467.543 360.789L467.548 360.792Z" fill="#FAB317"/>
<path d="M607.608 418.869L470.789 353.961L461.297 373.968L598.116 438.876L607.608 418.869Z" fill="#EFEBE0"/>
<path d="M472.886 342.176L475.152 398.833" stroke="#454546" stroke-width="4" stroke-miterlimit="10"/>
<path d="M489.803 349.733L492.069 406.389" stroke="#454546" stroke-width="4" stroke-miterlimit="10"/>
<path d="M506.721 357.295L508.987 413.952" stroke="#454546" stroke-width="4" stroke-miterlimit="10"/>
<path d="M523.639 364.858L525.904 421.514" stroke="#454546" stroke-width="4" stroke-miterlimit="10"/>
<path d="M540.556 372.42L542.822 429.071" stroke="#454546" stroke-width="4" stroke-miterlimit="10"/>
<path d="M557.474 379.977L559.739 436.633" stroke="#454546" stroke-width="4" stroke-miterlimit="10"/>
<path d="M574.391 387.539L576.657 444.196" stroke="#454546" stroke-width="4" stroke-miterlimit="10"/>
<path d="M591.309 395.101L593.58 451.752" stroke="#454546" stroke-width="4" stroke-miterlimit="10"/>
<path d="M485.492 329.242L607.444 419.021L620.572 401.188L498.62 311.409L485.492 329.242Z" fill="#EFEBE0"/>
<path d="M629.973 393.723L578.993 418.548" stroke="#454546" stroke-width="4" stroke-miterlimit="10"/>
<path d="M615.304 382.4L564.324 407.225" stroke="#454546" stroke-width="4" stroke-miterlimit="10"/>
<path d="M600.635 371.077L549.654 395.901" stroke="#454546" stroke-width="4" stroke-miterlimit="10"/>
<path d="M585.966 359.754L534.985 384.578" stroke="#454546" stroke-width="4" stroke-miterlimit="10"/>
<path d="M571.296 348.431L520.316 373.255" stroke="#454546" stroke-width="4" stroke-miterlimit="10"/>
<path d="M556.627 337.107L505.647 361.932" stroke="#454546" stroke-width="4" stroke-miterlimit="10"/>
<path d="M541.958 325.784L490.983 350.609" stroke="#454546" stroke-width="4" stroke-miterlimit="10"/>
<path d="M527.288 314.461L476.314 339.286" stroke="#454546" stroke-width="4" stroke-miterlimit="10"/>
<path d="M272.246 157.123H222.422L219.385 155.476L222.422 151.838L219.385 150.64L222.422 148.316L219.385 146.559H275.283L272.246 148.199L275.283 150.313L272.246 152.778L275.283 155.213L272.246 157.123Z" fill="#FAB317"/>
<g style="mix-blend-mode:multiply" opacity="0.5">
<path d="M588.687 3.57973H435.518C429.024 3.57973 423.763 8.84128 423.763 15.335V101.365C423.763 107.859 429.024 113.121 435.518 113.121H456.523C459.496 113.121 462.252 114.668 463.794 117.208L471.49 129.845C472.927 132.205 476.349 132.199 477.78 129.845L485.441 117.22C486.983 114.674 489.745 113.126 492.718 113.126H588.681C595.175 113.126 600.436 107.865 600.436 101.371V15.335C600.436 8.84128 595.175 3.57973 588.681 3.57973H588.687Z" fill="#BDBDBD"/>
</g>
<path d="M585.107 0H431.938C425.444 0 420.183 5.26155 420.183 11.7553V97.7855C420.183 104.279 425.444 109.541 431.938 109.541H452.943C455.916 109.541 458.672 111.088 460.214 113.629L467.911 126.266C469.347 128.625 472.769 128.619 474.2 126.266L481.862 113.64C483.403 111.094 486.165 109.547 489.138 109.547H585.101C591.595 109.547 596.857 104.285 596.857 97.7914V11.7553C596.857 5.26155 591.595 0 585.101 0H585.107Z" fill="#FBBF13"/>
<path d="M585.107 0H545.847C552.341 0 557.602 5.26155 557.602 11.7553V97.7855C557.602 104.279 552.341 109.541 545.847 109.541H585.107C591.601 109.541 596.862 104.279 596.862 97.7855V11.7553C596.862 5.26155 591.601 0 585.107 0Z" fill="#F7A81C"/>
<path d="M596.868 15.8372H420.183V96.5709H596.868V15.8372Z" fill="#5C4EA0"/>
<path d="M596.868 83.8403H420.183V96.5709H596.868V83.8403Z" fill="#EFEBE0"/>
<path d="M596.868 15.8372H420.183V30.5824H596.868V15.8372Z" fill="#EFEBE0"/>
<g style="mix-blend-mode:multiply">
<path d="M439.039 19.9367H427.646C427.291 19.9367 427.004 20.2243 427.004 20.579V25.8464C427.004 26.2012 427.291 26.4888 427.646 26.4888H439.039C439.394 26.4888 439.681 26.2012 439.681 25.8464V20.579C439.681 20.2243 439.394 19.9367 439.039 19.9367Z" fill="#473E99"/>
</g>
<g style="mix-blend-mode:multiply">
<path d="M460.167 19.9367H448.774C448.419 19.9367 448.132 20.2243 448.132 20.579V25.8464C448.132 26.2012 448.419 26.4888 448.774 26.4888H460.167C460.522 26.4888 460.81 26.2012 460.81 25.8464V20.579C460.81 20.2243 460.522 19.9367 460.167 19.9367Z" fill="#473E99"/>
</g>
<g style="mix-blend-mode:multiply">
<path d="M481.301 19.9367H469.908C469.553 19.9367 469.265 20.2243 469.265 20.579V25.8464C469.265 26.2012 469.553 26.4888 469.908 26.4888H481.301C481.656 26.4888 481.943 26.2012 481.943 25.8464V20.579C481.943 20.2243 481.656 19.9367 481.301 19.9367Z" fill="#473E99"/>
</g>
<g style="mix-blend-mode:multiply">
<path d="M502.429 19.9367H491.036C490.681 19.9367 490.393 20.2243 490.393 20.579V25.8464C490.393 26.2012 490.681 26.4888 491.036 26.4888H502.429C502.784 26.4888 503.071 26.2012 503.071 25.8464V20.579C503.071 20.2243 502.784 19.9367 502.429 19.9367Z" fill="#473E99"/>
</g>
<g style="mix-blend-mode:multiply">
<path d="M523.557 19.9367H512.164C511.809 19.9367 511.521 20.2243 511.521 20.579V25.8464C511.521 26.2012 511.809 26.4888 512.164 26.4888H523.557C523.912 26.4888 524.199 26.2012 524.199 25.8464V20.579C524.199 20.2243 523.912 19.9367 523.557 19.9367Z" fill="#473E99"/>
</g>
<g style="mix-blend-mode:multiply">
<path d="M544.685 19.9367H533.292C532.937 19.9367 532.649 20.2243 532.649 20.579V25.8464C532.649 26.2012 532.937 26.4888 533.292 26.4888H544.685C545.04 26.4888 545.327 26.2012 545.327 25.8464V20.579C545.327 20.2243 545.04 19.9367 544.685 19.9367Z" fill="#473E99"/>
</g>
<g style="mix-blend-mode:multiply">
<path d="M565.813 19.9367H554.42C554.065 19.9367 553.777 20.2243 553.777 20.579V25.8464C553.777 26.2012 554.065 26.4888 554.42 26.4888H565.813C566.168 26.4888 566.455 26.2012 566.455 25.8464V20.579C566.455 20.2243 566.168 19.9367 565.813 19.9367Z" fill="#473E99"/>
</g>
<g style="mix-blend-mode:multiply">
<path d="M586.941 19.9367H575.548C575.193 19.9367 574.905 20.2243 574.905 20.579V25.8464C574.905 26.2012 575.193 26.4888 575.548 26.4888H586.941C587.296 26.4888 587.583 26.2012 587.583 25.8464V20.579C587.583 20.2243 587.296 19.9367 586.941 19.9367Z" fill="#473E99"/>
</g>
<g style="mix-blend-mode:multiply">
<path d="M439.039 86.9295H427.646C427.291 86.9295 427.004 87.2171 427.004 87.5719V92.8393C427.004 93.1941 427.291 93.4817 427.646 93.4817H439.039C439.394 93.4817 439.681 93.1941 439.681 92.8393V87.5719C439.681 87.2171 439.394 86.9295 439.039 86.9295Z" fill="#473E99"/>
</g>
<g style="mix-blend-mode:multiply">
<path d="M460.167 86.9295H448.774C448.419 86.9295 448.132 87.2171 448.132 87.5719V92.8393C448.132 93.1941 448.419 93.4817 448.774 93.4817H460.167C460.522 93.4817 460.81 93.1941 460.81 92.8393V87.5719C460.81 87.2171 460.522 86.9295 460.167 86.9295Z" fill="#473E99"/>
</g>
<g style="mix-blend-mode:multiply">
<path d="M481.301 86.9295H469.908C469.553 86.9295 469.265 87.2171 469.265 87.5719V92.8393C469.265 93.1941 469.553 93.4817 469.908 93.4817H481.301C481.656 93.4817 481.943 93.1941 481.943 92.8393V87.5719C481.943 87.2171 481.656 86.9295 481.301 86.9295Z" fill="#473E99"/>
</g>
<g style="mix-blend-mode:multiply">
<path d="M502.429 86.9295H491.036C490.681 86.9295 490.393 87.2171 490.393 87.5719V92.8393C490.393 93.1941 490.681 93.4817 491.036 93.4817H502.429C502.784 93.4817 503.071 93.1941 503.071 92.8393V87.5719C503.071 87.2171 502.784 86.9295 502.429 86.9295Z" fill="#473E99"/>
</g>
<g style="mix-blend-mode:multiply">
<path d="M523.557 86.9295H512.164C511.809 86.9295 511.521 87.2171 511.521 87.5719V92.8393C511.521 93.1941 511.809 93.4817 512.164 93.4817H523.557C523.912 93.4817 524.199 93.1941 524.199 92.8393V87.5719C524.199 87.2171 523.912 86.9295 523.557 86.9295Z" fill="#473E99"/>
</g>
<g style="mix-blend-mode:multiply">
<path d="M544.685 86.9295H533.292C532.937 86.9295 532.649 87.2171 532.649 87.5719V92.8393C532.649 93.1941 532.937 93.4817 533.292 93.4817H544.685C545.04 93.4817 545.327 93.1941 545.327 92.8393V87.5719C545.327 87.2171 545.04 86.9295 544.685 86.9295Z" fill="#473E99"/>
</g>
<g style="mix-blend-mode:multiply">
<path d="M565.813 86.9295H554.42C554.065 86.9295 553.777 87.2171 553.777 87.5719V92.8393C553.777 93.1941 554.065 93.4817 554.42 93.4817H565.813C566.168 93.4817 566.455 93.1941 566.455 92.8393V87.5719C566.455 87.2171 566.168 86.9295 565.813 86.9295Z" fill="#473E99"/>
</g>
<g style="mix-blend-mode:multiply">
<path d="M586.941 86.9295H575.548C575.193 86.9295 574.905 87.2171 574.905 87.5719V92.8393C574.905 93.1941 575.193 93.4817 575.548 93.4817H586.941C587.296 93.4817 587.583 93.1941 587.583 92.8393V87.5719C587.583 87.2171 587.296 86.9295 586.941 86.9295Z" fill="#473E99"/>
</g>
<path d="M477.529 30.5883H473.978V83.8403H477.529V30.5883Z" fill="#EFEBE0"/>
<path d="M542.536 30.5883H538.985V83.8403H542.536V30.5883Z" fill="#EFEBE0"/>
<path d="M499.743 46.3262V66.0819C499.743 68.1666 502.114 69.3638 503.79 68.1316L516.269 58.9516C517.589 57.9764 517.659 56.0259 516.409 54.9631L503.93 44.3874C502.277 42.9859 499.743 44.1597 499.743 46.3262Z" fill="white"/>
<path d="M462.118 398.833C500.274 415.803 538.524 433.667 576.021 452.056C537.864 435.091 499.614 417.216 462.118 398.833Z" fill="white"/>
<path d="M452.243 422.986C490.399 439.956 528.649 457.82 566.146 476.209C527.989 459.244 489.739 441.369 452.243 422.986Z" fill="white"/>
<path d="M468.208 461.68C471.403 453.136 475.344 444.879 479.987 437.03C476.799 445.574 472.845 453.831 468.208 461.68Z" fill="white"/>
<path d="M525.005 487.865C528.199 479.321 532.141 471.064 536.784 463.215C533.595 471.759 529.642 480.016 525.005 487.865Z" fill="white"/>
<g style="mix-blend-mode:multiply" opacity="0.5">
<path d="M503.462 470.573L502.575 470.106C500.969 469.259 498.989 469.878 498.143 471.484L466.672 531.289L465.002 542.057L467.163 540.188L473.371 534.816L504.841 475.012C505.682 473.406 505.068 471.426 503.462 470.579V470.573Z" fill="#BDBDBD"/>
</g>
<path d="M498.774 467.302L503.575 469.829C504.097 470.104 504.298 470.751 504.023 471.272L471.517 533.03L464.82 529.505L497.326 467.747C497.6 467.226 498.247 467.025 498.769 467.3L498.774 467.302Z" fill="#F04F29"/>
<path d="M500.38 478.198L493.683 474.673L464.819 529.511L471.516 533.036L500.38 478.198Z" fill="#F89624"/>
<path d="M464.88 529.496L463.21 540.264L471.578 533.023L464.88 529.496Z" fill="#FED8BA"/>
<path d="M463.21 540.264L463.665 537.339L465.37 538.39L463.21 540.264Z" fill="#454546"/>
<path d="M496.7 480.285C489.424 494.65 480.997 510.342 473.044 524.345C480.326 509.98 488.746 494.288 496.7 480.285Z" fill="#F58023"/>
<path d="M493.786 480.285C488.595 490.779 483.024 501.156 477.143 511.282C482.335 500.782 487.906 490.405 493.786 480.285Z" fill="#F58023"/>
<g style="mix-blend-mode:multiply" opacity="0.5">
<path d="M240.928 42.0516C234.726 12.421 198.941 1.57671 182.473 32.1299C166.91 61.0072 189.311 86.5967 192.33 92.9269C199.221 107.363 198.199 111.999 198.199 111.999V118.89C198.199 125.36 203.443 130.605 209.913 130.605C216.384 130.605 221.628 125.36 221.628 118.89V111.999C222.661 84.436 247.124 71.688 240.922 42.0574L240.928 42.0516Z" fill="#BDBDBD"/>
</g>
<path d="M91.9867 647.113C91.9867 647.113 104.618 608.974 113.471 570.111C124.052 523.639 88.6931 538.769 84.4477 548.405C84.4477 548.405 101.097 508.707 84.7455 499.62C73.2063 493.208 65.5213 511.562 65.5213 511.562C65.5213 511.562 63.4891 454.964 38.4135 453.428C13.332 451.898 25.6012 497.611 40.4632 518.529C40.4632 518.529 8.68363 490.329 6.30687 510.634C4.2805 527.937 34.7695 551.85 42.4779 561.252C42.4779 561.252 9.5479 536.287 4.47321 549.532C-0.601471 562.776 37.2338 620.747 91.9925 647.107L91.9867 647.113Z" fill="#5C4EA0"/>
<path d="M47.0211 490.195C47.0211 490.195 60.9604 576.108 85.0083 627.153" stroke="white" stroke-width="2" stroke-linecap="round" stroke-linejoin="round"/>
<path d="M31.3358 527.09C31.3358 527.09 53.2112 544.767 61.5152 558.373" stroke="white" stroke-width="2" stroke-linecap="round" stroke-linejoin="round"/>
<path d="M75.0049 521.273C75.0049 521.273 66.7943 547.26 63.2146 564.189" stroke="white" stroke-width="2" stroke-linecap="round" stroke-linejoin="round"/>
<path d="M31.5284 563.185C31.5284 563.185 61.8773 581.93 73.9537 599.648C73.9537 599.648 78.5145 568.008 92.6524 553.421" stroke="white" stroke-width="2" stroke-linecap="round" stroke-linejoin="round"/>
<path d="M588.021 633.179C588.021 633.179 604.962 618.136 620.256 601.674C638.546 581.989 617.021 579.378 612.227 582.882C612.227 582.882 631.562 568.213 626.154 559.161C622.335 552.773 613.4 559.558 613.4 559.558C613.4 559.558 628.397 531.364 616.595 523.533C604.787 515.702 597.861 541.473 599.204 555.879C599.204 555.879 591.659 533.14 584.768 542.378C578.894 550.25 587.017 570.531 588.12 577.299C588.12 577.299 579.104 555.815 572.885 560.843C566.665 565.871 568.75 604.845 588.027 633.179H588.021Z" fill="#5C4EA0"/>
<path d="M610.41 543.908C610.41 543.908 592.944 589.767 590.258 621.471" stroke="white" stroke-width="2" stroke-linecap="round" stroke-linejoin="round"/>
<path d="M592.331 557.48C592.331 557.48 598.013 572.283 598.217 581.27" stroke="white" stroke-width="2" stroke-linecap="round" stroke-linejoin="round"/>
<path d="M615.287 566.975C615.287 566.975 603.94 577.334 597.411 584.587" stroke="white" stroke-width="2" stroke-linecap="round" stroke-linejoin="round"/>
<path d="M582.234 575.145C582.234 575.145 591.747 592.868 592.634 604.921C592.634 604.921 603.8 590.772 614.819 587.647" stroke="white" stroke-width="2" stroke-linecap="round" stroke-linejoin="round"/>
<g style="mix-blend-mode:multiply" opacity="0.5">
<path d="M101.069 318.608L22.1964 324.732C21.2317 324.807 20.5104 325.65 20.5853 326.614L28.2259 425.015C28.3008 425.979 29.1436 426.7 30.1082 426.626L108.981 420.501C109.946 420.426 110.667 419.584 110.592 418.619L102.951 320.219C102.876 319.254 102.034 318.533 101.069 318.608Z" fill="#BDBDBD"/>
</g>
<path d="M97.8138 315.36L18.941 321.484C17.9764 321.559 17.2551 322.402 17.33 323.366L24.9706 421.767C25.0455 422.731 25.8882 423.452 26.8529 423.378L105.726 417.253C106.69 417.178 107.412 416.336 107.337 415.371L99.6961 316.971C99.6212 316.006 98.7785 315.285 97.8138 315.36Z" fill="#F89624"/>
<g style="mix-blend-mode:multiply" opacity="0.5">
<path d="M112.588 302.825L28.5448 282.942C27.6033 282.72 26.6594 283.302 26.4366 284.244L1.64842 389.024C1.42567 389.965 2.00838 390.909 2.94994 391.132L86.9932 411.014C87.9348 411.237 88.8786 410.654 89.1014 409.713L113.89 304.933C114.112 303.991 113.53 303.048 112.588 302.825Z" fill="#BDBDBD"/>
</g>
<g style="mix-blend-mode:multiply">
<path d="M110.957 299.576L26.9139 279.694C25.9723 279.471 25.0285 280.054 24.8057 280.995L0.0175033 385.775C-0.205246 386.717 0.377466 387.661 1.31903 387.883L85.3623 407.766C86.3038 407.989 87.2477 407.406 87.4705 406.464L112.259 301.685C112.481 300.743 111.899 299.799 110.957 299.576Z" fill="#473E99"/>
</g>
<path d="M91.1442 312.41L38.8679 300.043C37.9263 299.82 36.9825 300.403 36.7597 301.344L32.1497 320.831C31.927 321.772 32.5097 322.716 33.4512 322.939L85.7275 335.306C86.6691 335.529 87.6129 334.946 87.8357 334.005L92.4457 314.518C92.6684 313.577 92.0857 312.633 91.1442 312.41Z" fill="white"/>
<g style="mix-blend-mode:multiply" opacity="0.74">
<g style="mix-blend-mode:multiply">
<path d="M4.39148 388.608L48.5979 399.061L4.39148 388.608Z" fill="#BDBDBD"/>
</g>
</g>
<path d="M194.619 108.42C194.619 108.42 195.641 103.777 188.75 89.3472C185.731 83.0169 163.33 57.4275 178.893 28.5502C195.355 -1.99717 231.146 8.84128 237.348 38.4718C243.55 68.1024 219.087 80.8504 218.054 108.414H194.625L194.619 108.42Z" fill="#FBBF13"/>
<g style="mix-blend-mode:multiply" opacity="0.47">
<path d="M237.348 38.4718C233.453 19.8724 217.902 8.68361 202.789 10.4822C215.7 11.9538 227.695 22.4594 231.047 38.4718C237.249 68.1024 212.786 80.8504 211.753 108.414H218.054C219.087 80.8504 243.55 68.1024 237.348 38.4718Z" fill="#FBBF13"/>
</g>
<path d="M202.66 110.942C202.66 110.942 204.728 77.405 196.459 68.2192C188.19 59.0334 185.895 67.0688 190.485 70.0587C195.081 73.0428 206.147 67.7637 205.896 53.5207C205.644 39.2777 199.676 44.7904 199.676 50.303C199.676 55.8157 206.339 67.5301 215.987 66.3797C225.634 65.2293 222.188 55.7631 215.987 59.3487C209.785 62.9343 207.256 92.7926 210.702 110.942" stroke="white" stroke-miterlimit="10"/>
<g style="mix-blend-mode:multiply">
<path d="M194.619 108.42H218.048V123.2C218.048 125.308 216.337 127.025 214.223 127.025H198.438C196.33 127.025 194.613 125.314 194.613 123.2V108.42H194.619Z" fill="#473E99"/>
</g>
<path d="M196.686 112.32C202.666 114.102 209.031 113.553 215.064 112.32C214.328 112.572 213.581 112.811 212.833 113.033C207.583 114.382 201.714 114.598 196.692 112.32H196.686Z" fill="#454546"/>
<path d="M196.686 117.004C202.666 118.785 209.031 118.236 215.064 117.004C214.328 117.255 213.581 117.494 212.833 117.716C207.583 119.065 201.714 119.281 196.692 117.004H196.686Z" fill="#454546"/>
<g style="mix-blend-mode:screen" opacity="0.53">
<g style="mix-blend-mode:screen">
<path d="M182.461 46.262C183.827 34.968 190.993 22.2901 202.789 19.6097C201.154 20.4506 199.595 21.309 198.14 22.3893C190.239 28.1648 185.778 37.263 182.461 46.262Z" fill="white"/>
</g>
</g>
<g style="mix-blend-mode:multiply" opacity="0.39">
<path d="M342.708 368.794C342.708 365.769 340.255 363.322 337.236 363.322C334.217 363.322 331.764 365.774 331.764 368.794C331.764 371.813 334.217 374.265 337.236 374.265C340.255 374.265 342.708 371.813 342.708 368.794Z" fill="#B6B5BA"/>
</g>
<path d="M417.012 446.345H226.405C224.737 446.345 223.385 447.696 223.385 449.364V544.305C223.385 545.973 224.737 547.324 226.405 547.324H417.012C418.679 547.324 420.031 545.973 420.031 544.305V449.364C420.031 447.696 418.679 446.345 417.012 446.345Z" fill="#303030"/>
<path d="M415.225 444.552H224.618C222.95 444.552 221.599 445.903 221.599 447.571V542.512C221.599 544.18 222.95 545.532 224.618 545.532H415.225C416.892 545.532 418.244 544.18 418.244 542.512V447.571C418.244 445.903 416.892 444.552 415.225 444.552Z" fill="#212121"/>
<path d="M395.65 457.837H234.218V532.24H395.65V457.837Z" fill="#F4F3F2"/>
<path d="M411.931 495.042C411.931 491.923 409.403 489.395 406.284 489.395C403.166 489.395 400.637 491.923 400.637 495.042C400.637 498.16 403.166 500.689 406.284 500.689C409.403 500.689 411.931 498.16 411.931 495.042Z" fill="#FDFEFE"/>
<path d="M314.94 522.611C330.166 522.611 342.509 510.268 342.509 495.042C342.509 479.816 330.166 467.473 314.94 467.473C299.714 467.473 287.371 479.816 287.371 495.042C287.371 510.268 299.714 522.611 314.94 522.611Z" fill="#FAB317"/>
<path d="M306.653 483.281V506.803C306.653 509.285 309.474 510.71 311.471 509.238L326.327 498.312C327.904 497.156 327.98 494.831 326.491 493.564L311.635 480.968C309.667 479.304 306.653 480.699 306.653 483.275V483.281Z" fill="white"/>
<path d="M176.826 603.742C176.826 603.742 191.162 582.818 191.162 578.94C191.162 575.063 189.807 538.448 191.939 534.57C194.07 530.693 206.082 516.748 207.63 511.323C209.177 505.898 211.7 494.662 221.581 495.048V555.494C221.581 555.494 222.55 560.534 227.584 557.433C232.624 554.332 235.526 545.421 235.719 542.127C235.912 538.833 237.266 520.812 241.921 517.326C246.569 513.84 250.639 515.971 251.416 526.045C252.193 536.118 253.355 549.1 251.416 554.139C249.477 559.179 244.245 571.577 235.333 583.589C226.422 595.601 223.514 596.956 218.48 600.442C213.44 603.928 204.144 616.717 201.428 621.95L176.82 603.736L176.826 603.742Z" fill="#FBB680"/>
<path d="M243.094 515.691C242.797 515.691 242.545 515.913 242.516 516.211C242.329 518.132 241.734 524.731 242.248 525.852C242.843 527.166 248.619 527.218 249.816 526.366C250.844 525.636 250.271 518.301 250.096 516.281C250.073 515.983 249.828 515.767 249.53 515.761L243.1 515.691H243.094Z" fill="white"/>
<g style="mix-blend-mode:multiply">
<path d="M174.227 598.673L209.271 616.273L192.715 654.15H136.047L174.227 598.673Z" fill="#473E99"/>
</g>
<path d="M421.94 608.267C421.94 608.267 411.172 590.456 410.991 588.085C410.81 585.714 411.137 566.677 408.953 561.573C406.769 556.475 401.665 539.347 391.101 542.81C391.101 542.81 388.187 540.077 386.003 539.715C383.819 539.353 379.994 541.718 378.715 539.715C377.442 537.712 375.071 537.163 371.976 538.074C368.881 538.985 367.97 539.534 364.869 538.985C361.774 538.436 357.4 538.255 355.94 539.896C354.48 541.537 349.744 533.519 348.109 529.875C346.468 526.231 336.266 500.911 330.257 501.459C324.248 502.008 330.987 521.863 334.993 534.249C338.999 546.635 342.281 551.009 343.192 559.932C344.103 568.861 345.744 578.695 348.29 583.25C350.842 587.805 371.97 607.841 376.706 610.031C381.442 612.215 392.917 626.242 392.917 626.242L421.94 608.267Z" fill="#FBB680"/>
<path d="M328.903 500.689C328.342 500.823 328.009 501.401 328.196 501.95C328.856 503.918 330.368 508.134 331.513 508.864C333.014 509.822 337.341 508 336.967 507.433C336.658 506.972 333.82 502.189 332.798 500.461C332.576 500.087 332.144 499.912 331.723 500.011L328.903 500.689Z" fill="white"/>
<g style="mix-blend-mode:multiply">
<path d="M418.466 596.868L383.965 618.428L404.725 655.96L463.256 650.482L418.466 596.868Z" fill="#473E99"/>
</g>
<path d="M513.314 633.179C513.314 633.179 541.058 612.962 566.537 590.363C597.003 563.343 564.908 556.265 557.164 560.849C557.164 560.849 588.471 541.549 581.632 527.102C576.803 516.905 562.338 525.834 562.338 525.834C562.338 525.834 589.078 485.5 572.417 471.963C555.757 458.427 541.543 496.291 541.461 518.214C541.461 518.214 533.403 482.813 521.659 495.742C511.644 506.756 520.935 538.536 521.618 548.901C521.618 548.901 511.159 515.177 501.045 521.858C490.931 528.532 488.384 587.624 513.32 633.179H513.314Z" fill="#FAB317"/>
<path d="M566.187 488.659C566.187 488.659 524.316 573.083 513.314 633.179" stroke="white" stroke-width="2" stroke-linecap="round" stroke-linejoin="round"/>
<path d="M529.122 511.258C529.122 511.258 537.239 540.609 535.978 557.818" stroke="white" stroke-width="2" stroke-linecap="round" stroke-linejoin="round"/>
<path d="M571.238 533.659C571.238 533.659 547.634 551.365 533.811 564.014" stroke="white" stroke-width="2" stroke-linecap="round" stroke-linejoin="round"/>
<path d="M506.54 543.161C506.54 543.161 521.443 578.794 520.912 602.001C520.912 602.001 544.872 577.019 566.508 573.083" stroke="white" stroke-width="2" stroke-linecap="round" stroke-linejoin="round"/>
</g>
<defs>
<clipPath id="clip0_6_993">
<rect width="630.481" height="655.96" fill="white"/>
</clipPath>
</defs>
</svg>
