<svg id="comment" xmlns="http://www.w3.org/2000/svg" width="24" height="24" viewBox="0 0 24 24">
  <g id="message-square" fill="none" stroke-linecap="round" stroke-linejoin="round">
    <path d="M21,15a2,2,0,0,1-2,2H7L3,21V5A2,2,0,0,1,5,3H19a2,2,0,0,1,2,2Z" stroke="none"/>
    <path d="M 4.5 17.3786792755127 L 5.939340114593506 15.93933963775635 C 6.220640182495117 15.65804004669189 6.602180004119873 15.5 7 15.5 L 19 15.5 C 19.27569961547852 15.5 19.5 15.27569961547852 19.5 15 L 19.5 5 C 19.5 4.724299907684326 19.27569961547852 4.5 19 4.5 L 5 4.5 C 4.724299907684326 4.5 4.5 4.724299907684326 4.5 5 L 4.5 17.3786792755127 M 3 21 L 3 5 C 3 3.895430088043213 3.895430088043213 3 5 3 L 19 3 C 20.10457038879395 3 21 3.895430088043213 21 5 L 21 15 C 21 16.10457038879395 20.10457038879395 17 19 17 L 7 17 L 3 21 Z" stroke="none" fill="#a59fad"/>
  </g>
</svg>
