<svg xmlns="http://www.w3.org/2000/svg" xmlns:xlink="http://www.w3.org/1999/xlink" width="343" height="385.722" viewBox="0 0 343 385.722">
  <defs>
    <clipPath id="clip-path">
      <path id="Path_13391" data-name="Path 13391" d="M282.981,227.839s10.608,22.64,10.608,23.835-9.413,6.315-11.206,7.391a43.56,43.56,0,0,1-4.293,2.141l1.076,10.488s16.206-3.7,23-7.391,6.554-7.869,4.98-14.064S295.1,220.1,295.1,220.1Z" transform="translate(-278.09 -220.1)" fill="#fff" stroke="#263238" stroke-linecap="round" stroke-linejoin="round" stroke-width="1"/>
    </clipPath>
    <clipPath id="clip-path-2">
      <path id="Path_13395" data-name="Path 13395" d="M206.128,222.85s-7.739,28.358-7.968,33.368,15.369,14.891,15.937,15.489-.886-17.232-.886-17.232l5.289-25.9Z" transform="translate(-198.158 -222.85)" fill="#fff" stroke="#263238" stroke-linecap="round" stroke-linejoin="round" stroke-width="1"/>
    </clipPath>
    <clipPath id="clip-path-3">
      <path id="Path_13414" data-name="Path 13414" d="M231.048,175.726s3.1,10.957,8.964,17.4,7.968,7.968,11.086,7.5,6.434-4.522,11.076-12.949,4.98-14.891,5.369-15.489-1-12.51-7.63-17.64-14.064-7.381-20.5-1.783S228.9,167.5,231.048,175.726Z" transform="translate(-230.469 -149.497)" fill="#fff" stroke="#263238" stroke-linecap="round" stroke-linejoin="round" stroke-width="1"/>
    </clipPath>
  </defs>
  <g id="Blog_post-bro" data-name="Blog post-bro" transform="translate(-80.317 -61.95)">
    <g id="freepik--background-simple--inject-1--inject-61" transform="translate(80.317 101.473)">
      <path id="Path_13375" data-name="Path 13375" d="M423.21,219.3c1.524-41.256-13.3-83.011-45.968-102.882-16.126-9.811-34.981-15.558-53.846-14.712-20.24.906-39.294,9.144-58.378,15.937s-39.752,12.222-59.424,7.4c-14.234-3.486-26.754-12.1-40.838-16.026C109.265,93.572,60.947,156.532,88.1,206.584c6.664,12.271,16.933,22.112,25.569,33.1s15.877,24.254,14.712,38.169c-1,11.524-7.53,21.784-10.249,33.019-5.2,21.525,5.12,45.2,22.959,58.319s41.9,16.176,63.419,10.777S244.947,361.36,259.858,345c7.968-8.765,15.777-19,27.242-21.983,11.006-2.849,22.351,1.793,33.517,3.924A77.184,77.184,0,0,0,380.151,313.4C407.094,293.469,421.836,256.586,423.21,219.3Z" transform="translate(-80.317 -101.627)" fill="#491a85"/>
      <path id="Path_13376" data-name="Path 13376" d="M423.21,219.3c1.524-41.256-13.3-83.011-45.968-102.882-16.126-9.811-34.981-15.558-53.846-14.712-20.24.906-39.294,9.144-58.378,15.937s-39.752,12.222-59.424,7.4c-14.234-3.486-26.754-12.1-40.838-16.026C109.265,93.572,60.947,156.532,88.1,206.584c6.664,12.271,16.933,22.112,25.569,33.1s15.877,24.254,14.712,38.169c-1,11.524-7.53,21.784-10.249,33.019-5.2,21.525,5.12,45.2,22.959,58.319s41.9,16.176,63.419,10.777S244.947,361.36,259.858,345c7.968-8.765,15.777-19,27.242-21.983,11.006-2.849,22.351,1.793,33.517,3.924A77.184,77.184,0,0,0,380.151,313.4C407.094,293.469,421.836,256.586,423.21,219.3Z" transform="translate(-80.317 -101.627)" fill="#faf5ff"/>
    </g>
    <g id="freepik--Shadow--inject-1--inject-61" transform="translate(111.058 393.806)">
      <ellipse id="Ellipse_165" data-name="Ellipse 165" cx="134.676" cy="26.933" rx="134.676" ry="26.933" fill="#491a85"/>
      <ellipse id="Ellipse_166" data-name="Ellipse 166" cx="134.676" cy="26.933" rx="134.676" ry="26.933" fill="#ece9ef"/>
    </g>
    <g id="freepik--graphics-2--inject-1--inject-61" transform="translate(285.596 62.45)">
      <rect id="Rectangle_1027" data-name="Rectangle 1027" width="109.117" height="119.058" rx="6.03" transform="translate(0 0)" fill="#fff" stroke="#263238" stroke-linecap="round" stroke-linejoin="round" stroke-width="1"/>
      <path id="Path_13377" data-name="Path 13377" d="M292.416,62.45h97.095a5.976,5.976,0,0,1,5.976,5.976v6.235H286.41V68.456a5.976,5.976,0,0,1,6.006-6.006Z" transform="translate(-286.41 -62.45)" fill="#263238" stroke="#263238" stroke-linecap="round" stroke-linejoin="round" stroke-width="1"/>
      <line id="Line_159" data-name="Line 159" x2="43.906" transform="translate(5.946 63.568)" fill="none" stroke="#263238" stroke-linecap="round" stroke-linejoin="round" stroke-width="1"/>
      <line id="Line_160" data-name="Line 160" x2="43.906" transform="translate(5.946 69.236)" fill="none" stroke="#263238" stroke-linecap="round" stroke-linejoin="round" stroke-width="1"/>
      <line id="Line_161" data-name="Line 161" x2="43.906" transform="translate(5.946 74.903)" fill="none" stroke="#263238" stroke-linecap="round" stroke-linejoin="round" stroke-width="1"/>
      <line id="Line_162" data-name="Line 162" x2="43.906" transform="translate(5.946 80.571)" fill="none" stroke="#263238" stroke-linecap="round" stroke-linejoin="round" stroke-width="1"/>
      <line id="Line_163" data-name="Line 163" x2="43.906" transform="translate(5.946 86.238)" fill="none" stroke="#263238" stroke-linecap="round" stroke-linejoin="round" stroke-width="1"/>
      <line id="Line_164" data-name="Line 164" x2="43.906" transform="translate(5.946 91.916)" fill="none" stroke="#263238" stroke-linecap="round" stroke-linejoin="round" stroke-width="1"/>
      <line id="Line_165" data-name="Line 165" x2="43.906" transform="translate(5.946 97.583)" fill="none" stroke="#263238" stroke-linecap="round" stroke-linejoin="round" stroke-width="1"/>
      <line id="Line_166" data-name="Line 166" x2="43.906" transform="translate(5.946 103.251)" fill="none" stroke="#263238" stroke-linecap="round" stroke-linejoin="round" stroke-width="1"/>
      <line id="Line_167" data-name="Line 167" x2="43.906" transform="translate(5.946 108.918)" fill="none" stroke="#263238" stroke-linecap="round" stroke-linejoin="round" stroke-width="1"/>
      <line id="Line_168" data-name="Line 168" x2="43.906" transform="translate(57.572 63.568)" fill="none" stroke="#263238" stroke-linecap="round" stroke-linejoin="round" stroke-width="1"/>
      <line id="Line_169" data-name="Line 169" x2="43.906" transform="translate(57.572 69.236)" fill="none" stroke="#263238" stroke-linecap="round" stroke-linejoin="round" stroke-width="1"/>
      <line id="Line_170" data-name="Line 170" x2="43.906" transform="translate(57.572 74.903)" fill="none" stroke="#263238" stroke-linecap="round" stroke-linejoin="round" stroke-width="1"/>
      <line id="Line_171" data-name="Line 171" x2="43.906" transform="translate(57.572 80.571)" fill="none" stroke="#263238" stroke-linecap="round" stroke-linejoin="round" stroke-width="1"/>
      <line id="Line_172" data-name="Line 172" x2="43.906" transform="translate(57.572 86.238)" fill="none" stroke="#263238" stroke-linecap="round" stroke-linejoin="round" stroke-width="1"/>
      <line id="Line_173" data-name="Line 173" x2="43.906" transform="translate(57.572 91.916)" fill="none" stroke="#263238" stroke-linecap="round" stroke-linejoin="round" stroke-width="1"/>
      <line id="Line_174" data-name="Line 174" x2="43.906" transform="translate(57.572 97.583)" fill="none" stroke="#263238" stroke-linecap="round" stroke-linejoin="round" stroke-width="1"/>
      <line id="Line_175" data-name="Line 175" x2="43.906" transform="translate(57.572 103.251)" fill="none" stroke="#263238" stroke-linecap="round" stroke-linejoin="round" stroke-width="1"/>
      <line id="Line_176" data-name="Line 176" x2="43.906" transform="translate(57.572 108.918)" fill="none" stroke="#263238" stroke-linecap="round" stroke-linejoin="round" stroke-width="1"/>
      <path id="Path_13378" data-name="Path 13378" d="M321.74,90.219a7.05,7.05,0,0,0,.339-2.082c0-2.58-2.62-2.729-5.189-2.729h-.647V84.8h11.216v.608c-2.918,0-3.984,1.863-4.891,4.622l-5.976,17.839c-.448,1.325-.827,2.311-2.231,2.311h-.12L308.98,93.137l-4.891,14.771c-.458,1.325-.837,2.311-2.241,2.311h-.11l-7.65-24.812H291.4V84.8h9.841v.608h-2.8l5.677,19.543h.229l4.283-12.979-1.992-6.514H303.95V84.8H313.8v.608H311l5.678,19.543h.219Z" transform="translate(-286.43 -62.538)" fill="#491a85"/>
      <rect id="Rectangle_1028" data-name="Rectangle 1028" width="45.181" height="40.838" transform="translate(56.606 16.614)" fill="#7340ae" stroke="#ece9ef" stroke-linecap="round" stroke-linejoin="round" stroke-width="2"/>
      <path id="Path_13379" data-name="Path 13379" d="M385.439,96.27a25.924,25.924,0,0,0-4.205.589c-6.41,1.4-8.085,10.652-15.332,10.652-6.419,0-6.968-8.688-16.169-9.81a10.114,10.114,0,0,0-6.512,1.16v19.723h42.219Z" transform="translate(-285.143 -62.584)" fill="#263238" stroke="#263238" stroke-linecap="round" stroke-linejoin="round" stroke-width="1"/>
      <path id="Path_13380" data-name="Path 13380" d="M358.27,88.49a5.08,5.08,0,1,1-5.07-5.07,5.08,5.08,0,0,1,5.07,5.07Z" transform="translate(-286.654 -62.533)" fill="#fff" stroke="#fff" stroke-linecap="round" stroke-linejoin="round" stroke-width="1"/>
      <rect id="Rectangle_1029" data-name="Rectangle 1029" width="100.571" height="3.875" transform="translate(3.277 3.576)" fill="#fff" stroke="#263238" stroke-linecap="round" stroke-linejoin="round" stroke-width="1"/>
      <path id="Path_13381" data-name="Path 13381" d="M384.17,205.83H340.633a6.454,6.454,0,0,0-6.455,6.454v23.288a6.454,6.454,0,0,0,6.454,6.454h1.335c-1.355,2.988-3.984,7.57-8.138,10.289,0,0,8.835-.618,18.038-10.289h32.282a6.454,6.454,0,0,0,6.454-6.454V212.284a6.454,6.454,0,0,0-6.435-6.454Z" transform="translate(-286.597 -63.016)" fill="#a16edd" stroke="#ece9ef" stroke-linecap="round" stroke-linejoin="round" stroke-width="1"/>
      <path id="Path_13382" data-name="Path 13382" d="M354.974,223.157a3.327,3.327,0,1,0-3.317,3.317,3.327,3.327,0,0,0,3.317-3.317Z" transform="translate(-286.655 -63.072)" fill="#fff" stroke="#fff" stroke-linecap="round" stroke-linejoin="round" stroke-width="1"/>
      <path id="Path_13383" data-name="Path 13383" d="M366.3,223.157a3.317,3.317,0,1,0-3.317,3.317,3.317,3.317,0,0,0,3.317-3.317Z" transform="translate(-286.699 -63.072)" fill="#fff" stroke="#fff" stroke-linecap="round" stroke-linejoin="round" stroke-width="1"/>
      <path id="Path_13384" data-name="Path 13384" d="M377.644,223.157a3.327,3.327,0,1,0-3.327,3.317,3.327,3.327,0,0,0,3.327-3.317Z" transform="translate(-286.744 -63.072)" fill="#fff" stroke="#fff" stroke-linecap="round" stroke-linejoin="round" stroke-width="1"/>
    </g>
    <g id="freepik--graphics-1--inject-1--inject-61" transform="translate(102.283 76.574)">
      <path id="Path_13385" data-name="Path 13385" d="M143.975,76.63H215.69a6.434,6.434,0,0,1,6.434,6.435v49.713H137.57V83.064a6.434,6.434,0,0,1,6.4-6.435Z" transform="translate(-102.509 -76.63)" fill="#e8d8fd" stroke="#263238" stroke-linecap="round" stroke-linejoin="round" stroke-width="1"/>
      <rect id="Rectangle_1030" data-name="Rectangle 1030" width="84.515" height="7.988" transform="translate(35.061 48.129)" fill="#263238" stroke="#263238" stroke-linecap="round" stroke-linejoin="round" stroke-width="1"/>
      <rect id="Rectangle_1031" data-name="Rectangle 1031" width="76.776" height="2.53" transform="translate(38.936 50.858)" fill="#fff" stroke="#263238" stroke-linecap="round" stroke-linejoin="round" stroke-width="1"/>
      <circle id="Ellipse_167" data-name="Ellipse 167" cx="11.674" cy="11.674" r="11.674" transform="translate(65.65 13.805)" fill="#263238" stroke="#263238" stroke-linecap="round" stroke-linejoin="round" stroke-width="1"/>
      <path id="Path_13386" data-name="Path 13386" d="M174.71,94.92l12.6,7.271-12.6,7.271Z" transform="translate(-102.656 -76.702)" fill="#fff" stroke="#263238" stroke-linecap="round" stroke-linejoin="round" stroke-width="1"/>
      <rect id="Rectangle_1032" data-name="Rectangle 1032" width="85.83" height="36.187" rx="2.82" transform="translate(0 76.566)" fill="#263238" stroke="#263238" stroke-linecap="round" stroke-linejoin="round" stroke-width="1"/>
      <path id="Path_13387" data-name="Path 13387" d="M112.614,158.45l.418.7c-1.893,1.056-3.656,2.908-3.656,5.08a2.809,2.809,0,0,0,2.679,2.988c.279,0,.468-.139.468-.418s-.139-.369-.418-.418a1.643,1.643,0,0,1-1.205-1.753,2.281,2.281,0,0,1,2.45-2.221,2.51,2.51,0,0,1,2.5,2.59,3.138,3.138,0,0,1-3.287,3.1,3.745,3.745,0,0,1-3.984-3.885C108.55,161.687,110.492,159.655,112.614,158.45Zm8.556,0,.418.7c-1.9,1.056-3.656,2.908-3.656,5.08a2.8,2.8,0,0,0,2.679,2.988c.279,0,.468-.139.468-.418s-.139-.369-.418-.418a1.643,1.643,0,0,1-1.205-1.753,2.271,2.271,0,0,1,2.45-2.221,2.51,2.51,0,0,1,2.5,2.59,3.147,3.147,0,0,1-3.287,3.1,3.755,3.755,0,0,1-3.984-3.885C117.1,161.687,119.039,159.655,121.17,158.45Z" transform="translate(-102.395 -76.953)" fill="#fff"/>
      <line id="Line_177" data-name="Line 177" x2="48.846" transform="translate(26.963 88.868)" fill="none" stroke="#fff" stroke-linecap="round" stroke-linejoin="round" stroke-width="1"/>
      <line id="Line_178" data-name="Line 178" x2="48.846" transform="translate(26.963 93.061)" fill="none" stroke="#fff" stroke-linecap="round" stroke-linejoin="round" stroke-width="1"/>
      <line id="Line_179" data-name="Line 179" x2="48.846" transform="translate(26.963 97.254)" fill="none" stroke="#fff" stroke-linecap="round" stroke-linejoin="round" stroke-width="1"/>
      <line id="Line_180" data-name="Line 180" x2="48.846" transform="translate(26.963 101.458)" fill="none" stroke="#fff" stroke-linecap="round" stroke-linejoin="round" stroke-width="1"/>
      <circle id="Ellipse_168" data-name="Ellipse 168" cx="18.497" cy="18.497" r="18.497" transform="matrix(0.987, -0.161, 0.161, 0.987, 42.953, 135.329)" fill="#263238" stroke="#263238" stroke-linecap="round" stroke-linejoin="round" stroke-width="1"/>
      <circle id="Ellipse_169" data-name="Ellipse 169" cx="15.608" cy="15.608" r="15.608" transform="translate(42.165 152.054) rotate(-48.71)" fill="#fff" stroke="#263238" stroke-linecap="round" stroke-linejoin="round" stroke-width="1"/>
      <path id="Path_13388" data-name="Path 13388" d="M166.82,216.5v11.285h7.63" transform="translate(-102.625 -77.182)" fill="none" stroke="#263238" stroke-linecap="round" stroke-linejoin="round" stroke-width="2"/>
    </g>
    <g id="freepik--Character--inject-1--inject-61" transform="translate(151.846 123.249)">
      <path id="Path_13389" data-name="Path 13389" d="M282.981,227.839s10.608,22.64,10.608,23.835-9.413,6.315-11.206,7.391a43.56,43.56,0,0,1-4.293,2.141l1.076,10.488s16.206-3.7,23-7.391,6.554-7.869,4.98-14.064S295.1,220.1,295.1,220.1Z" transform="translate(-152.628 -123.872)" fill="#fff"/>
      <g id="Group_383" data-name="Group 383" transform="translate(125.462 96.228)" clip-path="url(#clip-path)">
        <path id="Path_13390" data-name="Path 13390" d="M302.165,264.3c6.793-3.7,6.554-7.869,4.98-14.064S295.1,220.1,295.1,220.1l-1.693,1.076-.538,1s9.771,23.985,10.359,31.973c.4,5.369-10.409,12.062-17.55,15.887C290.979,268.628,298.19,266.466,302.165,264.3Z" transform="translate(-278.12 -220.1)" fill="#491a85" opacity="0.5"/>
      </g>
      <path id="Path_13392" data-name="Path 13392" d="M282.981,227.839s10.608,22.64,10.608,23.835-9.413,6.315-11.206,7.391a43.56,43.56,0,0,1-4.293,2.141l1.076,10.488s16.206-3.7,23-7.391,6.554-7.869,4.98-14.064S295.1,220.1,295.1,220.1Z" transform="translate(-152.628 -123.872)" fill="none" stroke="#263238" stroke-linecap="round" stroke-linejoin="round" stroke-width="1"/>
      <path id="Path_13393" data-name="Path 13393" d="M206.128,222.85s-7.739,28.358-7.968,33.368,15.369,14.891,15.937,15.489-.886-17.232-.886-17.232l5.289-25.9Z" transform="translate(-152.312 -123.882)" fill="#fff"/>
      <g id="Group_384" data-name="Group 384" transform="translate(45.846 98.968)" clip-path="url(#clip-path-2)">
        <path id="Path_13394" data-name="Path 13394" d="M209.674,225.171l-.169-.767-3.377-1.554s-7.739,28.358-7.968,33.368,15.369,14.891,15.937,15.489c.229.239.139-2.43-.05-5.727-4.642-3.934-11.305-9.472-12.082-11.8" transform="translate(-198.158 -222.85)" fill="#491a85" opacity="0.5"/>
      </g>
      <path id="Path_13396" data-name="Path 13396" d="M206.128,222.85s-7.739,28.358-7.968,33.368,15.369,14.891,15.937,15.489-.886-17.232-.886-17.232l5.289-25.9Z" transform="translate(-152.312 -123.882)" fill="none" stroke="#263238" stroke-linecap="round" stroke-linejoin="round" stroke-width="1"/>
      <path id="Path_13397" data-name="Path 13397" d="M242.484,194.241s-2.988,2.151-8.815,2.39-6.106-3.984-13.347-3.984c-8.775,0-19.782,27.76-19.782,27.76s5.478,5.369,10.847,7.63a38.465,38.465,0,0,0,9.293,2.739l.837,18.238h59.106l.707-18.238,18.477-11.982s-9.064-16.206-13.467-22.282-11.8-3.815-14.064-2.271-8.964,1.912-11.435,1.554a98.755,98.755,0,0,1-9.542-2.62S247.494,190.008,242.484,194.241Z" transform="translate(-152.321 -123.761)" fill="#7340ae" stroke="#263238" stroke-linecap="round" stroke-linejoin="round" stroke-width="1"/>
      <line id="Line_181" data-name="Line 181" x1="0.239" y2="30.27" transform="translate(68.717 76.915)" fill="none" stroke="#263238" stroke-linecap="round" stroke-linejoin="round" stroke-width="0.5"/>
      <path id="Path_13398" data-name="Path 13398" d="M223.51,203.47s.837,14.771,3.984,23" transform="translate(-152.412 -123.806)" fill="none" stroke="#263238" stroke-linecap="round" stroke-linejoin="round" stroke-width="0.5"/>
      <path id="Path_13399" data-name="Path 13399" d="M228.06,227.75a40.631,40.631,0,0,0,2.5,5.837" transform="translate(-152.43 -123.902)" fill="none" stroke="#263238" stroke-linecap="round" stroke-linejoin="round" stroke-width="0.5"/>
      <path id="Path_13400" data-name="Path 13400" d="M225.42,201.79a94.535,94.535,0,0,0,4.771,15.728" transform="translate(-152.419 -123.799)" fill="none" stroke="#263238" stroke-linecap="round" stroke-linejoin="round" stroke-width="0.5"/>
      <path id="Path_13401" data-name="Path 13401" d="M276.979,204.42s-2.859,11.684-5.369,16.933" transform="translate(-152.602 -123.81)" fill="none" stroke="#263238" stroke-linecap="round" stroke-linejoin="round" stroke-width="0.5"/>
      <line id="Line_182" data-name="Line 182" x1="0.12" y1="23.596" transform="translate(128.889 83.469)" fill="none" stroke="#263238" stroke-linecap="round" stroke-linejoin="round" stroke-width="0.5"/>
      <path id="Path_13402" data-name="Path 13402" d="M280.311,207.77s-2.151,14.941-7.391,22.76" transform="translate(-152.607 -123.823)" fill="none" stroke="#263238" stroke-linecap="round" stroke-linejoin="round" stroke-width="0.5"/>
      <path id="Path_13403" data-name="Path 13403" d="M277.694,227.63s-2.391,4.532-4.054,6.913" transform="translate(-152.61 -123.901)" fill="none" stroke="#263238" stroke-linecap="round" stroke-linejoin="round" stroke-width="0.5"/>
      <path id="Path_13404" data-name="Path 13404" d="M239.3,196.05s1.673,10.249,4.054,15.489,6.554,6.315,10.13,4.771,6.2-9.184,5.976-18.925" transform="translate(-152.474 -123.777)" fill="none" stroke="#263238" stroke-linecap="round" stroke-linejoin="round" stroke-width="0.5"/>
      <path id="Path_13405" data-name="Path 13405" d="M230.792,174.5s-2.271-3.924-4.054-1.9,1.434,6.674,3.217,8.217,3.1.6,2.988-1.066S230.792,174.5,230.792,174.5Z" transform="translate(-152.423 -123.682)" fill="#491a85" stroke="#263238" stroke-linecap="round" stroke-linejoin="round" stroke-width="1"/>
      <path id="Path_13406" data-name="Path 13406" d="M230.792,174.5s-2.271-3.924-4.054-1.9,1.434,6.674,3.217,8.217,3.1.6,2.988-1.066S230.792,174.5,230.792,174.5Z" transform="translate(-152.423 -123.682)" fill="#fff" opacity="0.5"/>
      <path id="Path_13407" data-name="Path 13407" d="M230.792,174.5s-2.271-3.924-4.054-1.9,1.434,6.674,3.217,8.217,3.1.6,2.988-1.066S230.792,174.5,230.792,174.5Z" transform="translate(-152.423 -123.682)" fill="none" stroke="#263238" stroke-linecap="round" stroke-linejoin="round" stroke-width="1"/>
      <path id="Path_13408" data-name="Path 13408" d="M266.991,174.5s2.261-3.924,4.054-1.9-1.434,6.674-3.217,8.217-3.108.6-2.988-1.066S266.991,174.5,266.991,174.5Z" transform="translate(-152.575 -123.682)" fill="#491a85" stroke="#263238" stroke-linecap="round" stroke-linejoin="round" stroke-width="1"/>
      <path id="Path_13409" data-name="Path 13409" d="M266.991,174.5s2.261-3.924,4.054-1.9-1.434,6.674-3.217,8.217-3.108.6-2.988-1.066S266.991,174.5,266.991,174.5Z" transform="translate(-152.575 -123.682)" fill="#fff" opacity="0.5"/>
      <path id="Path_13410" data-name="Path 13410" d="M266.991,174.5s2.261-3.924,4.054-1.9-1.434,6.674-3.217,8.217-3.108.6-2.988-1.066S266.991,174.5,266.991,174.5Z" transform="translate(-152.575 -123.682)" fill="none" stroke="#263238" stroke-linecap="round" stroke-linejoin="round" stroke-width="1"/>
      <path id="Path_13411" data-name="Path 13411" d="M241.57,193.42a128.34,128.34,0,0,0,4.293,15.01c2.151,5.359,6.2,5.359,7.869,1.9S256.471,194,256.471,194,245.265,195.562,241.57,193.42Z" transform="translate(-152.483 -123.766)" fill="#fff" stroke="#263238" stroke-linecap="round" stroke-linejoin="round" stroke-width="1"/>
      <path id="Path_13412" data-name="Path 13412" d="M231.048,175.726s3.1,10.957,8.964,17.4,7.968,7.968,11.086,7.5,6.434-4.522,11.076-12.949,4.98-14.891,5.369-15.489-1-12.51-7.63-17.64-14.064-7.381-20.5-1.783S228.9,167.5,231.048,175.726Z" transform="translate(-152.439 -123.593)" fill="#fff"/>
      <g id="Group_385" data-name="Group 385" transform="translate(78.03 25.905)" clip-path="url(#clip-path-3)">
        <path id="Path_13413" data-name="Path 13413" d="M259.883,154.51c-6.674-5.12-14.064-7.381-20.5-1.783s-10.488,14.771-8.337,23a51.123,51.123,0,0,0,1.753,4.98,3.765,3.765,0,0,1,.149-1.086c1.424-4.512,5.628-13.247,19.772-9.243,11.235,3.167,9.861,13.048,8.815,18.317l.608-1.1c4.652-8.456,4.98-14.891,5.369-15.489S266.557,159.64,259.883,154.51Z" transform="translate(-230.469 -149.497)" fill="#491a85" opacity="0.5"/>
      </g>
      <path id="Path_13415" data-name="Path 13415" d="M231.048,175.726s3.1,10.957,8.964,17.4,7.968,7.968,11.086,7.5,6.434-4.522,11.076-12.949,4.98-14.891,5.369-15.489-1-12.51-7.63-17.64-14.064-7.381-20.5-1.783S228.9,167.5,231.048,175.726Z" transform="translate(-152.439 -123.593)" fill="none" stroke="#263238" stroke-linecap="round" stroke-linejoin="round" stroke-width="1"/>
      <path id="Path_13416" data-name="Path 13416" d="M251.138,181.57a48.572,48.572,0,0,0-.6,7.032c.12,2.381.837,3.1-.239,3.337s-2.261-1.434-2.261-1.434" transform="translate(-152.509 -123.719)" fill="none" stroke="#263238" stroke-linecap="round" stroke-linejoin="round" stroke-width="1"/>
      <path id="Path_13417" data-name="Path 13417" d="M239.18,183.49a4.223,4.223,0,0,0,4.771.12" transform="translate(-152.474 -123.727)" fill="none" stroke="#263238" stroke-linecap="round" stroke-linejoin="round" stroke-width="1"/>
      <path id="Path_13418" data-name="Path 13418" d="M254.38,183.49a4.213,4.213,0,0,0,4.761.12" transform="translate(-152.534 -123.727)" fill="none" stroke="#263238" stroke-linecap="round" stroke-linejoin="round" stroke-width="1"/>
      <path id="Path_13419" data-name="Path 13419" d="M246.781,179.445s-2.271-5.608-9.771-2.988" transform="translate(-152.465 -123.696)" fill="none" stroke="#263238" stroke-linecap="round" stroke-linejoin="round" stroke-width="1"/>
      <path id="Path_13420" data-name="Path 13420" d="M253.09,178.757s1.9-5.488,8.7-2.271" transform="translate(-152.529 -123.695)" fill="none" stroke="#263238" stroke-linecap="round" stroke-linejoin="round" stroke-width="1"/>
      <path id="Path_13421" data-name="Path 13421" d="M248.208,183.883c0,3.068-3.516,5.548-7.859,5.548s-7.869-2.48-7.869-5.548,3.287-4.343,7.63-4.343S248.208,180.825,248.208,183.883Z" transform="translate(-152.447 -123.711)" fill="none" stroke="#263238" stroke-linecap="round" stroke-linejoin="round" stroke-width="1"/>
      <path id="Path_13422" data-name="Path 13422" d="M266.4,183.883c0,3.068-3.526,5.548-7.869,5.548s-7.859-2.48-7.859-5.548,3.277-4.343,7.62-4.343S266.4,180.825,266.4,183.883Z" transform="translate(-152.519 -123.711)" fill="none" stroke="#263238" stroke-linecap="round" stroke-linejoin="round" stroke-width="1"/>
      <path id="Path_13423" data-name="Path 13423" d="M165.628,279.83l-.488,120.751a1.434,1.434,0,0,0,1.434,1.434h0A1.424,1.424,0,0,0,168,400.631L171.445,280Z" transform="translate(-152.181 -124.108)" fill="#fff" stroke="#263238" stroke-linecap="round" stroke-linejoin="round" stroke-width="1"/>
      <path id="Path_13424" data-name="Path 13424" d="M157.468,308.17,157,433a1.424,1.424,0,0,0,1.434,1.434h0a1.434,1.434,0,0,0,1.434-1.374l3.436-124.735Z" transform="translate(-152.149 -124.219)" fill="#fff" stroke="#263238" stroke-linecap="round" stroke-linejoin="round" stroke-width="1"/>
      <path id="Path_13425" data-name="Path 13425" d="M333.207,279.83l.488,120.751a1.424,1.424,0,0,1-1.424,1.434h0a1.434,1.434,0,0,1-1.434-1.385L327.4,280Z" transform="translate(-152.822 -124.108)" fill="#fff" stroke="#263238" stroke-linecap="round" stroke-linejoin="round" stroke-width="1"/>
      <path id="Path_13426" data-name="Path 13426" d="M341.377,308.17,341.865,433a1.424,1.424,0,0,1-1.434,1.434h0a1.424,1.424,0,0,1-1.424-1.374L335.56,308.329Z" transform="translate(-152.855 -124.219)" fill="#fff" stroke="#263238" stroke-linecap="round" stroke-linejoin="round" stroke-width="1"/>
      <path id="Path_13427" data-name="Path 13427" d="M214.289,313.38,214,424.181a1.076,1.076,0,0,0,.906,1.185h0a1.066,1.066,0,0,0,.916-1.135l2.161-110.721Z" transform="translate(-152.374 -124.24)" fill="#fff" stroke="#263238" stroke-linecap="round" stroke-linejoin="round" stroke-width="1"/>
      <path id="Path_13428" data-name="Path 13428" d="M284.688,309.8l.269,96.7a.916.916,0,0,1-.777,1h0a.906.906,0,0,1-.767-1L281.57,309.88Z" transform="translate(-152.641 -124.226)" fill="#fff" stroke="#263238" stroke-linecap="round" stroke-linejoin="round" stroke-width="1"/>
      <path id="Path_13429" data-name="Path 13429" d="M213.188,309.8l.269,96.7a.916.916,0,0,1-.777,1h0a.906.906,0,0,1-.767-1L210.07,309.88Z" transform="translate(-152.359 -124.226)" fill="#fff" stroke="#263238" stroke-linecap="round" stroke-linejoin="round" stroke-width="1"/>
      <path id="Path_13430" data-name="Path 13430" d="M282.675,313.38l.309,110.8a1.076,1.076,0,0,1-.906,1.185h0a1.076,1.076,0,0,1-.916-1.135L279,313.509Z" transform="translate(-152.631 -124.24)" fill="#fff" stroke="#263238" stroke-linecap="round" stroke-linejoin="round" stroke-width="1"/>
      <ellipse id="Ellipse_170" data-name="Ellipse 170" cx="44.324" cy="10.13" rx="44.324" ry="10.13" transform="translate(51.167 176.64)" fill="#fff" stroke="#263238" stroke-linecap="round" stroke-linejoin="round" stroke-width="1"/>
      <path id="Path_13431" data-name="Path 13431" d="M226.317,397.32s-2.321,3.327-.657,4.98,3.317,1,3.148,2.659-2.819,7.3-5.14,13.277,2.49,11.953,6.972,10.3,3.984-18.268,4.642-21.256,1.165-3.486,1-6.305-.329-5.807-2.49-6.146S227.313,396.165,226.317,397.32Z" transform="translate(-152.41 -124.562)" fill="#fff" stroke="#263238" stroke-linecap="round" stroke-linejoin="round" stroke-width="1"/>
      <path id="Path_13432" data-name="Path 13432" d="M233.44,424.067c-2.988-1.135-7.57-.906-10.15-.647.867,3.755,4.183,6.395,7.351,5.229C231.966,428.16,232.832,426.387,233.44,424.067Z" transform="translate(-152.411 -124.674)" fill="#491a85" stroke="#263238" stroke-linecap="round" stroke-linejoin="round" stroke-width="1"/>
      <path id="Path_13433" data-name="Path 13433" d="M221.17,389.99s4.811,8.138,6.136,10.289,5.817,1.494,6.315-1.494-1.833-11.285-1.833-11.285l-9.96,2.49Z" transform="translate(-152.403 -124.533)" fill="#fff" stroke="#263238" stroke-linecap="round" stroke-linejoin="round" stroke-width="1"/>
      <path id="Path_13434" data-name="Path 13434" d="M209.667,376.977s-1.335,2.161-.667,3.656,2.49,5.807,3.656,7.968,6.474,3.486,12.61,2.49,9.632-3.825,9.8-6.315-1-5.807-1.833-9.791-2.988-3.815-5.976-3.815S212.157,374.656,209.667,376.977Z" transform="translate(-152.354 -124.468)" fill="#e8d8fd" stroke="#263238" stroke-linecap="round" stroke-linejoin="round" stroke-width="1"/>
      <path id="Path_13435" data-name="Path 13435" d="M227.546,327.9c.09-4.084,2.45-6.1,2.63-8.895a35.2,35.2,0,0,0-.906-11.026l-4.542-6.205c-13.068.169-22.431.388-22.58.438-.5.159-.837,2.988-1.165,5.309,0,0-5.548.707-4.552,16.146.139,2.151,5.737,27.043,6.146,29.882,2.49,17.341,8.038,26.027,8.038,26.027s.5,2.161,6.972,1.663,12.949-4.811,12.949-4.811S227.208,342.668,227.546,327.9Z" transform="translate(-152.305 -124.194)" fill="#263238" stroke="#263238" stroke-linecap="round" stroke-linejoin="round" stroke-width="1"/>
      <path id="Path_13436" data-name="Path 13436" d="M200.049,305s-6.863,1-11.066,5.8-.637,7.968,7.53,7.112,17.59-9.213,17.989-9.662S205.986,302.118,200.049,305Z" transform="translate(-152.269 -124.204)" fill="#fff" stroke="#263238" stroke-linecap="round" stroke-linejoin="round" stroke-width="1"/>
      <path id="Path_13437" data-name="Path 13437" d="M212.321,307.976a64.813,64.813,0,0,1,12.949,1.992c5.648,1.663,15.608,4.98,17.929,4.98s1.663-8.636,1.663-10.289S214.98,302,211.324,302,212.321,307.976,212.321,307.976Z" transform="translate(-152.358 -124.195)" fill="#fff" stroke="#263238" stroke-linecap="round" stroke-linejoin="round" stroke-width="1"/>
      <path id="Path_13438" data-name="Path 13438" d="M244.98,304.67s-2.659,1.325-3.655,6.3-2.321,7.64-.329,8.964,10.628,2.321,11.953,1,4.98-7.968,5.648-12.281S244.98,304.67,244.98,304.67Z" transform="translate(-152.477 -124.206)" fill="#e8d8fd" stroke="#263238" stroke-linecap="round" stroke-linejoin="round" stroke-width="1"/>
      <path id="Path_13439" data-name="Path 13439" d="M256.309,306.3a20.807,20.807,0,0,0-3.646,5.976A55.533,55.533,0,0,0,251,319.244a64.786,64.786,0,0,1,9.293,3.327c5.319,2.321,14.283,3.984,22.909,5.976s10.957,3.984,13.945,3.984,6.644-2.331,11.3-7.968.657-17.6-3.984-21.256-29.553-6.634-32.87-5.638S256.309,306.3,256.309,306.3Z" transform="translate(-152.521 -124.177)" fill="#263238" stroke="#263238" stroke-linecap="round" stroke-linejoin="round" stroke-width="1"/>
      <path id="Path_13440" data-name="Path 13440" d="M193.764,318.018a20.01,20.01,0,0,0-3.885-8.158c-.309.289-.608.588-.9.916C185.288,314.98,187.6,317.968,193.764,318.018Z" transform="translate(-152.269 -124.226)" fill="#491a85" stroke="#263238" stroke-linecap="round" stroke-linejoin="round" stroke-width="1"/>
      <path id="Path_13441" data-name="Path 13441" d="M227.119,320.69s-3.426,36.665-10.419,42.372" transform="translate(-152.385 -124.269)" fill="none" stroke="#fff" stroke-linecap="round" stroke-linejoin="round" stroke-width="0.5"/>
      <path id="Path_13442" data-name="Path 13442" d="M224.691,355.63s-2.719,11.953-9.851,16.7" transform="translate(-152.378 -124.407)" fill="none" stroke="#fff" stroke-linecap="round" stroke-linejoin="round" stroke-width="0.5"/>
      <path id="Path_13443" data-name="Path 13443" d="M268.976,314s-10.628.667-3.656,5.309,19.592,7.64,19.592,7.64" transform="translate(-152.568 -124.242)" fill="none" stroke="#fff" stroke-linecap="round" stroke-linejoin="round" stroke-width="0.5"/>
      <path id="Path_13444" data-name="Path 13444" d="M345.692,301.3l-3.586-3.227-8.287-17.929a4.771,4.771,0,0,0-4.343-2.7H168.515a4.771,4.771,0,0,0-4.353,2.7l-10.329,22.331-1.7-.628v5.11l.08-.06a2.839,2.839,0,0,0,2.859,2.42H342.913a2.8,2.8,0,0,0,2.859-2.639Z" transform="translate(-152.13 -124.098)" fill="#263238" stroke="#263238" stroke-linecap="round" stroke-linejoin="round" stroke-width="1"/>
      <path id="Path_13445" data-name="Path 13445" d="M342.914,304.624H155.069a2.749,2.749,0,0,1-2.63-3.845l11.723-25.33a4.751,4.751,0,0,1,4.353-2.7H329.477a4.751,4.751,0,0,1,4.343,2.7l11.724,25.33a2.749,2.749,0,0,1-2.629,3.845Z" transform="translate(-152.13 -124.08)" fill="#fff" stroke="#263238" stroke-linecap="round" stroke-linejoin="round" stroke-width="1"/>
      <path id="Path_13446" data-name="Path 13446" d="M164.62,287.622s-4.253,2.918-1.594,3.984,33.228.269,36.953-.8,7.968-10.9,7.968-12.49-5.359-2.739-7.331-2.829-28.029,1.494-28.029,1.494Z" transform="translate(-152.17 -124.09)" fill="#491a85" opacity="0.5"/>
      <ellipse id="Ellipse_171" data-name="Ellipse 171" cx="10.897" cy="4.522" rx="10.897" ry="4.522" transform="translate(153.611 159.537)" fill="#491a85" opacity="0.5"/>
      <ellipse id="Ellipse_172" data-name="Ellipse 172" cx="39.075" cy="7.311" rx="39.075" ry="7.311" transform="translate(56.058 159.547)" fill="#491a85" opacity="0.5"/>
      <path id="Path_13447" data-name="Path 13447" d="M309.27,270.332s-.717-2.859-3.1-1.9-2.142,7.271-1.673,10.847,3.7,1.9,3.7,1.9v-2.142s-1.185.946-1.783-.359-.478-7.869.12-7.749,1.783,2.142,1.783,2.142S308.672,272.842,309.27,270.332Z" transform="translate(-152.731 -124.062)" fill="#dfdce2" stroke="#263238" stroke-linecap="round" stroke-linejoin="round" stroke-width="1"/>
      <path id="Path_13448" data-name="Path 13448" d="M307.57,270.82v15.658c0,1.843,4.233,3.337,9.462,3.337s9.453-1.494,9.453-3.337V270.82Z" transform="translate(-152.744 -124.072)" fill="#dfdce2" stroke="#263238" stroke-linecap="round" stroke-linejoin="round" stroke-width="1"/>
      <path id="Path_13449" data-name="Path 13449" d="M326.485,270.809c0,1.594-4.233,2.879-9.453,2.879s-9.462-1.285-9.462-2.879,4.233-2.879,9.462-2.879S326.485,269.225,326.485,270.809Z" transform="translate(-152.744 -124.061)" fill="#fff" stroke="#263238" stroke-linecap="round" stroke-linejoin="round" stroke-width="1"/>
      <path id="Path_13450" data-name="Path 13450" d="M325.255,270.81c0,1.385-3.685,2.5-8.217,2.5s-8.227-1.116-8.227-2.5,3.685-2.5,8.227-2.5S325.255,269.426,325.255,270.81Z" transform="translate(-152.749 -124.062)" fill="#fff" stroke="#263238" stroke-linecap="round" stroke-linejoin="round" stroke-width="1"/>
      <path id="Path_13451" data-name="Path 13451" d="M310.7,272.416a22.631,22.631,0,0,0,12.68,0,22.631,22.631,0,0,0-12.68,0Z" transform="translate(-152.756 -124.075)" fill="#263238" stroke="#263238" stroke-linecap="round" stroke-linejoin="round" stroke-width="1"/>
      <path id="Path_13452" data-name="Path 13452" d="M163.45,278l.12,5.359,36.107.359v-6.2Z" transform="translate(-152.175 -124.098)" fill="#fff" stroke="#263238" stroke-linecap="round" stroke-linejoin="round" stroke-width="1"/>
      <path id="Path_13453" data-name="Path 13453" d="M199.819,283.682l5.249-11.315V269.03l-5.488,9.532Z" transform="translate(-152.317 -124.065)" fill="#fff" stroke="#263238" stroke-linecap="round" stroke-linejoin="round" stroke-width="1"/>
      <path id="Path_13454" data-name="Path 13454" d="M163.45,282.9l.12,5.369,36.107.359v-6.2Z" transform="translate(-152.175 -124.118)" fill="#fff" stroke="#263238" stroke-linecap="round" stroke-linejoin="round" stroke-width="1"/>
      <path id="Path_13455" data-name="Path 13455" d="M199.819,288.592l5.249-11.325V273.93l-5.488,9.532Z" transform="translate(-152.317 -124.084)" fill="#fff" stroke="#263238" stroke-linecap="round" stroke-linejoin="round" stroke-width="1"/>
      <path id="Path_13456" data-name="Path 13456" d="M177.371,264.35s.837-1.663-.359-2.381-2.5,1-3.217,1.544S158.068,274,157.589,275.555s0,4.98,3.217,5.359,6.076-1.783,7.51-2.142,1.992-.478,1.992-.478l9.891-13.347Z" transform="translate(-152.151 -124.036)" fill="#fff" stroke="#263238" stroke-linecap="round" stroke-linejoin="round" stroke-width="1"/>
      <path id="Path_13457" data-name="Path 13457" d="M160.807,280.977c3.217.359,6.076-1.783,7.51-2.141s1.992-.478,1.992-.478l.359-.488-9.293-1.892a3.118,3.118,0,0,0-3.815-.359C157.111,277.152,157.589,280.608,160.807,280.977Z" transform="translate(-152.151 -124.089)" fill="#fff" stroke="#263238" stroke-linecap="round" stroke-linejoin="round" stroke-width="1"/>
      <path id="Path_13458" data-name="Path 13458" d="M161.42,275.954h27.889c8.706,0,11.325-.478,11.325-.478l5.359-11.086s-16.933,1.076-22.162.717a39.443,39.443,0,0,1-6.435-.717Z" transform="translate(-152.167 -124.047)" fill="#fff" stroke="#263238" stroke-linecap="round" stroke-linejoin="round" stroke-width="1"/>
      <path id="Path_13459" data-name="Path 13459" d="M161.42,276l.478,2.142s22.64.12,28.6.12,10.488.239,10.488.239l-.359-2.988Z" transform="translate(-152.167 -124.09)" fill="#fff" stroke="#263238" stroke-linecap="round" stroke-linejoin="round" stroke-width="1"/>
      <path id="Path_13460" data-name="Path 13460" d="M201.139,278.424l5-11.445v-2.62l-5.359,11.086Z" transform="translate(-152.322 -124.046)" fill="#fff" stroke="#263238" stroke-linecap="round" stroke-linejoin="round" stroke-width="1"/>
      <path id="Path_13461" data-name="Path 13461" d="M281.625,291.911H213.345a1.146,1.146,0,0,1-1.155-1.146h0a1.146,1.146,0,0,1,1.155-1.145h68.279a1.135,1.135,0,0,1,1.145,1.145h0a1.136,1.136,0,0,1-1.145,1.146Z" transform="translate(-152.367 -124.146)" fill="#fff" stroke="#263238" stroke-linecap="round" stroke-linejoin="round" stroke-width="1"/>
      <path id="Path_13462" data-name="Path 13462" d="M282.186,289.412H212.741a1,1,0,0,1-1-.936l-3.775-45.37a1,1,0,0,1,1-1.116h77a1,1,0,0,1,1,1.116l-3.775,45.37A1,1,0,0,1,282.186,289.412Z" transform="translate(-152.351 -123.958)" fill="#fff" stroke="#263238" stroke-linecap="round" stroke-linejoin="round" stroke-width="1"/>
      <path id="Path_13463" data-name="Path 13463" d="M254.148,266.561c0,2.709-2.938,4.9-6.554,4.9s-6.564-2.191-6.564-4.9,2.938-4.891,6.564-4.891S254.148,263.861,254.148,266.561Z" transform="translate(-152.481 -124.036)" fill="#fff" stroke="#263238" stroke-linecap="round" stroke-linejoin="round" stroke-width="1"/>
      <path id="Path_13464" data-name="Path 13464" d="M322.33,230.975a5.917,5.917,0,0,0,2.121-3.317,6.124,6.124,0,0,0-.07-2.988" transform="translate(-152.802 -123.89)" fill="none" stroke="#263238" stroke-linecap="round" stroke-linejoin="round" stroke-width="1"/>
      <path id="Path_13465" data-name="Path 13465" d="M314.33,266.525s6.624-3.984,4.462-8.536-9.472-7.57-9.472-14.662c0-6.116,6.5-8.377,10.747-10.827" transform="translate(-152.751 -123.921)" fill="none" stroke="#263238" stroke-linecap="round" stroke-linejoin="round" stroke-width="1"/>
      <path id="Path_13466" data-name="Path 13466" d="M320.479,266.471s3.7-2.46,3.7-6.365c0-2.62-2.8-4.333-6.494-8.546" transform="translate(-152.784 -123.996)" fill="none" stroke="#263238" stroke-linecap="round" stroke-linejoin="round" stroke-width="1"/>
      <path id="Path_13467" data-name="Path 13467" d="M315.625,248.978s-2.42-1.9-.638-5.478" transform="translate(-152.771 -123.964)" fill="none" stroke="#263238" stroke-linecap="round" stroke-linejoin="round" stroke-width="1"/>
      <path id="Path_13468" data-name="Path 13468" d="M259.2,144.168c1.185-.249,3.725-1.225,5.438-5.2a.5.5,0,0,0-.259-.657.508.508,0,0,0-.657.259c-1.574,3.646-3.825,4.452-4.761,4.632a11.435,11.435,0,0,0,2.62-7.2c0-6.913-6.4-12.51-14.3-12.51s-14.3,5.6-14.3,12.51a11.435,11.435,0,0,0,2.391,6.972c-1.5-.08-4.044.558-7.261,4.313a.508.508,0,0,0,0,.707.518.518,0,0,0,.329.119.488.488,0,0,0,.379-.179c4.114-4.791,6.833-3.984,7.381-3.765a14.645,14.645,0,0,0-2.6,1.823c-4.592,4.134-7.391,11.953-7.032,18.467a24.015,24.015,0,0,0,4.532,11.953,27.789,27.789,0,0,0,8.1-9.064,76.1,76.1,0,0,0,3.984-8.138c0,2.918.379,6.444,1.912,8.964a12.71,12.71,0,0,0,11.176,6.534,10.528,10.528,0,0,0,2.341-.229.5.5,0,0,0,.319-.249c3.845.817,7.67.747,8.257-.07.946-1.3,2.291-5.379,2.739-10.359C270.735,155.354,265.416,148.023,259.2,144.168Zm-13.188,23.4c-1.932-3.157-1.873-8.307-1.643-11.265l.13-.339a20.28,20.28,0,0,0,8.1,15.608,14.591,14.591,0,0,0,4.413,2.062c-2.44.169-7.46-.3-11-6.066Z" transform="translate(-152.424 -123.49)" fill="#263238"/>
      <path id="Path_13469" data-name="Path 13469" d="M246.26,152s-.817,6.036,6.853,11.953,14.941,3.586,14.941,3.586" transform="translate(-152.502 -123.603)" fill="none" stroke="#fff" stroke-linecap="round" stroke-linejoin="round" stroke-width="0.5"/>
      <path id="Path_13470" data-name="Path 13470" d="M247.39,150s8.078,11.763,19.234,8.7" transform="translate(-152.506 -123.595)" fill="none" stroke="#fff" stroke-linecap="round" stroke-linejoin="round" stroke-width="0.5"/>
      <path id="Path_13471" data-name="Path 13471" d="M243.322,146.067a7.8,7.8,0,0,0-8.078.618c-4.293,2.859-6.444,9.612-6.444,9.612" transform="translate(-152.433 -123.576)" fill="none" stroke="#fff" stroke-linecap="round" stroke-linejoin="round" stroke-width="0.5"/>
      <path id="Path_13472" data-name="Path 13472" d="M243.557,149.359s-3.476-.926-5.628,1.225a13.863,13.863,0,0,0-2.659,3.277" transform="translate(-152.458 -123.591)" fill="none" stroke="#fff" stroke-linecap="round" stroke-linejoin="round" stroke-width="0.5"/>
    </g>
  </g>
</svg>
