<svg xmlns="http://www.w3.org/2000/svg" xmlns:xlink="http://www.w3.org/1999/xlink" width="343" height="355.553" viewBox="0 0 343 355.553">
  <defs>
    <clipPath id="clip-path">
      <rect id="Rectangle_602" data-name="Rectangle 602" width="149.893" height="292.509" rx="14.52" fill="#263238" stroke="#263238" stroke-linecap="round" stroke-linejoin="round" stroke-width="1"/>
    </clipPath>
    <clipPath id="clip-path-2">
      <path id="Path_6364" data-name="Path 6364" d="M284.113,208.363s-7.134,1.268-10.392,7.531c-3.171,6-1.665,16.092,1.467,22.069,3.964,7.547,3.726,10.131,3.765,16.8a3.3,3.3,0,0,1-.84,2.489c-1.633,1.585-1.847-.793-2.275.555s3.964,4.328,8.49.388c2.933-2.56,3.607-9.719,2.228-13.864s-8.276-12.731-6.786-19.413,6.682-12.2,7.134-14.752S284.113,208.363,284.113,208.363Z" transform="translate(-271.964 -208.259)" fill="#263238" stroke="#263238" stroke-linecap="round" stroke-linejoin="round" stroke-width="1"/>
    </clipPath>
    <clipPath id="clip-path-3">
      <path id="Path_6381" data-name="Path 6381" d="M295.849,197.391h-.238c-3.8.436-8.8,1.237-11.851,3.686-3.718,2.965-2.442,3.71.951,5.406s13.476,7.325,14.435,15.386-2.339,20.69-3.924,26.421A11.411,11.411,0,0,0,298.83,260.7a6.611,6.611,0,0,0,5.216,1.728,10.331,10.331,0,0,0,5.272-1.76c.151-.119,1.887-1.95,1.585-2.2-1.522-1.292-3.353.563-4.281-1.213-1.895-3.646,1.046-8.014,3.036-11.011,1.625-2.449,4.328-3.964,5.977-6.342a19.127,19.127,0,0,0,2.838-8.49,42.311,42.311,0,0,0-2.727-19.342c-2.941-7.848-9.029-14.824-17.995-14.8C297.133,197.288,296.483,197.32,295.849,197.391Z" transform="translate(-281.505 -197.28)" fill="#263238" stroke="#263238" stroke-linecap="round" stroke-linejoin="round" stroke-width="1"/>
    </clipPath>
    <clipPath id="clip-path-4">
      <path id="Path_6400" data-name="Path 6400" d="M245.739,411.539s-.119-7.055.935-8.117,27.047-15.283,34.34-15.172,17.257,10.044,22.576,12.683c8.466,4.233,8.466,6.579,9.172,8.934s1.292,5.057,1.292,5.057H245.739Z" transform="translate(-245.735 -388.249)" fill="#fff" stroke="#263238" stroke-linecap="round" stroke-linejoin="round" stroke-width="1"/>
    </clipPath>
  </defs>
  <g id="Group_Chat-bro" data-name="Group Chat-bro" transform="translate(-35.112 -23.26)">
    <g id="freepik--background-simple--inject-13" transform="translate(35.112 23.26)">
      <path id="Path_6325" data-name="Path 6325" d="M35.427,171.988s-6.572,63.417,40.27,116,119.287,70.194,177.725,86.025,108.3-8.506,122.029-57.654-29.33-73.008-45.914-135.41-11.843-80.856-58.755-126.611-130.8-40.277-181.53,11.788S35.427,171.988,35.427,171.988Z" transform="translate(-35.112 -23.26)" fill="#491a85"/>
      <path id="Path_6326" data-name="Path 6326" d="M35.427,171.988s-6.572,63.417,40.27,116,119.287,70.194,177.725,86.025,108.3-8.506,122.029-57.654-29.33-73.008-45.914-135.41-11.843-80.856-58.755-126.611-130.8-40.277-181.53,11.788S35.427,171.988,35.427,171.988Z" transform="translate(-35.112 -23.26)" fill="#faf5ff"/>
    </g>
    <g id="freepik--Device--inject-13" transform="translate(130.259 69.086)">
      <rect id="Rectangle_601" data-name="Rectangle 601" width="149.893" height="292.509" rx="14.52" fill="#263238"/>
      <g id="Group_246" data-name="Group 246" clip-path="url(#clip-path)">
        <path id="Path_6327" data-name="Path 6327" d="M168.053,81.07A12.913,12.913,0,0,0,155.14,93.991V360.658a12.882,12.882,0,0,0,4.629,9.909l87.451-289.5Z" transform="translate(-155.14 -81.07)" fill="#fff" opacity="0.2"/>
        <path id="Path_6328" data-name="Path 6328" d="M253.434,438.067a5.081,5.081,0,1,0-1.485,3.606A5.1,5.1,0,0,0,253.434,438.067Z" transform="translate(-173.402 -154.016)" fill="none" stroke="#fff" stroke-linecap="round" stroke-linejoin="round" stroke-width="1"/>
      </g>
      <rect id="Rectangle_603" data-name="Rectangle 603" width="149.893" height="292.509" rx="14.52" fill="none" stroke="#263238" stroke-linecap="round" stroke-linejoin="round" stroke-width="1"/>
      <rect id="Rectangle_604" data-name="Rectangle 604" width="136.56" height="255.284" transform="translate(6.659 19.865)" fill="#fff" stroke="#263238" stroke-linecap="round" stroke-linejoin="round" stroke-width="1"/>
      <rect id="Rectangle_605" data-name="Rectangle 605" width="11.32" height="6.207" transform="translate(127.253 22.513)" fill="none" stroke="#263238" stroke-linecap="round" stroke-linejoin="round" stroke-width="0.821"/>
      <rect id="Rectangle_606" data-name="Rectangle 606" width="8.831" height="6.207" transform="translate(127.253 22.513)" fill="#263238" stroke="#263238" stroke-linecap="round" stroke-linejoin="round" stroke-width="0.725"/>
      <rect id="Rectangle_607" data-name="Rectangle 607" width="1.593" height="2.735" transform="translate(138.549 24.249)" fill="#263238" stroke="#263238" stroke-linecap="round" stroke-linejoin="round" stroke-width="0.725"/>
      <rect id="Rectangle_608" data-name="Rectangle 608" width="2.077" height="3.559" transform="translate(9.734 24.439)" fill="#263238" stroke="#263238" stroke-linecap="round" stroke-linejoin="round" stroke-width="0.883"/>
      <rect id="Rectangle_609" data-name="Rectangle 609" width="2.077" height="4.812" transform="translate(13 23.187)" fill="#263238" stroke="#263238" stroke-linecap="round" stroke-linejoin="round" stroke-width="0.883"/>
      <rect id="Rectangle_610" data-name="Rectangle 610" width="2.077" height="6.286" transform="translate(16.258 21.712)" fill="#263238" stroke="#263238" stroke-linecap="round" stroke-linejoin="round" stroke-width="0.883"/>
      <rect id="Rectangle_611" data-name="Rectangle 611" width="131.13" height="9.861" transform="translate(8.862 32.176)" fill="#e8d8fd"/>
    </g>
    <g id="freepik--text-balloons--inject-13" transform="translate(143.711 122.705)">
      <path id="Path_6329" data-name="Path 6329" d="M307.4,298.71h-40.3a4.978,4.978,0,0,0-4.978,4.978v4.947l-9.956,4.479,9.956,2.671v3.092a4.978,4.978,0,0,0,4.978,4.978h40.341a4.978,4.978,0,0,0,4.978-4.978V303.7a4.978,4.978,0,0,0-5.018-4.986Z" transform="translate(-188.704 -179.804)" fill="#fff" stroke="#263238" stroke-width="1"/>
      <path id="Path_6330" data-name="Path 6330" d="M286.421,314.531a2.093,2.093,0,1,1-.61-1.485,2.1,2.1,0,0,1,.61,1.485Z" transform="translate(-194.935 -182.648)" fill="#263238"/>
      <path id="Path_6331" data-name="Path 6331" d="M297.985,314.531a2.093,2.093,0,1,1-.61-1.485A2.093,2.093,0,0,1,297.985,314.531Z" transform="translate(-197.335 -182.648)" fill="#263238"/>
      <path id="Path_6332" data-name="Path 6332" d="M309.551,314.531a2.1,2.1,0,1,1-2.1-2.1A2.1,2.1,0,0,1,309.551,314.531Z" transform="translate(-199.73 -182.648)" fill="#263238"/>
      <path id="Path_6333" data-name="Path 6333" d="M307.4,148.71h-40.3a4.978,4.978,0,0,0-4.978,4.97v4.954l-9.956,4.479,9.956,2.671v3.092a4.978,4.978,0,0,0,4.978,4.978h40.341a4.978,4.978,0,0,0,4.978-4.978V153.7a4.978,4.978,0,0,0-5.018-4.986Z" transform="translate(-188.704 -148.71)" fill="#fff" stroke="#263238" stroke-width="1"/>
      <path id="Path_6334" data-name="Path 6334" d="M286.421,164.531a2.093,2.093,0,1,1-.61-1.485A2.1,2.1,0,0,1,286.421,164.531Z" transform="translate(-194.935 -151.554)" fill="#263238"/>
      <path id="Path_6335" data-name="Path 6335" d="M297.985,164.531a2.093,2.093,0,1,1-.61-1.485,2.093,2.093,0,0,1,.61,1.485Z" transform="translate(-197.335 -151.554)" fill="#263238"/>
      <path id="Path_6336" data-name="Path 6336" d="M309.551,164.531a2.1,2.1,0,1,1-2.1-2.1A2.1,2.1,0,0,1,309.551,164.531Z" transform="translate(-199.73 -151.554)" fill="#263238"/>
      <path id="Path_6337" data-name="Path 6337" d="M177.088,380h40.341a4.978,4.978,0,0,1,4.978,4.978v4.947l9.956,4.479-9.956,2.671v3.092a4.978,4.978,0,0,1-4.978,4.978H177.088a4.978,4.978,0,0,1-4.978-4.978V385.01a4.978,4.978,0,0,1,4.978-5.01Z" transform="translate(-172.11 -196.654)" fill="#fff" stroke="#263238" stroke-width="1"/>
      <path id="Path_6338" data-name="Path 6338" d="M212.71,395.863a2.1,2.1,0,1,0,2.093-2.093A2.1,2.1,0,0,0,212.71,395.863Z" transform="translate(-180.526 -199.509)" fill="#263238"/>
      <path id="Path_6339" data-name="Path 6339" d="M201.15,395.863a2.093,2.093,0,1,0,2.093-2.093A2.093,2.093,0,0,0,201.15,395.863Z" transform="translate(-178.13 -199.509)" fill="#263238"/>
      <path id="Path_6340" data-name="Path 6340" d="M189.58,395.863a2.1,2.1,0,1,0,2.1-2.093A2.1,2.1,0,0,0,189.58,395.863Z" transform="translate(-175.731 -199.509)" fill="#263238"/>
      <path id="Path_6341" data-name="Path 6341" d="M177.088,228h40.341a4.978,4.978,0,0,1,4.978,4.978v4.946l9.956,4.479-9.956,2.671v3.092a4.978,4.978,0,0,1-4.978,4.978H177.088a4.978,4.978,0,0,1-4.978-4.978v-15.2a4.978,4.978,0,0,1,4.978-4.97Z" transform="translate(-172.11 -165.146)" fill="#fff" stroke="#263238" stroke-width="1"/>
      <path id="Path_6342" data-name="Path 6342" d="M212.71,243.811a2.093,2.093,0,1,0,.61-1.485A2.1,2.1,0,0,0,212.71,243.811Z" transform="translate(-180.526 -167.988)" fill="#263238"/>
      <path id="Path_6343" data-name="Path 6343" d="M201.15,243.811a2.093,2.093,0,1,0,.61-1.485A2.093,2.093,0,0,0,201.15,243.811Z" transform="translate(-178.13 -167.988)" fill="#263238"/>
      <path id="Path_6344" data-name="Path 6344" d="M189.58,243.811a2.1,2.1,0,1,0,2.1-2.1,2.1,2.1,0,0,0-2.1,2.1Z" transform="translate(-175.731 -167.988)" fill="#263238"/>
    </g>
    <g id="freepik--character-1--inject-13" transform="translate(138.939 105.379)">
      <path id="Path_6345" data-name="Path 6345" d="M234.556,213.83c-.935-4.13-4.55-19.651-6.809-22.7-2.608-3.52-17.7-11.692-19.857-13.167a16.861,16.861,0,0,0-6.468-2.608s-8.284,2.838-16.449,4.994-12.683,3.631-13.619,6.342c-.793,2.378-4.415,22.37-5.264,27.118Z" transform="translate(-166.09 -136.908)" fill="#dfdce2" stroke="#263238" stroke-linecap="round" stroke-linejoin="round" stroke-width="1"/>
      <path id="Path_6346" data-name="Path 6346" d="M189.737,217.457q-.515-8.886-1.007-17.757" transform="translate(-170.783 -141.953)" fill="none" stroke="#263238" stroke-linecap="round" stroke-linejoin="round" stroke-width="1"/>
      <path id="Path_6347" data-name="Path 6347" d="M214.9,193.513c3.861-.563,6.017-7.6,6.587-10.551.079-.428.159-.793.23-1.149-3.076-1.815-5.676-3.29-6.476-3.845a16.861,16.861,0,0,0-6.469-2.608s-3.02,1.038-7.214,2.331c.563,1.284,2,4.455,4.154,8.68C208.552,191.928,211.049,194.1,214.9,193.513Z" transform="translate(-173.443 -136.908)" fill="#fff" stroke="#263238" stroke-linecap="round" stroke-linejoin="round" stroke-width="1"/>
      <path id="Path_6348" data-name="Path 6348" d="M207.183,162.2s-1.134,11.692-1.245,12.374,1.474,5.216,4.2,9.417,6.342,3.86,8.165.222a58.463,58.463,0,0,0,3.29-9.417,12.2,12.2,0,0,1-8.284-6.342C210.592,163,208.317,160.618,207.183,162.2Z" transform="translate(-174.349 -134.081)" fill="#b2b2b2" stroke="#263238" stroke-linecap="round" stroke-linejoin="round" stroke-width="1"/>
      <path id="Path_6349" data-name="Path 6349" d="M214.5,127.186s-7.261,2.156-9.869,7.832c-2.124,4.614-.912,11.8,0,14.182s1.245,7.039,2.949,11.241,6.239,9.512,10.1,10.305,11.463-5.335,13.476-8.165,1.363-7.721,1.585-8.514,3.171-6.469,2.838-13.476S225.511,125.26,214.5,127.186Z" transform="translate(-173.835 -126.863)" fill="#b2b2b2" stroke="#263238" stroke-linecap="round" stroke-linejoin="round" stroke-width="1"/>
      <path id="Path_6350" data-name="Path 6350" d="M233.516,160.19s1.023,6.579-.571,7.261-4.653-.341-5.105-1.252" transform="translate(-178.89 -133.763)" fill="none" stroke="#263238" stroke-linecap="round" stroke-linejoin="round" stroke-width="1"/>
      <path id="Path_6351" data-name="Path 6351" d="M225.268,171.261a11.6,11.6,0,0,1-4.431-3.631s-2.5,3.742.23,4.756a3.535,3.535,0,0,0,4.2-1.126Z" transform="translate(-177.222 -135.306)" fill="#263238" stroke="#263238" stroke-linecap="round" stroke-linejoin="round" stroke-width="1"/>
      <path id="Path_6352" data-name="Path 6352" d="M227.907,159.434c-.277.9-.864,1.514-1.316,1.379s-.587-.975-.317-1.879.864-1.514,1.308-1.379S228.176,158.53,227.907,159.434Z" transform="translate(-178.537 -133.213)" fill="#263238"/>
      <path id="Path_6353" data-name="Path 6353" d="M237.927,161c-.277.9-.864,1.522-1.316,1.379s-.587-.975-.317-1.871.864-1.522,1.316-1.387S238.2,160.108,237.927,161Z" transform="translate(-180.614 -133.539)" fill="#263238"/>
      <path id="Path_6354" data-name="Path 6354" d="M229.636,154.154a.73.73,0,0,1-.507-.2c-2.117-2.029-4.487-.159-4.59-.079a.73.73,0,1,1-.92-1.134,4.891,4.891,0,0,1,6.524.151.737.737,0,0,1,0,1.038A.721.721,0,0,1,229.636,154.154Z" transform="translate(-177.959 -131.976)" fill="#263238"/>
      <path id="Path_6355" data-name="Path 6355" d="M240.611,157.227a.745.745,0,0,1-.618-.333,2.2,2.2,0,0,0-1.467-1.157,2.235,2.235,0,0,0-1.514.507.73.73,0,1,1-.975-1.086,3.615,3.615,0,0,1,2.687-.872,3.559,3.559,0,0,1,2.5,1.815.729.729,0,0,1-.618,1.126Z" transform="translate(-180.539 -132.537)" fill="#263238"/>
      <path id="Path_6356" data-name="Path 6356" d="M204.811,149.768c.048.143.087.285.127.436v.1c.048.159.087.325.127.491v.048a3.166,3.166,0,0,0,.127.579l3.583-.793s3.29.682,3.75-.452-1.7-2.838-.119-4.534,6.017-.571,6.468-2.727,1.585-9.869,10.781-7.491a25.666,25.666,0,0,1,5.359,2.457c-2.235-6.278-10.924-12.43-20.563-10.741,0,0-7.261,2.156-9.869,7.832-2.124,4.614-.912,11.8,0,14.182.055.151.111.317.166.484Z" transform="translate(-173.824 -126.853)" fill="#263238" stroke="#263238" stroke-linecap="round" stroke-linejoin="round" stroke-width="1"/>
      <path id="Path_6357" data-name="Path 6357" d="M210.39,158.042s-1.023-4.423-3.749-4.883S202.9,156,203.47,158.945s3.512,5.676,6.128,4.883" transform="translate(-173.807 -132.297)" fill="#b2b2b2" stroke="#263238" stroke-linecap="round" stroke-linejoin="round" stroke-width="1"/>
      <path id="Path_6358" data-name="Path 6358" d="M219.494,216.822c2.069-2.251,6.881-7.475,7.237-7.832s1.134-.452,3.742-1.134,6.92-2.156,7.6-2.727a12.176,12.176,0,0,0,2.727-2.378,24.07,24.07,0,0,0,1.474-2.838c.341-.571,3.06-1.815,3.742-2.378s1.363-1.7,1.134-2.267-4.193.571-7.824,1.363a39.821,39.821,0,0,1-5.906.9s2.045-2.949,3.29-4.312.793-4.312-.111-3.171-6.69,7.039-7.927,7.491-4.082,4.653-6.017,6.587c-1.585,1.585-14.475,9.933-18.787,12.683Z" transform="translate(-173.922 -139.9)" fill="#b2b2b2" stroke="#263238" stroke-linecap="round" stroke-linejoin="round" stroke-width="1"/>
      <line id="Line_43" data-name="Line 43" x1="3.86" y2="1.363" transform="translate(64.495 60.014)" fill="none" stroke="#263238" stroke-linecap="round" stroke-linejoin="round" stroke-width="1"/>
      <line id="Line_44" data-name="Line 44" x1="130.028" transform="translate(2.235 76.922)" fill="none" stroke="#263238" stroke-linecap="round" stroke-linejoin="round" stroke-width="1"/>
    </g>
    <g id="freepik--character-2--inject-13" transform="translate(141.175 161.207)">
      <path id="Path_6359" data-name="Path 6359" d="M315.048,287.97c-.4-3.02-2.085-14.855-4.574-20.293a20.507,20.507,0,0,0-12.628-11.146c-4.558-1.379-10.5-2.545-13.476-2.124,0,0-9.869,3.4-14.11,4.352s-8.64,3.924-10.448,6.476c-1.585,2.267-9.893,19.065-11.692,22.735Z" transform="translate(-185.33 -209.104)" fill="#fff" stroke="#263238" stroke-linecap="round" stroke-linejoin="round" stroke-width="1"/>
      <path id="Path_6360" data-name="Path 6360" d="M318.306,287.97c-.4-3.02-2.085-14.855-4.574-20.293A20.507,20.507,0,0,0,301.1,256.532c-4.558-1.379-10.5-2.545-13.476-2.124,0,0-6.762,2.331-11.5,3.67-1.482,2.315-4.812,7.451-7.927,11.827-3.964,5.549-5.549,13.571-3.4,18.066Z" transform="translate(-188.587 -209.104)" fill="#62339f" stroke="#263238" stroke-linecap="round" stroke-linejoin="round" stroke-width="1"/>
      <path id="Path_6361" data-name="Path 6361" d="M285.358,245.287a35.188,35.188,0,0,1,1.062,11.359c-.428,6.476-3.821,10.614-2.545,13.9s6.342,4.558,10.82,1.062,5.3-12.1,5.414-15.918,1.91-15.7,1.91-15.7-4.756,5.62-10.305,5.834S285.358,245.287,285.358,245.287Z" transform="translate(-192.682 -206.135)" fill="#fff" stroke="#263238" stroke-linecap="round" stroke-linejoin="round" stroke-width="1"/>
      <path id="Path_6362" data-name="Path 6362" d="M284.113,208.363s-7.134,1.268-10.392,7.531c-3.171,6-1.665,16.092,1.467,22.069,3.964,7.547,3.726,10.131,3.765,16.8a3.3,3.3,0,0,1-.84,2.489c-1.633,1.585-1.847-.793-2.275.555s3.964,4.328,8.49.388c2.933-2.56,3.607-9.719,2.228-13.864s-8.276-12.731-6.786-19.413,6.682-12.2,7.134-14.752S284.113,208.363,284.113,208.363Z" transform="translate(-190.272 -199.556)" fill="#263238"/>
      <g id="Group_247" data-name="Group 247" transform="translate(81.692 8.703)" clip-path="url(#clip-path-2)">
        <path id="Path_6363" data-name="Path 6363" d="M284.895,213.29s-12.334,7.4-10.408,18.843,14.269,14.792,13.1,26.587" transform="translate(-272.444 -209.302)" fill="none" stroke="#636363" stroke-linecap="round" stroke-linejoin="round" stroke-width="1"/>
      </g>
      <path id="Path_6365" data-name="Path 6365" d="M284.113,208.363s-7.134,1.268-10.392,7.531c-3.171,6-1.665,16.092,1.467,22.069,3.964,7.547,3.726,10.131,3.765,16.8a3.3,3.3,0,0,1-.84,2.489c-1.633,1.585-1.847-.793-2.275.555s3.964,4.328,8.49.388c2.933-2.56,3.607-9.719,2.228-13.864s-8.276-12.731-6.786-19.413,6.682-12.2,7.134-14.752S284.113,208.363,284.113,208.363Z" transform="translate(-190.272 -199.556)" fill="none" stroke="#263238" stroke-linecap="round" stroke-linejoin="round" stroke-width="1"/>
      <path id="Path_6366" data-name="Path 6366" d="M311.612,288.625h16.124v-.27h0v-.174h0v-.65h0v-.547a2,2,0,0,0,0-.214V285.8l-.048-.285h0l-.048-.285v-.063l-.047-.309h0a2.779,2.779,0,0,0-.056-.357h0c-.055-.365-.119-.745-.182-1.134h0a.712.712,0,0,0-.063-.357v-.04a1.879,1.879,0,0,0-.063-.357v-.056a1.83,1.83,0,0,0-.063-.341v-.087a.611.611,0,0,0-.056-.309v-.127l-.048-.278v-.143l-.048-.27v-.135a1.807,1.807,0,0,0-.056-.285v-.135a1.814,1.814,0,0,0-.055-.285v-.143a.5.5,0,0,0-.056-.277V279.6a.527.527,0,0,0-.056-.285v-.151a1.9,1.9,0,0,0-.055-.277v-.151a1.169,1.169,0,0,0-.063-.277V278.3a.472.472,0,0,0-.063-.285.935.935,0,0,0,0-.143,1.907,1.907,0,0,0-.056-.293v-.143l-.84-.523V276.8a1.468,1.468,0,0,0-.079-.349v-.079l-.1-.412h0c-.063-.285-.135-.571-.206-.856v-.063a1.921,1.921,0,0,0-.079-.357v-.127l-.071-.285a1.413,1.413,0,0,1-.04-.151l-.071-.27a.218.218,0,0,0-.04-.151c-.04-.048-.04-.166-.063-.254l-.048-.166a.885.885,0,0,0-.063-.238l-.048-.166-.063-.23-.047-.174a.861.861,0,0,0-.063-.222l-.048-.166a2.187,2.187,0,0,1-.063-.214.64.64,0,0,0-.056-.174c-.016-.056,0-.143-.063-.206s0-.111-.056-.174a1.917,1.917,0,0,0-.064-.2,1.366,1.366,0,0,0-.055-.167,2.04,2.04,0,0,0-.063-.206.2.2,0,0,0-.056-.159c-.056-.056-.04-.135-.063-.2s-.04-.1-.055-.159l-.071-.19a1.142,1.142,0,0,0-.056-.151,1.761,1.761,0,0,0-.063-.19,1.065,1.065,0,0,1-.055-.143l-.071-.19a.14.14,0,0,0-.055-.135l-.079-.19-.047-.127a.491.491,0,0,0-.087-.2.622.622,0,0,1-.04-.111l-.135-.285a20.61,20.61,0,0,0-11.788-10.836c-.706,2.465-2.481,9.362-2.053,15.061C309.773,277.964,311.026,285.352,311.612,288.625Z" transform="translate(-198.017 -209.759)" fill="#fff" stroke="#263238" stroke-linecap="round" stroke-linejoin="round" stroke-width="1"/>
      <path id="Path_6367" data-name="Path 6367" d="M286.551,208.807s-4.035,3.076-5.3,6.476-2.339,11.986-2.125,15.386,4.558,9.338,6.342,10.82,9.513-.214,13.159-3.607c2.521-2.378,4.669-10.5,2.973-18.462S291.751,206.9,286.551,208.807Z" transform="translate(-191.751 -199.58)" fill="#fff" stroke="#263238" stroke-linecap="round" stroke-linejoin="round" stroke-width="1"/>
      <path id="Path_6368" data-name="Path 6368" d="M292.92,228.15s2.331-2.442,6.254-.428" transform="translate(-194.616 -203.425)" fill="none" stroke="#263238" stroke-linecap="round" stroke-linejoin="round" stroke-width="1"/>
      <path id="Path_6369" data-name="Path 6369" d="M284.886,225.9a4.336,4.336,0,0,0-3.076-3.171" transform="translate(-192.313 -202.555)" fill="none" stroke="#263238" stroke-linecap="round" stroke-linejoin="round" stroke-width="1"/>
      <path id="Path_6370" data-name="Path 6370" d="M287.367,225.39a5.922,5.922,0,0,1-.959,2.759c-.745.745-2.331,1.482-1.7,2.973a2.216,2.216,0,0,0,3.393.951" transform="translate(-192.884 -203.107)" fill="none" stroke="#263238" stroke-linecap="round" stroke-linejoin="round" stroke-width="1"/>
      <path id="Path_6371" data-name="Path 6371" d="M282.07,219.911s1.807-2.228,4.756,0" transform="translate(-192.367 -201.766)" fill="none" stroke="#263238" stroke-linecap="round" stroke-linejoin="round" stroke-width="1"/>
      <path id="Path_6372" data-name="Path 6372" d="M292.25,221.36s3.5-2.124,6.254,1.8" transform="translate(-194.477 -202.152)" fill="none" stroke="#263238" stroke-linecap="round" stroke-linejoin="round" stroke-width="1"/>
      <path id="Path_6373" data-name="Path 6373" d="M284.48,236.705s1.49,2.013,5.549,1.482,4.986-2.228,4.986-2.228" transform="translate(-192.867 -205.298)" fill="none" stroke="#263238" stroke-linecap="round" stroke-linejoin="round" stroke-width="1"/>
      <path id="Path_6374" data-name="Path 6374" d="M296.133,228.137a1.007,1.007,0,1,1-1.007-1.007,1.007,1.007,0,0,1,1.007,1.007Z" transform="translate(-194.865 -203.468)" fill="#263238"/>
      <path id="Path_6375" data-name="Path 6375" d="M284.353,225.187a1.007,1.007,0,1,1-1.007-1.007A1.007,1.007,0,0,1,284.353,225.187Z" transform="translate(-192.423 -202.856)" fill="#263238"/>
      <path id="Path_6376" data-name="Path 6376" d="M287.43,238.3s1.7,3.5,4.669,3.171S294.858,237,294.858,237a10.82,10.82,0,0,1-7.428,1.3Z" transform="translate(-193.478 -205.514)" fill="#263238" stroke="#263238" stroke-linecap="round" stroke-linejoin="round" stroke-width="1"/>
      <path id="Path_6377" data-name="Path 6377" d="M295.849,197.391h-.238c-3.8.436-8.8,1.237-11.851,3.686-3.718,2.965-2.442,3.71.951,5.406s13.476,7.325,14.435,15.386-2.339,20.69-3.924,26.421A11.411,11.411,0,0,0,298.83,260.7a6.611,6.611,0,0,0,5.216,1.728,10.331,10.331,0,0,0,5.272-1.76c.151-.119,1.887-1.95,1.585-2.2-1.522-1.292-3.353.563-4.281-1.213-1.895-3.646,1.046-8.014,3.036-11.011,1.625-2.449,4.328-3.964,5.977-6.342a19.127,19.127,0,0,0,2.838-8.49,42.311,42.311,0,0,0-2.727-19.342c-2.941-7.848-9.029-14.824-17.995-14.8C297.133,197.288,296.483,197.32,295.849,197.391Z" transform="translate(-192.25 -197.28)" fill="#263238"/>
      <g id="Group_248" data-name="Group 248" transform="translate(89.255 0)" clip-path="url(#clip-path-3)">
        <path id="Path_6378" data-name="Path 6378" d="M278.41,201.62a28.383,28.383,0,0,1,18.169,10.8c7.071,9.6,9.084,16.116,8.91,25.026s7.031,13.032,12.342,10.456" transform="translate(-280.864 -198.18)" fill="none" stroke="#636363" stroke-linecap="round" stroke-linejoin="round" stroke-width="1"/>
        <path id="Path_6379" data-name="Path 6379" d="M290.73,198.16s14.4,2.743,19.025,17.138,2.751,23.163,8.934,24.344" transform="translate(-283.418 -197.462)" fill="none" stroke="#636363" stroke-linecap="round" stroke-linejoin="round" stroke-width="1"/>
        <path id="Path_6380" data-name="Path 6380" d="M299.81,232.11s5.319,12.858,3.964,25.026,3.964,14.4,12.517,12.168" transform="translate(-285.3 -204.5)" fill="none" stroke="#636363" stroke-linecap="round" stroke-linejoin="round" stroke-width="1"/>
      </g>
      <path id="Path_6382" data-name="Path 6382" d="M295.849,197.391h-.238c-3.8.436-8.8,1.237-11.851,3.686-3.718,2.965-2.442,3.71.951,5.406s13.476,7.325,14.435,15.386-2.339,20.69-3.924,26.421A11.411,11.411,0,0,0,298.83,260.7a6.611,6.611,0,0,0,5.216,1.728,10.331,10.331,0,0,0,5.272-1.76c.151-.119,1.887-1.95,1.585-2.2-1.522-1.292-3.353.563-4.281-1.213-1.895-3.646,1.046-8.014,3.036-11.011,1.625-2.449,4.328-3.964,5.977-6.342a19.127,19.127,0,0,0,2.838-8.49,42.311,42.311,0,0,0-2.727-19.342c-2.941-7.848-9.029-14.824-17.995-14.8C297.133,197.288,296.483,197.32,295.849,197.391Z" transform="translate(-192.25 -197.28)" fill="none" stroke="#263238" stroke-linecap="round" stroke-linejoin="round" stroke-width="1"/>
      <path id="Path_6383" data-name="Path 6383" d="M233.963,267.589a7.928,7.928,0,0,0,2.973,1.7,33.616,33.616,0,0,1,1.585,9.338,57.864,57.864,0,0,0,.587,8.411h13a83.1,83.1,0,0,1-6.056-12.866c-2.013-6.048-1.165-9.449-2.545-13.373s-2.021-5.834-4.352-8.91-4.455-2.124-4.455-1.062,1.268,1.482,2.228,2.973a17.439,17.439,0,0,1,1.585,3.5s-4.463,2.021-5.731,4.249A5.064,5.064,0,0,0,233.963,267.589Z" transform="translate(-182.033 -208.167)" fill="#fff" stroke="#263238" stroke-linecap="round" stroke-linejoin="round" stroke-width="1"/>
      <path id="Path_6384" data-name="Path 6384" d="M230.1,262.47s-1.7,1.585-1.7,3.171,1.268,3.821,1.91,3.821.951-1.165.634-2.331S230.1,262.47,230.1,262.47Z" transform="translate(-181.242 -210.793)" fill="#fff" stroke="#263238" stroke-linecap="round" stroke-linejoin="round" stroke-width="1"/>
      <path id="Path_6385" data-name="Path 6385" d="M232.377,259.64a6.9,6.9,0,0,0-2.545,2.87,4.677,4.677,0,0,0,.848,4.035c.634.951,2.545,1.165,3.076.634s.1-1.7,0-2.378-1.165-2.759-1.062-3.71a14.455,14.455,0,0,0,.111-1.49Z" transform="translate(-181.509 -210.198)" fill="#fff" stroke="#263238" stroke-linecap="round" stroke-linejoin="round" stroke-width="1"/>
      <path id="Path_6386" data-name="Path 6386" d="M238.443,259s-2.767-1.7-4.883-.531-2.021,3.5-1.276,5.2,2.656,2.656,3.5,1.91-.111-1.91.1-3.5S238.443,259,238.443,259Z" transform="translate(-181.947 -209.88)" fill="#fff" stroke="#263238" stroke-linecap="round" stroke-linejoin="round" stroke-width="1"/>
      <path id="Path_6387" data-name="Path 6387" d="M241.307,262.276s-2.235-2.973-4.249-2.759-5.3,3.964-4.669,4.883,4.431-.539,4.431-.539-1.062,3.5,1.585,4.241" transform="translate(-182.052 -210.179)" fill="#fff" stroke="#263238" stroke-linecap="round" stroke-linejoin="round" stroke-width="1"/>
      <line id="Line_45" data-name="Line 45" x1="130.028" transform="translate(0 78.867)" fill="none" stroke="#263238" stroke-linecap="round" stroke-linejoin="round" stroke-width="1"/>
    </g>
    <g id="freepik--character-3--inject-13" transform="translate(140.423 229.863)">
      <line id="Line_46" data-name="Line 46" x1="130.028" transform="translate(0.752 72.905)" fill="none" stroke="#263238" stroke-linecap="round" stroke-linejoin="round" stroke-width="1"/>
      <path id="Path_6388" data-name="Path 6388" d="M238.646,367.258S239.8,357,235.824,354.3s-21.276-15.125-27.943-16.647-10.765-2.949-13.476-1.411S180.58,347.8,175.967,350.976s-6.92,6.54-7.562,8.973a26.62,26.62,0,0,0-.388,6.54v1.023S238.908,367,238.646,367.258Z" transform="translate(-167.961 -294.606)" fill="#e8d8fd" stroke="#263238" stroke-linecap="round" stroke-linejoin="round" stroke-width="1"/>
      <path id="Path_6389" data-name="Path 6389" d="M200.542,336.226a31.225,31.225,0,0,0-3.052,2.251,20.453,20.453,0,0,0,1.585,7.673c3.314,8.054,10.773,12.62,16.647,10.2,5.01-2.061,7.285-8.5,5.834-15.323a33.72,33.72,0,0,0-7.562-3.393C207.335,336.1,203.237,334.688,200.542,336.226Z" transform="translate(-174.082 -294.601)" fill="#fff" stroke="#263238" stroke-linecap="round" stroke-linejoin="round" stroke-width="1"/>
      <path id="Path_6390" data-name="Path 6390" d="M202.958,321.159a106.114,106.114,0,0,1-.9,11.153c-.642,3.329-.642,7.824,2.568,13.476s11.019,5.383,13.476,3.171,1.918-8.331,1.918-10.638a49.158,49.158,0,0,1,1.356-7.729s-7.507-2.909-11.352-5.47S204.242,320.39,202.958,321.159Z" transform="translate(-174.96 -291.583)" fill="#fff" stroke="#263238" stroke-linecap="round" stroke-linejoin="round" stroke-width="1"/>
      <path id="Path_6391" data-name="Path 6391" d="M223.882,294.726s3.076,5.256,3.845,6.793a4.344,4.344,0,0,1-.388,4.225c-.7.975,5.549,4.019,5.438,5.62s-.674,2.481-1.934,4.3c-1.379,1.982-.864,5.3-1.474,7.634-.515,1.982-1.149,2.473-3.171,3.218-3.853,1.411-11.027.9-14.618-.9s-4.867-5-6.151-7.309-1.411-6.54-.642-11.027,6.793-10.511,10.638-12.176S223.882,294.726,223.882,294.726Z" transform="translate(-175.496 -286.038)" fill="#fff" stroke="#263238" stroke-linecap="round" stroke-linejoin="round" stroke-width="1"/>
      <path id="Path_6392" data-name="Path 6392" d="M232.038,324.526a8.117,8.117,0,0,1-6.278-.9s0,3.845,1.926,3.964S232.038,324.526,232.038,324.526Z" transform="translate(-179.942 -292.128)" fill="#263238"/>
      <path id="Path_6393" data-name="Path 6393" d="M228.555,311.306c.2.864,0,1.649-.46,1.752s-.967-.515-1.165-1.379,0-1.649.46-1.752S228.333,310.442,228.555,311.306Z" transform="translate(-180.169 -289.285)" fill="#263238"/>
      <path id="Path_6394" data-name="Path 6394" d="M222.69,307.92a4.376,4.376,0,0,1,4.1-1.926" transform="translate(-179.306 -288.467)" fill="none" stroke="#263238" stroke-linecap="round" stroke-linejoin="round" stroke-width="1"/>
      <path id="Path_6395" data-name="Path 6395" d="M236.811,319.661s-1.982,2.14-3.21,2.3-2.6-1.53-1.99-2.6" transform="translate(-181.124 -291.243)" fill="none" stroke="#263238" stroke-linecap="round" stroke-linejoin="round" stroke-width="1"/>
      <path id="Path_6396" data-name="Path 6396" d="M206.12,313.466c.61-.2,3.591.262,3.171-1.411s-1.276-1.918-.642-3.171,7.182-4.36,5.771-6.92a26.1,26.1,0,0,0-3.329-4.614s10.765-2.053,13.072-5.256-.254-8.2-2.949-8.2-1.411.9-8.585,3.171-10.773-.507-16.155,5.129-3.718,16.647-1.665,20.127,6.151,6.278,8.2,5.509S204.583,313.981,206.12,313.466Z" transform="translate(-173.121 -283.89)" fill="#263238" stroke="#263238" stroke-linecap="round" stroke-linejoin="round" stroke-width="1"/>
      <path id="Path_6397" data-name="Path 6397" d="M209.648,321.488s-4.756-6.025-7.927-4.106,1.538,7.7,3.591,8.339,4.487-.9,4.487-.9" transform="translate(-174.738 -290.754)" fill="#fff" stroke="#263238" stroke-linecap="round" stroke-linejoin="round" stroke-width="1"/>
    </g>
    <g id="freepik--character-4--inject-13" transform="translate(140.192 268.242)">
      <line id="Line_47" data-name="Line 47" x1="130.155" transform="translate(0 71.047)" fill="none" stroke="#263238" stroke-linecap="round" stroke-linejoin="round" stroke-width="1"/>
      <path id="Path_6398" data-name="Path 6398" d="M245.739,411.539s-.119-7.055.935-8.117,27.047-15.283,34.34-15.172,17.257,10.044,22.576,12.683c8.466,4.233,8.466,6.579,9.172,8.934s1.292,5.057,1.292,5.057H245.739Z" transform="translate(-183.852 -343.902)" fill="#fff"/>
      <g id="Group_249" data-name="Group 249" transform="translate(61.883 44.348)" clip-path="url(#clip-path-4)">
        <path id="Path_6399" data-name="Path 6399" d="M313.733,413.508q-2.949-.2-6.342-.349l.9-5.66,3.726.159a7.927,7.927,0,0,0-1.982-2.608l-1.348-.056.151-.919c-.182-.135-.373-.277-.579-.412l-.206,1.308-1.213-.048.317-1.982h0c-.682-.42-1.459-.864-2.339-1.332l-.1.563c-2.592-.143-5.2-.246-7.8-.325l.436-3.964,1.585.04c-1.53-1.11-3.171-2.378-4.907-3.583l-.143.967c-2.862-.04-5.715-.056-8.522-.063l.531-5.787-.61-.254-.555,6.04h-1.284l.484-6.516a11.437,11.437,0,0,0-2.489-.468l-.523,6.992h-4.495l.476-6.342-.65.2-.46,6.12H273.67l.166-5.319c-.793.293-1.673.626-2.545.975l-.135,4.376c-2.2,0-4.336.071-6.381.119l.079-1.681-.642.3-.071,1.4H262.5v-.626c-2.315,1.118-4.574,2.251-6.635,3.329l3.964-.119-.159,4.043-4.2.3.143-3.964-.642.333-.127,3.646-1.11.056.166-3.171c-.935.5-1.807.967-2.6,1.4l-.1,1.879-3.551.214a6.863,6.863,0,0,0-.927.626l-.055.071,4.5-.277-.1,1.942-4.97.19c-.119.793-.19,1.665-.238,2.529,1.443-.056,3.171-.127,5.073-.19l-.277,5.24-4.867.1v.626l4.836-.1-.071,1.4h2.521l.071-1.443h1.308l-.055,1.459h.634l.048-1.474,4.257-.063-.063,1.538h2.521l.063-1.585h1.506l-.071,1.585h.634L264,413.3l6.651-.056-.048,1.649h2.513l.056-1.657h1.324l-.119,1.665H275l.127-1.665h4.487l-.127,1.673h2.521l.127-1.665h.991l-.151,1.657h.634l.151-1.657c2.529,0,5.057,0,7.555.063l-.23,1.585h2.537l.23-1.585h1.221l-.166,1.53h.634l.166-1.522c2.473.048,4.891.111,7.229.19l-.214,1.332h2.545l.2-1.245,1.245.048-.19,1.2h.634l.182-1.165c2.331.1,4.526.222,6.564.357A1.908,1.908,0,0,1,313.733,413.508Zm-59.295-.65h-1.3l.277-5.279,1.2-.04Zm.27-7.816-1.157.04.111-2.006,1.118-.056Zm4.614,7.745-4.257.063.182-5.311,4.289-.119Zm.309-7.887-4.3.119.071-2.029c1.348-.071,2.79-.135,4.312-.2Zm3.726,7.84h-1.514l.214-5.406h1.585Zm.373-7.927-1.585.04.087-2.148,1.585-.063Zm.127-2.8-1.585.055.159-4h1.625Zm6.778,10.678-6.643.055.246-5.43,6.564-.127Zm.246-8.014c-2.251,0-4.431.071-6.524.119l.1-2.18c2.061-.071,4.233-.135,6.492-.182Zm.087-2.878c-2.251.055-4.415.119-6.476.19l.182-3.964c2.061-.047,4.209-.087,6.421-.119Zm2.64-3.964h2.029l-.293,3.876h-1.855Zm.888,14.792h-1.348l.174-5.549h1.585Zm-1.126-8.038.071-2.259h1.823l-.166,2.275Zm6.278,8.038H275.16l.412-5.549h4.495Zm.6-8.086h-4.487l.166-2.275q2.212,0,4.495-.048Zm.222-2.917-4.495.04.285-3.868h4.495Zm2.814-3.868h1.245l-.349,3.861h-1.189Zm-.119,14.871h-1l.42-5.589h1.094Zm-.388-8.109.166-2.283h1.173l-.206,2.283Zm8.609,8.181c-2.5,0-5.042-.056-7.586-.063l.515-5.6c2.6,0,5.232,0,7.887.04Zm1.181-8.133c-2.7,0-5.382-.048-8.022-.048l.206-2.283c2.671,0,5.4.04,8.141.1Zm.42-2.862c-2.759-.055-5.493-.087-8.181-.1l.357-3.861c2.767,0,5.549,0,8.387.063Zm3.107-3.853h.674l-.436,3.964h-.793Zm-.666,4.542h.84l-.246,2.2h-.912Zm-.325,10.4h-1.2l.793-5.628h1Zm7.927.2c-2.378-.079-4.756-.143-7.253-.19l.618-5.636c2.521.04,5.042.1,7.555.174Zm1.324-8.157c-2.553-.079-5.121-.135-7.681-.182l.238-2.18c2.592.079,5.184.182,7.776.325Zm2.449,8.3-1.237-.055.92-5.652,1.221.04Z" transform="translate(-245.746 -388.251)" fill="#adadad"/>
      </g>
      <path id="Path_6401" data-name="Path 6401" d="M245.739,411.539s-.119-7.055.935-8.117,27.047-15.283,34.34-15.172,17.257,10.044,22.576,12.683c8.466,4.233,8.466,6.579,9.172,8.934s1.292,5.057,1.292,5.057H245.739Z" transform="translate(-183.852 -343.902)" fill="none" stroke="#263238" stroke-linecap="round" stroke-linejoin="round" stroke-width="1"/>
      <path id="Path_6402" data-name="Path 6402" d="M282.948,384.622s-3.528.238-4.463,2.006-.476,2.822-2.378,8.109-2.941,6.825-1.879,6.825,3.964-3.06,5.05-3.528,3.535,3.639,3.535,3.639,4.7-2.465,6.231-2.584,4.82,6.231,5.406,5.176,2.116-4.939,3.765-8.466,2-6.468.587-8.823S284.13,383.916,282.948,384.622Z" transform="translate(-189.671 -343.096)" fill="#dfdce2" stroke="#263238" stroke-linecap="round" stroke-linejoin="round" stroke-width="1"/>
      <path id="Path_6403" data-name="Path 6403" d="M282.555,383.21a39.866,39.866,0,0,0-.119,10.939c.793,5.287,2.006,8.347,2.941,7.642s6.706-4.233,9.647-7.88,3.409-4.114,4.233-6.112,1.76-4.233,1.76-4.233S290.086,387.681,282.555,383.21Z" transform="translate(-191.394 -342.857)" fill="#fff" stroke="#263238" stroke-linecap="round" stroke-linejoin="round" stroke-width="1"/>
      <path id="Path_6404" data-name="Path 6404" d="M281.885,358.39s-2.117-3.29-3.29.595,1.641,5.993,2,5.755S281.885,358.39,281.885,358.39Z" transform="translate(-190.605 -337.442)" fill="#fff" stroke="#263238" stroke-linecap="round" stroke-linejoin="round" stroke-width="1"/>
      <path id="Path_6405" data-name="Path 6405" d="M282.906,345.024s-3.884,16.813-4.709,21.641,4.471,9.283,10.353,10.107,11.518-2,13.048-4.939,6.342-21.752,7.055-23.044,3.171-6.936,1.3-8.823-4.939-.468-4.939-.468-2.124-5.414-5.763-5.549-4.122,1.522-4.122,1.522-3.171-3.876-6.112-3.052-2.941,2.7-2.941,2.7-5.406-1.292-7.4,2.584,3.528,5.058,3.528,5.058S281.02,344.437,282.906,345.024Z" transform="translate(-190.564 -332.305)" fill="#fff" stroke="#263238" stroke-linecap="round" stroke-linejoin="round" stroke-width="1"/>
      <path id="Path_6406" data-name="Path 6406" d="M311.055,365c.357-.119,2.711-3.884,4.939-2.378s-.349,7.293-2.228,8.228a2.608,2.608,0,0,1-3.646-1.292" transform="translate(-197.199 -338.515)" fill="#fff" stroke="#263238" stroke-linecap="round" stroke-linejoin="round" stroke-width="1"/>
      <path id="Path_6407" data-name="Path 6407" d="M309.949,340c-1.887-1.879-4.939-.468-4.939-.468s-2.124-5.414-5.763-5.549-4.122,1.522-4.122,1.522-3.171-3.876-6.112-3.052-2.941,2.7-2.941,2.7-5.406-1.292-7.4,2.584,3.528,5.057,3.528,5.057-1.181,1.649.706,2.235c.706-.706,2.117-3.876,9.29-3.964s12.929,5.057,12.929,5.057-2.584,3.052-1.76,4.344,1.76,1.181,1.649,2.235-2.378,10.7-3.3,12.231a4.368,4.368,0,0,1-4.7,1.768c-1.649-.476-2.592-1.649-5.549-3.171s-5.414-2.117-7.531-1.292-2.235,1.53-3.409,1.879c-1.015.309-1.332-.357-1.625-1.142-.317,1.53-.571,2.838-.729,3.734-.793,4.82,4.471,9.283,10.353,10.107s11.518-2,13.048-4.939,6.342-21.752,7.055-23.044S311.828,341.859,309.949,340Z" transform="translate(-190.559 -332.311)" fill="#263238" stroke="#263238" stroke-linecap="round" stroke-linejoin="round" stroke-width="1"/>
      <path id="Path_6408" data-name="Path 6408" d="M286.09,372.83s4.344,2.7,7.285,1.054c0,0-2.941,3.528-4.463,3.528S286.09,372.83,286.09,372.83Z" transform="translate(-192.218 -340.705)" fill="#fff" stroke="#263238" stroke-linecap="round" stroke-linejoin="round" stroke-width="1"/>
      <path id="Path_6409" data-name="Path 6409" d="M288.167,359.254a3.964,3.964,0,1,1-3.964-3.964,3.964,3.964,0,0,1,3.964,3.964Z" transform="translate(-191.005 -337.069)" fill="none" stroke="#263238" stroke-linecap="round" stroke-linejoin="round" stroke-width="1"/>
      <path id="Path_6410" data-name="Path 6410" d="M302.557,361.774a3.964,3.964,0,1,1-3.964-3.964A3.964,3.964,0,0,1,302.557,361.774Z" transform="translate(-193.988 -337.592)" fill="none" stroke="#263238" stroke-linecap="round" stroke-linejoin="round" stroke-width="1"/>
      <path id="Path_6411" data-name="Path 6411" d="M290.39,359.718a3.568,3.568,0,0,1,3.646.793" transform="translate(-193.109 -337.946)" fill="none" stroke="#263238" stroke-linecap="round" stroke-linejoin="round" stroke-width="1"/>
      <line id="Line_48" data-name="Line 48" x2="7.642" y2="0.293" transform="translate(108.569 24.182)" fill="none" stroke="#263238" stroke-linecap="round" stroke-linejoin="round" stroke-width="1"/>
      <path id="Path_6412" data-name="Path 6412" d="M290.447,360.37a54.224,54.224,0,0,0-2.584,5.644c-.238,1.054,1.054,1.641,2.7,1.641s2.378-.706,2.378-1.411" transform="translate(-192.579 -338.122)" fill="none" stroke="#263238" stroke-linecap="round" stroke-linejoin="round" stroke-width="1"/>
      <path id="Path_6413" data-name="Path 6413" d="M289.079,354.027a.99.99,0,0,1-.46-.119,4.051,4.051,0,0,0-4.178-.159.954.954,0,1,1-1.062-1.585,5.946,5.946,0,0,1,6.167.071.943.943,0,0,1-.468,1.768Z" transform="translate(-191.568 -336.25)" fill="#263238"/>
      <path id="Path_6414" data-name="Path 6414" d="M303.316,358.444a.951.951,0,0,1-.793-.4,4.931,4.931,0,0,0-5.3-2.117.943.943,0,0,1-.563-1.8,6.793,6.793,0,0,1,7.4,2.822.943.943,0,0,1-.793,1.49Z" transform="translate(-194.279 -336.783)" fill="#263238"/>
      <ellipse id="Ellipse_76" data-name="Ellipse 76" cx="0.761" cy="1.411" rx="0.761" ry="1.411" transform="translate(92.929 20.947)" fill="#263238" stroke="#263238" stroke-linecap="round" stroke-linejoin="round" stroke-width="1"/>
      <path id="Path_6415" data-name="Path 6415" d="M299.465,362.371c0,.793-.341,1.411-.793,1.411s-.793-.634-.793-1.411.341-1.411.793-1.411S299.465,361.594,299.465,362.371Z" transform="translate(-194.662 -338.245)" fill="#263238" stroke="#263238" stroke-linecap="round" stroke-linejoin="round" stroke-width="1"/>
    </g>
    <g id="freepik--Emojis--inject-13" transform="translate(46.161 34.036)">
      <circle id="Ellipse_77" data-name="Ellipse 77" cx="22.132" cy="22.132" r="22.132" transform="translate(3.349 139.891) rotate(-51.85)" fill="none" stroke="#263238" stroke-width="1"/>
      <path id="Path_6416" data-name="Path 6416" d="M81.76,212.617s14.943.793,20.087-12.937" transform="translate(-55.831 -70.606)" fill="none" stroke="#263238" stroke-linecap="round" stroke-linejoin="round" stroke-width="2"/>
      <path id="Path_6417" data-name="Path 6417" d="M96.3,194.562c.793,1.118.975,2.331.436,2.711s-1.585-.222-2.378-1.34-.975-2.323-.436-2.7S95.5,193.452,96.3,194.562Z" transform="translate(-58.287 -69.246)" fill="#263238"/>
      <path id="Path_6418" data-name="Path 6418" d="M84.078,202.382c.793,1.11.983,2.323.436,2.7s-1.585-.214-2.378-1.332-.975-2.331-.436-2.7S83.293,201.265,84.078,202.382Z" transform="translate(-55.754 -70.867)" fill="#263238"/>
      <path id="Path_6419" data-name="Path 6419" d="M410.576,196.31a15.664,15.664,0,1,0,4.121-11.268,15.664,15.664,0,0,0-4.121,11.268Z" transform="translate(-123.989 -66.523)" fill="none" stroke="#263238" stroke-width="1"/>
      <path id="Path_6420" data-name="Path 6420" d="M435.108,199.67s-8.339,6.532-16.908.674" transform="translate(-125.572 -70.604)" fill="none" stroke="#263238" stroke-linecap="round" stroke-linejoin="round" stroke-width="2"/>
      <ellipse id="Ellipse_78" data-name="Ellipse 78" cx="0.848" cy="1.744" rx="0.848" ry="1.744" transform="translate(295.767 122.566)" fill="#263238"/>
      <path id="Path_6421" data-name="Path 6421" d="M432.4,192.784c0,.967.381,1.744.848,1.744s.848-.793.848-1.744-.381-1.744-.848-1.744S432.4,191.8,432.4,192.784Z" transform="translate(-128.515 -68.815)" fill="#263238"/>
      <circle id="Ellipse_79" data-name="Ellipse 79" cx="20.943" cy="20.943" r="20.943" transform="translate(18.663 298.952) rotate(-45.8)" fill="none" stroke="#263238" stroke-width="1"/>
      <path id="Path_6422" data-name="Path 6422" d="M95.07,419.582s13.476-7.681,26.453-9.512c0,0,3.726,12.271-8.72,17.027C102.085,431.18,95.07,419.582,95.07,419.582Z" transform="translate(-58.59 -114.219)" fill="none" stroke="#263238" stroke-width="1"/>
      <path id="Path_6423" data-name="Path 6423" d="M97.308,412.439a1.245,1.245,0,0,1-1.094-.666l-3.052-5.906a1.229,1.229,0,0,1,2.18-1.126l3.052,5.906a1.229,1.229,0,0,1-.523,1.657,1.309,1.309,0,0,1-.563.135Z" transform="translate(-58.172 -112.989)" fill="#263238"/>
      <path id="Path_6424" data-name="Path 6424" d="M118.313,404.8a1.237,1.237,0,0,1-1.2-.975l-1.419-6.714a1.229,1.229,0,0,1,2.378-.515l1.419,6.722a1.229,1.229,0,0,1-.943,1.459Z" transform="translate(-62.863 -111.26)" fill="#263238"/>
      <path id="Path_6425" data-name="Path 6425" d="M118.437,428.4c-1.134-2.782-5.073-3.916-8.926-2.529a8.886,8.886,0,0,0-4.7,3.726" transform="translate(-60.609 -117.372)" fill="none" stroke="#263238" stroke-width="1"/>
      <path id="Path_6426" data-name="Path 6426" d="M416.809,294.07a12.216,12.216,0,1,0,15.64-7.34A12.216,12.216,0,0,0,416.809,294.07Z" transform="translate(-125.132 -88.5)" fill="none" stroke="#263238" stroke-width="1"/>
      <path id="Path_6427" data-name="Path 6427" d="M436.076,305.009s-7.856-4.487-15.426-5.549c0,0-2.172,7.134,5.065,9.933C431.962,311.779,436.076,305.009,436.076,305.009Z" transform="translate(-126.017 -91.29)" fill="none" stroke="#263238" stroke-width="1"/>
      <path id="Path_6428" data-name="Path 6428" d="M438.044,300.826a.713.713,0,0,0,.642-.38L440.461,297a.721.721,0,0,0-.3-.967.729.729,0,0,0-.967.309l-1.784,3.448a.714.714,0,0,0,.309.959A.681.681,0,0,0,438.044,300.826Z" transform="translate(-129.538 -90.563)" fill="#263238"/>
      <path id="Path_6429" data-name="Path 6429" d="M426.063,296.354a.714.714,0,0,0,.7-.571l.832-3.916a.713.713,0,1,0-1.4-.293l-.832,3.916a.713.713,0,0,0,.547.848Z" transform="translate(-127.054 -89.532)" fill="#263238"/>
      <path id="Path_6430" data-name="Path 6430" d="M424.46,310.147c.658-1.585,2.965-2.283,5.208-1.467a5.089,5.089,0,0,1,2.735,2.172" transform="translate(-126.87 -93.13)" fill="none" stroke="#263238" stroke-width="1"/>
      <circle id="Ellipse_80" data-name="Ellipse 80" cx="19.247" cy="19.247" r="19.247" transform="translate(235.761 207.032) rotate(-74.61)" fill="none" stroke="#263238" stroke-width="1"/>
      <path id="Path_6431" data-name="Path 6431" d="M357.278,275.477a.745.745,0,0,1-.547-1.371l4.8-2.584-3.21-.111a.746.746,0,1,1,.055-1.49l5.953.206a.728.728,0,0,1,.325,1.371l-7.214,3.884Z" transform="translate(-112.752 -85.166)" fill="#263238"/>
      <path id="Path_6432" data-name="Path 6432" d="M387.594,266.818a.662.662,0,0,1-.174,0l-7.832.254a.745.745,0,0,1-.42-1.379l5.287-3.3a.793.793,0,0,1,1.03.238.745.745,0,0,1-.238,1.023l-2.949,1.839,5.073-.159a.745.745,0,0,1,.222,1.459Z" transform="translate(-117.407 -83.586)" fill="#263238"/>
      <path id="Path_6433" data-name="Path 6433" d="M357.12,279.11c4.082,7.523,11.328,11.811,17.995,9.972s10.7-9.219,10.361-17.773l-2.576.27a73.826,73.826,0,0,0-23.781,6.587Z" transform="translate(-112.911 -85.455)" fill="none" stroke="#263238" stroke-width="1"/>
      <path id="Path_6434" data-name="Path 6434" d="M368.325,290.08a6.768,6.768,0,0,1-.1-1.134c0-4.36,3.868-7.927,8.641-7.927a8.72,8.72,0,0,1,7.784,4.463" transform="translate(-115.214 -87.467)" fill="none" stroke="#263238" stroke-width="1"/>
      <circle id="Ellipse_81" data-name="Ellipse 81" cx="14.253" cy="14.253" r="14.253" transform="translate(43.165 185.837) rotate(-20.51)" fill="none" stroke="#263238" stroke-width="1"/>
      <path id="Path_6435" data-name="Path 6435" d="M139.089,277.684a.547.547,0,0,0,.626-.27.539.539,0,0,0-.222-.745l-3.551-1.918,2.378-.079a.563.563,0,0,0,.531-.571.547.547,0,0,0-.571-.531l-4.407.151a.555.555,0,0,0-.238,1.038l5.335,2.878Z" transform="translate(-66.525 -85.923)" fill="#263238"/>
      <path id="Path_6436" data-name="Path 6436" d="M116.514,271.287h.127l5.795.182a.547.547,0,0,0,.309-1.015l-3.916-2.441a.574.574,0,1,0-.618.967l2.18,1.356-3.757-.119a.547.547,0,0,0-.563.531A.555.555,0,0,0,116.514,271.287Z" transform="translate(-62.943 -84.75)" fill="#263238"/>
      <path id="Path_6437" data-name="Path 6437" d="M135.395,280.379c-3.02,5.549-8.387,8.72-13.325,7.38s-7.927-6.825-7.673-13.159l1.91.2a54.7,54.7,0,0,1,17.59,4.875Z" transform="translate(-62.593 -86.137)" fill="none" stroke="#263238" stroke-width="1"/>
      <path id="Path_6438" data-name="Path 6438" d="M129.417,288.5a5.906,5.906,0,0,0,.063-.84,6.137,6.137,0,0,0-6.4-5.842,6.484,6.484,0,0,0-5.763,3.3" transform="translate(-63.202 -87.633)" fill="none" stroke="#263238" stroke-width="1"/>
      <circle id="Ellipse_82" data-name="Ellipse 82" cx="22.132" cy="22.132" r="22.132" transform="translate(247.526 73.163) rotate(-82.3)" fill="none" stroke="#263238" stroke-width="1"/>
      <path id="Path_6439" data-name="Path 6439" d="M381.21,95.965c0,1.363.531,2.473,1.2,2.473s1.189-1.11,1.189-2.473-.531-2.465-1.189-2.465S381.21,94.6,381.21,95.965Z" transform="translate(-117.904 -48.596)" fill="#263238"/>
      <path id="Path_6440" data-name="Path 6440" d="M395.67,95.355c0,1.363.531,2.465,1.189,2.465s1.2-1.1,1.2-2.465-.539-2.465-1.2-2.465S395.67,94,395.67,95.355Z" transform="translate(-120.902 -48.47)" fill="#263238"/>
      <line id="Line_49" data-name="Line 49" x2="5.414" y2="5.858" transform="translate(262.172 40.362)" fill="none" stroke="#263238" stroke-linecap="round" stroke-linejoin="round" stroke-width="2"/>
      <line id="Line_50" data-name="Line 50" x1="4.97" y2="6.143" transform="translate(271.685 39.926)" fill="none" stroke="#263238" stroke-linecap="round" stroke-linejoin="round" stroke-width="2"/>
      <path id="Path_6441" data-name="Path 6441" d="M379.23,110.648s7.134-8.49,16.972-1.585" transform="translate(-117.494 -51.261)" fill="none" stroke="#263238" stroke-linecap="round" stroke-linejoin="round" stroke-width="2"/>
      <circle id="Ellipse_83" data-name="Ellipse 83" cx="15.553" cy="15.553" r="15.553" transform="translate(0 214.047) rotate(-0.573)" fill="none" stroke="#263238" stroke-width="1"/>
      <path id="Path_6442" data-name="Path 6442" d="M68.561,316.455c.658.705.912,1.53.571,1.847s-1.141,0-1.8-.706-.9-1.522-.563-1.839S67.911,315.758,68.561,316.455Z" transform="translate(-52.691 -94.643)" fill="#263238"/>
      <path id="Path_6443" data-name="Path 6443" d="M60.831,323.065c.658.706.912,1.53.571,1.847s-1.142,0-1.8-.7-.9-1.53-.563-1.847S60.181,322.368,60.831,323.065Z" transform="translate(-51.089 -96.013)" fill="#263238"/>
      <line id="Line_51" data-name="Line 51" x2="0.008" y2="5.604" transform="translate(13.103 217.667)" fill="none" stroke="#263238" stroke-linecap="round" stroke-linejoin="round" stroke-width="2"/>
      <line id="Line_52" data-name="Line 52" x2="5.501" y2="0.785" transform="translate(5.438 224.373)" fill="none" stroke="#263238" stroke-linecap="round" stroke-linejoin="round" stroke-width="2"/>
      <path id="Path_6444" data-name="Path 6444" d="M74.862,323.512a8.726,8.726,0,0,0-9.512,7.3" transform="translate(-52.429 -96.269)" fill="none" stroke="#263238" stroke-linecap="round" stroke-linejoin="round" stroke-width="2"/>
      <path id="Path_6445" data-name="Path 6445" d="M138.865,50.26A20.943,20.943,0,1,1,104.9,63.934" transform="translate(-60.593 -39.633)" fill="none" stroke="#263238" stroke-width="1"/>
      <path id="Path_6446" data-name="Path 6446" d="M122.61,45.6a20.928,20.928,0,0,1,3.171-.793" transform="translate(-64.298 -38.503)" fill="none" stroke="#263238" stroke-width="1"/>
      <path id="Path_6447" data-name="Path 6447" d="M116.28,76.972s13.476-7.689,26.445-9.512c0,0,3.726,12.279-8.68,17.027C123.288,88.562,116.28,76.972,116.28,76.972Z" transform="translate(-62.986 -43.198)" fill="none" stroke="#263238" stroke-width="1"/>
      <path id="Path_6448" data-name="Path 6448" d="M139.679,85.784c-1.126-2.782-5.073-3.916-8.926-2.529a8.886,8.886,0,0,0-4.693,3.734" transform="translate(-65.014 -46.35)" fill="none" stroke="#263238" stroke-width="1"/>
      <path id="Path_6449" data-name="Path 6449" d="M119.141,47.477a6.342,6.342,0,0,0-11.772,3.1,6.342,6.342,0,0,0-8.292,8.91c2.973,4.962,17.043,5.818,17.043,5.818S122.938,53.811,119.141,47.477Z" transform="translate(-59.236 -38.419)" fill="none" stroke="#263238" stroke-width="1"/>
      <path id="Path_6450" data-name="Path 6450" d="M145.305,43.51a5.121,5.121,0,0,0-9.084-3.765,5.113,5.113,0,0,0-9.687,1.665c-.515,4.637,8.1,12.073,8.1,12.073S144.64,49.439,145.305,43.51Z" transform="translate(-65.107 -36.854)" fill="none" stroke="#263238" stroke-width="1"/>
      <path id="Path_6451" data-name="Path 6451" d="M370.821,376.86a15.957,15.957,0,1,0,25.866,10.416" transform="translate(-114.522 -107.334)" fill="none" stroke="#263238" stroke-width="1"/>
      <path id="Path_6452" data-name="Path 6452" d="M390.906,373.306a15.856,15.856,0,0,0-2.426-.626" transform="translate(-119.411 -106.468)" fill="none" stroke="#263238" stroke-width="1"/>
      <path id="Path_6453" data-name="Path 6453" d="M391,397.2s-10.258-5.858-20.151-7.269c0,0-2.838,9.346,6.619,12.961C385.653,406.03,391,397.2,391,397.2Z" transform="translate(-115.673 -110.044)" fill="none" stroke="#263238" stroke-width="1"/>
      <path id="Path_6454" data-name="Path 6454" d="M375.83,403.919c.856-2.117,3.861-2.981,6.793-1.926a6.762,6.762,0,0,1,3.583,2.838" transform="translate(-116.789 -112.451)" fill="none" stroke="#263238" stroke-width="1"/>
      <path id="Path_6455" data-name="Path 6455" d="M389.773,374.737a4.828,4.828,0,0,1,8.966,2.378,4.828,4.828,0,0,1,6.342,6.786c-2.267,3.781-12.984,4.431-12.984,4.431S386.9,379.565,389.773,374.737Z" transform="translate(-119.499 -106.409)" fill="none" stroke="#263238" stroke-width="1"/>
      <path id="Path_6456" data-name="Path 6456" d="M370.513,371.727a3.892,3.892,0,0,1,6.912-2.87,3.9,3.9,0,0,1,7.38,1.268c.4,3.535-6.175,9.2-6.175,9.2S371.013,376.237,370.513,371.727Z" transform="translate(-115.681 -105.222)" fill="none" stroke="#263238" stroke-width="1"/>
    </g>
  </g>
</svg>
