<svg id="origami" xmlns="http://www.w3.org/2000/svg" width="143.791" height="163.553" viewBox="0 0 143.791 163.553">
  <g id="Group_3" data-name="Group 3">
    <path id="Path_26" data-name="Path 26" d="M48.51,86.042l-14.9-35.29a2.4,2.4,0,0,1,4.414-1.864L51.3,80.331,72.722,33.162,19.854,5.843,33.671,38.575a2.4,2.4,0,0,1-4.414,1.864L14.477,5.426A3.9,3.9,0,0,1,19.854.45l57.092,29.5a2.429,2.429,0,0,1,1.111,1.206L93.42,67.989l6.261-7.767h0a3.878,3.878,0,0,1,3.032-1.45h30.46a2.407,2.407,0,0,1,2.3,1.725l8.16,27.978a3.9,3.9,0,0,1-6.173,4.132L126.5,83.836,113.025,116.8a2.433,2.433,0,0,1-1.592,1.406l-31.541,8.525a2.4,2.4,0,1,1-1.25-4.625l25.443-6.877L52.737,89.73l-12.1,42.654,27.16-7.341a2.4,2.4,0,1,1,1.25,4.625L39.107,137.76l-4.332,15.265a3.87,3.87,0,0,1-2.684,2.683L4.967,163.4a3.9,3.9,0,0,1-4.3-5.915ZM106.126,110.9,90.548,73.55h0l-14.8-35.471L54.358,85.185l3.8,1.888Zm-2.984-47.335L95.519,73.02l15.266,36.6,18.822-46.057Zm35.1,23.531L132.8,68.426l-4.408,10.786ZM30.3,151.235l14.475-51.007L6,158.128Z" transform="translate(0 -0.002)" fill="#fff"/>
  </g>
</svg>
