<svg width="57" height="56" viewBox="0 0 57 56" fill="none" xmlns="http://www.w3.org/2000/svg">
<g id="apple">
<path id="bg" d="M52.8568 27.9752C52.8568 41.4716 41.9154 52.4252 28.4069 52.4252C14.8983 52.4252 3.95691 41.4716 3.95691 27.9752C3.95691 14.4666 14.8983 3.5253 28.4069 3.5253C41.9154 3.5253 52.8568 14.4666 52.8568 27.9752Z" fill="#283544"/>
<path id="apple_2" d="M39.8671 21.7884C39.7336 21.8662 36.5575 23.5088 36.5575 27.1507C36.7072 31.3041 40.5656 32.7607 40.6318 32.7607C40.5656 32.8385 40.0493 34.7449 38.5198 36.7433C37.306 38.4647 35.9587 40.2002 33.9129 40.2002C31.9669 40.2002 31.2683 39.053 29.0229 39.053C26.6116 39.053 25.9293 40.2002 24.083 40.2002C22.0372 40.2002 20.5902 38.3717 19.3102 36.6664C17.6473 34.4346 16.2339 30.9321 16.184 27.5692C16.1503 25.7871 16.517 24.0354 17.4477 22.5475C18.7613 20.4703 21.1065 19.0602 23.6676 19.0137C25.6299 18.952 27.3763 20.2691 28.5738 20.2691C29.7215 20.2691 31.8671 19.0137 34.2948 19.0137C35.3426 19.0147 38.1369 19.3088 39.8671 21.7884ZM28.4079 18.6579C28.0586 17.0305 29.0229 15.4031 29.9211 14.365C31.0687 13.1096 32.8813 12.2574 34.4444 12.2574C34.5442 13.8848 33.9118 15.4809 32.7815 16.6433C31.7673 17.8988 30.0209 18.8439 28.4079 18.6579Z" fill="white"/>
</g>
</svg>
