<svg width="57" height="56" viewBox="0 0 57 56" fill="none" xmlns="http://www.w3.org/2000/svg">
<g id="google">
<path id="vector" d="M52.5699 28.5183C52.5699 26.508 52.4035 25.041 52.0432 23.5197H28.619V32.5932H42.3685C42.0914 34.8481 40.5945 38.2439 37.2679 40.5258L37.2212 40.8296L44.6276 46.4524L45.1407 46.5026C49.8532 42.2374 52.5699 35.9619 52.5699 28.5183Z" fill="#4285F4"/>
<path id="vector_2" d="M28.6174 52.4252C35.3535 52.4252 41.0085 50.2517 45.1391 46.5028L37.2663 40.526C35.1596 41.9658 32.332 42.971 28.6174 42.971C22.0199 42.971 16.4203 38.7059 14.4242 32.8107L14.1317 32.8351L6.43049 38.676L6.32977 38.9503C10.4324 46.9373 18.8596 52.4252 28.6174 52.4252Z" fill="#34A853"/>
<path id="vector_3" d="M14.4257 32.8109C13.899 31.2896 13.5942 29.6594 13.5942 27.9752C13.5942 26.2908 13.899 24.6608 14.398 23.1395L14.384 22.8155L6.58632 16.8809L6.33119 16.9998C4.64029 20.3142 3.67004 24.036 3.67004 27.9752C3.67004 31.9143 4.64029 35.6361 6.33119 38.9504L14.4257 32.8109Z" fill="#FBBC05"/>
<path id="vector_4" d="M28.6176 12.9792C33.3024 12.9792 36.4625 14.9624 38.2644 16.6197L45.3056 9.88231C40.9812 5.94317 35.3537 3.52533 28.6176 3.52533C18.8597 3.52533 10.4324 9.01294 6.32977 16.9999L14.3966 23.1396C16.4204 17.2444 22.02 12.9792 28.6176 12.9792Z" fill="#EB4335"/>
</g>
</svg>
