<svg xmlns="http://www.w3.org/2000/svg" width="24.121" height="24.121" viewBox="0 0 24.121 24.121">
  <g id="password_eye" data-name="password eye" transform="translate(0.061 0.061)">
    <g id="eye-off">
      <path id="Path_13475" data-name="Path 13475" d="M17.94,17.94A10.07,10.07,0,0,1,12,20C5,20,1,12,1,12A18.45,18.45,0,0,1,6.06,6.06M9.9,4.24A9.12,9.12,0,0,1,12,4c7,0,11,8,11,8a18.5,18.5,0,0,1-2.16,3.19m-6.72-1.07A3,3,0,1,1,9.88,9.88" fill="none" stroke="#d0ccd4" stroke-linecap="round" stroke-linejoin="round" stroke-width="1.5"/>
      <line id="Line_183" data-name="Line 183" x2="22" y2="22" transform="translate(1 1)" fill="none" stroke="#d0ccd4" stroke-linecap="round" stroke-linejoin="round" stroke-width="1.5"/>
    </g>
  </g>
</svg>
