<svg xmlns="http://www.w3.org/2000/svg" xmlns:xlink="http://www.w3.org/1999/xlink" width="344" height="333.56" viewBox="0 0 344 333.56">
  <defs>
    <clipPath id="clip-path">
      <path id="Path_13303" data-name="Path 13303" d="M316.916,320.659a29.347,29.347,0,0,1-1.227,8.981c-1.4,4.309-5.955,10.246-1.9,12.909s9.247-5.813,10.6-12.929S326.714,314,326.714,314Z" transform="translate(-312.145 -314)" fill="#fff" stroke="#263238" stroke-width="1"/>
    </clipPath>
    <clipPath id="clip-path-2">
      <path id="Path_13307" data-name="Path 13307" d="M310.695,292s-3.425,14.27-3.425,19.588,4.89,11.825,11.092,12.367c7.915.637,10.826-10,12.538-16.058,1.484-5.261,2.492-9.808,2.74-10.931C321.606,301.513,310.695,292,310.695,292Z" transform="translate(-307.27 -292)" fill="#fff" stroke="#263238" stroke-width="1"/>
    </clipPath>
    <clipPath id="clip-path-3">
      <path id="Path_13322" data-name="Path 13322" d="M165.29,311.15s3.862,13.918,4.833,18.751,5.413,11.8,8.7,9.513,3.1-6.574,1.161-10.246a45.188,45.188,0,0,1-3.092-7.925Z" transform="translate(-165.29 -311.15)" fill="#fff" stroke="#263238" stroke-width="1"/>
    </clipPath>
    <clipPath id="clip-path-4">
      <path id="Path_13330" data-name="Path 13330" d="M188.456,298.449c-.723-4.157-2.635-10.864-1.769-12.814-.58-1.4-2.578-4.661-8.476-4.966-7.544-.39-15.659,3.862-17.209,7.924s2.131,1.9,3.482,4.833-2.131,6.383-1.351,8.5,4.443,10.465,4.443,10.465c.58-2.321,9.285-6.193,9.285-6.193a12.368,12.368,0,0,0,3.862.39c1.741-.19.771-1.741.771-1.741l8.914.533C189.645,302.578,188.741,300.133,188.456,298.449Z" transform="translate(-160.626 -280.644)" fill="#fff" stroke="#263238" stroke-width="1"/>
    </clipPath>
    <clipPath id="clip-path-5">
      <path id="Path_13343" data-name="Path 13343" d="M316,196.223s1.161,2.131-.19,7.154-4.757,13.319-3.177,14.9,11.1-5.613,11.483-11.026.39-16.239.39-16.239Z" transform="translate(-312.22 -191.01)" fill="#fff" stroke="#263238" stroke-width="1"/>
    </clipPath>
    <clipPath id="clip-path-6">
      <path id="Path_13348" data-name="Path 13348" d="M310.334,159.71s-5.6,11.016-6.954,18.56,4.252,18.941,9.856,18.941,14.27-8.7,14.27-8.7,8.115.19,9.275-2.511-.19-4.833-2.321-4.833h-4.252s-1.161.58-.58-4.833,2.321-7.925,2.321-7.925S317.278,169.566,310.334,159.71Z" transform="translate(-303.176 -159.71)" fill="#fff" stroke="#263238" stroke-width="1"/>
    </clipPath>
    <clipPath id="clip-path-7">
      <path id="Path_13364" data-name="Path 13364" d="M177.4,188.21s0,6.973-.742,13.442.247,13.433,4.975,13.927,3.977-10.693,3.482-15.174a40.721,40.721,0,0,1,0-8.457Z" transform="translate(-176.437 -188.21)" fill="#fff" stroke="#263238" stroke-width="1"/>
    </clipPath>
    <clipPath id="clip-path-8">
      <path id="Path_13368" data-name="Path 13368" d="M193.768,155.52s.495,3.234-7.963,7.221-12.691,7.211-13.433,10.94-1,5.232-1,5.232-1.741-3.491-4.975-1.75-.247,8.467,2.74,8.714,3.729-.752,3.729-.752,9.7,9.7,15.421,9.7,7.963-5.47,9.209-15.221C198.705,170.246,193.768,155.52,193.768,155.52Z" transform="translate(-164.999 -155.52)" fill="#fff" stroke="#263238" stroke-width="1"/>
    </clipPath>
  </defs>
  <g id="Social_media-bro" data-name="Social media-bro" transform="translate(-69.21 -78.477)">
    <g id="freepik--background-simple--inject-1--inject-17" transform="translate(75.91 91.948)">
      <path id="Path_13251" data-name="Path 13251" d="M188.267,96.786S163.533,83.468,142.6,104.4s5.708,35.2,13.319,62.787-49.469,12.367-70.4,33.3-1.969,50.42,12.367,54.7,42.81-7.135,46.615,14.746c0,0,6.659,9.513-11.416,37.1s-17.124,57.079,16.173,63.739,40.907-38.053,65.641-31.394,18.075,58.982,65.641,51.371,23.574-43.295,37.948-59.229,33.4,5,54.33-11.169-12.367-51.372-9.513-75.155S389,219.507,390.9,199.529s-12.367-17.124-43.761-43.761S330.966,110.1,309.085,97.738s-41.858,24.734-70.4,17.124a322.5,322.5,0,0,1-50.42-18.075Z" transform="translate(-76.228 -92.61)" fill="#491a85"/>
      <path id="Path_13252" data-name="Path 13252" d="M188.267,96.786S163.533,83.468,142.6,104.4s5.708,35.2,13.319,62.787-49.469,12.367-70.4,33.3-1.969,50.42,12.367,54.7,42.81-7.135,46.615,14.746c0,0,6.659,9.513-11.416,37.1s-17.124,57.079,16.173,63.739,40.907-38.053,65.641-31.394,18.075,58.982,65.641,51.371,23.574-43.295,37.948-59.229,33.4,5,54.33-11.169-12.367-51.372-9.513-75.155S389,219.507,390.9,199.529s-12.367-17.124-43.761-43.761S330.966,110.1,309.085,97.738s-41.858,24.734-70.4,17.124a322.5,322.5,0,0,1-50.42-18.075Z" transform="translate(-76.228 -92.61)" fill="#faf5ff"/>
    </g>
    <g id="freepik--Paths--inject-1--inject-17" transform="translate(76.316 79.015)">
      <path id="Path_13253" data-name="Path 13253" d="M221.209,318.282c33.154-10.826,54.425-19.026,78.637-19.312,0,0,34.486,4.443,48.755,0,41.725-13.014,45.359-60.409,22.832-95.4-23.326-36.236-65.308-25.9-65.308-25.9-50.249,9.228-83.774-.951-101.307-9.428-14.051-6.773-31.032-4.252-41.858,6.954a24.735,24.735,0,0,0-5.6,8.514c-15.421,42.229,2.34,83.5,8.676,108.7C168.373,301.758,188.046,329.108,221.209,318.282Z" transform="translate(-80.283 -83.177)" fill="none" stroke="#263238" stroke-linecap="round" stroke-linejoin="round" stroke-width="1" stroke-dasharray="2"/>
      <path id="Path_13254" data-name="Path 13254" d="M232.934,139.429c-1.341,15.811-2.749,31.841-2.4,47.642.828,38.281,4.671,76.439,7.106,114.635,1.456,22.765,5.955,46.824,1.37,69.447-4.29,21.2-21.176,38.709-43.295,40.279-24.344,1.731-41.934-21-39.28-43.856,1.988-17.124,12.282-32.944,12.89-50.2.809-23.231-26.342-20.235-43.989-35.2-20.767-17.58-41.268-40.954-47.3-68.2-1.741-7.829-2.188-16.172.713-23.7,13.138-33.981,68.9-42.515,90.576-13.633,22.328,29.776,13.528,73.081,50.068,77.143s72.405-11.5,107.595-20.3,74.432,12.862,68.343,58.868-62.93,44.712-89.32,12.862-14.213-96.769-8.8-122.521c2.978-14.118,10.626-26.789,17.333-39.385,5.28-9.932,11.939-20.3,10.227-32.031-5.052-34.581-62.787-44.36-80.339-14.517C244.416,96.8,235.5,109.063,232.934,139.429Z" transform="translate(-76.653 -79.015)" fill="none" stroke="#263238" stroke-linecap="round" stroke-linejoin="round" stroke-width="1" stroke-dasharray="2 2"/>
    </g>
    <g id="freepik--Facebook--inject-1--inject-17" transform="translate(206.634 211.463)">
      <path id="Path_13255" data-name="Path 13255" d="M247.184,285.327h0a33.544,33.544,0,0,1-33.544-33.544h0a33.544,33.544,0,0,1,33.544-33.544h0a33.544,33.544,0,0,1,33.544,33.544h0A33.544,33.544,0,0,1,247.184,285.327Z" transform="translate(-213.64 -218.24)" fill="#e8d8fd" stroke="#263238" stroke-width="1"/>
      <path id="Path_13257" data-name="Path 13257" d="M262.72,224.6a30.444,30.444,0,0,1,8.467,6" transform="translate(-216.029 -218.55)" fill="none" stroke="#fff" stroke-linecap="round" stroke-linejoin="round" stroke-width="0.75"/>
      <path id="Path_13258" data-name="Path 13258" d="M229.05,228.024c.694-.552,1.427-1.075,2.188-1.579h0a30.442,30.442,0,0,1,27.741-2.911" transform="translate(-214.39 -218.397)" fill="none" stroke="#fff" stroke-linecap="round" stroke-linejoin="round" stroke-width="0.75"/>
      <path id="Path_13259" data-name="Path 13259" d="M243.631,282.811a30.442,30.442,0,0,1-21.766-13.547h0a30.442,30.442,0,0,1,1.056-34.9" transform="translate(-213.798 -219.025)" fill="none" stroke="#fff" stroke-linecap="round" stroke-linejoin="round" stroke-width="0.75"/>
      <path id="Path_13260" data-name="Path 13260" d="M256.53,284.54a30.016,30.016,0,0,1-6.06.951" transform="translate(-215.433 -221.467)" fill="none" stroke="#fff" stroke-linecap="round" stroke-linejoin="round" stroke-width="0.75"/>
      <path id="Path_13261" data-name="Path 13261" d="M271.007,230.91a31.536,31.536,0,0,1,3.881,4.757h0a30.442,30.442,0,0,1-8.8,42.191h0a30.835,30.835,0,0,1-7.068,3.425" transform="translate(-215.849 -218.857)" fill="none" stroke="#fff" stroke-linecap="round" stroke-linejoin="round" stroke-width="0.75"/>
      <g id="freepik--Camera--inject-52" transform="translate(-381.796 -144.697)">
        <path id="Path_2032" data-name="Path 2032" d="M405.53,182.8V168h0a.87.87,0,0,1,.37-.7l1.64-1.19,5.67-3.27a2.9,2.9,0,0,1,2.63,0l17.09,9.87a.9.9,0,0,1,.55.75h0v14.12a2.6,2.6,0,0,1-1.31,2.26L430,191.08a6.28,6.28,0,0,1-6.3,0l-12.87-7.43-1.23.71a3.53,3.53,0,0,1-3.08-.35c-.65-.37-1-.82-1-1.21Z" fill="#37474f"/>
        <path id="Path_2033" data-name="Path 2033" d="M433.48,173.45h0v14.12a2.6,2.6,0,0,1-1.31,2.26L430,191.08a6.21,6.21,0,0,1-3.15.85V176.3l6.16-3.56A.9.9,0,0,1,433.48,173.45Z" fill="#263238"/>
        <path id="Path_2034" data-name="Path 2034" d="M410.83,183.65l-1.23.71a3.53,3.53,0,0,1-3.08-.35c-.65-.37-1-.82-1-1.21h0V168h0a.87.87,0,0,1,.37-.7l1.64-1.19h0l3.7,2.61V183.9Z" fill="#37474f"/>
        <path id="Path_2035" data-name="Path 2035" d="M409.6,184.36a2.18,2.18,0,0,1-1.22.21V169.43l.06-2.69,2.8,2v15.18l-.41-.24Z" opacity="0.1"/>
        <path id="Path_2036" data-name="Path 2036" d="M409.8,169.54a3.68,3.68,0,0,1-3.28-.24c-1-.59-1.3-1.49-.62-2l1.64-1.19,5.67-3.27a2.9,2.9,0,0,1,2.63,0l17.09,9.87c.73.41.73,1.09,0,1.51L430,175.9a6.28,6.28,0,0,1-6.3,0l-12.46-7.19Z" fill="#455a64"/>
        <path id="Path_2037" data-name="Path 2037" d="M414.28,169.14a.45.45,0,0,1,.18-.18h0l7.4-4.27h0a.47.47,0,0,1,.5,0l4.88,2.81a1.59,1.59,0,0,1,.6.73l.66,1.9-7.4,4.27-7.39-4.27Z" fill="#455a64"/>
        <path id="Path_2038" data-name="Path 2038" d="M414.28,169.14a12.529,12.529,0,0,1,1.84-1.18l1.9-1.11c1.28-.72,2.54-1.47,3.84-2.16-1.25.77-2.53,1.49-3.79,2.24L416.15,168l-.95.54-.49.27A1.632,1.632,0,0,0,414.28,169.14Z" fill="#263238"/>
        <path id="Path_2039" data-name="Path 2039" d="M427.58,167.81a1.41,1.41,0,0,1,.26.43l.66,1.89-7.4,4.27-.87-.5-.73-1.42Z" fill="#37474f"/>
        <path id="Path_2040" data-name="Path 2040" d="M420.44,172.51a1.54,1.54,0,0,0-.6-.73L415,169a.52.52,0,0,0-.7.19l-.56,1v.48l7.39,4.27v-.48Z" fill="#263238"/>
        <path id="Path_2041" data-name="Path 2041" d="M415.2,169.57l4.26,2.46a1,1,0,0,1,.36.44l.37,1.07c.05.16,0,.22-.16.13l-5.4-3.11a.32.32,0,0,1-.11-.42l.27-.46a.31.31,0,0,1,.41-.11Z" fill="#37474f"/>
        <g id="freepik--Lens--inject-52">
          <path id="Path_2042" data-name="Path 2042" d="M413.66,173.27h.64a4.64,4.64,0,0,1,1.8.63,10.77,10.77,0,0,1,4.9,8.4,4.719,4.719,0,0,1-.35,1.91l-.15.29-.07.13h0l-.06.09h0l.69-.92h0a3.88,3.88,0,0,0,.6-2.25,9.92,9.92,0,0,0-4.52-7.75,4,4,0,0,0-2-.61h-.31Z" fill="#263238"/>
          <path id="Path_2043" data-name="Path 2043" d="M418.16,186.24a2.856,2.856,0,0,1-.3.22l1.72-1h0a3.47,3.47,0,0,0,1.39-3.14,10.77,10.77,0,0,0-4.9-8.4,4.29,4.29,0,0,0-2.17-.65,2.4,2.4,0,0,0-1.27.33l-1.68,1a3.42,3.42,0,0,1,3.35.37,10.73,10.73,0,0,1,4.9,8.4,5,5,0,0,1-.21,1.52,2.88,2.88,0,0,1-.83,1.35Z" fill="#37474f"/>
          <path id="Path_2044" data-name="Path 2044" d="M414.69,188.25a2.724,2.724,0,0,1-.3.21l1.72-1h0a3.46,3.46,0,0,0,1.39-3.14,10.77,10.77,0,0,0-4.9-8.4,4.5,4.5,0,0,0-2.18-.65,2.39,2.39,0,0,0-1.26.33l-1.69,1a3.47,3.47,0,0,1,3.36.37,10.75,10.75,0,0,1,4.9,8.4,5.148,5.148,0,0,1-.21,1.53,3,3,0,0,1-.83,1.35Z" fill="#37474f"/>
          <path id="Path_2045" data-name="Path 2045" d="M416.45,187.23a3.309,3.309,0,0,1-.3.22l1.72-1h0a3.4,3.4,0,0,0,1.39-3.14,10.71,10.71,0,0,0-4.9-8.39,4.41,4.41,0,0,0-2.17-.66,2.53,2.53,0,0,0-1.27.33l-1.68,1a3.48,3.48,0,0,1,3.35.37,10.72,10.72,0,0,1,4.9,8.4,5.108,5.108,0,0,1-.2,1.53,2.89,2.89,0,0,1-.84,1.34Z" fill="#455a64"/>
          <path id="Path_2046" data-name="Path 2046" d="M419,181.11l-1.76,1a.3.3,0,0,0,0,.1l1.77-1Zm-.26-.8-1.76,1v.1l1.77-1a.3.3,0,0,1-.05-.1Zm-.32-.76-1.76,1v.09l1.77-1Zm-.36-.74-1.77,1,.05.09,1.76-1Zm-.61,4.26,1.77-1a.36.36,0,0,1,0-.1l-1.77,1a.1.1,0,0,0-.04.1Zm-.1,2.79-.05.15,1.76-1,.06-.15Zm.19-.94,1.76-1v-.12l-1.76,1a.491.491,0,0,0-.04.12Zm0-1,1.77-1v-.11l-1.77,1a.45.45,0,0,1-.03.19Zm.09-5.85-1.77,1,.06.08,1.76-1a.559.559,0,0,0-.08-.04Zm-2.94-3.05-1.76,1,.09.06,1.76-1Zm-.85-.46-1.77,1h.12l1.76-1Zm-2.85.7h.15l1.76-1h-.15Zm4.43.28-1.76,1a.27.27,0,0,0,.08.07l1.76-1Zm.64.58-1.76,1,.07.07,1.77-1Zm1.1,1.27-1.76,1a.558.558,0,0,1,.05.08l1.77-1Zm-.52-.65-1.76,1,.06.07,1.77-1Z" fill="#263238"/>
          <path id="Path_2047" data-name="Path 2047" d="M412.53,187.52c0,3.28-2.28,4.62-5.13,3a11.35,11.35,0,0,1-5.18-8.88c0-3.27,2.28-4.61,5.13-3a11.4,11.4,0,0,1,5.18,8.88Z" fill="#263238"/>
          <path id="Path_2048" data-name="Path 2048" d="M407.21,176.26h0l.16-.09a3.64,3.64,0,0,1,3.54.39,11.34,11.34,0,0,1,5.18,8.88,5,5,0,0,1-.22,1.62,3.13,3.13,0,0,1-.91,1.47l-.32.23h-.05l-.08.05-3.45,2a2,2,0,0,0,.4-.31,4,4,0,0,0,1.06-3,11.41,11.41,0,0,0-5.18-8.88,4,4,0,0,0-3.14-.56,2,2,0,0,0-.42.18Z" fill="#455a64"/>
          <path id="Path_2049" data-name="Path 2049" d="M399.14,183.73a10.77,10.77,0,0,0,4.9,8.4,4.5,4.5,0,0,0,2.18.65,2.47,2.47,0,0,0,1.25-.32h0l2.87-1.64h.07a3.12,3.12,0,0,0,1.38-3.14,10.77,10.77,0,0,0-4.9-8.4,3.75,3.75,0,0,0-3-.53,2.268,2.268,0,0,0-.39.16h0l-.13.08-2.82,1.61h0a3.43,3.43,0,0,0-1.41,3.13Z" fill="#37474f"/>
          <path id="Path_2050" data-name="Path 2050" d="M401.26,179.62a3.63,3.63,0,0,1,3.64.34,11.41,11.41,0,0,1,5.18,8.89,3.62,3.62,0,0,1-1.44,3.29c-.3.19-2.32,1.29-2.6,1.46a3.6,3.6,0,0,1-3.64-.34,11.34,11.34,0,0,1-5.18-8.88,3.62,3.62,0,0,1,1.46-3.31C399,180.89,401,179.79,401.26,179.62Z" fill="#455a64"/>
          <path id="Path_2051" data-name="Path 2051" d="M407.53,190.27c0,3.28-2.28,4.62-5.13,3a11.34,11.34,0,0,1-5.18-8.88c0-3.28,2.28-4.62,5.13-3a11.38,11.38,0,0,1,5.18,8.88Z" fill="#263238"/>
          <path id="Path_2052" data-name="Path 2052" d="M404.74,193.15c1.54,0,1.7-1.82,1.7-2.6a10.92,10.92,0,0,0-4.92-8.43,3.68,3.68,0,0,0-1.8-.57c-1.54,0-1.7,1.83-1.69,2.61a11,11,0,0,0,4.91,8.43,3.71,3.71,0,0,0,1.8.56Z"/>
          <path id="Path_2053" data-name="Path 2053" d="M404.74,193.15c1.54,0,1.7-1.82,1.7-2.6a10.92,10.92,0,0,0-4.92-8.43,3.68,3.68,0,0,0-1.8-.57c-1.54,0-1.7,1.83-1.69,2.61a11,11,0,0,0,4.91,8.43,3.71,3.71,0,0,0,1.8.56Z"/>
          <path id="Path_2054" data-name="Path 2054" d="M399.24,183.46a3.88,3.88,0,0,1,.43-1.91h.05a3.68,3.68,0,0,1,1.8.57,10.92,10.92,0,0,1,4.92,8.43,3.76,3.76,0,0,1-.43,1.9H406a3.71,3.71,0,0,1-1.8-.57A11,11,0,0,1,399.24,183.46Z" fill="#491a85"/>
          <path id="Path_2055" data-name="Path 2055" d="M399.24,183.46a3.88,3.88,0,0,1,.43-1.91h.05a3.68,3.68,0,0,1,1.8.57,10.92,10.92,0,0,1,4.92,8.43,3.76,3.76,0,0,1-.43,1.9H406a3.71,3.71,0,0,1-1.8-.57A11,11,0,0,1,399.24,183.46Z" fill="#e8d8fd"/>
          <path id="Path_2056" data-name="Path 2056" d="M401.63,182.18a11,11,0,0,1,4.81,8.37h0a2.27,2.27,0,0,1-2.63-.09,7.58,7.58,0,0,1-3.46-5.92,2.28,2.28,0,0,1,1.28-2.36Z" fill="#111011" opacity="0.1"/>
          <path id="Path_2057" data-name="Path 2057" d="M403.6,183.85A12.22,12.22,0,0,1,406,188c-.11,1.22-1.05,1.68-2.19,1a4.86,4.86,0,0,1-2.23-3.81C401.57,183.9,402.46,183.31,403.6,183.85Z" fill="#111011" opacity="0.2"/>
          <path id="Path_2058" data-name="Path 2058" d="M402.55,183.77c-1.08-1.37-2.44-1.6-2.71-1.16s-.27,5,3.75,8.23a13.45,13.45,0,0,1-3-5.15C399.94,183.08,401.33,182.68,402.55,183.77Z" fill="#491a85"/>
          <path id="Path_2059" data-name="Path 2059" d="M402.55,183.77c-1.08-1.37-2.44-1.6-2.71-1.16s-.27,5,3.75,8.23a13.45,13.45,0,0,1-3-5.15C399.94,183.08,401.33,182.68,402.55,183.77Z" fill="#d8bafc"/>
          <path id="Path_2060" data-name="Path 2060" d="M406.17,193.52c.53-.3,2.2-1.21,2.47-1.38a2.53,2.53,0,0,0,.83-.83l.19-.11a2.52,2.52,0,0,0,1.52-.44l-.12.08,3.45-2,.08-.05h.05l.32-.23a3,3,0,0,0,.6-.74l.55-.32h.01l1.72-1,1.71-1h0a2.51,2.51,0,0,0,.81-.81h0l-.06.09h0l.69-.92h0a3.88,3.88,0,0,0,.6-2.25,6.308,6.308,0,0,0-.05-.75L416,184a3.82,3.82,0,0,0,.07.43l-3.57,2.06h-.75l-1.75,1a4.384,4.384,0,0,0,.07.44l-2.55,1.47a6.621,6.621,0,0,1,.06.88,3.72,3.72,0,0,1-1.41,3.24Z" opacity="0.15"/>
        </g>
        <path id="Path_2061" data-name="Path 2061" d="M416.52,166.25a1,1,0,0,1,.88,0h.21v.27a.33.33,0,0,1-.19.27,1,1,0,0,1-.92,0,.33.33,0,0,1-.19-.26v-.27Z" fill="#263238"/>
        <path id="Path_2062" data-name="Path 2062" d="M417.42,166c.25.14.25.38,0,.53a1,1,0,0,1-.92,0c-.25-.14-.25-.38,0-.53a1,1,0,0,1,.92,0Z" fill="#37474f"/>
        <path id="Path_2063" data-name="Path 2063" d="M414.83,165.67v-.27h.2a1,1,0,0,1,.89,0h.2v.27a.32.32,0,0,1-.18.27,1,1,0,0,1-.92,0A.3.3,0,0,1,414.83,165.67Z" fill="#263238"/>
        <path id="Path_2064" data-name="Path 2064" d="M415.93,165.13c.26.14.26.38,0,.53a1,1,0,0,1-.91,0,.28.28,0,0,1,0-.53A1,1,0,0,1,415.93,165.13Z" fill="#37474f"/>
        <path id="Path_2065" data-name="Path 2065" d="M415,167.11a1,1,0,0,1,.88,0h.21v.27a.31.31,0,0,1-.19.27,1,1,0,0,1-.91,0,.31.31,0,0,1-.2-.26v-.27Z" fill="#263238"/>
        <path id="Path_2066" data-name="Path 2066" d="M415.94,166.84c.25.14.25.38,0,.53a1,1,0,0,1-.92,0c-.25-.14-.25-.38,0-.53A1,1,0,0,1,415.94,166.84Z" fill="#37474f"/>
        <path id="Path_2067" data-name="Path 2067" d="M413.35,166.53v-.27h.2a1,1,0,0,1,.89,0h.21v.28a.33.33,0,0,1-.19.26,1,1,0,0,1-.92,0,.33.33,0,0,1-.19-.27Z" fill="#263238"/>
        <path id="Path_2068" data-name="Path 2068" d="M414.45,166a.28.28,0,0,1,0,.53,1,1,0,0,1-.92,0,.28.28,0,0,1,0-.53A1,1,0,0,1,414.45,166Z" fill="#37474f"/>
        <path id="Path_2069" data-name="Path 2069" d="M425.73,174v-1h.75a3.71,3.71,0,0,1,3.22,0h.75v1a1.14,1.14,0,0,1-.68,1,3.68,3.68,0,0,1-3.34,0,1.18,1.18,0,0,1-.7-1Z" fill="#263238"/>
        <path id="Path_2070" data-name="Path 2070" d="M427.93,175.32h-.12V172.6h.12Z"/>
        <path id="Path_2071" data-name="Path 2071" d="M427,172.75h.12v2.47H427Z"/>
        <path id="Path_2072" data-name="Path 2072" d="M426.53,172.93l.11-.06V175l-.11-.06Z"/>
        <path id="Path_2073" data-name="Path 2073" d="M427.38,172.65h.12v2.65h-.12Z"/>
        <path id="Path_2074" data-name="Path 2074" d="M425.78,174.26a1,1,0,0,1,0-.3v-1h.06Z"/>
        <path id="Path_2075" data-name="Path 2075" d="M426.21,174.79l-.11-.09V173h.11Z"/>
        <path id="Path_2076" data-name="Path 2076" d="M428.67,172.62h.11v2.62h-.11Z"/>
        <path id="Path_2077" data-name="Path 2077" d="M430.38,172.94h.06v1a.651.651,0,0,1-.06.3Z"/>
        <path id="Path_2078" data-name="Path 2078" d="M430.07,174.69l-.11.09v-1.84h.11Z"/>
        <path id="Path_2079" data-name="Path 2079" d="M429.1,172.71h.11v2.4h-.11Z"/>
        <path id="Path_2080" data-name="Path 2080" d="M428.24,172.59h.11v2.72h-.11Z"/>
        <path id="Path_2081" data-name="Path 2081" d="M429.64,175l-.11.05v-2.17l.11.06Z"/>
        <path id="Path_2082" data-name="Path 2082" d="M429.75,172a1,1,0,0,1,0,1.93,3.69,3.69,0,0,1-3.33,0,1,1,0,0,1,0-1.93,3.71,3.71,0,0,1,3.33,0Z" fill="#37474f"/>
        <path id="Path_2083" data-name="Path 2083" d="M428.26,172c.09.06.09.15,0,.2a.36.36,0,0,1-.35,0c-.09,0-.09-.14,0-.2A.43.43,0,0,1,428.26,172Z" fill="#e0e0e0"/>
        <path id="Path_2084" data-name="Path 2084" d="M429.3,172.23c.09.06.09.15,0,.2a.36.36,0,0,1-.35,0,.1.1,0,0,1,0-.19A.39.39,0,0,1,429.3,172.23Z" fill="#e0e0e0"/>
        <path id="Path_2085" data-name="Path 2085" d="M429.94,172.84c.1,0,.1.14,0,.2a.4.4,0,0,1-.34,0c-.1,0-.1-.14,0-.2a.34.34,0,0,1,.34,0Z" fill="#e0e0e0"/>
        <path id="Path_2086" data-name="Path 2086" d="M426.89,172.23c-.09.06-.1.15,0,.2a.36.36,0,0,0,.35,0,.1.1,0,0,0,0-.19.39.39,0,0,0-.35-.01Z" fill="#491a85"/>
        <path id="Path_2087" data-name="Path 2087" d="M428.26,173.89c.09-.06.09-.15,0-.2a.36.36,0,0,0-.35,0c-.09.05-.09.14,0,.2A.43.43,0,0,0,428.26,173.89Z" fill="#e0e0e0"/>
        <path id="Path_2088" data-name="Path 2088" d="M429.3,173.69c.09-.06.09-.15,0-.2a.39.39,0,0,0-.35,0c-.09.06-.09.15,0,.2a.39.39,0,0,0,.35,0Z" fill="#e0e0e0"/>
        <path id="Path_2089" data-name="Path 2089" d="M426.89,173.69c-.09-.06-.1-.15,0-.2a.39.39,0,0,1,.35,0c.09.06.09.15,0,.2A.39.39,0,0,1,426.89,173.69Z" fill="#e0e0e0"/>
        <path id="Path_2090" data-name="Path 2090" d="M426.25,172.84c-.1,0-.1.14,0,.2a.4.4,0,0,0,.34,0c.1,0,.1-.14,0-.2a.34.34,0,0,0-.34,0Z" fill="#e0e0e0"/>
        <path id="Path_2091" data-name="Path 2091" d="M428.07,174.1a3.23,3.23,0,0,1-1.55-.36.814.814,0,0,1,0-1.56,3.17,3.17,0,0,1,1.57-.38,3.23,3.23,0,0,1,1.55.36.81.81,0,0,1,0,1.56,3.24,3.24,0,0,1-1.57.38Zm0-2.27a3.16,3.16,0,0,0-1.56.37.783.783,0,0,0,.01,1.51,3.45,3.45,0,0,0,3.09,0,.79.79,0,0,0,0-1.51,3.21,3.21,0,0,0-1.52-.37Z" fill="#e0e0e0"/>
        <path id="Path_2092" data-name="Path 2092" d="M422.27,176.72a.48.48,0,0,1,.47.05l1.16.67a1.41,1.41,0,0,1,.65,1.09.4.4,0,0,1-.18.38l-.41.24a.48.48,0,0,1-.48-.05l-1.15-.66a1.41,1.41,0,0,1-.65-1.1.41.41,0,0,1,.17-.38Z" fill="#263238"/>
        <path id="Path_2093" data-name="Path 2093" d="M423.48,177.68l-1.15-.67c-.36-.21-.65-.06-.65.33a1.41,1.41,0,0,0,.65,1.1l1.15.66c.37.21.66.06.66-.33a1.38,1.38,0,0,0-.66-1.09Z" fill="#455a64"/>
        <path id="Path_2094" data-name="Path 2094" d="M412.47,164.22s0-.07.12-.08l1.68-.33c.1,0,.16,0,.16.09v.29a.19.19,0,0,1,0,.1l-.47.81a.27.27,0,0,1-.37.1l-1-.58c-.06,0-.09-.07-.09-.1Z" fill="#263238"/>
        <path id="Path_2095" data-name="Path 2095" d="M411,165.75a.22.22,0,0,1,0-.1l.46-.8a.27.27,0,0,1,.37-.1l1,.58c.06,0,.08.07.08.1v.29s0,.07-.12.09l-1.67.32c-.1,0-.16,0-.16-.08Z" fill="#263238"/>
        <path id="Path_2096" data-name="Path 2096" d="M413.56,164.9l-1-.58c-.13-.07-.12-.16,0-.18l1.68-.33c.14,0,.2.06.13.19l-.47.8a.27.27,0,0,1-.34.1Z" fill="#37474f"/>
        <path id="Path_2097" data-name="Path 2097" d="M412.83,165.33l-1-.58a.27.27,0,0,0-.37.1l-.46.8c-.08.13,0,.21.13.19l1.67-.33C412.94,165.49,413,165.4,412.83,165.33Z" fill="#37474f"/>
        <path id="Path_2098" data-name="Path 2098" d="M407.09,167.32a2.28,2.28,0,0,1,2.05-.17.71.71,0,0,1,.47.56,1.8,1.8,0,0,0,0,.22.72.72,0,0,1-.37.63,2.29,2.29,0,0,1-2.05.17.71.71,0,0,1-.47-.57,1.355,1.355,0,0,1,0-.21A.71.71,0,0,1,407.09,167.32Z" fill="#e0e0e0"/>
        <path id="Path_2099" data-name="Path 2099" d="M409.24,168.33c.53-.38.49-.91-.1-1.18a2.28,2.28,0,0,0-2.05.17.62.62,0,0,0,.1,1.18,2.29,2.29,0,0,0,2.05-.17Z" fill="#fafafa"/>
        <path id="Path_2100" data-name="Path 2100" d="M412.68,171a.386.386,0,0,0-.62.36,1.38,1.38,0,0,0,.62,1.07.386.386,0,0,0,.62-.36,1.38,1.38,0,0,0-.62-1.07Z" fill="#e0e0e0"/>
        <path id="Path_2101" data-name="Path 2101" d="M412.35,170.88a.54.54,0,0,1,.33.08,1.38,1.38,0,0,1,.62,1.07.47.47,0,0,1-.11.33.46.46,0,0,1-.32-.08,1.35,1.35,0,0,1-.62-1.07.54.54,0,0,1,.1-.33Z" fill="#fafafa"/>
        <path id="Path_2102" data-name="Path 2102" d="M405.13,171.33v.46a1,1,0,0,0,.62.85,3.3,3.3,0,0,0,2.83.06v-.47a4.12,4.12,0,0,1-2.06-.52,2.61,2.61,0,0,1-.59-.45l-.13.07Z" fill="#263238"/>
        <path id="Path_2103" data-name="Path 2103" d="M407.46,173h-.1v-.46h.1Z"/>
        <path id="Path_2104" data-name="Path 2104" d="M408.58,172.23v.46a.2.2,0,0,1-.08,0v-.46h0Z"/>
        <path id="Path_2105" data-name="Path 2105" d="M407,172.52h.1V173H407Z"/>
        <path id="Path_2106" data-name="Path 2106" d="M408.22,172.38v.46h-.1v-.46h.1Z"/>
        <path id="Path_2107" data-name="Path 2107" d="M405.56,172.06v.46h0a.389.389,0,0,0-.1-.08h0V172h0Z"/>
        <path id="Path_2108" data-name="Path 2108" d="M405.18,171.6v.4a.24.24,0,0,1,0-.08h0v-.51A1,1,0,0,0,405.18,171.6Z"/>
        <path id="Path_2109" data-name="Path 2109" d="M407.77,172.48h.07v.46h-.1v-.46Z"/>
        <path id="Path_2110" data-name="Path 2110" d="M405.84,172.23l.1.05v.46l-.1-.05Z"/>
        <path id="Path_2111" data-name="Path 2111" d="M406.32,172.87h-.1v-.46h.1Z"/>
        <path id="Path_2112" data-name="Path 2112" d="M406.6,172.93v-.45h.1V173h-.1Z"/>
        <path id="Path_2113" data-name="Path 2113" d="M405.75,172.18a3.26,3.26,0,0,0,2.83,0,4.12,4.12,0,0,1-2.06-.52,1.89,1.89,0,0,1-1-1.11A.925.925,0,0,0,405.75,172.18Z" fill="#455a64"/>
        <path id="Path_2114" data-name="Path 2114" d="M420.02,167.14l2.88-1.66,3.13,1.81-2.88,1.66Z" fill="#e0e0e0"/>
        <path id="Path_2115" data-name="Path 2115" d="M420.02,167.14l2.88-1.66,3.13,1.81-2.88,1.66Z" opacity="0.2"/>
        <path id="Path_2116" data-name="Path 2116" d="M420.1,166.51l2.88-1.66a.22.22,0,0,0-.08.2v.43l-2.9,1.66v-.43A.22.22,0,0,1,420.1,166.51Z" fill="#e0e0e0"/>
        <path id="Path_2117" data-name="Path 2117" d="M420.1,166.51l2.88-1.66a.22.22,0,0,0-.08.2v.43l-2.9,1.66v-.43A.22.22,0,0,1,420.1,166.51Z" opacity="0.1"/>
        <path id="Path_2118" data-name="Path 2118" d="M423.31,169.21v-.61a1,1,0,0,0-.45-.77l-.41-.24v.17l.33.2a.84.84,0,0,1,.38.64v.4L420,167.14v-.43a.22.22,0,0,1,.08-.2.23.23,0,0,1,.22,0l.48.28v-.18l-.41-.24a.39.39,0,0,0-.36,0,.36.36,0,0,0-.16.34v.51Z" fill="#fafafa"/>
        <path id="Path_2119" data-name="Path 2119" d="M425.32,165.93l.41.24a.94.94,0,0,1,.45.77v.61l-2.87,1.66v-.61a1,1,0,0,0-.45-.77l-.41-.24Z" fill="#ebebeb"/>
        <path id="Path_2120" data-name="Path 2120" d="M423.31,168.6a.94.94,0,0,0-.22-.56l2.88-1.66a.93.93,0,0,1,.21.56v.61l-2.87,1.66Z" fill="#e0e0e0"/>
        <path id="Path_2121" data-name="Path 2121" d="M423.68,164.98l-2.88,1.66v.17l2.88-1.65Z" fill="#f5f5f5"/>
        <path id="Path_2122" data-name="Path 2122" d="M422.9,164.71a.41.41,0,0,1,.37,0l.41.24-2.88,1.66-.41-.24a.39.39,0,0,0-.36,0Z" fill="#ebebeb"/>
      </g>
    </g>
    <g id="freepik--Instagram--inject-1--inject-17" transform="translate(345.623 211.463)">
      <path id="Path_13262" data-name="Path 13262" d="M393.284,285.327h0a33.544,33.544,0,0,1-33.544-33.544h0a33.544,33.544,0,0,1,33.544-33.544h0a33.544,33.544,0,0,1,33.544,33.544h0A33.544,33.544,0,0,1,393.284,285.327Z" transform="translate(-359.74 -218.24)" fill="#e8d8fd" stroke="#263238" stroke-width="1"/>
      <path id="Path_13263" data-name="Path 13263" d="M377.832,280.418a30.318,30.318,0,0,1-7.782-6.869" transform="translate(-360.242 -220.932)" fill="none" stroke="#fff" stroke-linecap="round" stroke-linejoin="round" stroke-width="0.75"/>
      <path id="Path_13264" data-name="Path 13264" d="M410.563,280.6a24.926,24.926,0,0,1-2.35,1.341h0a30.442,30.442,0,0,1-27.883-.048" transform="translate(-360.742 -221.275)" fill="none" stroke="#fff" stroke-linecap="round" stroke-linejoin="round" stroke-width="0.75"/>
      <path id="Path_13265" data-name="Path 13265" d="M402.31,222.31a30.385,30.385,0,0,1,20.2,15.782h0a30.442,30.442,0,0,1-4.757,34.59" transform="translate(-361.812 -218.438)" fill="none" stroke="#fff" stroke-linecap="round" stroke-linejoin="round" stroke-width="0.75"/>
      <path id="Path_13266" data-name="Path 13266" d="M390.43,221.774a30.1,30.1,0,0,1,6.127-.257" transform="translate(-361.234 -218.397)" fill="none" stroke="#fff" stroke-linecap="round" stroke-linejoin="round" stroke-width="0.75"/>
      <path id="Path_13267" data-name="Path 13267" d="M369.707,271.051a30.912,30.912,0,0,1-3.349-5.175h0a30.442,30.442,0,0,1,13.223-41.012h0a30.614,30.614,0,0,1,7.392-2.654" transform="translate(-359.898 -218.433)" fill="none" stroke="#fff" stroke-linecap="round" stroke-linejoin="round" stroke-width="0.75"/>
      <g id="freepik--Dumbbell--inject-177" transform="translate(-126.195 -338.042)">
        <path id="Path_11953" data-name="Path 11953" d="M150.935,359.137h0a8.575,8.575,0,0,1,9.995-5.5h0a8.26,8.26,0,0,1,1.971.808,16.678,16.678,0,0,1,7.531,13.051,7.885,7.885,0,0,1-.335,2.385h0a8.556,8.556,0,0,1-9.995,5.5h0a8.379,8.379,0,0,1-1.971-.828A16.658,16.658,0,0,1,150.6,361.5,7.886,7.886,0,0,1,150.935,359.137Z" transform="translate(12.453 0)" fill="#455a64"/>
        <path id="Path_11954" data-name="Path 11954" d="M158.131,373.221A16.658,16.658,0,0,1,150.6,360.17c0-4.81,3.371-6.742,7.531-4.357a16.658,16.658,0,0,1,7.531,13.051C165.661,373.674,162.29,375.626,158.131,373.221Z" transform="translate(12.453 1.333)" fill="#37474f"/>
        <path id="Path_11955" data-name="Path 11955" d="M155.848,358.2c-1.6-.927-2.9-.177-2.9,1.656a6.427,6.427,0,0,0,2.9,5.027c1.6.927,2.9.177,2.9-1.676a6.387,6.387,0,0,0-2.9-5.007Z" transform="translate(14.736 4.253)" fill="#455a64"/>
        <path id="Path_11956" data-name="Path 11956" d="M153.922,359.763a2.228,2.228,0,0,0,.986,1.735.769.769,0,0,0,.67,0h0a.749.749,0,0,0,.256-.631,2.188,2.188,0,0,0-1.005-1.715.67.67,0,0,0-.651,0h0A.69.69,0,0,0,153.922,359.763Z" transform="translate(15.676 5.486)" fill="#37474f"/>
        <path id="Path_11957" data-name="Path 11957" d="M145.85,368.862a2.208,2.208,0,0,0,.986,1.735.967.967,0,0,0,.434.118.473.473,0,0,0,.315,0l15.771-9.128h0a.749.749,0,0,0,.256-.631,2.188,2.188,0,0,0-1.005-1.715.67.67,0,0,0-.651,0h0l-15.771,9.128a.69.69,0,0,0-.335.493Z" transform="translate(7.839 5.573)" fill="#f8f6f9"/>
        <path id="Path_11958" data-name="Path 11958" d="M138.214,366.533h0a8.615,8.615,0,0,1,9.995-5.52h0a8.262,8.262,0,0,1,1.971.808,16.658,16.658,0,0,1,7.531,13.051,7.885,7.885,0,0,1-.335,2.385h0a8.576,8.576,0,0,1-10.094,5.618h0a9.34,9.34,0,0,1-1.971-.828A16.658,16.658,0,0,1,137.78,369,7.886,7.886,0,0,1,138.214,366.533Z" transform="translate(0 7.173)" fill="#455a64"/>
        <path id="Path_11959" data-name="Path 11959" d="M145.331,380.615a16.658,16.658,0,0,1-7.531-13.051c0-4.81,3.371-6.762,7.531-4.357a16.659,16.659,0,0,1,7.531,13.051C152.861,381.068,149.49,383.02,145.331,380.615Z" transform="translate(0.019 8.507)" fill="#37474f"/>
        <path id="Path_11960" data-name="Path 11960" d="M143.048,365.59c-1.6-.907-2.9-.158-2.9,1.676a6.427,6.427,0,0,0,2.9,5.027c1.6.927,2.9.177,2.9-1.676a6.427,6.427,0,0,0-2.9-5.027Z" transform="translate(2.302 11.447)" fill="#455a64"/>
        <path id="Path_11961" data-name="Path 11961" d="M141.12,367.118a2.168,2.168,0,0,0,.986,1.715.729.729,0,0,0,.67.1h0a.749.749,0,0,0,.237-.631,2.169,2.169,0,0,0-.986-1.715.65.65,0,0,0-.67,0h0a.69.69,0,0,0-.237.532Z" transform="translate(3.244 12.699)" fill="#37474f"/>
        <path id="Path_11962" data-name="Path 11962" d="M139.9,368.5a2.228,2.228,0,0,0,.986,1.735,1.024,1.024,0,0,0,.434.118.513.513,0,0,0,.335-.1l2.307-1.321h0a.749.749,0,0,0,.237-.631,2.168,2.168,0,0,0-.986-1.715.651.651,0,0,0-.67,0h0l-2.307,1.321a.71.71,0,0,0-.335.591Z" transform="translate(2.059 12.699)" fill="#f8f6f9"/>
        <path id="Path_11963" data-name="Path 11963" d="M139.9,367.817a2.228,2.228,0,0,0,.986,1.715.729.729,0,0,0,.67.1h0a.749.749,0,0,0,.256-.631,2.188,2.188,0,0,0-1.005-1.715.631.631,0,0,0-.651,0h0a.69.69,0,0,0-.256.532Z" transform="translate(2.059 13.38)" fill="#dfdce2"/>
      </g>
    </g>
    <g id="freepik--Snapchat--inject-1--inject-17" transform="translate(206.634 334.013)">
      <path id="Path_13271" data-name="Path 13271" d="M247.184,414.157h0a33.544,33.544,0,0,1-33.544-33.544h0a33.553,33.553,0,0,1,33.544-33.553h0a33.553,33.553,0,0,1,33.544,33.553h0A33.544,33.544,0,0,1,247.184,414.157Z" transform="translate(-213.64 -347.06)" fill="#e8d8fd" stroke="#263238" stroke-width="1"/>
      <path id="Path_13272" data-name="Path 13272" d="M232.29,354.735a30.223,30.223,0,0,1,9.656-3.805" transform="translate(-214.548 -347.248)" fill="none" stroke="#fff" stroke-linecap="round" stroke-linejoin="round" stroke-width="0.75"/>
      <path id="Path_13273" data-name="Path 13273" d="M216.994,383.753c-.076-.885-.114-1.789-.114-2.692h0a30.442,30.442,0,0,1,12.757-24.8" transform="translate(-213.798 -347.508)" fill="none" stroke="#fff" stroke-linecap="round" stroke-linejoin="round" stroke-width="0.75"/>
      <path id="Path_13274" data-name="Path 13274" d="M270.686,402.53a30.366,30.366,0,0,1-23.25,10.788h0a30.492,30.492,0,0,1-28.627-19.982" transform="translate(-213.892 -349.312)" fill="none" stroke="#fff" stroke-linecap="round" stroke-linejoin="round" stroke-width="0.75"/>
      <path id="Path_13275" data-name="Path 13275" d="M279.089,392.69a30.443,30.443,0,0,1-2.559,5.565" transform="translate(-216.701 -349.281)" fill="none" stroke="#fff" stroke-linecap="round" stroke-linejoin="round" stroke-width="0.75"/>
      <path id="Path_13276" data-name="Path 13276" d="M242.44,350.968a30.442,30.442,0,0,1,6.146-.618h0a30.442,30.442,0,0,1,30.442,30.442h0a30.533,30.533,0,0,1-1.008,7.791" transform="translate(-215.042 -347.22)" fill="none" stroke="#fff" stroke-linecap="round" stroke-linejoin="round" stroke-width="0.75"/>
      <g id="Group_563" data-name="Group 563" transform="translate(2353.646 11198.625)">
        <path id="Path_13520" data-name="Path 13520" d="M265.214,331a1.5,1.5,0,0,0-.756-1.452,1.333,1.333,0,0,0,.6-1.46c-.28-.909-1.4-.849-1.4-.849a1.2,1.2,0,0,0,.255-1.537c-.391-.8-1.588-.382-1.588-.382a1.461,1.461,0,0,0,.153-1.817c-.263-.433-1.087-.382-1.146-.459-1.868-2.437-5.8-7.37-15.514-4.976-7.379,1.826-9.7,8.941-9.34,15.149,0,.093-.5.144-.5.849a1.649,1.649,0,0,1,.229,1.953.951.951,0,0,0,1.07.526,1.384,1.384,0,0,0-.408,1.545,1.2,1.2,0,0,0,1.308.73,1.18,1.18,0,0,0,0,1.333c.11.2.943.246,1.078.331-.459.9.637,1.435.637,1.435.6-.34.985.509,1.146.662,3.787,3.813,11.744,4.925,16.787,2.114a12.83,12.83,0,0,0,6.852-12.482,1.282,1.282,0,0,0,.535-1.214Z" transform="translate(-2571.197 -11490.879)" fill="#62339f"/>
        <path id="Path_13517" data-name="Path 13517" d="M307,191.926l-.212-.272,36.784-30.7,1.282,1.6Z" transform="translate(-2644.926 -11340.999)" fill="#faf5ff"/>
        <path id="Path_13518" data-name="Path 13518" d="M313.587,192.869l-.28.2L284.98,154.42l1.673-1.18Z" transform="translate(-2621.256 -11338.74)" fill="#faf5ff"/>
        <path id="Path_13521" data-name="Path 13521" d="M262.614,329.763c.452-.379-.236-1.052-.542-1.557a1.414,1.414,0,0,1,0-1.375c.469-.5.127-.95-.253-1.517-.263-.433-.952.076-1.011,0-1.868-2.437-15.046-2.276-14.689,3.931,0,.093-1.517-.187-1.517.517-.045.343-.3,2.143,0,2.314-.333.267,1.3.861,1.517,1.226.189.405,1.081,2.12,1.517,2.022C247.186,335.7,262.614,329.763,262.614,329.763Z" transform="translate(-2572.477 -11491.848)" fill="#62339f"/>
      </g>
    </g>
    <g id="freepik--Twitter--inject-1--inject-17" transform="translate(69.71 211.463)">
      <path id="Path_13278" data-name="Path 13278" d="M103.282,285.327h0A33.544,33.544,0,0,1,69.71,251.784h0a33.544,33.544,0,0,1,33.572-33.544h0a33.544,33.544,0,0,1,33.544,33.544h0A33.544,33.544,0,0,1,103.282,285.327Z" transform="translate(-69.71 -218.24)" fill="#e8d8fd" stroke="#263238" stroke-width="1"/>
      <path id="Path_13279" data-name="Path 13279" d="M88.36,225.915a30.157,30.157,0,0,1,9.656-3.805" transform="translate(-70.618 -218.428)" fill="none" stroke="#fff" stroke-linecap="round" stroke-linejoin="round" stroke-width="0.75"/>
      <path id="Path_13280" data-name="Path 13280" d="M73.054,254.933c-.076-.894-.114-1.789-.114-2.7h0A30.442,30.442,0,0,1,85.7,227.43" transform="translate(-69.867 -218.687)" fill="none" stroke="#fff" stroke-linecap="round" stroke-linejoin="round" stroke-width="0.75"/>
      <path id="Path_13281" data-name="Path 13281" d="M126.757,273.729a30.442,30.442,0,0,1-23.222,10.778h0A30.442,30.442,0,0,1,74.91,264.53" transform="translate(-69.963 -220.493)" fill="none" stroke="#fff" stroke-linecap="round" stroke-linejoin="round" stroke-width="0.75"/>
      <path id="Path_13282" data-name="Path 13282" d="M135.149,263.86a29.627,29.627,0,0,1-2.559,5.575" transform="translate(-72.771 -220.461)" fill="none" stroke="#fff" stroke-linecap="round" stroke-linejoin="round" stroke-width="0.75"/>
      <path id="Path_13283" data-name="Path 13283" d="M98.51,222.088a30.439,30.439,0,0,1,6.146-.618h0A30.442,30.442,0,0,1,135.1,251.912h0a30.442,30.442,0,0,1-1.008,7.791" transform="translate(-71.112 -218.397)" fill="none" stroke="#fff" stroke-linecap="round" stroke-linejoin="round" stroke-width="0.75"/>
      <g id="Group_561" data-name="Group 561" transform="translate(2548.591 11375.604)">
        <path id="Path_13508" data-name="Path 13508" d="M582.9,374.194,565.672,379.3a1.761,1.761,0,1,1-1-3.373l17.232-5.109a1.761,1.761,0,0,1,1,3.373Zm-17.979,2.576a.879.879,0,0,0,.5,1.686l17.232-5.109a.879.879,0,0,0-.5-1.686Z" transform="translate(-3087.314 -11713.03)" fill="#7340ae"/>
        <path id="freepik--SVGID--inject-123" d="M577.159,355.366c-2.95,1.792-38.459,12.826-38.459,12.826l.187.622v.068l.187.622s35.783-10.094,39.206-10.2,8.688,3.529,8.688,3.529l-2.228-7.518v-.068l-2.228-7.518S580.109,353.58,577.159,355.366Z" transform="translate(-3078.016 -11704.327)" fill="#7340ae"/>
        <path id="Path_13509" data-name="Path 13509" d="M578.632,372.149l-22.267,6.6a3.917,3.917,0,0,1-2.228-7.511l22.267-6.6a3.92,3.92,0,1,1,2.228,7.518Zm-24,.741a2.164,2.164,0,1,0,1.245,4.145l22.267-6.6a2.164,2.164,0,1,0-1.245-4.145Z" transform="translate(-3082.787 -11710.648)" fill="#37474f"/>
        <rect id="Rectangle_1154" data-name="Rectangle 1154" width="2.327" height="0.933" transform="translate(-2539.033 -11336.764) rotate(73.49)" fill="#7340ae"/>
        <path id="Path_13510" data-name="Path 13510" d="M562.667,385.195l-2.558.759a1.761,1.761,0,0,1-2.184-1.182l-.3-1a1.755,1.755,0,0,1,1.189-2.184l2.558-.759a1.761,1.761,0,0,1,2.184,1.182l.292,1a1.755,1.755,0,0,1-1.182,2.184Zm-3.591-2.769a.877.877,0,0,0-.622,1.1l.292,1a.884.884,0,0,0,1.1.622l2.558-.759a.884.884,0,0,0,.622-1.1l-.3-1a.884.884,0,0,0-1.089-.591Z" transform="translate(-3085.136 -11716.8)" fill="#7340ae"/>
        <rect id="Rectangle_1155" data-name="Rectangle 1155" width="0.772" height="3.105" transform="translate(-2525.365 -11342.433) rotate(-16.52)" fill="#37474f"/>
        <rect id="Rectangle_1156" data-name="Rectangle 1156" width="0.772" height="3.105" transform="translate(-2522.314 -11343.339) rotate(-16.52)" fill="#37474f"/>
        <rect id="Rectangle_1157" data-name="Rectangle 1157" width="0.772" height="3.105" transform="translate(-2519.209 -11344.242) rotate(-16.5)" fill="#37474f"/>
        <path id="Path_13511" data-name="Path 13511" d="M564.618,382.18h0a1.151,1.151,0,0,1-1.431-.778l-2.576-8.712,2.209-.66,2.576,8.712a1.151,1.151,0,0,1-.778,1.438Z" transform="translate(-3086.291 -11713.505)" fill="#62339f"/>
        <path id="Path_13512" data-name="Path 13512" d="M561.84,370.121l-1.313.386a.467.467,0,0,1-.579-.317h0a.473.473,0,0,1,.317-.585l1.307-.386a.473.473,0,0,1,.585.317h0A.473.473,0,0,1,561.84,370.121Z" transform="translate(-3086.034 -11712.436)" fill="#37474f"/>
        <path id="Path_13513" data-name="Path 13513" d="M569.568,380.734h0a1.151,1.151,0,0,1-1.431-.778l-2.576-8.712,2.209-.653,2.576,8.712A1.158,1.158,0,0,1,569.568,380.734Z" transform="translate(-3088.16 -11712.961)" fill="#62339f"/>
        <path id="Path_13514" data-name="Path 13514" d="M566.71,368.661l-1.313.392a.467.467,0,0,1-.579-.317h0a.473.473,0,0,1,.317-.585l1.307-.392a.473.473,0,0,1,.585.317h0a.473.473,0,0,1-.317.585Z" transform="translate(-3087.873 -11711.884)" fill="#37474f"/>
        <path id="Path_13515" data-name="Path 13515" d="M574.564,379.25h0a1.157,1.157,0,0,1-1.437-.784l-2.576-8.712,2.209-.653,2.583,8.712A1.164,1.164,0,0,1,574.564,379.25Z" transform="translate(-3090.045 -11712.398)" fill="#62339f"/>
        <path id="Path_13516" data-name="Path 13516" d="M571.707,367.181l-1.313.392a.473.473,0,0,1-.585-.317h0a.473.473,0,0,1,.317-.585l1.313-.392a.473.473,0,0,1,.585.317h0A.473.473,0,0,1,571.707,367.181Z" transform="translate(-3089.758 -11711.325)" fill="#37474f"/>
        <rect id="Rectangle_1158" data-name="Rectangle 1158" width="0.821" height="15.751" transform="translate(-2495.535 -11356.587) rotate(-16.51)" fill="#7340ae"/>
      </g>
    </g>
    <g id="freepik--Whatsapp--inject-1--inject-17" transform="translate(206.634 81.122)">
      <path id="Path_13285" data-name="Path 13285" d="M247.184,148.317h0a33.544,33.544,0,0,1-33.544-33.544h0A33.544,33.544,0,0,1,247.184,81.23h0a33.544,33.544,0,0,1,33.544,33.544h0A33.544,33.544,0,0,1,247.184,148.317Z" transform="translate(-213.64 -81.23)" fill="#e8d8fd" stroke="#263238" stroke-width="1"/>
      <path id="Path_13288" data-name="Path 13288" d="M232.29,88.9a30.223,30.223,0,0,1,9.656-3.805" transform="translate(-214.548 -81.418)" fill="none" stroke="#fff" stroke-linecap="round" stroke-linejoin="round" stroke-width="0.75"/>
      <path id="Path_13289" data-name="Path 13289" d="M216.994,117.913c-.076-.885-.114-1.788-.114-2.692h0a30.442,30.442,0,0,1,12.757-24.8" transform="translate(-213.798 -81.677)" fill="none" stroke="#fff" stroke-linecap="round" stroke-linejoin="round" stroke-width="0.75"/>
      <path id="Path_13290" data-name="Path 13290" d="M270.686,136.719a30.385,30.385,0,0,1-23.25,10.779h0a30.491,30.491,0,0,1-28.627-19.982" transform="translate(-213.892 -83.483)" fill="none" stroke="#fff" stroke-linecap="round" stroke-linejoin="round" stroke-width="0.75"/>
      <path id="Path_13291" data-name="Path 13291" d="M279.089,126.85a30.823,30.823,0,0,1-2.559,5.575" transform="translate(-216.701 -83.451)" fill="none" stroke="#fff" stroke-linecap="round" stroke-linejoin="round" stroke-width="0.75"/>
      <path id="Path_13292" data-name="Path 13292" d="M242.44,85.078a30.444,30.444,0,0,1,6.146-.618h0A30.442,30.442,0,0,1,279.028,114.9h0a30.532,30.532,0,0,1-1.008,7.791" transform="translate(-215.042 -81.387)" fill="none" stroke="#fff" stroke-linecap="round" stroke-linejoin="round" stroke-width="0.75"/>
      <g id="Group_562" data-name="Group 562" transform="translate(2338.232 11367.557)">
        <path id="Path_740" data-name="Path 740" d="M117.84,194.43H131v28.23a4.64,4.64,0,0,1-4.64,4.64h-3.85a4.64,4.64,0,0,1-4.64-4.64V194.43Z" transform="matrix(-0.747, 0.665, -0.665, -0.747, -2073.075, -11261.642)" fill="#7340ae"/>
        <path id="Path_741" data-name="Path 741" d="M140.25,218.76l3.11,13.37-12.92-4.63Z" transform="translate(-2430.645 -11547.191)" fill="#faf5ff"/>
        <path id="Path_742" data-name="Path 742" d="M142.13,226.84s-3.49-.92-3.89,3.46l5.12,1.83Z" transform="translate(-2430.645 -11547.191)" fill="#7340ae"/>
        <g id="Group_32" data-name="Group 32" transform="translate(-2430.645 -11547.191)" opacity="0.3">
          <line id="Line_8" data-name="Line 8" x1="2.11" y2="1.87" transform="translate(136.69 220.06)" fill="#fff"/>
        </g>
        <path id="Path_743" data-name="Path 743" d="M113.17,208.39a41.382,41.382,0,0,1,4.8-4.64,41.887,41.887,0,0,1,5.17-4.25,42,42,0,0,1-4.81,4.64A45.693,45.693,0,0,1,113.17,208.39Z" transform="translate(-2430.645 -11547.191)" fill="#faf5ff"/>
        <path id="Path_744" data-name="Path 744" d="M114.6,209.8a41.83,41.83,0,0,1,4.71-4.55,39.871,39.871,0,0,1,5.07-4.16,41.33,41.33,0,0,1-4.71,4.56,40.278,40.278,0,0,1-5.07,4.15Z" transform="translate(-2430.645 -11547.191)" fill="#faf5ff"/>
        <path id="Path_745" data-name="Path 745" d="M137.24,221.18c-.11.1-3.69-3.73-8-8.56s-7.7-8.83-7.59-8.93,3.69,3.74,8,8.57S137.35,221.09,137.24,221.18Z" transform="translate(-2430.645 -11547.191)" fill="#faf5ff"/>
        <path id="Path_746" data-name="Path 746" d="M133.27,224.72c-.11.1-3.68-3.74-8-8.57s-7.7-8.82-7.59-8.92,3.69,3.74,8,8.57S133.38,224.62,133.27,224.72Z" transform="translate(-2430.645 -11547.191)" fill="#faf5ff"/>
      </g>
    </g>
    <g id="freepik--character-4--inject-1--inject-17" transform="translate(270.011 263.449)">
      <circle id="Ellipse_155" data-name="Ellipse 155" cx="39.889" cy="39.889" r="39.889" transform="translate(0 0.203)" fill="#491a85" stroke="#263238" stroke-width="1"/>
      <circle id="Ellipse_156" data-name="Ellipse 156" cx="39.889" cy="39.889" r="39.889" transform="translate(0 0.203)" fill="#faf5ff" stroke="#263238" stroke-width="1"/>
      <path id="Path_13293" data-name="Path 13293" d="M320.769,273.09s-20.178-2.188-23.393,7.791,10.35,8.21,8.21,12.843-11.064,10.664-7.5,17.476,9.989,14.27,2.854,11.777-8.914-3.215-7.487,4.633,8.914,9.989,21.043,8.914,11.054,4.642,17.828,5.356,13.556-3.215,13.556-13.2-8.2-7.839-.714-12.833S351.24,298,349.1,294.085s-6.421-2.141-6.421-7.135S332.385,272.424,320.769,273.09Z" transform="translate(-280.88 -272.886)" fill="#263238" stroke="#263238" stroke-width="1"/>
      <path id="Path_13294" data-name="Path 13294" d="M310.15,278s-7.468-1-7.221,3.729,13.2,13.946,25.41,14.2,13.442-5.984,11.7-7.23" transform="translate(-281.363 -273.131)" fill="none" stroke="#fff" stroke-linecap="round" stroke-linejoin="round" stroke-width="0.75"/>
      <path id="Path_13295" data-name="Path 13295" d="M318.369,282.16s-5.974.742-5.232,4.757,4.481,5.974,10.217,8.219" transform="translate(-281.857 -273.338)" fill="none" stroke="#fff" stroke-linecap="round" stroke-linejoin="round" stroke-width="0.75"/>
      <path id="Path_13296" data-name="Path 13296" d="M349.083,307.81s-.495,6.231-8.21,10.217-14.669,9.941-8.01,12.948,10.465,6.469,7.972,7.221" transform="translate(-282.69 -274.586)" fill="none" stroke="#fff" stroke-linecap="round" stroke-linejoin="round" stroke-width="0.75"/>
      <path id="Path_13297" data-name="Path 13297" d="M309.385,327.18s-2.987,6.973-7.468,5.708-5.984-4.757-2.987-4.757,3.234,1.494,3.234,1.494" transform="translate(-281.093 -275.529)" fill="none" stroke="#fff" stroke-linecap="round" stroke-linejoin="round" stroke-width="0.75"/>
      <path id="Path_13298" data-name="Path 13298" d="M334.841,297.18s6.117-.1,5.118,5.879-6.726,6.479-8.219,10.959" transform="translate(-282.766 -274.069)" fill="none" stroke="#fff" stroke-linecap="round" stroke-linejoin="round" stroke-width="0.75"/>
      <path id="Path_13299" data-name="Path 13299" d="M320.583,355.654a39.679,39.679,0,0,0,24.668-8.562c-2.8-2.064-7.782-5.708-10.683-7.611-4.2-2.8-9.789-11.5-17.257-9.951-5.993,1.256-22.033,8.162-28.14,10.845A39.841,39.841,0,0,0,320.583,355.654Z" transform="translate(-280.694 -275.634)" fill="#fff" stroke="#263238" stroke-width="1"/>
      <path id="Path_13300" data-name="Path 13300" d="M316.825,328.146s-11.054,3.206-12.481,12.481,9.095,2.588,9.095,2.588,5.527,8.115,10.522,5.622,5.708-11.064,2.854-16.772S316.825,328.146,316.825,328.146Z" transform="translate(-281.426 -275.563)" fill="#fff" stroke="#263238" stroke-width="1"/>
      <path id="Path_13301" data-name="Path 13301" d="M316.916,320.659a29.347,29.347,0,0,1-1.227,8.981c-1.4,4.309-5.955,10.246-1.9,12.909s9.247-5.813,10.6-12.929S326.714,314,326.714,314Z" transform="translate(-281.812 -274.888)" fill="#fff"/>
      <g id="Group_375" data-name="Group 375" transform="translate(30.333 39.112)" clip-path="url(#clip-path)">
        <path id="Path_13302" data-name="Path 13302" d="M316.17,328.691a17.894,17.894,0,0,0,4.043.951c1.237.143,1.731-.124,1.9-.438-.152,1.779-.733,6.659-2.759,10.255-.618,1.1-1.123,2.036-1.522,2.854,3.006-2.026,5.813-7.677,6.764-12.662,1.351-7.106,2.293-15.592,2.293-15.592l-9.8,6.659a30.311,30.311,0,0,1-.923,7.972Z" transform="translate(-312.341 -314.003)" fill="#491a85" opacity="0.5"/>
      </g>
      <path id="Path_13304" data-name="Path 13304" d="M316.916,320.659a29.347,29.347,0,0,1-1.227,8.981c-1.4,4.309-5.955,10.246-1.9,12.909s9.247-5.813,10.6-12.929S326.714,314,326.714,314Z" transform="translate(-281.812 -274.888)" fill="none" stroke="#263238" stroke-width="1"/>
      <path id="Path_13305" data-name="Path 13305" d="M310.695,292s-3.425,14.27-3.425,19.588,4.89,11.825,11.092,12.367c7.915.637,10.826-10,12.538-16.058,1.484-5.261,2.492-9.808,2.74-10.931C321.606,301.513,310.695,292,310.695,292Z" transform="translate(-281.575 -273.817)" fill="#fff"/>
      <g id="Group_376" data-name="Group 376" transform="translate(25.695 18.183)" clip-path="url(#clip-path-2)">
        <path id="Path_13306" data-name="Path 13306" d="M334.033,297.18a18.962,18.962,0,0,1-3.7,1c-.561,3.625-2.283,12.539-6.231,18.018-3.349,4.652-6.935,6.336-8.971,6.945a10.169,10.169,0,0,0,3.625,1.027c7.915.637,10.826-10,12.538-16.058" transform="translate(-307.652 -292.252)" fill="#491a85" opacity="0.5"/>
      </g>
      <path id="Path_13308" data-name="Path 13308" d="M310.695,292s-3.425,14.27-3.425,19.588,4.89,11.825,11.092,12.367c7.915.637,10.826-10,12.538-16.058,1.484-5.261,2.492-9.808,2.74-10.931C321.606,301.513,310.695,292,310.695,292Z" transform="translate(-281.575 -273.817)" fill="none" stroke="#263238" stroke-width="1"/>
      <path id="Path_13309" data-name="Path 13309" d="M317.46,302.62a14.918,14.918,0,0,1-2.026,4.357c-1.237,1.551-3.881.152-3.1,1.084a5.042,5.042,0,0,0,3.567,1.9" transform="translate(-281.814 -274.334)" fill="none" stroke="#263238" stroke-linecap="round" stroke-linejoin="round" stroke-width="1"/>
      <path id="Path_13310" data-name="Path 13310" d="M311.44,313.44s2.331,3.425,7.144,1.712" transform="translate(-281.778 -274.86)" fill="none" stroke="#263238" stroke-linecap="round" stroke-linejoin="round" stroke-width="1"/>
      <path id="Path_13311" data-name="Path 13311" d="M315.261,301.374c-.143.847-.637,1.475-1.1,1.389s-.733-.828-.59-1.674.637-1.465,1.1-1.389S315.4,300.527,315.261,301.374Z" transform="translate(-281.879 -274.191)" fill="#263238"/>
      <path id="Path_13312" data-name="Path 13312" d="M323.5,303.722c-.209.837-.742,1.427-1.2,1.313s-.666-.875-.466-1.712.733-1.417,1.2-1.313S323.7,302.894,323.5,303.722Z" transform="translate(-282.28 -274.303)" fill="#263238"/>
      <path id="Path_13313" data-name="Path 13313" d="M312,296.969s1.246-2.949,4.975-1.237" transform="translate(-281.805 -273.972)" fill="none" stroke="#263238" stroke-linecap="round" stroke-linejoin="round" stroke-width="1"/>
      <path id="Path_13314" data-name="Path 13314" d="M321.79,298.382s3.425-1.085,4.357,2.331" transform="translate(-282.281 -274.119)" fill="none" stroke="#263238" stroke-linecap="round" stroke-linejoin="round" stroke-width="1"/>
    </g>
    <g id="freepik--character-3--inject-1--inject-17" transform="translate(131.156 255.739)">
      <circle id="Ellipse_157" data-name="Ellipse 157" cx="39.889" cy="39.889" r="39.889" transform="translate(0 7.914)" fill="#491a85" stroke="#263238" stroke-width="1"/>
      <circle id="Ellipse_158" data-name="Ellipse 158" cx="39.889" cy="39.889" r="39.889" transform="translate(0 7.914)" fill="#faf5ff" stroke="#263238" stroke-width="1"/>
      <path id="Path_13315" data-name="Path 13315" d="M150,346.705a39.851,39.851,0,0,0,54.045-3.748c-4.49-5.784-13.69-15.7-23.926-15.7C168.76,327.26,155.27,340.816,150,346.705Z" transform="translate(-135.064 -267.823)" fill="#fff" stroke="#263238" stroke-width="1"/>
      <path id="Path_13316" data-name="Path 13316" d="M171.211,324.117s-6.764.771-7.344,5.993,3.472,13.918,3.862,14.879,9.085-7.725,12.367-7.725,11.787,4.633,11.787,4.633-2.7-10.826-7.534-14.888S172.553,322.566,171.211,324.117Z" transform="translate(-135.736 -267.629)" fill="#fff" stroke="#263238" stroke-width="1"/>
      <path id="Path_13317" data-name="Path 13317" d="M161.979,303.924s-2.9-2.9-4.443-.58-.2,5.023,1.9,6.764,5.413,1.9,5.413.58S161.979,303.924,161.979,303.924Z" transform="translate(-135.399 -266.615)" fill="#491a85" stroke="#263238" stroke-width="1" opacity="0.5"/>
      <path id="Path_13318" data-name="Path 13318" d="M161.979,303.924s-2.9-2.9-4.443-.58-.2,5.023,1.9,6.764,5.413,1.9,5.413.58S161.979,303.924,161.979,303.924Z" transform="translate(-135.399 -266.615)" fill="none" stroke="#263238" stroke-width="1"/>
      <path id="Path_13319" data-name="Path 13319" d="M188.46,296.854s1.351-3.482,3.282.19S190,304,190,304Z" transform="translate(-136.936 -266.27)" fill="#fff" stroke="#263238" stroke-width="1"/>
      <path id="Path_13320" data-name="Path 13320" d="M165.29,311.15s3.862,13.918,4.833,18.751,5.413,11.8,8.7,9.513,3.1-6.574,1.161-10.246a45.188,45.188,0,0,1-3.092-7.925Z" transform="translate(-135.808 -267.038)" fill="#fff"/>
      <g id="Group_377" data-name="Group 377" transform="translate(29.482 44.112)" clip-path="url(#clip-path-3)">
        <path id="Path_13321" data-name="Path 13321" d="M179.978,329.13a45.188,45.188,0,0,1-3.092-7.924l-11.6-10.055s3.168,11.416,4.481,17.124a17.048,17.048,0,0,0,5.622,2.9,7.116,7.116,0,0,0,5.251-.6,12.614,12.614,0,0,0-.666-1.446Z" transform="translate(-165.29 -311.15)" fill="#491a85" opacity="0.5"/>
      </g>
      <path id="Path_13323" data-name="Path 13323" d="M165.29,311.15s3.862,13.918,4.833,18.751,5.413,11.8,8.7,9.513,3.1-6.574,1.161-10.246a45.188,45.188,0,0,1-3.092-7.925Z" transform="translate(-135.808 -267.038)" fill="none" stroke="#263238" stroke-width="1"/>
      <path id="Path_13324" data-name="Path 13324" d="M157.665,294.395s9.085,21.88,12.957,26.875,14.27,5.413,18.751-1.9-.58-17.2-1.351-21.652-2.854-11.787-1.551-13.138,6.764-2.321,4.642-5.8-5.223-1.741-5.6-4.252,1.541-8.7-5.613-9.666-19.721,7.535-24.734,14.108S148.551,291.493,157.665,294.395Z" transform="translate(-135.118 -264.781)" fill="#263238" stroke="#263238" stroke-width="1"/>
      <path id="Path_13325" data-name="Path 13325" d="M160.805,288.151s-5.955-.447-2.968-6.174,22.917-13.442,23.165-9.209-4.233,5.48-4.233,5.48" transform="translate(-135.405 -265.111)" fill="none" stroke="#fff" stroke-linecap="round" stroke-linejoin="round" stroke-width="0.75"/>
      <path id="Path_13326" data-name="Path 13326" d="M169.252,282.9s-4.481-1-2.987-4.233,12.453-4.757,10.465-2.74a17.426,17.426,0,0,1-3.986,2.987" transform="translate(-135.841 -265.279)" fill="none" stroke="#fff" stroke-linecap="round" stroke-linejoin="round" stroke-width="0.75"/>
      <path id="Path_13327" data-name="Path 13327" d="M184.155,309.73s-3.282,5.213-8.5,2.7" transform="translate(-136.313 -266.969)" fill="none" stroke="#fff" stroke-linecap="round" stroke-linejoin="round" stroke-width="0.75"/>
      <path id="Path_13328" data-name="Path 13328" d="M188.456,298.449c-.723-4.157-2.635-10.864-1.769-12.814-.58-1.4-2.578-4.661-8.476-4.966-7.544-.39-15.659,3.862-17.209,7.924s2.131,1.9,3.482,4.833-2.131,6.383-1.351,8.5,4.443,10.465,4.443,10.465c.58-2.321,9.285-6.193,9.285-6.193a12.368,12.368,0,0,0,3.862.39c1.741-.19.771-1.741.771-1.741l8.914.533C189.645,302.578,188.741,300.133,188.456,298.449Z" transform="translate(-135.581 -265.553)" fill="#fff"/>
      <g id="Group_378" data-name="Group 378" transform="translate(25.045 15.09)" clip-path="url(#clip-path-4)">
        <path id="Path_13329" data-name="Path 13329" d="M167.869,290.393c-.361-3.805-2.854-4.557-4.509-4.623a8.19,8.19,0,0,0-2.378,3.073c-1.541,4.062,2.131,1.9,3.482,4.833s-2.131,6.383-1.351,8.5,4.443,10.465,4.443,10.465c.19-.742,1.2-1.646,2.492-2.521-1.9-2.711-4.224-6.012-5.537-7.925C162.037,298.537,168.43,296.292,167.869,290.393Z" transform="translate(-160.626 -280.893)" fill="#491a85" opacity="0.5"/>
      </g>
      <path id="Path_13331" data-name="Path 13331" d="M188.456,298.449c-.723-4.157-2.635-10.864-1.769-12.814-.58-1.4-2.578-4.661-8.476-4.966-7.544-.39-15.659,3.862-17.209,7.924s2.131,1.9,3.482,4.833-2.131,6.383-1.351,8.5,4.443,10.465,4.443,10.465c.58-2.321,9.285-6.193,9.285-6.193a12.368,12.368,0,0,0,3.862.39c1.741-.19.771-1.741.771-1.741l8.914.533C189.645,302.578,188.741,300.133,188.456,298.449Z" transform="translate(-135.581 -265.553)" fill="none" stroke="#263238" stroke-width="1"/>
      <path id="Path_13332" data-name="Path 13332" d="M172.56,298.29c.247,1.075,0,2.055-.485,2.169s-1.132-.666-1.37-1.75,0-2.055.485-2.169S172.322,297.205,172.56,298.29Z" transform="translate(-136.068 -266.327)" fill="#263238"/>
      <path id="Path_13333" data-name="Path 13333" d="M184.66,295.8c.247,1.085,0,2.055-.485,2.169s-1.132-.666-1.379-1.75,0-2.055.495-2.169S184.412,294.715,184.66,295.8Z" transform="translate(-136.656 -266.205)" fill="#263238"/>
      <path id="Path_13334" data-name="Path 13334" d="M167.93,292.91s.771-4.252,5.223-2.512" transform="translate(-135.937 -266.008)" fill="none" stroke="#263238" stroke-linecap="round" stroke-linejoin="round" stroke-width="1"/>
      <path id="Path_13335" data-name="Path 13335" d="M185.7,288.352c-3.292-2.131-4.452.951-4.452.951s-2.083,2.283-1.237,6.5" transform="translate(-136.515 -265.892)" fill="none" stroke="#263238" stroke-linecap="round" stroke-linejoin="round" stroke-width="1"/>
      <line id="Line_157" data-name="Line 157" y1="2.312" x2="5.603" transform="translate(32.573 35.997)" fill="none" stroke="#263238" stroke-linecap="round" stroke-linejoin="round" stroke-width="0.5"/>
      <line id="Line_158" data-name="Line 158" y1="0.39" x2="4.633" transform="translate(46.111 33.866)" fill="none" stroke="#263238" stroke-linecap="round" stroke-linejoin="round" stroke-width="0.5"/>
    </g>
    <g id="freepik--character-2--inject-1--inject-17" transform="translate(261.782 124.895)">
      <circle id="Ellipse_159" data-name="Ellipse 159" cx="39.889" cy="39.889" r="39.889" transform="translate(0 24.986) rotate(-13.53)" fill="#491a85" stroke="#263238" stroke-width="1"/>
      <circle id="Ellipse_160" data-name="Ellipse 160" cx="39.889" cy="39.889" r="39.889" transform="translate(0 24.986) rotate(-13.53)" fill="#faf5ff" stroke="#263238" stroke-width="1"/>
      <ellipse id="Ellipse_161" data-name="Ellipse 161" cx="27.978" cy="29.13" rx="27.978" ry="29.13" transform="matrix(0.348, -0.938, 0.938, 0.348, 17.833, 52.465)" fill="#263238" stroke="#263238" stroke-width="1"/>
      <path id="Path_13336" data-name="Path 13336" d="M357.767,159.64a25.135,25.135,0,0,1-.247,14.374" transform="translate(-275.792 -128.82)" fill="none" stroke="#fff" stroke-linecap="round" stroke-linejoin="round" stroke-width="0.75"/>
      <path id="Path_13337" data-name="Path 13337" d="M355.518,178.72s-1.769,2.274-2.778,3.539" transform="translate(-275.559 -129.749)" fill="none" stroke="#fff" stroke-linecap="round" stroke-linejoin="round" stroke-width="0.75"/>
      <path id="Path_13338" data-name="Path 13338" d="M312.06,146.91s-4.034,4.757-1.513,10.6" transform="translate(-273.465 -128.2)" fill="none" stroke="#fff" stroke-linecap="round" stroke-linejoin="round" stroke-width="0.75"/>
      <path id="Path_13339" data-name="Path 13339" d="M320.622,225.309a39.68,39.68,0,0,0,20.824-5.86c-4.652-4.29-16.762-14.974-22.47-15.44-5.974-.485-23.412,5.1-29,6.954a39.813,39.813,0,0,0,30.642,14.346Z" transform="translate(-272.504 -130.978)" fill="#fff" stroke="#263238" stroke-width="1"/>
      <path id="Path_13340" data-name="Path 13340" d="M327.488,209.042c.162-.476.3-.951.457-1.341-3.063-2.036-5.946-3.52-7.991-3.691a29.843,29.843,0,0,0-7.373.847c-1.056,2.854-1.332,5.708-2.188,10.569-1.161,6.574.58,8.5,5.413,5.993S325.556,214.836,327.488,209.042Z" transform="translate(-273.481 -130.98)" fill="#fff" stroke="#263238" stroke-width="1"/>
      <path id="Path_13341" data-name="Path 13341" d="M316,196.223s1.161,2.131-.19,7.154-4.757,13.319-3.177,14.9,11.1-5.613,11.483-11.026.39-16.239.39-16.239Z" transform="translate(-273.587 -130.347)" fill="#fff"/>
      <g id="Group_379" data-name="Group 379" transform="translate(38.633 60.663)" clip-path="url(#clip-path-5)">
        <path id="Path_13342" data-name="Path 13342" d="M316.637,199.476l6.108,4.757-.466,7.611a9.371,9.371,0,0,0,2.026-4.6c.39-5.413.39-16.239.39-16.239l-8.5,5.213a6.821,6.821,0,0,1,.447,3.263Z" transform="translate(-312.413 -191.01)" fill="#491a85" opacity="0.5"/>
      </g>
      <path id="Path_13344" data-name="Path 13344" d="M316,196.223s1.161,2.131-.19,7.154-4.757,13.319-3.177,14.9,11.1-5.613,11.483-11.026.39-16.239.39-16.239Z" transform="translate(-273.587 -130.347)" fill="none" stroke="#263238" stroke-width="1"/>
      <path id="Path_13345" data-name="Path 13345" d="M305.808,171.4s-1.351-3.482-3.092-.951.381,5.6,1.351,5.6S305.808,171.4,305.808,171.4Z" transform="translate(-273.092 -129.301)" fill="#fff" stroke="#263238" stroke-width="1"/>
      <path id="Path_13346" data-name="Path 13346" d="M310.334,159.71s-5.6,11.016-6.954,18.56,4.252,18.941,9.856,18.941,14.27-8.7,14.27-8.7,8.115.19,9.275-2.511-.19-4.833-2.321-4.833h-4.252s-1.161.58-.58-4.833,2.321-7.925,2.321-7.925S317.278,169.566,310.334,159.71Z" transform="translate(-273.146 -128.823)" fill="#fff"/>
      <g id="Group_380" data-name="Group 380" transform="translate(30.029 30.887)" clip-path="url(#clip-path-6)">
        <path id="Path_13347" data-name="Path 13347" d="M325.587,185.47a18.513,18.513,0,0,1-14.27,11.5h-.057a4.956,4.956,0,0,0,2.407.675c5.6,0,14.27-8.7,14.27-8.7s8.115.19,9.275-2.512-.19-4.833-2.321-4.833h-4.252s-1.161.58-.58-4.833,2.321-7.925,2.321-7.925a24.89,24.89,0,0,1-2.521,0h-.067" transform="translate(-303.569 -160.155)" fill="#491a85" opacity="0.5"/>
      </g>
      <path id="Path_13349" data-name="Path 13349" d="M310.334,159.71s-5.6,11.016-6.954,18.56,4.252,18.941,9.856,18.941,14.27-8.7,14.27-8.7,8.115.19,9.275-2.511-.19-4.833-2.321-4.833h-4.252s-1.161.58-.58-4.833,2.321-7.925,2.321-7.925S317.278,169.566,310.334,159.71Z" transform="translate(-273.146 -128.823)" fill="none" stroke="#263238" stroke-width="1"/>
      <path id="Path_13350" data-name="Path 13350" d="M311.708,172.568c-.228,1.008-.7,1.76-1.056,1.684s-.447-.951-.219-1.979.7-1.76,1.056-1.684S311.918,171.551,311.708,172.568Z" transform="translate(-273.494 -129.353)" fill="#263238"/>
      <path id="Path_13351" data-name="Path 13351" d="M321.258,176.829c-.228,1.008-.7,1.769-1.056,1.684s-.447-.951-.219-1.969.7-1.769,1.056-1.684S321.487,175.82,321.258,176.829Z" transform="translate(-273.959 -129.56)" fill="#263238"/>
      <path id="Path_13352" data-name="Path 13352" d="M313.149,175.36s-4.252,3.092-3.672,3.862a10.769,10.769,0,0,0,5.613,2.511c1.741,0,1.351-2.121,1.351-2.121" transform="translate(-273.451 -129.585)" fill="none" stroke="#263238" stroke-linecap="round" stroke-linejoin="round" stroke-width="1"/>
      <path id="Path_13353" data-name="Path 13353" d="M310.09,184.621a11.72,11.72,0,0,0,6.964,1.351,6.317,6.317,0,0,0,4.833-3.092" transform="translate(-273.483 -129.951)" fill="none" stroke="#263238" stroke-linecap="round" stroke-linejoin="round" stroke-width="1"/>
      <path id="Path_13354" data-name="Path 13354" d="M310.5,167.788s1.161-2.511,3.482.39" transform="translate(-273.503 -129.167)" fill="none" stroke="#263238" stroke-linecap="round" stroke-linejoin="round" stroke-width="1"/>
      <path id="Path_13355" data-name="Path 13355" d="M320.86,171.492s3.872-1.161,3.872,2.7" transform="translate(-274.007 -129.389)" fill="none" stroke="#263238" stroke-linecap="round" stroke-linejoin="round" stroke-width="1"/>
    </g>
    <g id="freepik--character-1--inject-1--inject-17" transform="translate(125.212 133.507)">
      <circle id="Ellipse_162" data-name="Ellipse 162" cx="39.889" cy="39.889" r="39.889" transform="matrix(0.987, -0.162, 0.162, 0.987, 0, 12.947)" fill="#491a85" stroke="#263238" stroke-width="1"/>
      <circle id="Ellipse_163" data-name="Ellipse 163" cx="39.889" cy="39.889" r="39.889" transform="matrix(0.987, -0.162, 0.162, 0.987, 0, 12.947)" fill="#faf5ff" stroke="#263238" stroke-width="1"/>
      <path id="Path_13356" data-name="Path 13356" d="M146.992,202.495c-.685,2.73-3.805,2.35-2.854,5.708a39.87,39.87,0,0,0,52.713,7.087c2.854-3.377,4.566-6.926,4.642-9.78.257-8.714-8.952-15.221-9.447-19.417s3.482-13.68,3.482-13.68,6.964-1,9.456-7.211-6.983-20.187-15.45-24.421-22.642-.495-29.605,9.7,1.494,19.16-2.987,23.888-16.173,4.975-17.419,14.432S147.734,199.507,146.992,202.495Z" transform="translate(-128.605 -136.43)" fill="#263238" stroke="#263238" stroke-width="1"/>
      <path id="Path_13357" data-name="Path 13357" d="M190.023,150.84s2.521,6.174-7.3,9.818-17.39,1.684-19.921,8.134-.561,10.95-.276,14.27-7.611,2.8-12.367,7.011,4.757,9.256,7.3,12.063,1.96,7.011-2.531,8.419" transform="translate(-129.064 -137.003)" fill="none" stroke="#fff" stroke-linecap="round" stroke-linejoin="round" stroke-width="0.75"/>
      <path id="Path_13358" data-name="Path 13358" d="M160.87,163.362s3.644-8.981,9.256-10.388,11.787,2.806,15.992-1.123,3.368-6.726.276-8.971" transform="translate(-129.649 -136.615)" fill="none" stroke="#fff" stroke-linecap="round" stroke-linejoin="round" stroke-width="0.75"/>
      <path id="Path_13359" data-name="Path 13359" d="M196.55,154.67s9.827,6.459,6.459,11.511-4.49-1.123-4.49-1.123" transform="translate(-131.386 -137.189)" fill="none" stroke="#fff" stroke-linecap="round" stroke-linejoin="round" stroke-width="0.75"/>
      <path id="Path_13360" data-name="Path 13360" d="M153.49,218.806a39.86,39.86,0,0,0,48.793-4.3,89.2,89.2,0,0,0-9.323-7.477c-6.222-4.233-11.2-5.708-14.679-5.48,0,0-2.74,1.246-7.963,6.222C166.913,211.014,158.732,215.838,153.49,218.806Z" transform="translate(-129.29 -139.47)" fill="#fff" stroke="#263238" stroke-width="1"/>
      <path id="Path_13361" data-name="Path 13361" d="M188.418,208.392a17.124,17.124,0,0,0-.7-4.89,18.075,18.075,0,0,0-8.5-1.9s-2.179.951-6.336,4.757a17.269,17.269,0,0,0-.133,2.121c0,6.536,3.5,11.825,7.829,11.825S188.418,214.928,188.418,208.392Z" transform="translate(-130.228 -139.473)" fill="#fff" stroke="#263238" stroke-width="1"/>
      <path id="Path_13362" data-name="Path 13362" d="M177.4,188.21s0,6.973-.742,13.442.247,13.433,4.975,13.927,3.977-10.693,3.482-15.174a40.721,40.721,0,0,1,0-8.457Z" transform="translate(-130.407 -138.822)" fill="#fff"/>
      <g id="Group_381" data-name="Group 381" transform="translate(46.03 49.388)" clip-path="url(#clip-path-7)">
        <path id="Path_13363" data-name="Path 13363" d="M176.52,203.157l8.4-8.143v-.733l-1.712-3.187-5.832-2.854s0,6.973-.742,13.442C176.606,202.148,176.558,202.653,176.52,203.157Z" transform="translate(-176.441 -188.211)" fill="#491a85" opacity="0.5"/>
      </g>
      <path id="Path_13365" data-name="Path 13365" d="M177.4,188.21s0,6.973-.742,13.442.247,13.433,4.975,13.927,3.977-10.693,3.482-15.174a40.721,40.721,0,0,1,0-8.457Z" transform="translate(-130.407 -138.822)" fill="none" stroke="#263238" stroke-width="1"/>
      <path id="Path_13366" data-name="Path 13366" d="M193.768,155.52s.495,3.234-7.963,7.221-12.691,7.211-13.433,10.94-1,5.232-1,5.232-1.741-3.491-4.975-1.75-.247,8.467,2.74,8.714,3.729-.752,3.729-.752,9.7,9.7,15.421,9.7,7.963-5.47,9.209-15.221C198.705,170.246,193.768,155.52,193.768,155.52Z" transform="translate(-129.85 -137.23)" fill="#fff"/>
      <g id="Group_382" data-name="Group 382" transform="translate(35.148 18.289)" clip-path="url(#clip-path-8)">
        <path id="Path_13367" data-name="Path 13367" d="M175.093,176.055a18.075,18.075,0,0,1,3.234-8.7c-3.548,2.321-5.48,4.509-5.955,6.907-.752,3.739-1,5.232-1,5.232s-1.741-3.491-4.975-1.75-.247,8.467,2.74,8.714,3.729-.752,3.729-.752,9.7,9.7,15.421,9.7a24.976,24.976,0,0,1-4.757-3.082C180.145,189.849,174.818,182.238,175.093,176.055Z" transform="translate(-164.999 -156.096)" fill="#491a85" opacity="0.5"/>
      </g>
      <path id="Path_13369" data-name="Path 13369" d="M193.768,155.52s.495,3.234-7.963,7.221-12.691,7.211-13.433,10.94-1,5.232-1,5.232-1.741-3.491-4.975-1.75-.247,8.467,2.74,8.714,3.729-.752,3.729-.752,9.7,9.7,15.421,9.7,7.963-5.47,9.209-15.221C198.705,170.246,193.768,155.52,193.768,155.52Z" transform="translate(-129.85 -137.23)" fill="none" stroke="#263238" stroke-width="1"/>
      <path id="Path_13370" data-name="Path 13370" d="M193.38,171.39a5.86,5.86,0,0,0,.323,4.757c1.3,2.445,1.96,3.253,1.475,3.91a2.017,2.017,0,0,1-2.778.656" transform="translate(-131.184 -138.003)" fill="none" stroke="#263238" stroke-linecap="round" stroke-linejoin="round" stroke-width="1"/>
      <path id="Path_13371" data-name="Path 13371" d="M192.074,187.256s-4.757,1.8-6.364-1.636" transform="translate(-130.859 -138.696)" fill="none" stroke="#263238" stroke-linecap="round" stroke-linejoin="round" stroke-width="1"/>
      <path id="Path_13372" data-name="Path 13372" d="M187.363,175.153c0,1.037-.295,1.9-.656,1.9s-.647-.837-.647-1.9.285-1.9.647-1.9S187.363,174.116,187.363,175.153Z" transform="translate(-130.876 -138.094)" fill="#263238"/>
      <ellipse id="Ellipse_164" data-name="Ellipse 164" cx="0.656" cy="1.874" rx="0.656" ry="1.874" transform="translate(63.822 33.064)" fill="#263238"/>
      <path id="Path_13373" data-name="Path 13373" d="M182.46,169.4s.951-2.616,4.89-2.121" transform="translate(-130.7 -137.8)" fill="none" stroke="#263238" stroke-linecap="round" stroke-linejoin="round" stroke-width="1"/>
      <path id="Path_13374" data-name="Path 13374" d="M193.6,166.689s1.142-2.768,3.587-.485" transform="translate(-131.243 -137.707)" fill="none" stroke="#263238" stroke-linecap="round" stroke-linejoin="round" stroke-width="1"/>
    </g>
  </g>
</svg>
