<svg width="433" height="366" viewBox="0 0 433 366" fill="none" xmlns="http://www.w3.org/2000/svg">
<path d="M417.247 0.840881H57.3952C49.5343 0.840881 43.1617 7.42292 43.1617 15.5423V256.129C43.1617 264.248 49.5343 270.83 57.3952 270.83H417.247C425.108 270.83 431.48 264.248 431.48 256.129V15.5423C431.48 7.42292 425.108 0.840881 417.247 0.840881Z" fill="white"/>
<path d="M417.247 271.584H57.3809C53.4183 271.576 49.6202 269.947 46.8183 267.053C44.0163 264.159 42.4389 260.236 42.4315 256.143V15.4698C42.4574 11.3895 44.043 7.48512 46.8429 4.6067C49.6429 1.72829 53.4305 0.109001 57.3809 0.10144H417.247C421.21 0.105279 425.011 1.7333 427.813 4.62819C430.616 7.52307 432.192 11.4483 432.196 15.5422V256.216C432.174 260.297 430.589 264.204 427.789 267.083C424.988 269.962 421.198 271.58 417.247 271.584ZM57.3809 1.59478C53.8018 1.60244 50.3714 3.07436 47.8406 5.68836C45.3098 8.30236 43.8848 11.8455 43.8773 15.5422V256.216C43.8848 259.913 45.3098 263.456 47.8406 266.07C50.3714 268.684 53.8018 270.156 57.3809 270.163H417.247C420.827 270.159 424.259 268.689 426.791 266.074C429.323 263.459 430.746 259.914 430.75 256.216V15.5422C430.746 11.8443 429.323 8.29896 426.791 5.68413C424.259 3.06931 420.827 1.59862 417.247 1.59478H57.3809Z" fill="#231F20"/>
<path d="M257.899 270.83H206.916V324.721H257.899V270.83Z" fill="#2945FF"/>
<path d="M257.871 325.446H206.917C206.731 325.446 206.552 325.369 206.42 325.233C206.289 325.097 206.215 324.913 206.215 324.721V270.83C206.215 270.736 206.233 270.642 206.269 270.555C206.304 270.468 206.356 270.389 206.421 270.323C206.487 270.256 206.564 270.204 206.649 270.17C206.734 270.135 206.825 270.118 206.917 270.12H257.871C258.053 270.12 258.228 270.195 258.357 270.328C258.486 270.461 258.559 270.642 258.559 270.83V324.75C258.552 324.934 258.476 325.109 258.349 325.239C258.221 325.368 258.05 325.442 257.871 325.446ZM207.59 323.996H257.169V271.555H207.619L207.59 323.996Z" fill="#231F20"/>
<path d="M284.358 324.721H180.457C177.627 324.721 175.333 327.09 175.333 330.013V330.027C175.333 332.95 177.627 335.319 180.457 335.319H284.358C287.188 335.319 289.482 332.95 289.482 330.027V330.013C289.482 327.09 287.188 324.721 284.358 324.721Z" fill="#2945FF"/>
<path d="M284.345 336.03H180.471C178.926 336.03 177.445 335.396 176.352 334.267C175.26 333.139 174.646 331.609 174.646 330.013C174.646 328.417 175.26 326.887 176.352 325.758C177.445 324.63 178.926 323.996 180.471 323.996H284.345C285.89 323.996 287.372 324.63 288.464 325.758C289.556 326.887 290.17 328.417 290.17 330.013C290.17 331.609 289.556 333.139 288.464 334.267C287.372 335.396 285.89 336.03 284.345 336.03ZM180.471 325.446C179.34 325.512 178.276 326.022 177.497 326.873C176.719 327.723 176.285 328.85 176.285 330.02C176.285 331.191 176.719 332.317 177.497 333.167C178.276 334.018 179.34 334.529 180.471 334.594H284.345C284.947 334.629 285.551 334.537 286.117 334.323C286.684 334.109 287.203 333.778 287.641 333.35C288.08 332.921 288.429 332.405 288.668 331.833C288.907 331.26 289.03 330.643 289.03 330.02C289.03 329.397 288.907 328.78 288.668 328.207C288.429 327.635 288.08 327.119 287.641 326.691C287.203 326.262 286.684 325.931 286.117 325.717C285.551 325.503 284.947 325.411 284.345 325.446H180.471Z" fill="#231F20"/>
<path d="M431.48 13.8315H43.1617V232.569H431.48V13.8315Z" fill="white"/>
<path d="M431.48 233.308H43.1054C43.0102 233.31 42.9156 233.293 42.8271 233.256C42.7386 233.22 42.6581 233.166 42.5901 233.097C42.5221 233.028 42.4681 232.946 42.4313 232.855C42.3944 232.765 42.3755 232.667 42.3755 232.569V13.8315C42.3697 13.7289 42.3844 13.6261 42.4185 13.5296C42.4526 13.433 42.5054 13.3447 42.5738 13.27C42.6421 13.1953 42.7246 13.1359 42.816 13.0953C42.9074 13.0547 43.0059 13.0339 43.1054 13.0341H431.48C431.575 13.034 431.67 13.0536 431.757 13.0917C431.845 13.1298 431.925 13.1855 431.991 13.2557C432.058 13.3259 432.111 13.4092 432.146 13.5006C432.181 13.5919 432.198 13.6897 432.196 13.788V232.569C432.196 232.666 432.178 232.762 432.142 232.852C432.106 232.942 432.053 233.023 431.986 233.092C431.92 233.16 431.841 233.215 431.754 233.252C431.667 233.289 431.574 233.308 431.48 233.308ZM43.8774 231.859H430.75V14.5709H43.8774V231.859Z" fill="#231F20"/>
<path d="M250.852 191.002H69.9575C69.7713 191.002 69.5928 190.926 69.4612 190.79C69.3296 190.654 69.2556 190.469 69.2556 190.277V43.4807C69.2556 43.2885 69.3296 43.1041 69.4612 42.9681C69.5928 42.8322 69.7713 42.7558 69.9575 42.7558H250.852C251.038 42.7558 251.216 42.8322 251.348 42.9681C251.48 43.1041 251.554 43.2885 251.554 43.4807V190.277C251.554 190.469 251.48 190.654 251.348 190.79C251.216 190.926 251.038 191.002 250.852 191.002ZM70.6453 189.552H250.164V44.1911H70.6593L70.6453 189.552Z" fill="#D1D3D4"/>
<path d="M206.411 75.6962H114.567C114.381 75.6962 114.202 75.6198 114.071 75.4839C113.939 75.3479 113.865 75.1635 113.865 74.9713C113.865 74.779 113.939 74.5946 114.071 74.4587C114.202 74.3227 114.381 74.2463 114.567 74.2463H206.411C206.597 74.2463 206.776 74.3227 206.907 74.4587C207.039 74.5946 207.113 74.779 207.113 74.9713C207.113 75.1635 207.039 75.3479 206.907 75.4839C206.776 75.6198 206.597 75.6962 206.411 75.6962Z" fill="#D1D3D4"/>
<path d="M100.489 75.6962H92.9792C92.7931 75.6962 92.6145 75.6198 92.4829 75.4839C92.3513 75.3479 92.2773 75.1635 92.2773 74.9713C92.2773 74.779 92.3513 74.5946 92.4829 74.4587C92.6145 74.3227 92.7931 74.2463 92.9792 74.2463H100.489C100.675 74.2463 100.854 74.3227 100.985 74.4587C101.117 74.5946 101.191 74.779 101.191 74.9713C101.191 75.1635 101.117 75.3479 100.985 75.4839C100.854 75.6198 100.675 75.6962 100.489 75.6962Z" fill="#D1D3D4"/>
<path d="M231.019 96.7334H169.677C169.491 96.7334 169.313 96.657 169.181 96.5211C169.049 96.3851 168.975 96.2008 168.975 96.0085C168.975 95.8162 169.049 95.6318 169.181 95.4959C169.313 95.3599 169.491 95.2836 169.677 95.2836H231.019C231.205 95.2836 231.383 95.3599 231.515 95.4959C231.647 95.6318 231.721 95.8162 231.721 96.0085C231.721 96.2008 231.647 96.3851 231.515 96.5211C231.383 96.657 231.205 96.7334 231.019 96.7334Z" fill="#D1D3D4"/>
<path d="M151.948 96.7334H114.567C114.381 96.7334 114.202 96.657 114.071 96.5211C113.939 96.3851 113.865 96.2008 113.865 96.0085C113.865 95.8162 113.939 95.6318 114.071 95.4959C114.202 95.3599 114.381 95.2836 114.567 95.2836H151.948C152.134 95.2836 152.312 95.3599 152.444 95.4959C152.575 95.6318 152.649 95.8162 152.649 96.0085C152.649 96.2008 152.575 96.3851 152.444 96.5211C152.312 96.657 152.134 96.7334 151.948 96.7334Z" fill="#D1D3D4"/>
<path d="M100.489 96.7334H92.9792C92.7931 96.7334 92.6145 96.657 92.4829 96.5211C92.3513 96.3851 92.2773 96.2008 92.2773 96.0085C92.2773 95.8162 92.3513 95.6318 92.4829 95.4959C92.6145 95.3599 92.7931 95.2836 92.9792 95.2836H100.489C100.675 95.2836 100.854 95.3599 100.985 95.4959C101.117 95.6318 101.191 95.8162 101.191 96.0085C101.191 96.2008 101.117 96.3851 100.985 96.5211C100.854 96.657 100.675 96.7334 100.489 96.7334Z" fill="#D1D3D4"/>
<path d="M202.06 117.771H114.567C114.381 117.771 114.202 117.694 114.071 117.558C113.939 117.422 113.865 117.238 113.865 117.046C113.865 116.853 113.939 116.669 114.071 116.533C114.202 116.397 114.381 116.321 114.567 116.321H202.06C202.245 116.324 202.421 116.402 202.552 116.537C202.683 116.672 202.758 116.855 202.761 117.046C202.761 117.238 202.687 117.422 202.556 117.558C202.424 117.694 202.246 117.771 202.06 117.771Z" fill="#D1D3D4"/>
<path d="M100.489 117.771H92.9792C92.7931 117.771 92.6145 117.694 92.4829 117.558C92.3513 117.422 92.2773 117.238 92.2773 117.046C92.2809 116.855 92.356 116.672 92.4869 116.537C92.6177 116.402 92.7942 116.324 92.9792 116.321H100.489C100.675 116.321 100.854 116.397 100.985 116.533C101.117 116.669 101.191 116.853 101.191 117.046C101.191 117.238 101.117 117.422 100.985 117.558C100.854 117.694 100.675 117.771 100.489 117.771Z" fill="#D1D3D4"/>
<path d="M195.35 138.808H153.239C153.053 138.808 152.875 138.731 152.743 138.595C152.611 138.459 152.537 138.275 152.537 138.083C152.537 137.891 152.611 137.706 152.743 137.57C152.875 137.434 153.053 137.358 153.239 137.358H195.35C195.535 137.362 195.712 137.439 195.842 137.574C195.973 137.709 196.048 137.892 196.052 138.083C196.052 138.275 195.978 138.459 195.846 138.595C195.715 138.731 195.536 138.808 195.35 138.808Z" fill="#D1D3D4"/>
<path d="M169.676 138.808H114.567C114.381 138.808 114.202 138.731 114.071 138.595C113.939 138.459 113.865 138.275 113.865 138.083C113.865 137.891 113.939 137.706 114.071 137.57C114.202 137.434 114.381 137.358 114.567 137.358H169.676C169.862 137.358 170.041 137.434 170.172 137.57C170.304 137.706 170.378 137.891 170.378 138.083C170.378 138.275 170.304 138.459 170.172 138.595C170.041 138.731 169.862 138.808 169.676 138.808Z" fill="#D1D3D4"/>
<path d="M100.489 138.808H92.9792C92.7931 138.808 92.6145 138.731 92.4829 138.595C92.3513 138.459 92.2773 138.275 92.2773 138.083C92.2809 137.892 92.356 137.709 92.4869 137.574C92.6177 137.439 92.7942 137.362 92.9792 137.358H100.489C100.675 137.358 100.854 137.434 100.985 137.57C101.117 137.706 101.191 137.891 101.191 138.083C101.191 138.275 101.117 138.459 100.985 138.595C100.854 138.731 100.675 138.808 100.489 138.808Z" fill="#D1D3D4"/>
<path d="M174.294 159.265H114.567C114.381 159.265 114.202 159.189 114.071 159.053C113.939 158.917 113.865 158.732 113.865 158.54C113.865 158.348 113.939 158.163 114.071 158.027C114.202 157.891 114.381 157.815 114.567 157.815H174.294C174.481 157.815 174.659 157.891 174.791 158.027C174.922 158.163 174.996 158.348 174.996 158.54C174.996 158.732 174.922 158.917 174.791 159.053C174.659 159.189 174.481 159.265 174.294 159.265Z" fill="#D1D3D4"/>
<path d="M100.489 159.265H92.9792C92.7931 159.265 92.6145 159.189 92.4829 159.053C92.3513 158.917 92.2773 158.732 92.2773 158.54C92.2773 158.348 92.3513 158.163 92.4829 158.027C92.6145 157.891 92.7931 157.815 92.9792 157.815H100.489C100.675 157.815 100.854 157.891 100.985 158.027C101.117 158.163 101.191 158.348 101.191 158.54C101.191 158.732 101.117 158.917 100.985 159.053C100.854 159.189 100.675 159.265 100.489 159.265Z" fill="#D1D3D4"/>
<path d="M391.967 140.751L397.076 125.687C397.076 125.687 393.918 117.988 394.521 113.682C395.125 109.376 397.076 101.605 398.732 102.359C400.389 103.113 399.462 106.621 400.669 112.392C400.669 112.392 410.397 94.0656 413.064 94.5731C415.731 95.0805 415.254 97.1973 414.468 98.5167C414.468 98.5167 417.387 95.9504 418.356 97.7048C418.632 98.2483 418.775 98.8528 418.775 99.4663C418.775 100.08 418.632 100.684 418.356 101.228C418.356 101.228 420.419 98.8356 421.163 100.474C421.327 101.089 421.358 101.734 421.254 102.363C421.15 102.992 420.913 103.589 420.56 104.113C420.56 104.113 422.988 101.721 423.227 103.852C423.465 105.983 404.642 147.768 404.642 147.768" fill="white"/>
<path d="M404.726 148.522C404.624 148.542 404.519 148.542 404.417 148.522C404.242 148.437 404.107 148.284 404.042 148.096C403.976 147.909 403.985 147.702 404.066 147.521C411.464 131.124 422.497 105.998 422.581 104.026C422.598 103.955 422.598 103.88 422.581 103.809C422.061 104.043 421.585 104.372 421.177 104.78C421.044 104.902 420.871 104.97 420.693 104.97C420.514 104.97 420.342 104.902 420.209 104.78C420.073 104.661 419.984 104.495 419.961 104.312C419.938 104.13 419.981 103.945 420.082 103.794C420.374 103.382 420.574 102.908 420.669 102.407C420.763 101.906 420.75 101.39 420.63 100.894C420.616 100.839 420.586 100.789 420.546 100.749C419.949 100.945 419.421 101.318 419.03 101.822C418.913 101.96 418.75 102.049 418.574 102.07C418.398 102.092 418.22 102.045 418.075 101.938C417.928 101.83 417.825 101.669 417.786 101.487C417.748 101.305 417.775 101.115 417.865 100.952C418.08 100.525 418.192 100.05 418.192 99.5678C418.192 99.0858 418.08 98.6109 417.865 98.1832C417.837 98.1232 417.795 98.0709 417.744 98.0306C417.693 97.9902 417.633 97.963 417.57 97.9512C416.635 98.0911 415.764 98.5208 415.071 99.1836C414.943 99.2998 414.778 99.3639 414.608 99.3639C414.437 99.3639 414.273 99.2998 414.145 99.1836C414.015 99.071 413.928 98.9155 413.897 98.7436C413.866 98.5717 413.894 98.3941 413.976 98.2412C414.181 97.9474 414.321 97.6109 414.387 97.2552C414.452 96.8995 414.441 96.5334 414.355 96.1824C414.187 95.791 413.738 95.53 413.022 95.3995C411.534 95.3995 405.821 104.49 401.399 112.798C401.33 112.934 401.221 113.044 401.087 113.112C400.953 113.179 400.802 113.201 400.655 113.175C400.51 113.152 400.374 113.085 400.267 112.981C400.159 112.878 400.084 112.743 400.052 112.595C399.644 110.574 399.395 108.523 399.308 106.462C399.181 104.476 399.083 103.33 398.536 103.084C397.764 103.374 396.037 108.492 395.279 113.841C394.704 117.887 397.75 125.44 397.778 125.44C397.84 125.613 397.84 125.804 397.778 125.977L392.626 140.997C392.595 141.09 392.546 141.176 392.482 141.249C392.418 141.322 392.341 141.381 392.254 141.423C392.168 141.465 392.075 141.489 391.979 141.493C391.884 141.497 391.789 141.481 391.7 141.446C391.61 141.416 391.528 141.366 391.457 141.302C391.386 141.237 391.329 141.159 391.288 141.071C391.247 140.983 391.224 140.887 391.22 140.79C391.216 140.693 391.231 140.595 391.264 140.504L396.276 125.716C395.7 124.266 393.202 117.626 393.777 113.581C394.156 110.898 395.714 102.968 397.82 101.75C398 101.637 398.203 101.57 398.413 101.555C398.623 101.54 398.834 101.577 399.027 101.663C400.431 102.286 400.529 103.983 400.683 106.317C400.753 107.419 400.824 108.724 401.034 110.202C404.417 103.968 410.593 93.3842 413.204 93.8337C413.702 93.8823 414.181 94.0556 414.599 94.3386C415.017 94.6215 415.362 95.0056 415.605 95.4575C415.788 95.8648 415.866 96.3146 415.829 96.7624C416.42 96.4437 417.089 96.3126 417.752 96.3854C418.025 96.434 418.284 96.5451 418.51 96.7107C418.736 96.8763 418.923 97.0921 419.058 97.3423C419.395 97.9622 419.574 98.6608 419.577 99.3721C419.922 99.2003 420.305 99.13 420.686 99.1691C420.949 99.2176 421.195 99.3333 421.404 99.5055C421.612 99.6776 421.776 99.9009 421.879 100.155C422.155 100.833 422.228 101.58 422.09 102.301C422.4 102.199 422.734 102.199 423.044 102.301C423.326 102.415 423.568 102.614 423.739 102.873C423.909 103.132 424 103.438 423.999 103.751C424.251 105.925 409.793 138.228 405.358 148.072C405.303 148.2 405.215 148.31 405.104 148.39C404.992 148.469 404.861 148.515 404.726 148.522Z" fill="#231F20"/>
<path d="M298.045 199.44C298.045 199.44 285.412 222.464 284.19 232.569H370.041C370.041 232.569 362.432 213.822 358.109 201.093L298.045 199.44Z" fill="#231F20"/>
<path d="M370.04 233.279H284.19C284.093 233.279 283.997 233.259 283.907 233.219C283.818 233.179 283.738 233.121 283.671 233.047C283.605 232.971 283.555 232.881 283.523 232.784C283.492 232.687 283.48 232.584 283.488 232.482C284.696 222.333 296.922 200.02 297.441 199.136C297.497 199.018 297.586 198.921 297.696 198.856C297.806 198.792 297.933 198.763 298.059 198.773L358.123 200.426C358.266 200.432 358.404 200.482 358.519 200.57C358.634 200.658 358.721 200.78 358.769 200.919C362.98 213.475 370.616 232.149 370.686 232.337C370.731 232.447 370.748 232.568 370.736 232.687C370.724 232.806 370.682 232.92 370.616 233.018C370.548 233.107 370.46 233.177 370.359 233.222C370.259 233.268 370.15 233.287 370.04 233.279ZM285.004 231.83H368.988C367.387 227.828 361.337 212.677 357.604 201.789L298.452 200.151C296.852 203.108 286.577 222.362 285.004 231.844V231.83Z" fill="#231F20"/>
<path d="M227.747 161.295C227.538 161.277 227.331 161.238 227.129 161.179C223.774 160.309 219.507 155.22 216.938 152.886C210.542 147.244 204.977 140.67 200.417 133.371C199.715 132.412 199.261 131.284 199.097 130.094C199.122 129.073 199.397 128.076 199.898 127.195C201.919 123.207 205.765 118.496 210.243 120.612C211.899 121.395 222.371 130.326 222.371 131.878C222.041 129.14 222.013 126.372 222.286 123.628C222.714 123.416 223.196 123.35 223.662 123.439C224.129 123.527 224.556 123.766 224.883 124.121C225.52 124.844 225.998 125.699 226.287 126.629C227.101 128.746 237.517 156.148 238.387 155.626C235.411 157.496 231.537 161.759 227.747 161.295Z" fill="white"/>
<path d="M228.393 162.078C228.173 162.092 227.953 162.092 227.733 162.078C227.497 162.048 227.263 162.005 227.032 161.947C224.294 161.237 221.15 158.091 218.609 155.553C217.823 154.77 217.107 154.104 216.504 153.495C210.05 147.812 204.437 141.183 199.842 133.82C199.081 132.745 198.598 131.488 198.438 130.167C198.443 129.008 198.749 127.871 199.323 126.876C200.488 124.556 204.755 117.205 210.552 119.945C214.448 122.705 218.086 125.836 221.417 129.297C221.325 127.362 221.376 125.424 221.571 123.497C221.585 123.382 221.624 123.272 221.685 123.174C221.746 123.076 221.827 122.993 221.922 122.932C222.485 122.641 223.122 122.542 223.742 122.649C224.363 122.756 224.934 123.063 225.375 123.526C226.09 124.325 226.626 125.275 226.947 126.31L227.242 127.079C236.057 150.189 238.163 154.176 238.64 154.828C238.764 154.881 238.871 154.968 238.95 155.079C239.029 155.191 239.077 155.322 239.089 155.46C239.101 155.598 239.075 155.736 239.016 155.86C238.957 155.984 238.865 156.088 238.752 156.162C237.994 156.655 237.18 157.308 236.31 157.989C233.896 159.917 231.201 162.078 228.393 162.078ZM208.068 120.815C204.32 120.815 201.484 125.788 200.614 127.513C200.173 128.284 199.927 129.156 199.898 130.051C200.06 131.103 200.47 132.099 201.091 132.95C205.616 140.183 211.134 146.698 217.472 152.291C218.118 152.871 218.876 153.611 219.634 154.408C222.034 156.815 225.024 159.816 227.382 160.425C227.552 160.474 227.726 160.508 227.902 160.526C230.414 160.831 233.11 158.685 235.496 156.786C236.142 156.278 236.759 155.785 237.363 155.336C236.254 153.509 233.587 147.55 225.965 127.6L225.67 126.832C225.422 126.002 225.005 125.236 224.449 124.585C224.266 124.398 224.045 124.255 223.802 124.167C223.56 124.079 223.301 124.049 223.045 124.077C222.816 126.621 222.853 129.183 223.157 131.718V131.921C223.136 132.092 223.058 132.249 222.936 132.366C222.814 132.484 222.656 132.553 222.49 132.564C222.324 132.574 222.16 132.524 222.025 132.423C221.891 132.321 221.795 132.175 221.754 132.008C221.746 131.97 221.746 131.93 221.754 131.892C221.22 130.341 211.675 122.106 210.061 121.337C209.419 121.007 208.714 120.829 207.997 120.815H208.068Z" fill="#231F20"/>
<path d="M365.871 113.233C365.871 113.233 373.156 120.482 375.093 123.381C377.03 126.281 378.827 163.035 378.827 163.035L389.86 135.488L408.389 142.954C408.389 142.954 397.075 202.615 385.172 203.848C373.268 205.08 350.177 181.868 350.177 181.868L365.871 113.233Z" fill="#2945FF"/>
<path d="M311.787 107.274C311.787 107.274 290.451 111.623 285.243 118.307C280.035 124.991 295.827 185.681 296.136 202.398C296.136 202.398 332.969 209.038 358.109 201.136C358.109 201.136 366.84 169.138 369.114 150.74C371.388 132.341 368.468 116.277 365.871 113.276C363.275 110.275 353.322 108.274 353.322 108.274C353.322 108.274 316.658 108.245 311.787 107.274Z" fill="#2945FF"/>
<path d="M370.685 106.723C371.15 104.58 371.399 102.394 371.429 100.198C371.472 98.8871 371.277 97.5791 370.854 96.3419C369.282 92.3113 364.046 90.5425 363.19 86.193C362.474 82.6119 363.779 79.4802 362.867 76.0441C361.954 72.608 361.07 71.1871 361.463 67.2146C362.038 60.1918 360.929 53.1309 358.235 46.6558C355.736 40.5665 352.185 37.7683 347.875 33.1578C346.859 32.1368 345.643 31.351 344.31 30.8526C332.912 26.2276 320.447 29.8957 314.692 41.5234C311.491 47.9897 310.102 55.3404 306.396 61.5167C303.785 65.8662 300.023 69.6793 299.027 74.6957C298.156 79.0453 299.742 83.3223 298.746 87.7443C298.447 89.2408 297.891 90.6698 297.104 91.9633C296.192 93.2432 295.131 94.4021 293.945 95.414C291.268 97.7378 288.907 100.425 286.927 103.403C286.292 104.436 285.752 105.528 285.312 106.665L370.685 106.723Z" fill="white"/>
<path d="M370.685 107.477H285.242C285.123 107.478 285.005 107.448 284.899 107.389C284.794 107.331 284.704 107.246 284.639 107.143C284.587 107.035 284.56 106.916 284.56 106.795C284.56 106.675 284.587 106.555 284.639 106.447C285.098 105.27 285.662 104.139 286.323 103.069C288.349 100.033 290.756 97.2881 293.482 94.9066L293.636 94.7761C294.72 93.8467 295.691 92.7854 296.528 91.6155C297.267 90.3967 297.79 89.0514 298.072 87.6429C298.419 85.5045 298.447 83.3239 298.156 81.1766C297.898 78.9873 297.94 76.7713 298.282 74.5943C298.998 70.9117 301.16 67.8671 303.238 64.9094C304.094 63.6915 304.978 62.4446 305.736 61.1688C307.675 57.6613 309.265 53.9598 310.481 50.121C311.477 47.0704 312.659 44.0875 314.018 41.19C319.633 29.7072 332.266 25.1692 344.534 30.1712C345.972 30.6982 347.28 31.5445 348.366 32.6504C349.195 33.5348 349.995 34.3612 350.767 35.1441C353.995 38.4643 356.803 41.335 358.88 46.3804C361.617 52.9708 362.741 60.1563 362.151 67.3016C361.933 69.499 362.217 71.7185 362.979 73.7824C363.175 74.4203 363.386 75.0873 363.582 75.8557C363.98 77.6627 364.061 79.5286 363.821 81.3651C363.636 82.9374 363.669 84.5289 363.919 86.0916C364.326 88.1358 365.913 89.6002 367.611 91.1515C369.27 92.456 370.615 94.1379 371.541 96.0665C371.996 97.3918 372.205 98.7934 372.159 100.199C372.137 102.447 371.888 104.687 371.415 106.882C371.379 107.054 371.287 107.207 371.154 107.315C371.02 107.424 370.855 107.481 370.685 107.477ZM286.351 106.027H370.166C370.555 104.12 370.757 102.177 370.769 100.228C370.813 99.0108 370.637 97.7963 370.25 96.6464C369.404 94.9353 368.189 93.4473 366.699 92.2969C364.916 90.6441 363.063 88.9478 362.488 86.425C362.209 84.7291 362.167 83.0009 362.361 81.2926C362.582 79.6221 362.52 77.9248 362.179 76.2761C361.982 75.5367 361.772 74.8263 361.589 74.2609C360.763 72.0113 360.455 69.5938 360.691 67.2001C361.265 60.2879 360.18 53.3361 357.533 46.9604C355.567 42.1904 352.985 39.5517 349.728 36.217C348.956 35.4196 348.142 34.5932 347.314 33.6943C346.371 32.745 345.241 32.0179 344.001 31.563C332.42 26.8656 320.615 31.0991 315.295 41.8714C313.973 44.6956 312.82 47.6007 311.842 50.5705C310.605 54.5143 308.982 58.3179 306.999 61.9227C306.213 63.2276 305.315 64.5034 304.445 65.7358C302.353 68.6355 300.388 71.5352 299.728 74.8553C299.415 76.8942 299.382 78.9687 299.63 81.0171C299.913 83.3334 299.847 85.6811 299.434 87.9764C299.122 89.562 298.532 91.0754 297.693 92.4419C296.787 93.7172 295.736 94.8757 294.563 95.8925L294.408 96.023C291.783 98.3137 289.462 100.951 287.502 103.867C287.069 104.542 286.684 105.25 286.351 105.983V106.027Z" fill="#231F20"/>
<path d="M343.496 103.968C343.496 103.968 346.304 146.376 331.986 143.534C312.868 139.33 321.557 109.535 321.557 109.535L321.88 103.968L322.595 91.0209L323.283 78.9147L343.384 78.6827L344.156 88.5707L344.395 91.7748L343.496 103.968Z" fill="white"/>
<path d="M333.292 144.419C332.792 144.414 332.294 144.361 331.804 144.259C329.719 143.873 327.74 143.025 326.002 141.774C324.265 140.522 322.811 138.897 321.739 137.01C315.998 126.977 320.335 110.913 320.799 109.463L322.525 78.9292C322.536 78.7408 322.616 78.5637 322.749 78.4343C322.882 78.3049 323.058 78.233 323.241 78.2333L343.342 78.0014C343.524 78.0005 343.7 78.0699 343.835 78.196C343.97 78.322 344.054 78.4956 344.072 78.6828L345.083 91.7313L344.17 103.983C344.297 105.882 346.079 135.024 337.84 142.592C336.599 143.767 334.976 144.419 333.292 144.419ZM323.929 79.7267L322.244 109.651C322.251 109.709 322.251 109.768 322.244 109.825C322.244 109.999 317.444 126.615 323.017 136.343C323.991 138.044 325.309 139.507 326.882 140.633C328.454 141.759 330.243 142.521 332.127 142.867C332.967 143.063 333.841 143.044 334.673 142.811C335.505 142.579 336.269 142.14 336.899 141.533C344.718 134.371 342.781 104.388 342.752 104.098V103.983L343.665 91.7893L342.71 79.5092L323.929 79.7267Z" fill="#231F20"/>
<path d="M344.352 91.7749C342.788 94.6058 340.563 96.9881 337.881 98.7051C333.586 101.605 327.522 104.157 322.258 103.272L322.609 91.021C326.456 91.5644 330.356 91.5644 334.203 91.021C337.636 90.8251 341.009 90.0106 344.17 88.6143L344.352 91.7749Z" fill="#231F20"/>
<path d="M324.336 104.171C323.583 104.168 322.832 104.105 322.09 103.983C321.922 103.952 321.771 103.86 321.663 103.725C321.555 103.589 321.497 103.419 321.5 103.243L321.865 90.9919C321.867 90.8911 321.891 90.7919 321.935 90.7016C321.978 90.6114 322.041 90.5323 322.118 90.47C322.19 90.4001 322.277 90.3491 322.373 90.3213C322.468 90.2936 322.568 90.2899 322.665 90.3105C326.447 90.8482 330.282 90.8482 334.063 90.3105C337.418 90.1175 340.714 89.3227 343.805 87.9618C343.906 87.9047 344.019 87.8748 344.135 87.8748C344.25 87.8748 344.363 87.9047 344.465 87.9618C344.563 88.0198 344.646 88.1015 344.707 88.2C344.768 88.2985 344.806 88.4107 344.816 88.5272L345.054 91.7314C345.07 91.8679 345.04 92.0059 344.97 92.1228C343.348 95.0943 341.02 97.5894 338.204 99.372C334.105 102.275 329.301 103.937 324.336 104.171ZM322.932 102.721C327.143 103.2 332.477 101.518 337.46 98.1687C340.013 96.568 342.144 94.342 343.664 91.6879L343.496 89.6581C340.516 90.7819 337.397 91.4652 334.232 91.6879C330.589 92.2138 326.896 92.2673 323.241 91.8474L322.932 102.721Z" fill="#231F20"/>
<path d="M334.134 93.9352H332.071C327.386 93.9854 322.874 92.1123 319.526 88.7275C316.178 85.3428 314.268 80.7233 314.216 75.8847C314.409 70.2767 314.92 64.6853 315.746 59.139C315.746 59.139 323.845 56.1523 330.288 53.6296C341.04 49.4396 343.932 43.4807 343.932 43.4807C344.269 47.4462 345.119 51.3471 346.459 55.0794C347.841 57.7531 349.442 60.2996 351.245 62.6911C351.245 62.6911 351.568 71.6801 351.596 75.4497C351.628 77.8486 351.201 80.2303 350.34 82.4584C349.479 84.6866 348.201 86.7174 346.579 88.4345C344.956 90.1517 343.022 91.5214 340.887 92.4653C338.752 93.4092 336.457 93.9087 334.134 93.9352Z" fill="white"/>
<path d="M331.873 94.7036C327.021 94.6999 322.368 92.7176 318.924 89.1878C315.48 85.6581 313.525 80.8665 313.485 75.8556C313.678 70.2086 314.194 64.5783 315.029 58.994C315.043 58.8596 315.094 58.7324 315.176 58.6271C315.259 58.5218 315.368 58.4429 315.492 58.3995C315.576 58.3995 323.718 55.3404 330.034 52.8757C340.337 48.8596 343.257 43.1037 343.285 43.0457C343.325 42.8567 343.436 42.6915 343.593 42.5857C343.75 42.4799 343.941 42.4419 344.125 42.4799C344.308 42.5178 344.47 42.6287 344.576 42.7888C344.681 42.9488 344.722 43.1452 344.689 43.3357C345.02 47.2353 345.85 51.0722 347.159 54.7459C348.505 57.4036 350.064 59.9401 351.82 62.3286C351.912 62.4546 351.965 62.606 351.974 62.7636C351.974 62.8506 352.283 71.8106 352.325 75.5367C352.349 78.0359 351.896 80.5155 350.992 82.8338C350.088 85.1522 348.75 87.2637 347.055 89.0478C345.361 90.8318 343.342 92.2534 341.115 93.2314C338.888 94.2093 336.497 94.7243 334.077 94.7471H331.817L331.873 94.7036ZM316.432 59.7334C315.656 65.0886 315.187 70.4867 315.029 75.8991C315.084 80.4877 316.879 84.871 320.028 88.1077C323.178 91.3444 327.43 93.1764 331.873 93.2102H332.056H334.119C338.611 93.1567 342.9 91.2639 346.042 87.9475C349.184 84.6312 350.924 80.1623 350.879 75.5222C350.879 72.1585 350.584 64.4744 350.528 63.0245C348.734 60.6456 347.147 58.1083 345.784 55.4419C344.635 52.2587 343.839 48.9513 343.411 45.583C341.727 47.7432 337.965 51.4838 330.554 54.3835C325.037 56.5292 318.131 59.081 316.39 59.7334H316.432Z" fill="#231F20"/>
<path d="M331.972 75.7252C331.203 75.7228 330.435 75.6792 329.67 75.5947C329.457 75.5685 329.253 75.4921 329.073 75.3715C328.892 75.2508 328.742 75.0891 328.631 74.8988C327.228 72.6226 330.344 63.6336 331.313 60.9224C331.385 60.7385 331.523 60.5905 331.698 60.5095C331.873 60.4284 332.072 60.4205 332.253 60.4874C332.43 60.5589 332.573 60.6989 332.652 60.8776C332.73 61.0562 332.738 61.2596 332.674 61.4443C330.512 67.4756 329.207 73.4055 329.867 74.1304C331.498 74.2846 333.141 74.2555 334.766 74.0434C334.928 74.0607 335.08 74.1337 335.197 74.2506C335.315 74.3676 335.391 74.5219 335.414 74.6888C335.436 74.8558 335.404 75.0257 335.322 75.1715C335.24 75.3173 335.114 75.4306 334.962 75.4933C333.971 75.6372 332.973 75.7147 331.972 75.7252Z" fill="#231F20"/>
<path d="M341.014 67.4372C341.688 67.4295 342.22 66.0343 342.202 64.3208C342.184 62.6074 341.622 61.2246 340.948 61.2322C340.274 61.2399 339.742 62.6351 339.76 64.3486C339.778 66.062 340.34 67.4448 341.014 67.4372Z" fill="#231F20"/>
<path d="M324.91 67.0402C325.585 67.0325 326.117 65.6373 326.099 63.9239C326.08 62.2104 325.519 60.8276 324.844 60.8353C324.17 60.8429 323.638 62.2381 323.656 63.9516C323.675 65.665 324.236 67.0479 324.91 67.0402Z" fill="#231F20"/>
<path d="M322.216 103.968C318.398 101.851 312.391 105.012 311.787 107.216C311.183 109.42 313.57 144.172 322.216 149.522C325.964 151.856 332.702 143.534 332.702 143.534C332.702 143.534 323.059 139.17 322.216 103.968Z" fill="white"/>
<path d="M323.704 150.682C323.049 150.693 322.403 150.517 321.837 150.174C312.713 144.52 310.453 109.448 311.085 107.027C311.478 105.577 313.373 104.215 315.015 103.49C316.183 102.892 317.462 102.566 318.764 102.533C320.066 102.501 321.36 102.763 322.553 103.301C322.669 103.363 322.765 103.457 322.832 103.572C322.899 103.687 322.934 103.819 322.932 103.954C323.746 137.981 332.913 142.809 332.997 142.853C333.098 142.899 333.188 142.969 333.258 143.057C333.329 143.145 333.379 143.249 333.404 143.36C333.428 143.473 333.427 143.59 333.403 143.702C333.379 143.815 333.331 143.921 333.264 144.013C332.632 144.781 327.719 150.682 323.704 150.682ZM319.283 104.026C318.01 104.044 316.753 104.33 315.591 104.867C314.285 105.288 313.179 106.198 312.489 107.419C312.25 108.332 312.629 117.321 314.258 127.108C316.251 139.054 319.213 146.796 322.581 148.855C324.968 150.305 329.6 145.955 331.607 143.665C329.193 141.765 322.273 133.777 321.501 104.418C320.794 104.134 320.04 104.001 319.283 104.026Z" fill="#231F20"/>
<path d="M343.497 103.968C347.301 101.851 353.323 105.012 353.912 107.216C354.502 109.42 352.13 144.172 343.497 149.522C339.749 151.856 333.011 143.534 333.011 143.534C333.011 143.534 342.613 139.17 343.497 103.968Z" fill="white"/>
<path d="M341.953 150.682C337.952 150.682 333.039 144.781 332.408 144.013C332.338 143.922 332.289 143.816 332.262 143.704C332.235 143.591 332.232 143.474 332.253 143.36C332.279 143.247 332.33 143.142 332.404 143.053C332.477 142.965 332.57 142.896 332.674 142.853C332.759 142.853 341.911 137.981 342.725 103.954C342.729 103.821 342.766 103.691 342.832 103.577C342.899 103.462 342.992 103.368 343.104 103.301C344.297 102.763 345.591 102.501 346.893 102.533C348.195 102.566 349.475 102.892 350.642 103.49C352.284 104.215 354.179 105.534 354.572 107.027C355.218 109.448 352.958 144.52 343.82 150.174C343.256 150.521 342.609 150.696 341.953 150.682ZM334.064 143.694C336.169 146.1 340.675 150.377 343.076 148.884C346.459 146.796 349.42 139.054 351.4 127.137C352.581 120.645 353.178 114.053 353.182 107.448C352.48 106.233 351.371 105.325 350.066 104.896C348.228 103.953 346.103 103.802 344.157 104.476C343.384 133.806 336.478 141.794 334.064 143.694Z" fill="#231F20"/>
<path d="M323.241 78.9147L343.342 78.6827C343.342 78.6827 340.282 89.6435 332.59 88.5707C324.898 87.4978 323.241 78.9147 323.241 78.9147Z" fill="white"/>
<path d="M333.67 89.3972C333.28 89.3966 332.891 89.3675 332.505 89.3102C324.392 88.1793 322.553 79.1613 322.539 79.0598C322.518 78.9526 322.521 78.8419 322.546 78.7358C322.572 78.6296 322.62 78.5307 322.687 78.4461C322.754 78.3615 322.839 78.2934 322.935 78.2466C323.03 78.1998 323.135 78.1755 323.241 78.1754L343.342 77.9435C343.454 77.9387 343.565 77.9627 343.665 78.0133C343.766 78.0639 343.852 78.1396 343.917 78.2334C343.986 78.3277 344.032 78.4365 344.054 78.552C344.076 78.6675 344.073 78.7865 344.044 78.9004C343.917 79.3498 341.012 89.3972 333.67 89.3972ZM324.181 79.7268C324.827 81.858 326.989 87.1065 332.688 87.9039C338.387 88.7013 341.391 82.1045 342.331 79.5238L324.181 79.7268Z" fill="#231F20"/>
<path d="M285.243 118.249L259.316 161.744L233.867 146.506L218.735 156.09C218.735 156.09 255.33 206.53 273.255 197.99C281.579 194.032 308.235 151.697 308.235 151.697L285.243 118.249Z" fill="#2945FF"/>
<path d="M359.612 196.149H359.401C359.31 196.121 359.226 196.074 359.153 196.012C359.08 195.95 359.019 195.874 358.975 195.788C358.931 195.702 358.903 195.607 358.894 195.51C358.886 195.412 358.896 195.314 358.924 195.221C359.078 194.67 374.842 139.823 367.585 119.989C367.518 119.797 367.527 119.585 367.611 119.4C367.696 119.215 367.848 119.072 368.034 119.003C368.22 118.934 368.425 118.944 368.604 119.031C368.783 119.118 368.921 119.275 368.988 119.467C376.428 139.765 361.029 193.409 360.37 195.642C360.317 195.802 360.213 195.939 360.076 196.031C359.938 196.123 359.775 196.165 359.612 196.149Z" fill="#231F20"/>
<path d="M295.771 198.744C295.595 198.746 295.424 198.68 295.292 198.559C295.16 198.439 295.076 198.273 295.055 198.092C294.985 197.613 288.542 149.276 286.38 138.387C286.346 138.194 286.386 137.994 286.49 137.83C286.594 137.665 286.756 137.548 286.941 137.503C287.129 137.464 287.324 137.503 287.485 137.612C287.645 137.72 287.757 137.89 287.798 138.083C289.973 149.029 296.416 197.41 296.487 197.889C296.511 198.085 296.46 198.282 296.344 198.44C296.229 198.597 296.058 198.701 295.869 198.73L295.771 198.744Z" fill="#231F20"/>
<path d="M373.508 177.127C373.415 177.147 373.319 177.147 373.227 177.127C373.052 177.05 372.912 176.905 372.839 176.724C372.765 176.542 372.764 176.338 372.834 176.156L388.092 138.01C388.166 137.829 388.307 137.686 388.482 137.61C388.658 137.534 388.855 137.532 389.032 137.604C389.12 137.641 389.2 137.695 389.268 137.764C389.335 137.833 389.389 137.915 389.426 138.005C389.462 138.096 389.481 138.192 389.481 138.29C389.481 138.388 389.462 138.485 389.425 138.576L374.181 176.721C374.116 176.846 374.019 176.951 373.9 177.023C373.781 177.094 373.645 177.13 373.508 177.127Z" fill="#231F20"/>
<path d="M408.389 120.453C408.243 120.45 408.102 120.403 407.982 120.318C407.863 120.233 407.77 120.113 407.715 119.974C405.946 115.364 400.5 113.117 400.458 113.088C400.365 113.052 400.281 112.999 400.209 112.93C400.137 112.861 400.078 112.778 400.037 112.686C399.996 112.593 399.973 112.494 399.97 112.392C399.966 112.291 399.981 112.19 400.016 112.094C400.05 111.999 400.102 111.912 400.168 111.837C400.235 111.763 400.315 111.703 400.405 111.66C400.494 111.618 400.59 111.594 400.689 111.59C400.787 111.586 400.885 111.603 400.977 111.638C401.23 111.739 407.055 114.146 409.062 119.365C409.101 119.456 409.12 119.555 409.12 119.654C409.121 119.753 409.101 119.851 409.063 119.942C409.025 120.033 408.969 120.115 408.899 120.183C408.829 120.251 408.746 120.303 408.655 120.337C408.577 120.398 408.486 120.438 408.389 120.453Z" fill="#231F20"/>
<path d="M408.389 110.246C408.277 110.245 408.168 110.22 408.066 110.173C407.901 110.071 407.782 109.905 407.734 109.712C407.687 109.52 407.715 109.315 407.813 109.144L413.975 98.1542C414.077 97.9866 414.237 97.8659 414.423 97.8173C414.609 97.7687 414.805 97.7959 414.972 97.8932C415.136 97.9932 415.255 98.1552 415.305 98.3447C415.355 98.5343 415.331 98.7364 415.239 98.9081L409.062 109.898C408.99 110.013 408.89 110.105 408.771 110.166C408.653 110.228 408.521 110.255 408.389 110.246Z" fill="#231F20"/>
<path d="M413.681 111.928C413.579 111.948 413.475 111.948 413.373 111.928C413.286 111.884 413.208 111.824 413.144 111.749C413.079 111.675 413.03 111.587 412.999 111.493C412.968 111.399 412.955 111.299 412.961 111.199C412.967 111.1 412.993 111.002 413.036 110.913L417.78 100.967C417.864 100.79 418.012 100.655 418.193 100.591C418.373 100.527 418.571 100.54 418.742 100.626C418.913 100.713 419.044 100.866 419.106 101.052C419.168 101.239 419.155 101.443 419.072 101.619L414.341 111.58C414.27 111.692 414.172 111.784 414.056 111.845C413.941 111.906 413.811 111.934 413.681 111.928Z" fill="#231F20"/>
<path d="M416.081 115.523C415.984 115.544 415.883 115.544 415.786 115.523C415.699 115.484 415.62 115.427 415.554 115.356C415.489 115.285 415.437 115.201 415.403 115.109C415.369 115.017 415.354 114.92 415.357 114.821C415.36 114.723 415.382 114.627 415.421 114.537L419.969 103.866C420.049 103.687 420.194 103.547 420.372 103.477C420.55 103.406 420.749 103.411 420.924 103.489C421.1 103.569 421.239 103.717 421.31 103.902C421.38 104.086 421.378 104.293 421.303 104.475L416.741 115.132C416.679 115.256 416.584 115.358 416.467 115.428C416.35 115.497 416.216 115.53 416.081 115.523Z" fill="#231F20"/>
<path d="M220.154 145.042C220.012 145.04 219.874 144.996 219.755 144.917C219.636 144.837 219.541 144.725 219.48 144.592C215.662 135.487 221.923 131.254 221.979 131.21C222.141 131.107 222.337 131.073 222.523 131.116C222.709 131.16 222.872 131.277 222.976 131.442C223.028 131.524 223.064 131.616 223.081 131.712C223.099 131.808 223.098 131.907 223.079 132.003C223.059 132.098 223.021 132.189 222.967 132.27C222.914 132.35 222.845 132.419 222.765 132.472C222.526 132.631 217.501 136.111 220.814 143.984C220.889 144.166 220.892 144.372 220.821 144.557C220.75 144.742 220.611 144.89 220.435 144.969C220.348 145.015 220.252 145.04 220.154 145.042Z" fill="#231F20"/>
<path d="M56.9881 350.108C56.9881 350.108 55.4159 358.053 57.8443 359.807C60.2727 361.561 81.2159 354.24 80.6123 351.775C80.0087 349.31 68.1334 348.049 68.1334 348.049C68.1334 348.049 58.7988 350.847 56.9881 350.108Z" fill="#2945FF"/>
<path d="M59.1779 360.764C58.5764 360.811 57.9741 360.686 57.4373 360.401C54.7141 358.43 56.1319 350.818 56.3003 349.963C56.3191 349.855 56.3618 349.753 56.4252 349.665C56.4885 349.577 56.5707 349.505 56.6653 349.455C56.7596 349.409 56.8627 349.385 56.9671 349.385C57.0715 349.385 57.1746 349.409 57.2689 349.455C58.2374 349.89 63.4592 348.73 67.937 347.367C68.0246 347.346 68.116 347.346 68.2037 347.367C71.1093 347.672 80.6264 348.89 81.3002 351.63C81.5247 352.572 80.5983 353.341 79.8965 353.848C76.2047 356.443 64.0628 360.764 59.1779 360.764ZM57.5496 350.934C57.0583 353.834 56.8758 358.183 58.2515 359.213C58.827 359.633 62.617 359.213 69.2143 357.009C75.8117 354.805 79.6859 352.558 79.9386 351.833C79.6719 350.876 74.3238 349.441 68.2037 348.788C66.5473 349.281 60.2728 351.122 57.5496 350.934Z" fill="#231F20"/>
<path d="M26.5975 350.108C26.5975 350.108 26.3448 359.299 27.3133 360.43C28.2819 361.561 49.7725 359.184 48.7618 356.182C47.7512 353.181 39.0623 350.108 39.0623 350.108H26.5975Z" fill="#2945FF"/>
<path d="M29.812 361.416C28.7796 361.558 27.7295 361.382 26.794 360.909C25.7553 359.705 25.8255 352.935 25.8957 350.079C25.9029 349.891 25.9801 349.714 26.1109 349.585C26.2417 349.455 26.4161 349.382 26.5975 349.383H39.0623H39.301C40.2134 349.716 48.2425 352.659 49.4216 355.892C49.576 356.327 49.6462 357.183 48.3548 357.995C45.6457 359.705 35.132 361.416 29.812 361.416ZM27.8047 359.879C29.5172 360.401 42.3751 359.155 46.909 357.154C47.9758 356.675 48.1021 356.371 48.1021 356.371C47.4003 354.501 42.1645 352.021 38.95 350.832H27.2853C27.2151 354.718 27.3836 359.01 27.8047 359.879Z" fill="#231F20"/>
<path d="M25.6294 319.777L26.5979 350.108C26.5979 350.108 35.7922 353.848 39.0628 350.108L41.6175 316.761L25.6294 319.777Z" fill="white"/>
<path d="M34.3609 352.485C31.6206 352.394 28.9132 351.841 26.3458 350.847C26.2172 350.796 26.106 350.707 26.0261 350.591C25.9462 350.475 25.9012 350.337 25.8966 350.195L24.8579 319.791C24.8552 319.616 24.9131 319.445 25.0211 319.31C25.1291 319.174 25.2802 319.083 25.4474 319.052L41.4917 316.051C41.5963 316.035 41.703 316.042 41.8046 316.072C41.9063 316.102 42.0006 316.154 42.0812 316.225C42.1628 316.297 42.2259 316.39 42.2651 316.493C42.3042 316.597 42.3182 316.709 42.3058 316.819L39.7651 350.166C39.7542 350.325 39.6953 350.477 39.5967 350.6C38.8998 351.275 38.0739 351.791 37.1721 352.116C36.2703 352.44 35.3127 352.566 34.3609 352.485ZM27.3424 349.586C30.0094 350.572 36.0453 352.152 38.4457 349.774L40.9021 317.631L26.3458 320.4L27.3424 349.586Z" fill="#231F20"/>
<path d="M68.1334 315.514V348.049C66.537 349.218 64.7102 350.009 62.7836 350.365C60.857 350.721 58.878 350.633 56.9881 350.108L50.0679 310.962L68.1334 315.514Z" fill="white"/>
<path d="M60.4688 351.311C59.2312 351.31 57.9992 351.14 56.8052 350.803C56.6772 350.769 56.5616 350.698 56.4719 350.598C56.3823 350.497 56.3226 350.372 56.2998 350.238L49.3796 311.092C49.3609 310.974 49.3703 310.853 49.407 310.739C49.4437 310.626 49.5065 310.523 49.5902 310.44C49.6746 310.357 49.7782 310.297 49.8912 310.267C50.0042 310.236 50.1228 310.236 50.2359 310.266L68.3716 314.818C68.5251 314.852 68.6623 314.94 68.7597 315.067C68.8571 315.194 68.9085 315.352 68.905 315.514V348.049C68.9034 348.156 68.8801 348.262 68.8366 348.359C68.7931 348.457 68.7303 348.543 68.6524 348.614C66.2644 350.374 63.4025 351.317 60.4688 351.311ZM57.5912 349.513C59.2646 349.907 60.9978 349.947 62.6865 349.63C64.3751 349.314 65.9843 348.648 67.4171 347.672V316.051L50.9377 311.933L57.5912 349.513Z" fill="#231F20"/>
<path d="M20.8572 235.193L18.6394 324.648C18.6394 324.648 53.4792 334.797 76.0085 319.777L59.9502 243.95L20.8572 235.193Z" fill="#231F20"/>
<path d="M44.1858 328.664C35.5062 328.637 26.8618 327.522 18.442 325.344C18.2914 325.304 18.1587 325.212 18.0666 325.082C17.9745 324.953 17.9286 324.794 17.9367 324.634L20.1546 235.179C20.154 235.072 20.1779 234.966 20.2242 234.87C20.2705 234.775 20.338 234.691 20.4213 234.628C20.5016 234.563 20.5945 234.516 20.6938 234.491C20.7931 234.466 20.8964 234.463 20.9968 234.483L60.1318 243.182C60.263 243.21 60.3834 243.277 60.4782 243.375C60.5729 243.473 60.638 243.597 60.6652 243.733L76.6955 319.559C76.7266 319.705 76.7136 319.856 76.6584 319.994C76.6031 320.131 76.5083 320.248 76.3866 320.328C66.7152 326.823 54.7416 328.664 44.1858 328.664ZM19.3544 324.097C23.748 325.257 54.7136 332.724 75.2216 319.429L59.3879 244.559L21.4881 236.092L19.3544 324.097Z" fill="#231F20"/>
<path d="M63.0522 218.462C63.0522 218.462 69.046 196.047 71.9517 193.916C74.8573 191.785 80.5002 189.161 80.5002 192.162C80.5002 195.163 76.2891 219.201 69.776 218.447C63.2628 217.694 63.0522 218.462 63.0522 218.462Z" fill="white"/>
<path d="M70.0844 219.187H69.6914C64.989 218.65 63.7818 218.926 63.5432 219.013C63.4559 219.101 63.3475 219.164 63.2291 219.194C63.1107 219.225 62.9866 219.222 62.8694 219.187C62.6917 219.139 62.5393 219.021 62.4449 218.858C62.3504 218.696 62.3214 218.501 62.3641 218.317V218.187C63.108 215.417 68.5263 195.54 71.5021 193.351C73.0602 192.205 77.9872 189.219 80.177 190.451C80.4923 190.623 80.7527 190.886 80.927 191.208C81.1013 191.529 81.1821 191.896 81.1596 192.263C81.1596 194.989 78.0574 213.228 72.8497 218.027C72.0959 218.749 71.1124 219.162 70.0844 219.187ZM65.1995 217.462C66.7531 217.484 68.3042 217.595 69.8458 217.795C70.2368 217.816 70.6274 217.749 70.9909 217.599C71.3544 217.448 71.6821 217.219 71.9513 216.925C76.5414 212.692 79.798 195.178 79.798 192.278C79.798 191.872 79.6576 191.785 79.5734 191.756C78.5908 191.219 75.0816 192.626 72.3584 194.656C70.4774 196.105 66.4208 208.951 64.0625 217.578C64.3714 217.5 64.7504 217.462 65.1995 217.462Z" fill="#231F20"/>
<path d="M94.4805 213.112C93.9331 213.112 70.6177 209.371 70.6177 209.371L83.8124 174.372L109.612 177.054L94.4805 213.112Z" fill="white"/>
<path d="M94.4806 213.895C93.9331 213.895 75.9377 210.995 70.4352 210.14C70.3312 210.125 70.2317 210.086 70.1442 210.025C70.0568 209.965 69.9835 209.885 69.9299 209.792C69.8882 209.691 69.8667 209.583 69.8667 209.473C69.8667 209.363 69.8882 209.255 69.9299 209.154L83.1527 174.097C83.2059 173.947 83.3075 173.82 83.4404 173.738C83.5734 173.656 83.7295 173.624 83.8827 173.647L109.683 176.33C109.792 176.344 109.897 176.385 109.99 176.447C110.082 176.51 110.159 176.594 110.216 176.692C110.268 176.793 110.295 176.905 110.295 177.018C110.295 177.132 110.268 177.244 110.216 177.345L95.1403 213.46C95.0831 213.591 94.9902 213.702 94.8731 213.779C94.7559 213.856 94.6195 213.896 94.4806 213.895ZM71.5161 208.85C79.9383 210.183 91.5328 212.039 94.0454 212.387L108.546 177.678L84.2195 175.141L71.5161 208.85Z" fill="#231F20"/>
<path d="M16.8139 155.365C14.5042 155.403 12.2261 155.926 10.1183 156.902C6.45463 158.482 2.88924 161.251 1.87858 165.18C1.07847 168.399 2.10317 171.806 3.47879 174.807C4.85442 177.808 6.56693 180.723 7.26877 183.97C7.97062 187.218 7.35299 191.045 4.79827 193.061C8.18487 191.927 11.3707 190.233 14.2311 188.044C15.9269 186.764 17.0905 184.868 17.4877 182.738C17.5677 180.973 17.2405 179.214 16.5332 177.605C15.5009 175.206 14.8742 172.641 14.6803 170.023C14.5969 168.71 14.8612 167.398 15.4448 166.228C16.0284 165.058 16.9093 164.075 17.993 163.382C19.9582 162.324 26.2187 162.774 25.4186 159.033C24.8571 156.206 19.0458 155.408 16.8139 155.365Z" fill="white"/>
<path d="M4.79837 193.786C4.67352 193.787 4.55046 193.755 4.44189 193.691C4.33332 193.627 4.24317 193.535 4.18075 193.423C4.10027 193.269 4.07445 193.09 4.10776 192.918C4.14107 192.746 4.23142 192.591 4.36323 192.481C6.88989 190.495 7.17062 186.681 6.58107 184.115C5.97471 181.789 5.09309 179.549 3.95616 177.446C3.57716 176.678 3.19816 175.909 2.8332 175.126C0.99436 171.081 0.48903 167.877 1.20492 164.977C2.44017 160.062 7.15659 157.38 9.85169 156.278C12.06 155.253 14.4493 154.71 16.8702 154.683C19.2003 154.683 25.4187 155.553 26.1626 159.033C26.258 159.414 26.2773 159.811 26.2193 160.2C26.1614 160.588 26.0275 160.961 25.8257 161.295C24.8993 162.745 22.6955 163.151 20.7584 163.513C19.942 163.615 19.1406 163.82 18.3721 164.122C17.4092 164.758 16.629 165.649 16.113 166.702C15.597 167.755 15.364 168.932 15.4384 170.11C15.6198 172.535 16.1939 174.912 17.1369 177.141L17.2492 177.446C17.9994 179.165 18.3411 181.044 18.2458 182.926C17.8309 185.249 16.5764 187.323 14.7365 188.726C11.8136 190.958 8.56237 192.691 5.10719 193.858C5.0006 193.855 4.89561 193.831 4.79837 193.786ZM16.6456 156.09C14.4867 156.142 12.3591 156.635 10.3851 157.54C7.92862 158.598 3.64734 161.019 2.5665 165.325C1.93483 167.848 2.42613 170.748 4.11057 174.474C4.46149 175.242 4.82645 176.011 5.20545 176.765C6.42279 178.973 7.36602 181.33 8.01284 183.782C8.596 186.312 8.30814 188.972 7.19869 191.306C9.59262 190.382 11.8362 189.087 13.8522 187.464C15.3644 186.286 16.4116 184.581 16.8 182.665C16.8653 181.012 16.5477 179.367 15.8735 177.866L15.7612 177.547C14.7532 175.169 14.1502 172.628 13.9786 170.037C13.9016 168.597 14.2043 167.162 14.8544 165.886C15.5045 164.609 16.4777 163.539 17.6703 162.788C18.569 162.408 19.5133 162.154 20.4777 162.034C22.0498 161.744 24.015 161.367 24.6045 160.439C24.7093 160.274 24.7763 160.086 24.8006 159.891C24.8249 159.695 24.8059 159.496 24.7449 159.308C24.2536 157.018 19.1301 156.191 16.814 156.148H16.6596L16.6456 156.09Z" fill="#231F20"/>
<path d="M19.5654 156.336C18.7371 157.654 18.366 159.223 18.5127 160.787C18.5364 161.825 18.8536 162.833 19.4251 163.687C19.8034 164.192 20.2915 164.599 20.8499 164.873C21.4082 165.148 22.0213 165.283 22.6395 165.267C23.1905 165.292 23.7293 165.095 24.1415 164.716C24.454 164.369 24.6635 163.936 24.7451 163.47C25.5873 160.193 23.8046 150.203 19.5654 156.336Z" fill="#231F20"/>
<path d="M22.5407 165.949C21.8361 165.955 21.1394 165.796 20.5025 165.485C19.8657 165.174 19.3052 164.718 18.863 164.151C18.2026 163.176 17.8363 162.021 17.8102 160.831C17.6505 159.1 18.0718 157.364 19.0034 155.916C20.6878 153.451 22.0915 153.451 22.9477 153.872C25.334 155.017 26.078 161.121 25.4323 163.615C25.3122 164.208 25.0352 164.755 24.6322 165.195C24.0924 165.702 23.3825 165.973 22.653 165.949H22.5407ZM22.0494 155.118C21.3756 155.118 20.6457 156.104 20.1263 156.757C19.3932 157.935 19.0667 159.335 19.1999 160.729C19.211 161.633 19.4742 162.514 19.9579 163.267C20.2721 163.677 20.6771 164.003 21.1388 164.217C21.6005 164.431 22.1054 164.528 22.6109 164.499C22.9836 164.512 23.3496 164.394 23.6496 164.165C23.8569 163.895 23.9967 163.577 24.0567 163.238C24.6041 161.121 23.8601 155.988 22.3442 155.176C22.2508 155.136 22.1505 155.116 22.0494 155.118Z" fill="#231F20"/>
<path d="M39.0063 178.736C38.392 179.353 37.6327 179.794 36.8031 180.015C35.9735 180.236 35.1024 180.23 34.2758 179.998C32.3636 179.618 30.5736 178.751 29.0681 177.475C26.1131 175.075 23.8646 171.872 22.5752 168.224C21.2858 164.577 21.0066 160.631 21.7689 156.829C23.4253 149.131 31.314 141.823 39.2169 145.23C40.5505 145.816 41.7441 146.695 42.714 147.807C43.684 148.919 44.4067 150.237 44.8316 151.668C45.3882 151.506 45.9785 151.515 46.5297 151.696C47.081 151.876 47.5691 152.219 47.9338 152.683C49.913 154.93 49.7025 157.221 48.4532 159.743C46.4038 163.875 43.9473 167.79 42.0804 172.009C40.9715 174.488 40.4521 177.17 39.0063 178.736Z" fill="white"/>
<path d="M35.6238 180.839C35.1533 180.833 34.684 180.789 34.2201 180.708C32.1909 180.315 30.2894 179.403 28.6895 178.055C25.6156 175.58 23.2764 172.263 21.9388 168.483C20.6011 164.702 20.3186 160.608 21.1236 156.67C21.6716 154.227 22.7125 151.931 24.1783 149.933C25.6441 147.934 27.5019 146.277 29.63 145.071C31.1362 144.217 32.8097 143.725 34.5257 143.632C36.2416 143.539 37.9557 143.848 39.5401 144.535C40.8565 145.117 42.0443 145.97 43.0313 147.042C44.0183 148.114 44.7838 149.382 45.2812 150.769C45.8747 150.733 46.4683 150.838 47.0159 151.077C47.5636 151.316 48.0507 151.682 48.4396 152.146C51.0364 155.118 50.0398 158.062 49.0712 160.033C48.215 161.744 47.2885 163.426 46.3902 165.064C45.1128 167.399 43.7933 169.805 42.6984 172.314C42.3475 173.111 42.0527 173.937 41.772 174.735C41.3262 176.379 40.5622 177.913 39.5261 179.244C39.0204 179.778 38.4116 180.195 37.7393 180.47C37.067 180.745 36.3462 180.871 35.6238 180.839ZM35.1325 145.1C33.4188 145.12 31.7344 145.563 30.2196 146.39C28.2774 147.493 26.5815 149.005 25.2417 150.828C23.902 152.652 22.9485 154.746 22.4431 156.974C21.7193 160.642 21.9918 164.446 23.2304 167.964C24.4691 171.482 26.6256 174.578 29.4616 176.91C30.8803 178.106 32.563 178.923 34.3605 179.287C36.831 179.679 37.8978 178.881 38.4733 178.243C39.3663 177.051 40.0287 175.693 40.4244 174.242C40.7192 173.415 41.028 172.56 41.393 171.719C42.516 169.196 43.8495 166.761 45.1409 164.47C46.0392 162.846 46.9516 161.164 47.7939 159.482C49.0712 156.902 48.9449 155.031 47.3728 153.234C47.1017 152.88 46.7375 152.616 46.324 152.472C45.9105 152.328 45.4654 152.31 45.0426 152.422C44.8621 152.495 44.6617 152.495 44.4811 152.422C44.3104 152.323 44.1805 152.163 44.1162 151.972C43.735 150.624 43.0689 149.38 42.1659 148.329C41.263 147.279 40.1456 146.448 38.8944 145.897C37.7041 145.376 36.4253 145.105 35.1325 145.1Z" fill="#231F20"/>
<path d="M45.9127 161.164C45.9127 161.164 50.573 165.717 50.1238 166.964C49.6746 168.211 47.1199 168.08 47.1199 168.08" fill="white"/>
<path d="M47.4428 168.863H47.0779C46.9857 168.857 46.8954 168.833 46.8123 168.791C46.7292 168.75 46.6548 168.692 46.5935 168.62C46.5322 168.549 46.4852 168.466 46.4551 168.375C46.425 168.285 46.4124 168.19 46.4181 168.094C46.4325 167.903 46.5181 167.726 46.6569 167.599C46.7957 167.472 46.9768 167.405 47.1621 167.413C48.0324 167.413 49.2817 167.283 49.4642 166.775C49.6466 166.268 47.5972 163.875 45.4356 161.701C45.3061 161.563 45.2336 161.378 45.2336 161.186C45.2336 160.994 45.3061 160.809 45.4356 160.671C45.5008 160.603 45.5784 160.549 45.6639 160.513C45.7495 160.476 45.8412 160.457 45.9339 160.457C46.0265 160.457 46.1183 160.476 46.2038 160.513C46.2893 160.549 46.3669 160.603 46.4322 160.671C48.7202 162.904 51.3311 165.862 50.8117 167.312C50.2923 168.761 48.2851 168.863 47.4428 168.863Z" fill="#231F20"/>
<path d="M47.1333 190.277C41.6168 190.422 32.5349 184.202 32.4787 183.985C31.6634 180.255 31.031 176.486 30.5837 172.691C31.858 172.255 32.993 171.469 33.8662 170.416C34.7394 169.363 35.3178 168.084 35.5388 166.717C36.7179 161.556 41.4062 161.005 43.582 154.278C46.1928 155.597 46.3894 159.656 46.9929 162.208C47.779 165.804 48.3966 169.457 49.0985 173.024C49.4915 175.315 43.8066 176.736 42.6555 176.301C43.7364 179.679 43.7364 179.679 47.1333 190.277Z" fill="white"/>
<path d="M46.9656 191.002C41.6877 191.002 32.0724 185.203 31.8057 184.173C30.984 180.41 30.3468 176.607 29.8967 172.778C29.8752 172.598 29.9194 172.417 30.0207 172.269C30.122 172.122 30.273 172.019 30.4441 171.98C30.5704 171.98 33.7989 171.11 34.8517 166.485C35.4745 164.205 36.7638 162.18 38.5434 160.686C40.5456 158.893 42.056 156.588 42.923 154.002C42.9493 153.902 42.9989 153.81 43.0674 153.734C43.1359 153.659 43.2212 153.601 43.316 153.567C43.4063 153.524 43.5044 153.502 43.6038 153.502C43.7031 153.502 43.8013 153.524 43.8915 153.567C46.3761 154.828 46.9516 158.033 47.4148 160.613C47.499 161.106 47.5833 161.57 47.6815 162.063C48.4535 165.63 49.0852 169.312 49.7871 172.908C49.8432 173.344 49.7811 173.788 49.6076 174.19C49.4342 174.592 49.1561 174.936 48.8045 175.184C47.2834 176.296 45.4973 176.958 43.6389 177.098C44.453 179.65 44.7759 180.679 47.8499 190.147C47.8856 190.255 47.8966 190.37 47.882 190.483C47.8674 190.596 47.8276 190.704 47.7657 190.799C47.6972 190.887 47.612 190.959 47.5154 191.011C47.4189 191.064 47.313 191.095 47.2042 191.104L46.9656 191.002ZM33.1111 183.593C34.2902 184.536 41.3649 189.03 46.1515 189.509C43.0774 179.896 43.0353 179.795 41.9404 176.46C41.8996 176.332 41.895 176.194 41.9274 176.063C41.9597 175.932 42.0275 175.813 42.1229 175.721C42.2177 175.626 42.3365 175.561 42.4656 175.533C42.5947 175.504 42.7289 175.514 42.8528 175.561C44.658 175.594 46.427 175.036 47.9061 173.966C48.2851 173.633 48.4535 173.328 48.3974 173.053C47.7798 169.428 47.0779 165.804 46.3059 162.266C46.2076 161.831 46.1234 161.353 46.0392 160.816C45.6883 158.859 45.2531 156.467 43.9336 155.263C42.9533 157.708 41.4458 159.89 39.526 161.643C37.9408 162.958 36.7846 164.745 36.2133 166.761C35.9786 168.155 35.4118 169.466 34.564 170.577C33.7161 171.688 32.6138 172.564 31.3565 173.125C31.5951 174.981 32.3251 180.491 33.1111 183.593Z" fill="#231F20"/>
<path d="M48.4105 170.313C48.1272 170.627 47.7814 170.875 47.3968 171.039C47.0122 171.203 46.5979 171.28 46.1821 171.263C45.7664 171.247 45.359 171.138 44.9877 170.944C44.6165 170.749 44.2901 170.475 44.031 170.139" fill="white"/>
<path d="M46.179 172.038H46.0527C45.5516 171.998 45.0645 171.848 44.624 171.598C44.1835 171.348 43.7996 171.004 43.4979 170.588C43.4154 170.525 43.3473 170.443 43.2986 170.35C43.2499 170.256 43.2217 170.153 43.216 170.046C43.2104 169.94 43.2274 169.834 43.2659 169.736C43.3043 169.637 43.3634 169.548 43.4387 169.476C43.514 169.403 43.6039 169.349 43.7018 169.317C43.7998 169.284 43.9035 169.274 44.0056 169.288C44.1077 169.301 44.2057 169.337 44.2926 169.394C44.3795 169.451 44.4533 169.527 44.5086 169.617C44.6888 169.87 44.9178 170.082 45.1811 170.239C45.4444 170.396 45.7364 170.495 46.0386 170.53C46.7205 170.502 47.3692 170.219 47.8634 169.733C47.9946 169.6 48.171 169.526 48.3547 169.526C48.5384 169.526 48.7148 169.6 48.846 169.733C48.9118 169.8 48.964 169.88 48.9997 169.969C49.0353 170.057 49.0536 170.152 49.0536 170.248C49.0536 170.343 49.0353 170.438 48.9997 170.526C48.964 170.615 48.9118 170.695 48.846 170.762C48.1285 171.496 47.185 171.948 46.179 172.038Z" fill="#231F20"/>
<path d="M42.6556 176.243C41.8183 176.391 40.9605 176.36 40.1349 176.153C39.3094 175.946 38.5335 175.567 37.855 175.039C37.855 175.039 39.2587 180.476 44.1576 180.969L42.6556 176.243Z" fill="#231F20"/>
<path d="M44.1573 181.694C38.8654 181.158 37.3073 175.474 37.2511 175.228C37.2103 175.076 37.2184 174.915 37.2741 174.768C37.3298 174.622 37.4301 174.498 37.5599 174.416C37.691 174.336 37.8434 174.301 37.9948 174.317C38.1463 174.333 38.289 174.398 38.4022 174.503C39.0033 174.954 39.685 175.277 40.4078 175.453C41.1307 175.63 41.8803 175.657 42.6132 175.532C42.778 175.502 42.9477 175.534 43.0918 175.622C43.2359 175.709 43.345 175.847 43.3993 176.011L44.9013 180.752C44.9416 180.865 44.9525 180.988 44.9328 181.108C44.9131 181.227 44.8635 181.339 44.789 181.433C44.7114 181.525 44.6136 181.597 44.5037 181.642C44.3939 181.688 44.2751 181.706 44.1573 181.694ZM39.3146 176.707C40.1082 178.283 41.469 179.475 43.1045 180.027L42.15 177.026C41.194 177.097 40.2333 176.989 39.3146 176.707Z" fill="#231F20"/>
<path d="M44.5617 161.011C44.8372 160.965 44.9703 160.345 44.8588 159.626C44.7474 158.906 44.4336 158.36 44.158 158.405C43.8825 158.451 43.7494 159.071 43.8609 159.791C43.9723 160.51 44.2861 161.057 44.5617 161.011Z" fill="#231F20"/>
<path d="M39.2734 164.687C38.9693 163.817 38.4401 163.05 37.7434 162.469C37.2737 161.947 36.7293 161.502 36.1291 161.15C35.8259 160.973 35.4885 160.869 35.1413 160.843C34.7941 160.818 34.4458 160.873 34.1218 161.005C33.8481 161.151 33.6076 161.357 33.4164 161.607C33.2252 161.856 33.0877 162.146 33.0129 162.455C32.8723 163.074 32.8723 163.72 33.0129 164.339C33.2568 165.701 33.8449 166.972 34.7175 168.024C35.5901 169.075 36.7163 169.87 37.982 170.327L37.7434 170.153" fill="white"/>
<path d="M37.9255 171.067C37.8608 171.082 37.7937 171.082 37.729 171.067C36.35 170.557 35.1236 169.684 34.1709 168.535C33.2183 167.385 32.5723 165.999 32.2967 164.513C32.1324 163.793 32.1324 163.044 32.2967 162.324C32.396 161.915 32.5806 161.533 32.8375 161.205C33.0945 160.877 33.4178 160.61 33.7846 160.425C34.2018 160.242 34.6538 160.16 35.1063 160.185C35.5588 160.21 35.9997 160.342 36.3955 160.57C37.0616 160.957 37.6674 161.446 38.1922 162.02C38.9791 162.698 39.5713 163.585 39.9047 164.586C39.928 164.678 39.9333 164.774 39.9204 164.869C39.9076 164.963 39.8768 165.054 39.8298 165.136C39.7829 165.219 39.7207 165.29 39.6468 165.348C39.573 165.405 39.4889 165.447 39.3994 165.47C39.2171 165.514 39.0254 165.483 38.8654 165.382C38.7053 165.282 38.5896 165.121 38.5432 164.934C38.2569 164.185 37.77 163.536 37.1395 163.063C36.7308 162.594 36.2579 162.188 35.7358 161.86C35.5255 161.733 35.2907 161.656 35.048 161.633C34.8054 161.61 34.5609 161.643 34.3321 161.73C34.1523 161.835 33.9949 161.976 33.8695 162.145C33.744 162.315 33.6531 162.509 33.6021 162.716C33.4951 163.227 33.4951 163.756 33.6021 164.267C33.8154 165.402 34.2885 166.468 34.982 167.376C35.6755 168.284 36.5692 169.008 37.5886 169.486C37.7482 169.478 37.906 169.524 38.0378 169.617L38.2063 169.733C38.3481 169.835 38.4519 169.984 38.5004 170.155C38.5489 170.327 38.5392 170.51 38.473 170.675C38.4202 170.782 38.3426 170.874 38.2471 170.942C38.1515 171.01 38.041 171.053 37.9255 171.067Z" fill="#231F20"/>
<path d="M50.1232 185.406C50.1232 185.406 31.2996 177.547 25.3901 184.405C19.4805 191.263 15.3256 217.824 17.8382 252.258C38.7533 259.159 63.8092 244.371 63.8092 244.371C63.8092 244.371 59.2332 189.639 50.1232 185.406Z" fill="#2945FF"/>
<path d="M89.553 207.893C89.553 207.893 95.3924 194.598 96.4872 195.917C97.5821 197.236 95.5748 203.413 95.5748 203.413C95.5748 203.413 101.386 195.163 102.664 195.816C103.941 196.468 103.028 203.065 100.109 207.893C97.1891 212.721 93.5816 218.447 93.5816 218.447L89.553 207.893Z" fill="white"/>
<path d="M93.6387 219.172H93.5545C93.4277 219.16 93.3067 219.111 93.2051 219.032C93.1035 218.952 93.0252 218.846 92.979 218.723L88.9644 208.168C88.9264 208.082 88.9067 207.988 88.9067 207.893C88.9067 207.798 88.9264 207.704 88.9644 207.617C91.4068 202.035 94.5792 195.351 96.1934 195.12C96.3539 195.095 96.5177 195.113 96.6698 195.172C96.8218 195.23 96.9573 195.327 97.0637 195.453C97.7375 196.279 97.5971 198.208 97.2322 200.02C101.556 194.438 102.622 194.989 103.015 195.192C103.214 195.308 103.387 195.466 103.523 195.656C103.658 195.846 103.753 196.063 103.801 196.294C104.419 198.498 103.24 204.094 100.755 208.284C97.8779 213.156 94.2423 218.81 94.2002 218.868C94.1348 218.959 94.0503 219.034 93.9531 219.086C93.8559 219.139 93.7484 219.168 93.6387 219.172ZM90.3821 207.922L93.7931 216.882C95.0003 214.968 97.4848 211.082 99.5763 207.516C102.229 203.036 102.931 197.599 102.384 196.555C101.387 197.019 98.4393 200.585 96.1373 203.804C96.0388 203.943 95.8958 204.041 95.7338 204.081C95.5718 204.121 95.4014 204.1 95.253 204.022C95.1056 203.941 94.99 203.811 94.9259 203.652C94.8619 203.493 94.8534 203.316 94.902 203.152C95.6403 201.114 96.0436 198.962 96.0952 196.787C93.8425 200.306 91.9112 204.034 90.326 207.922H90.3821Z" fill="#231F20"/>
<path d="M42.1363 195.786C42.1363 195.786 54.6854 234.077 67.7678 232.946C80.8503 231.815 96.4454 217.81 96.4454 217.81L88.9075 206.051C88.9075 206.051 69.7751 218.447 65.9571 213.678C61.0132 206.642 57.0182 198.946 54.0818 190.799C51.5271 183.593 40.2975 183.535 42.1363 195.786Z" fill="#2945FF"/>
<path d="M69.5923 202.209C70.4716 200.285 71.6367 198.514 73.0454 196.961C74.8561 195.279 80.3165 192.017 79.5866 194.96C78.8567 197.903 74.6175 200.759 74.6175 200.759C74.6175 200.759 73.677 202.63 71.9926 205.268" fill="white"/>
<path d="M71.9935 205.95C71.857 205.949 71.7243 205.903 71.6145 205.819C71.5369 205.768 71.47 205.701 71.4178 205.623C71.3657 205.544 71.3294 205.455 71.3111 205.362C71.2928 205.269 71.2928 205.173 71.3111 205.079C71.3295 204.986 71.3658 204.897 71.418 204.819C73.0463 202.253 73.9868 200.397 74.0008 200.382C74.057 200.272 74.139 200.177 74.2394 200.107C74.2394 200.107 78.254 197.41 78.8997 194.772C78.9276 194.657 78.9276 194.538 78.8997 194.424C78.3102 194.235 75.0817 196.004 73.4674 197.497C72.1307 198.992 71.0231 200.688 70.1828 202.528C70.1475 202.621 70.0942 202.705 70.0261 202.775C69.9579 202.846 69.8765 202.901 69.7868 202.938C69.6972 202.974 69.6012 202.991 69.5048 202.988C69.4085 202.984 69.3139 202.96 69.2269 202.917C69.1399 202.874 69.0625 202.813 68.9993 202.738C68.9361 202.663 68.8887 202.575 68.8598 202.48C68.831 202.385 68.8214 202.285 68.8316 202.186C68.8419 202.087 68.8718 201.991 68.9194 201.905C69.8497 199.888 71.0866 198.038 72.5831 196.424C73.6218 195.453 78.0575 192.205 79.7419 193.264C80.0648 193.467 80.5561 193.974 80.2613 195.134C79.5595 198.034 75.966 200.658 75.1518 201.223C74.8851 201.731 74.0008 203.413 72.5831 205.573C72.5238 205.682 72.4386 205.774 72.3354 205.84C72.2323 205.906 72.1147 205.944 71.9935 205.95Z" fill="#231F20"/>
<path d="M68.0073 232.772C65.2446 232.777 62.5342 231.994 60.1747 230.51C51.9911 225.436 40.7054 199.281 40.2282 198.164C40.1835 198.077 40.1566 197.981 40.1493 197.882C40.1419 197.783 40.1542 197.684 40.1854 197.591C40.2165 197.497 40.2659 197.411 40.3305 197.338C40.395 197.265 40.4734 197.206 40.5608 197.165C40.6481 197.125 40.7426 197.103 40.8384 197.101C40.9342 197.1 41.0293 197.119 41.1178 197.157C41.2063 197.195 41.2864 197.251 41.3531 197.322C41.4197 197.393 41.4716 197.477 41.5055 197.57C41.6178 197.845 53.1001 224.421 60.9046 229.263C68.7092 234.106 78.0016 229.394 86.7326 223.464C86.8086 223.41 86.8944 223.373 86.9847 223.354C87.0751 223.335 87.1682 223.335 87.2585 223.354C87.3489 223.372 87.4346 223.41 87.5107 223.464C87.5867 223.518 87.6515 223.587 87.7012 223.667C87.8027 223.827 87.8391 224.022 87.8023 224.209C87.7655 224.396 87.6585 224.561 87.5047 224.667C81.3565 228.901 74.5345 232.772 68.0073 232.772Z" fill="#231F20"/>
<path d="M110.483 351.282V362.446C110.483 362.446 135.23 360.213 134.669 359.068C134.107 357.922 121.698 353.065 121.698 353.065L110.483 351.282Z" fill="#2945FF"/>
<path d="M110.483 363.098C110.308 363.093 110.139 363.027 110.006 362.91C109.935 362.84 109.879 362.757 109.841 362.665C109.802 362.573 109.782 362.474 109.781 362.373V351.282C109.782 351.178 109.804 351.076 109.845 350.981C109.886 350.886 109.945 350.801 110.02 350.731C110.098 350.666 110.188 350.618 110.284 350.591C110.381 350.564 110.482 350.557 110.581 350.572L121.811 352.282C121.857 352.269 121.905 352.269 121.951 352.282C127.748 354.544 134.753 357.487 135.314 358.633C135.367 358.754 135.394 358.885 135.394 359.017C135.394 359.149 135.367 359.28 135.314 359.401C135.09 359.807 134.5 360.851 110.567 363.055L110.483 363.098ZM111.185 352.123V361.576C120.393 360.735 130.317 359.59 133.349 358.85C131.454 357.792 126.331 355.574 121.516 353.703L111.185 352.123Z" fill="#231F20"/>
<path d="M110.413 341.51V351.282L121.628 352.993L122.035 341.51H110.413Z" fill="white"/>
<path d="M121.628 353.747H121.516L110.286 352.021C110.119 352 109.964 351.916 109.853 351.785C109.742 351.654 109.681 351.485 109.682 351.311V341.539C109.682 341.347 109.756 341.162 109.888 341.026C110.02 340.89 110.198 340.814 110.384 340.814H122.007C122.101 340.814 122.195 340.834 122.282 340.872C122.369 340.91 122.448 340.966 122.513 341.037C122.579 341.107 122.63 341.19 122.664 341.282C122.697 341.373 122.712 341.47 122.709 341.568L122.302 353.051C122.296 353.153 122.271 353.253 122.228 353.345C122.184 353.437 122.124 353.52 122.049 353.587C121.927 353.683 121.781 353.739 121.628 353.747ZM111.114 350.688L120.94 352.137L121.291 342.206H111.1L111.114 350.688Z" fill="#231F20"/>
<path d="M143.525 341.843L144.775 354.877L156.06 354.457L155.471 341.843H143.525Z" fill="white"/>
<path d="M144.776 355.603C144.601 355.603 144.433 355.537 144.303 355.416C144.173 355.296 144.091 355.129 144.074 354.95L142.825 341.901C142.816 341.799 142.828 341.697 142.859 341.599C142.891 341.502 142.941 341.413 143.007 341.336C143.074 341.263 143.154 341.205 143.244 341.165C143.333 341.125 143.429 341.104 143.526 341.104H155.472C155.653 341.104 155.828 341.176 155.959 341.306C156.089 341.436 156.167 341.613 156.174 341.8L156.763 354.399C156.768 354.591 156.703 354.777 156.581 354.921C156.519 354.993 156.443 355.05 156.359 355.09C156.274 355.13 156.183 355.151 156.09 355.153L144.86 355.588L144.776 355.603ZM144.299 342.554L145.407 354.153L155.402 353.747L154.868 342.568L144.299 342.554Z" fill="#231F20"/>
<path d="M154.208 237.179L156.581 344.018H141.856L135.413 269.989L123.201 345.222L109.08 344.424L111.985 246.56L154.208 237.179Z" fill="#231F20"/>
<path d="M123.2 345.947L109.079 345.149C108.988 345.145 108.9 345.123 108.818 345.084C108.736 345.045 108.662 344.989 108.6 344.921C108.539 344.852 108.492 344.772 108.461 344.684C108.429 344.596 108.415 344.503 108.419 344.41L111.325 246.531C111.33 246.371 111.387 246.217 111.486 246.094C111.585 245.971 111.721 245.885 111.872 245.85L153.997 236.469C154.1 236.449 154.205 236.452 154.307 236.477C154.408 236.502 154.504 236.548 154.587 236.614C154.67 236.678 154.737 236.761 154.784 236.857C154.83 236.952 154.854 237.058 154.853 237.165L157.226 344.004C157.225 344.197 157.155 344.383 157.029 344.526C156.892 344.66 156.712 344.737 156.524 344.743H141.869C141.692 344.744 141.522 344.675 141.392 344.552C141.262 344.428 141.181 344.258 141.167 344.076L135.202 275.673L123.888 345.352C123.861 345.52 123.777 345.672 123.651 345.781C123.524 345.89 123.365 345.949 123.2 345.947ZM109.795 343.743L122.61 344.468L134.724 269.873C134.751 269.704 134.834 269.55 134.96 269.439C135.086 269.327 135.246 269.266 135.412 269.264C135.583 269.274 135.745 269.347 135.869 269.469C135.992 269.591 136.069 269.755 136.086 269.931L142.473 343.293H155.836L153.492 238.078L112.644 247.154L109.795 343.743Z" fill="#231F20"/>
<path d="M178.001 199.948C180.491 198.122 183.256 196.735 186.185 195.844C188.88 195.033 191.926 192.162 192.263 189.088C192.284 188.597 192.217 188.105 192.066 187.638C191.622 186.124 190.959 184.687 190.101 183.376C190.019 183.233 189.903 183.113 189.764 183.028C189.469 182.897 189.146 183.115 188.908 183.303L184.556 186.797C184.586 185.827 184.525 184.856 184.374 183.898C184.36 183.559 184.23 183.235 184.009 182.984C183.836 182.861 183.63 182.795 183.419 182.795C183.209 182.795 183.003 182.861 182.83 182.984C182.483 183.226 182.191 183.543 181.974 183.912C180.317 186.334 179.166 189.48 177.412 191.727C177.061 192.162 173.579 194.96 173.818 195.221L178.001 199.948Z" fill="white"/>
<path d="M178.001 200.672C177.902 200.671 177.805 200.649 177.715 200.606C177.626 200.564 177.546 200.502 177.481 200.426L173.27 195.584C173.153 195.426 173.093 195.231 173.102 195.033C173.102 194.525 173.509 194.134 175.769 192.133C176.218 191.741 176.765 191.263 176.878 191.133C177.847 189.828 178.685 188.424 179.376 186.942C179.978 185.712 180.653 184.52 181.398 183.376C181.672 182.921 182.041 182.534 182.478 182.245C182.781 182.049 183.136 181.954 183.493 181.975C183.85 181.996 184.192 182.131 184.472 182.361C184.813 182.728 185.026 183.203 185.075 183.709C185.145 184.217 185.216 184.753 185.244 185.275L188.472 182.68C188.677 182.476 188.931 182.334 189.208 182.267C189.485 182.201 189.774 182.213 190.044 182.303C190.307 182.439 190.526 182.65 190.676 182.912C191.587 184.277 192.279 185.785 192.725 187.377C192.919 187.945 193 188.546 192.964 189.146C192.585 192.582 189.258 195.656 186.381 196.526C183.539 197.401 180.851 198.743 178.422 200.499C178.305 200.605 178.156 200.666 178.001 200.672ZM174.702 195.047L178.113 198.976C180.534 197.294 183.189 196.003 185.988 195.149C188.444 194.409 191.265 191.756 191.602 189.001C191.622 188.593 191.565 188.184 191.434 187.798C191.015 186.352 190.381 184.982 189.553 183.738L189.385 183.869L185.047 187.348C184.936 187.422 184.807 187.461 184.675 187.461C184.543 187.461 184.414 187.422 184.303 187.348C184.183 187.288 184.082 187.192 184.012 187.074C183.943 186.956 183.907 186.82 183.91 186.682C183.938 185.755 183.882 184.828 183.742 183.912C183.727 183.738 183.674 183.57 183.587 183.419C183.532 183.393 183.472 183.38 183.412 183.38C183.351 183.38 183.291 183.393 183.236 183.419C182.982 183.616 182.767 183.862 182.605 184.144C181.892 185.235 181.249 186.373 180.682 187.551C179.933 189.124 179.035 190.615 178.001 192.002C177.598 192.415 177.171 192.803 176.723 193.162C176.106 193.742 175.165 194.569 174.702 195.047Z" fill="#231F20"/>
<path d="M138.304 173.43C138.304 173.43 156.046 199.368 158.405 199.382C160.763 199.397 176.372 190.451 176.372 190.451L179.179 201.006C179.179 201.006 163.823 216.809 156.061 214.562C148.298 212.315 123.621 196.526 123.621 196.526L138.304 173.43Z" fill="#2945FF"/>
<path d="M124.997 165.267C123.804 165.427 122.597 165.427 121.193 165.543C119.789 165.659 118.175 165.456 117.923 164.093C117.67 162.73 118.863 161.802 118.386 160.758C118.237 160.479 118.037 160.233 117.796 160.033C115.553 157.807 114.205 154.789 114.02 151.581C113.884 148.408 114.917 145.299 116.912 142.882C116.575 143.07 116.14 142.766 116.028 142.389C115.961 141.992 116.041 141.583 116.252 141.244C117.014 139.984 118.11 138.978 119.41 138.344C123.493 136.201 128.108 135.387 132.647 136.01C136.128 136.43 140.564 138.46 140.845 142.693C140.925 143.449 140.749 144.21 140.347 144.847C139.945 145.484 139.343 145.958 138.641 146.187C138.641 150.769 136.957 154.205 134.697 157.917C133.189 160.459 131.09 162.572 128.591 164.064C127.482 164.707 126.26 165.116 124.997 165.267Z" fill="white"/>
<path d="M120.576 166.311C118.723 166.311 117.487 165.572 117.235 164.281C117.152 163.63 117.244 162.968 117.501 162.368C117.712 161.802 117.824 161.425 117.712 161.164C117.607 160.988 117.474 160.832 117.319 160.7C114.919 158.347 113.478 155.138 113.29 151.726C113.139 148.711 113.991 145.733 115.705 143.288C115.522 143.102 115.387 142.873 115.312 142.621C115.192 142.044 115.293 141.441 115.592 140.939C116.425 139.564 117.624 138.467 119.046 137.778C123.255 135.576 128.009 134.732 132.689 135.357C136.901 135.865 141.224 138.344 141.505 142.722C141.576 143.551 141.403 144.383 141.01 145.11C140.617 145.837 140.022 146.424 139.301 146.796C139.189 151.508 137.237 155.104 135.244 158.395C133.677 161.038 131.496 163.235 128.899 164.789C127.706 165.474 126.395 165.912 125.039 166.079C124.323 166.166 123.636 166.21 122.85 166.239C122.33 166.239 121.783 166.239 121.207 166.355L120.576 166.311ZM116.912 142.142C117.018 142.142 117.122 142.166 117.217 142.214C117.312 142.262 117.395 142.332 117.459 142.418C117.567 142.547 117.626 142.711 117.626 142.882C117.626 143.052 117.567 143.217 117.459 143.346C115.558 145.639 114.584 148.599 114.738 151.614C114.892 154.629 116.163 157.467 118.288 159.54C118.59 159.804 118.843 160.123 119.032 160.483C119.164 160.862 119.219 161.265 119.192 161.667C119.166 162.069 119.058 162.46 118.877 162.817C118.706 163.188 118.619 163.595 118.624 164.006C118.779 164.76 120.028 164.934 121.151 164.832L122.836 164.731C123.565 164.731 124.239 164.731 124.913 164.557C126.094 164.426 127.235 164.046 128.268 163.441C130.663 162.018 132.672 159.993 134.107 157.554C136.564 153.509 137.981 150.305 137.953 146.216C137.95 146.051 138.003 145.889 138.103 145.759C138.203 145.629 138.344 145.54 138.501 145.506C139.039 145.309 139.496 144.929 139.797 144.429C140.098 143.928 140.225 143.336 140.157 142.751C139.89 138.706 135.272 137.068 132.577 136.749C128.184 136.143 123.715 136.926 119.761 138.996C118.602 139.556 117.627 140.453 116.954 141.577C116.772 141.925 116.772 142.099 116.8 142.171L116.912 142.142Z" fill="#231F20"/>
<path d="M140.901 152.465C140.901 152.465 144.859 157.148 144.326 158.265C143.792 159.381 141.448 159.019 141.448 159.019" fill="white"/>
<path d="M142.333 159.859C141.999 159.859 141.666 159.835 141.336 159.787C141.153 159.752 140.991 159.644 140.883 159.487C140.776 159.33 140.732 159.136 140.76 158.946C140.791 158.758 140.893 158.591 141.042 158.479C141.192 158.368 141.378 158.322 141.561 158.352C142.304 158.468 143.498 158.424 143.694 158.004C142.883 156.127 141.757 154.414 140.367 152.944C140.245 152.798 140.183 152.607 140.196 152.414C140.209 152.221 140.296 152.041 140.438 151.914C140.579 151.787 140.764 151.724 140.95 151.737C141.137 151.751 141.311 151.841 141.434 151.987C143.371 154.292 145.561 157.308 144.957 158.627C144.669 159.058 144.272 159.401 143.81 159.618C143.348 159.835 142.837 159.918 142.333 159.859Z" fill="#231F20"/>
<path d="M139.286 145.781C141.603 147.231 141.504 151.073 141.813 153.495C142.253 156.897 142.609 160.314 142.88 163.745C143.062 165.92 137.686 166.645 136.662 166.195L138.641 174.604L126.737 171.632L126.246 164.528C127.486 164.244 128.626 163.612 129.54 162.701C130.454 161.79 131.107 160.636 131.426 159.366C132.942 154.683 131.426 145.158 131.426 145.158C131.426 145.158 137.041 144.346 139.286 145.781Z" fill="white"/>
<path d="M138.641 175.329H138.557L126.639 172.357C126.495 172.321 126.366 172.238 126.27 172.121C126.174 172.003 126.117 171.858 126.106 171.705L125.629 164.586C125.616 164.403 125.672 164.221 125.784 164.079C125.896 163.936 126.056 163.843 126.232 163.818C127.342 163.553 128.359 162.977 129.171 162.154C129.984 161.33 130.56 160.29 130.836 159.149C132.24 154.684 130.738 145.39 130.724 145.289C130.695 145.095 130.741 144.897 130.85 144.738C130.968 144.582 131.139 144.479 131.328 144.448C131.931 144.361 137.321 143.65 139.75 145.187C142.178 146.724 142.248 149.667 142.459 152.117C142.459 152.581 142.543 153.016 142.599 153.422C143.02 156.815 143.385 160.28 143.666 163.702C143.687 164.119 143.594 164.535 143.398 164.901C143.202 165.268 142.911 165.57 142.557 165.775C141.068 166.645 139.383 167.095 137.672 167.08L139.413 174.445C139.439 174.552 139.44 174.664 139.418 174.772C139.395 174.88 139.349 174.982 139.282 175.068C139.216 175.155 139.131 175.225 139.035 175.273C138.938 175.32 138.832 175.345 138.725 175.344L138.641 175.329ZM127.411 171.052L137.7 173.618L135.988 166.369C135.958 166.237 135.965 166.1 136.007 165.972C136.049 165.843 136.125 165.73 136.227 165.644C136.329 165.557 136.454 165.503 136.586 165.487C136.718 165.472 136.852 165.496 136.971 165.557C138.608 165.748 140.263 165.403 141.701 164.571C142.052 164.325 142.22 164.064 142.206 163.832C141.926 160.425 141.561 156.989 141.125 153.611C141.125 153.19 141.041 152.726 140.999 152.248C140.803 150.117 140.564 147.463 138.936 146.448C137.532 145.521 134.037 145.637 132.17 145.839C132.521 148.217 133.419 155.568 132.1 159.642C131.756 160.922 131.111 162.093 130.222 163.052C129.333 164.011 128.227 164.727 127.004 165.137L127.411 171.052Z" fill="#231F20"/>
<path d="M142.459 161.222C142.17 161.488 141.828 161.687 141.458 161.803C141.088 161.919 140.698 161.951 140.314 161.896C139.931 161.84 139.564 161.7 139.238 161.483C138.913 161.267 138.637 160.98 138.43 160.642" fill="white"/>
<path d="M140.55 162.672C140.415 162.686 140.278 162.686 140.143 162.672C139.674 162.593 139.227 162.412 138.833 162.139C138.438 161.866 138.104 161.509 137.855 161.092C137.801 161.014 137.763 160.926 137.742 160.832C137.721 160.739 137.719 160.642 137.734 160.548C137.75 160.454 137.784 160.364 137.833 160.283C137.883 160.202 137.948 160.132 138.023 160.077C138.179 159.97 138.368 159.93 138.552 159.965C138.735 160 138.898 160.108 139.006 160.265C139.149 160.513 139.339 160.727 139.567 160.895C139.794 161.062 140.052 161.178 140.325 161.237C140.938 161.278 141.544 161.081 142.024 160.686C142.169 160.567 142.354 160.513 142.538 160.535C142.722 160.556 142.891 160.652 143.007 160.802C143.123 160.95 143.178 161.14 143.159 161.33C143.141 161.52 143.051 161.695 142.908 161.817C142.224 162.342 141.402 162.64 140.55 162.672Z" fill="#231F20"/>
<path d="M134.908 155.51C134.701 154.67 134.279 153.904 133.686 153.292C133.291 152.739 132.818 152.25 132.283 151.842C132.019 151.65 131.716 151.522 131.398 151.467C131.08 151.412 130.754 151.431 130.444 151.523C130.178 151.632 129.938 151.798 129.739 152.011C129.541 152.223 129.389 152.477 129.293 152.755C129.113 153.315 129.051 153.908 129.11 154.495C129.229 155.787 129.672 157.024 130.396 158.084C131.12 159.145 132.099 159.991 133.237 160.541L133.027 160.367" fill="white"/>
<path d="M133.236 161.338C133.139 161.358 133.039 161.358 132.941 161.338C131.69 160.738 130.614 159.809 129.82 158.643C129.027 157.478 128.545 156.117 128.422 154.698C128.335 154.003 128.412 153.297 128.646 152.639C128.775 152.264 128.981 151.922 129.25 151.636C129.519 151.351 129.844 151.129 130.204 150.986C130.615 150.852 131.051 150.818 131.477 150.886C131.903 150.954 132.308 151.122 132.661 151.378C133.247 151.778 133.773 152.267 134.219 152.828C134.907 153.533 135.392 154.421 135.623 155.394C135.636 155.488 135.632 155.584 135.61 155.677C135.588 155.77 135.549 155.857 135.494 155.933C135.439 156.01 135.37 156.075 135.291 156.124C135.212 156.174 135.124 156.206 135.033 156.22C134.943 156.237 134.85 156.234 134.76 156.213C134.671 156.192 134.586 156.153 134.511 156.097C134.437 156.042 134.374 155.972 134.326 155.891C134.278 155.81 134.246 155.72 134.233 155.626C134.041 154.918 133.668 154.277 133.152 153.77C132.805 153.291 132.388 152.871 131.917 152.523C131.741 152.391 131.539 152.3 131.326 152.257C131.112 152.214 130.892 152.221 130.682 152.277C130.349 152.44 130.092 152.732 129.966 153.089C129.814 153.555 129.766 154.05 129.825 154.538C129.929 155.611 130.278 156.642 130.845 157.547C131.411 158.453 132.178 159.205 133.082 159.743C133.231 159.749 133.374 159.805 133.489 159.903L133.699 160.077C133.827 160.192 133.911 160.349 133.936 160.522C133.962 160.694 133.928 160.87 133.84 161.019C133.774 161.122 133.685 161.205 133.579 161.261C133.473 161.317 133.355 161.343 133.236 161.338Z" fill="#231F20"/>
<path d="M139.814 151.146C140.065 151.095 140.166 150.513 140.04 149.845C139.913 149.177 139.607 148.676 139.356 148.727C139.105 148.778 139.004 149.36 139.13 150.028C139.257 150.696 139.563 151.197 139.814 151.146Z" fill="#231F20"/>
<path d="M124.744 174.053L125.193 170.153L139.763 169.066L142.094 174.43C136.412 176.165 130.35 176.033 124.744 174.053Z" fill="#231F20"/>
<path d="M134.149 176.359C130.875 176.358 127.623 175.81 124.519 174.735C124.365 174.685 124.233 174.581 124.145 174.44C124.058 174.3 124.021 174.132 124.042 173.966L124.505 170.066C124.524 169.899 124.599 169.744 124.717 169.627C124.835 169.511 124.988 169.441 125.151 169.428L139.721 168.341C139.864 168.33 140.006 168.365 140.129 168.44C140.252 168.515 140.349 168.627 140.409 168.761L142.725 174.126C142.763 174.218 142.782 174.316 142.782 174.416C142.782 174.515 142.763 174.614 142.725 174.706C142.647 174.891 142.5 175.037 142.318 175.112C139.677 175.975 136.919 176.396 134.149 176.359ZM125.502 173.546C130.571 175.18 135.98 175.325 141.125 173.966L139.328 169.82L125.825 170.835L125.502 173.546Z" fill="#231F20"/>
<path d="M142.094 174.43C133.447 172.053 124.941 167.181 114.02 181.042C103.099 194.902 109.949 249.967 109.949 249.967C112.591 252.166 115.703 253.679 119.027 254.381C122.351 255.082 125.789 254.951 129.054 253.998L156.931 246.748C156.931 246.748 150.151 176.649 142.094 174.43Z" fill="#2945FF"/>
<path d="M144.775 354.878V364.49C144.775 364.49 169.031 361.764 168.638 359.865C168.244 357.966 156.004 354.443 156.004 354.443L144.775 354.878Z" fill="#2945FF"/>
<path d="M144.775 365.215C144.599 365.212 144.43 365.146 144.298 365.026C144.228 364.957 144.172 364.874 144.133 364.782C144.095 364.69 144.074 364.59 144.073 364.49V354.878C144.073 354.69 144.143 354.51 144.269 354.375C144.394 354.24 144.566 354.16 144.747 354.153L155.977 353.718H156.187C160.946 355.095 168.975 357.69 169.34 359.706C169.36 359.843 169.353 359.983 169.319 360.118C169.285 360.252 169.226 360.378 169.143 360.488C167.74 362.46 150.151 364.577 144.789 365.171L144.775 365.215ZM145.477 355.588V363.678C155.415 362.533 165.943 360.778 167.852 359.807C166.771 358.749 161.072 356.646 155.977 355.182L145.477 355.588Z" fill="#231F20"/>
<path d="M131.556 286.034L166.512 279.726L161.959 252.805L127.003 259.113L131.556 286.034Z" fill="white"/>
<path d="M131.538 286.749C131.373 286.749 131.213 286.69 131.085 286.582C130.957 286.473 130.869 286.323 130.837 286.155L126.289 259.232C126.259 259.044 126.3 258.853 126.401 258.695C126.511 258.535 126.677 258.426 126.864 258.391L161.816 252.084C161.907 252.067 162.001 252.069 162.091 252.09C162.182 252.111 162.267 252.15 162.343 252.206C162.419 252.261 162.483 252.331 162.532 252.412C162.582 252.493 162.615 252.584 162.63 252.678L167.178 279.602C167.198 279.694 167.199 279.79 167.179 279.883C167.16 279.975 167.121 280.063 167.066 280.138C167.015 280.217 166.949 280.283 166.871 280.333C166.794 280.383 166.707 280.415 166.617 280.428L131.651 286.735L131.538 286.749ZM127.791 259.695L132.1 285.184L165.676 279.138L161.409 253.708L127.791 259.695Z" fill="#231F20"/>
<path d="M146.894 243.863C146.894 243.863 147.133 248.213 148.298 249.199C149.463 250.185 153.576 252.823 153.281 253.679C152.986 254.534 150.095 255.129 150.095 255.129C150.095 255.129 152.65 260.348 150.586 261.914C148.523 263.48 143.02 265.074 141.967 263.494C140.915 261.914 138.556 245.444 138.556 245.444" fill="white"/>
<path d="M143.821 264.871C143.54 264.895 143.259 264.895 142.978 264.871C142.653 264.837 142.339 264.729 142.06 264.553C141.78 264.377 141.543 264.139 141.364 263.856C140.269 262.233 138.234 248.285 137.841 245.501C137.813 245.309 137.86 245.113 137.972 244.957C138.084 244.801 138.251 244.697 138.437 244.668C138.624 244.639 138.813 244.688 138.965 244.803C139.116 244.919 139.217 245.092 139.245 245.284C140.382 253.302 141.926 262.131 142.529 263.03C142.706 263.211 142.941 263.319 143.189 263.335C145.674 263.396 148.12 262.684 150.207 261.29C151.387 260.377 150.207 256.941 149.506 255.491C149.46 255.389 149.437 255.277 149.437 255.165C149.437 255.052 149.46 254.941 149.506 254.838C149.553 254.739 149.622 254.651 149.707 254.584C149.792 254.516 149.891 254.469 149.997 254.447C150.893 254.285 151.759 253.982 152.566 253.548C151.53 252.523 150.407 251.596 149.211 250.779C148.677 250.373 148.2 250.04 147.905 249.793C146.502 248.677 146.277 244.719 146.235 243.994C146.227 243.802 146.292 243.615 146.415 243.472C146.538 243.328 146.71 243.24 146.895 243.225C146.987 243.217 147.081 243.229 147.169 243.259C147.257 243.29 147.338 243.338 147.408 243.402C147.477 243.465 147.534 243.543 147.573 243.63C147.613 243.717 147.635 243.811 147.639 243.907C147.737 245.849 148.214 248.256 148.79 248.72C149.056 248.952 149.506 249.271 150.025 249.648C153.057 251.881 154.348 252.954 153.983 253.998C153.703 254.838 152.313 255.447 151.176 255.708C151.878 257.405 153.071 261.058 151.092 262.581C148.906 263.993 146.398 264.784 143.821 264.871Z" fill="#231F20"/>
<path d="M135.96 182.665L148.874 245.56L137.855 249.909C137.855 249.909 120.814 193.713 119.242 189.465" fill="#2945FF"/>
<path d="M137.854 250.692C137.757 250.712 137.657 250.712 137.559 250.692C137.472 250.651 137.394 250.59 137.331 250.515C137.268 250.44 137.222 250.352 137.194 250.257C137.026 249.692 120.139 194.032 118.595 189.842C118.55 189.751 118.525 189.652 118.519 189.55C118.514 189.448 118.53 189.346 118.566 189.251C118.602 189.155 118.656 189.069 118.726 188.997C118.797 188.925 118.881 188.87 118.973 188.834C119.066 188.798 119.164 188.782 119.263 188.789C119.362 188.795 119.458 188.823 119.546 188.87C119.633 188.917 119.71 188.983 119.771 189.063C119.833 189.143 119.877 189.236 119.901 189.335C121.375 193.351 136.212 242.167 138.303 249.083L148.129 245.212L135.327 182.868C135.307 182.775 135.304 182.678 135.32 182.584C135.335 182.49 135.369 182.4 135.419 182.319C135.468 182.238 135.533 182.168 135.609 182.113C135.685 182.058 135.77 182.019 135.861 181.999C136.044 181.967 136.232 182.008 136.388 182.112C136.544 182.217 136.657 182.378 136.703 182.564L149.617 245.444C149.652 245.612 149.627 245.788 149.547 245.94C149.467 246.091 149.338 246.208 149.182 246.27L138.163 250.619C138.071 250.679 137.962 250.705 137.854 250.692Z" fill="#231F20"/>
<path d="M145.94 183.289C145.94 183.289 153.029 206.486 154.208 223.058L145.94 183.289Z" fill="#68E1FD"/>
<path d="M154.208 223.783C154.031 223.783 153.861 223.715 153.73 223.591C153.6 223.468 153.52 223.298 153.506 223.116C152.341 206.762 145.336 183.738 145.266 183.506C145.228 183.329 145.256 183.144 145.343 182.987C145.431 182.83 145.573 182.712 145.74 182.657C145.907 182.603 146.089 182.615 146.248 182.692C146.407 182.768 146.533 182.904 146.6 183.071C146.67 183.303 153.731 206.501 154.91 223C154.917 223.095 154.907 223.191 154.878 223.282C154.85 223.373 154.805 223.457 154.745 223.53C154.685 223.603 154.611 223.663 154.529 223.706C154.446 223.749 154.356 223.776 154.264 223.783H154.208Z" fill="#231F20"/>
<path d="M395.097 317.501C395.097 317.501 400.122 291.838 387.475 274.15C387.475 274.15 380.625 276.862 382.477 292.926C383.745 302.979 386.886 312.683 391.728 321.502L395.097 317.501Z" fill="white"/>
<path d="M391.727 322.184C391.613 322.171 391.504 322.132 391.406 322.069C391.309 322.006 391.227 321.921 391.166 321.821C386.284 312.902 383.106 303.097 381.803 292.94C379.922 276.485 386.969 273.498 387.278 273.382C387.425 273.326 387.586 273.319 387.738 273.364C387.889 273.408 388.023 273.501 388.12 273.628C400.753 291.389 395.91 317.312 395.868 317.573C395.841 317.702 395.783 317.821 395.7 317.921L392.331 321.923C392.256 322.011 392.163 322.08 392.058 322.125C391.954 322.171 391.841 322.19 391.727 322.184ZM387.264 275.064C385.86 276.05 381.733 280.095 383.193 292.766C384.433 302.366 387.369 311.649 391.854 320.154L394.423 317.095C394.83 314.746 398.549 291.403 387.264 275.064Z" fill="#231F20"/>
<path d="M390.029 313.818C390.029 313.818 384.161 272.121 363.022 257.274C363.732 267.533 365.86 277.634 369.338 287.271C374.883 301.697 385.018 315.108 385.018 315.108L390.029 313.818Z" fill="white"/>
<path d="M385.018 315.804C384.907 315.805 384.797 315.78 384.697 315.729C384.597 315.679 384.51 315.605 384.442 315.514C384.344 315.384 374.181 301.857 368.665 287.489C365.179 277.771 363.034 267.595 362.292 257.26C362.287 257.119 362.32 256.98 362.387 256.857C362.454 256.734 362.552 256.633 362.671 256.564C362.784 256.489 362.916 256.449 363.05 256.449C363.184 256.449 363.316 256.489 363.429 256.564C374.518 264.378 381.354 279.515 385.13 290.838C387.615 298.28 389.493 305.923 390.745 313.687C390.767 313.871 390.724 314.056 390.623 314.208C390.522 314.36 390.371 314.469 390.197 314.514L385.186 315.761L385.018 315.804ZM363.864 258.753C364.675 268.391 366.743 277.872 370.012 286.938C374.02 296.637 379.158 305.795 385.313 314.209L389.201 313.253C388.415 307.946 382.07 272.932 363.864 258.753Z" fill="#231F20"/>
<path d="M399.181 317.501C399.181 317.501 414.004 277.499 408.081 249.358C408.081 249.358 400.304 256.709 395.096 273.034C389.889 289.359 392.289 317.53 392.289 317.53L399.181 317.501Z" fill="white"/>
<path d="M399.181 318.168H392.274C392.091 318.172 391.914 318.104 391.778 317.977C391.642 317.85 391.559 317.675 391.544 317.486C391.544 317.211 389.228 288.982 394.352 272.701C399.475 256.419 407.21 249.01 407.532 248.706C407.624 248.615 407.738 248.552 407.862 248.524C407.985 248.496 408.114 248.503 408.234 248.546C408.357 248.583 408.468 248.654 408.554 248.751C408.641 248.848 408.7 248.968 408.726 249.097C414.635 277.152 399.952 317.24 399.798 317.689C399.752 317.823 399.668 317.939 399.559 318.024C399.449 318.109 399.317 318.159 399.181 318.168ZM392.934 316.718H398.675C400.289 312.18 412.403 276.717 407.645 250.837C405.441 253.331 399.812 260.58 395.784 273.208C391.137 287.764 392.625 312.281 392.934 316.674V316.718Z" fill="#231F20"/>
<path d="M407.688 312.934C408.277 312.934 423.493 288.286 423.886 266.814C417.027 271.779 411.463 278.418 407.688 286.141C401.75 298.653 400.767 315.05 400.767 315.05L407.688 312.934Z" fill="white"/>
<path d="M400.767 315.804C400.668 315.804 400.569 315.784 400.478 315.743C400.386 315.702 400.304 315.643 400.236 315.568C400.167 315.494 400.114 315.405 400.08 315.309C400.046 315.212 400.032 315.109 400.037 315.007C400.037 314.847 401.104 298.305 407.056 285.807C410.876 277.954 416.53 271.207 423.507 266.176C423.619 266.106 423.748 266.069 423.879 266.069C424.01 266.069 424.139 266.106 424.251 266.176C424.367 266.242 424.463 266.338 424.53 266.456C424.596 266.573 424.631 266.707 424.63 266.843C424.251 286.836 410.425 312.18 407.898 313.63L400.978 315.746L400.767 315.804ZM423.114 268.293C416.912 273.107 411.857 279.32 408.333 286.46C403.392 296.884 401.904 310.193 401.567 314.006L407.337 312.238C408.684 310.599 422.103 288.315 423.114 268.293Z" fill="#231F20"/>
<path d="M405.189 338.842H385.018L377.199 308.918H412.993L405.189 338.842Z" fill="#2945FF"/>
<path d="M405.259 339.567H385.018C384.864 339.569 384.713 339.517 384.591 339.419C384.469 339.322 384.382 339.185 384.344 339.031L376.526 309.106C376.497 308.999 376.494 308.887 376.516 308.779C376.538 308.67 376.584 308.569 376.652 308.483C376.716 308.394 376.799 308.323 376.893 308.272C376.988 308.222 377.093 308.195 377.199 308.193H412.994C413.101 308.194 413.207 308.22 413.304 308.27C413.4 308.319 413.485 308.39 413.551 308.478C413.617 308.566 413.663 308.668 413.686 308.777C413.708 308.885 413.707 308.998 413.682 309.106L405.863 339.031C405.827 339.173 405.75 339.3 405.642 339.396C405.534 339.492 405.401 339.551 405.259 339.567ZM385.608 338.117H404.712L412.152 309.642H378.112L385.608 338.117Z" fill="#231F20"/>
</svg>
